<?xml version="1.0" encoding="utf-8"?>
<!-- Generator: Adobe Illustrator 23.0.3, SVG Export Plug-In . SVG Version: 6.00 Build 0)  -->
<svg version="1.1" id="Layer_1" xmlns="http://www.w3.org/2000/svg" xmlns:xlink="http://www.w3.org/1999/xlink" x="0px" y="0px"
	 viewBox="0 0 1098 792" style="enable-background:new 0 0 1098 792;" xml:space="preserve">
<style type="text/css">
	.st0{fill:#7EDEDD;}
	.st1{fill:#AFDE2C;}
	.st2{fill:#A5CD39;}
	.st3{fill:#1DCDC3;}
	.st4{fill:#0A3D50;}
	.st5{fill:#017B86;}
	.st6{fill:#00A6A6;}
	.st7{fill:#7FDFDE;}
	.st8{fill:#09B8BB;}
	.st9{fill:#BBEBDD;}
	.st10{fill:#018790;}
	.st11{fill:#044257;}
	.st12{fill:#01A9AC;}
	.st13{fill:#7DDFE0;}
	.st14{fill:#25CCC5;}
	.st15{fill:#42CCCE;}
	.st16{fill:#01B6D1;}
	.st17{fill:#B4E12C;}
	.st18{fill:#004050;}
	.st19{fill:#038992;}
	.st20{fill:#DFEFE0;}
	.st21{fill:#042C38;}
	.st22{fill:#1DD1C5;}
	.st23{fill:#7DE0DD;}
</style>
<g>
	<polygon class="st0" points="323,276 164,435 164,362 251,276 	"/>
	<polygon class="st0" points="323,238 402,160 403,237 	"/>
	<polygon class="st1" points="323,238 403,237 322,319 	"/>
	<polygon class="st2" points="243,356 323,276 322,357 	"/>
	<polygon class="st2" points="399,358 471,359 319,510 245,510 	"/>
	<polygon class="st3" points="328,359 611,80 611,182 434,359 	"/>
	<polygon class="st4" points="245,510 243,356 399,358 	"/>
	<polygon class="st5" points="431,359 733,60 732,183 557,359 	"/>
	<polygon class="st0" points="798,116 361,556 474,556 626,402 591,404 799,195 	"/>
	<polygon class="st0" points="934,261 865,334 791,333 865,260 	"/>
	<polygon class="st6" points="626,402 627,554 779,403 	"/>
	<polygon class="st7" points="498,684 560,684 684,558 622,558 	"/>
	<polygon class="st3" points="546,684 593,684 545,732 500,732 	"/>
	<polygon class="st8" points="507,182 506,285 611,180 	"/>
	<polygon class="st0" points="424,223 465,181 465,224 	"/>
	<polygon class="st9" points="465,181 507,138 507,182 	"/>
	<polygon class="st10" points="635,277 635,360 593,404 636,402 636,450 527,558 471,558 554.5,472.5 441.5,472.5 	"/>
	<polygon class="st11" points="526,558 636,558 636,450 	"/>
	<polygon class="st5" points="360,692 361,556 495,556 	"/>
	<polygon class="st8" points="559,556 427,692 360.2,691.4 495,556 	"/>
	<polygon class="st1" points="498,684 497,620 561,620 	"/>
	<polygon class="st2" points="497,620 559,556 622,558 558,623 	"/>
	<polygon class="st8" points="498,684 559,684 559,622 	"/>
	<polygon class="st3" points="622,621 622,558 684,558 	"/>
	<polygon class="st12" points="664,558 684,538 684,558 	"/>
	<path class="st13" d="M684,538c0-1,0-17,0-17h17L684,538z"/>
	<path class="st14" d="M779,420c0-1,0-17,0-17h17L779,420z"/>
	<polygon class="st14" points="592,404 665,403 737,331 663,331 	"/>
	<polygon class="st11" points="678,316 678,361 635,360 	"/>
	<polygon class="st3" points="678,317 678,248 746,249 	"/>
	<polygon class="st1" points="718,196 799,195 798,116 	"/>
	<polygon class="st0" points="611,181 732,182 733,60 	"/>
	<polygon class="st1" points="634,181 635,280 733,182 	"/>
	<polygon class="st15" points="679,181 679.5,235 733,181.5 	"/>
	<polygon class="st4" points="359,470 440,477 554,359 468,359 	"/>
	<polygon class="st3" points="359,470 361,556 447,470 	"/>
	<polygon class="st16" points="360,494 361,604 249,604 	"/>
	<polygon class="st11" points="361,557 361,604 313.6,604 	"/>
	<polygon class="st10" points="360,494 361,557 296.4,557 	"/>
	<polygon class="st17" points="736.5,331 761,306.5 761,331 	"/>
	<polygon class="st5" points="168.1,514 324,357 399,358 243,514 	"/>
	<polygon class="st6" points="167.6,513.9 244,438 243,514 	"/>
	<path class="st18" d="M708,359.5l43.5,43.5H708C708,403,708.1,361,708,359.5z"/>
	<path class="st19" d="M664.5,403l43.5-43.5V403C708,403,664.5,402.4,664.5,403z"/>
	<polygon class="st20" points="164,435 244,438 243,356 	"/>
	<polygon class="st21" points="361,556 476,557 559,471 445,472 	"/>
	<path class="st11" d="M416,557c1,0,86-85,86-85v59l-26,26H416z"/>
	<polygon class="st22" points="636,506 636,545 676,505 	"/>
	<polygon class="st3" points="211,604 249,604 212.5,640.5 177,640.5 	"/>
	<path class="st23" d="M329.5,722l30.5-30.5V722C360,722,328.9,722.6,329.5,722z"/>
	<polygon class="st23" points="498,659 498,684 472,684 	"/>
	<polygon class="st1" points="611,155 637,155 611,181 	"/>
</g>
</svg>
