<svg xmlns="http://www.w3.org/2000/svg" xmlns:xlink="http://www.w3.org/1999/xlink" width="264.883" height="300.711" viewBox="0 0 264.883 300.711">
  <defs>
    <linearGradient id="linear-gradient" x1="0.922" y1="-0.341" x2="0.089" y2="1.201" gradientUnits="objectBoundingBox">
      <stop offset="0" stop-color="#fcee21"/>
      <stop offset="0.376" stop-color="#90f4e1"/>
      <stop offset="1" stop-color="#069efc"/>
    </linearGradient>
    <linearGradient id="linear-gradient-2" x1="-0.131" y1="0.091" x2="1.125" y2="0.886" gradientUnits="objectBoundingBox">
      <stop offset="0" stop-color="#fff"/>
      <stop offset="1" stop-color="#15b3ff"/>
    </linearGradient>
    <linearGradient id="linear-gradient-3" x1="0.448" y1="-0.149" x2="0.546" y2="1.103" xlink:href="#linear-gradient"/>
    <clipPath id="clip-path">
      <path id="Path_13503" data-name="Path 13503" d="M129.933,168.1V201.1s11.019,3.1,13.741,4.369,4.514,2.117,5.32,3.259a2.771,2.771,0,0,1,.621,2.007l.029,103.47L47.5,315.932l-1.32-138.1Z" transform="translate(-46.182 -168.097)" fill="none"/>
    </clipPath>
    <linearGradient id="linear-gradient-4" x1="1.025" y1="0.502" x2="0.019" y2="0.497" gradientUnits="objectBoundingBox">
      <stop offset="0.019" stop-color="#4edcc0"/>
      <stop offset="0.164" stop-color="#34d6b7"/>
      <stop offset="0.338" stop-color="#1dd2af"/>
      <stop offset="0.525" stop-color="#0ccea9"/>
      <stop offset="0.732" stop-color="#03cca6"/>
      <stop offset="1" stop-color="#00cca5"/>
    </linearGradient>
    <linearGradient id="linear-gradient-5" x1="-0.073" y1="0.5" x2="1.137" y2="0.5" xlink:href="#linear-gradient-4"/>
    <linearGradient id="linear-gradient-6" x1="-0.03" y1="0.5" x2="1.009" y2="0.508" xlink:href="#linear-gradient-4"/>
    <linearGradient id="linear-gradient-7" x1="0.543" y1="1.54" x2="0.477" y2="-0.054" xlink:href="#linear-gradient"/>
    <linearGradient id="linear-gradient-8" x1="-0.993" y1="0.003" x2="1.499" y2="0.832" xlink:href="#linear-gradient"/>
    <linearGradient id="linear-gradient-9" x1="-0.175" y1="1.064" x2="0.948" y2="-0.03" xlink:href="#linear-gradient-2"/>
    <linearGradient id="linear-gradient-10" x1="0.556" y1="-0.131" x2="0.428" y2="1.458" xlink:href="#linear-gradient-2"/>
    <linearGradient id="linear-gradient-11" x1="-5.337" y1="-33.176" x2="-2.621" y2="-17.505" xlink:href="#linear-gradient"/>
    <linearGradient id="linear-gradient-12" x1="-4.316" y1="-14.526" x2="-1.928" y2="-7.076" xlink:href="#linear-gradient"/>
    <linearGradient id="linear-gradient-13" x1="0.382" y1="-0.426" x2="0.487" y2="0.35" xlink:href="#linear-gradient"/>
    <linearGradient id="linear-gradient-14" x1="0.033" y1="-7.274" x2="0.948" y2="7.955" xlink:href="#linear-gradient"/>
    <linearGradient id="linear-gradient-15" x1="-0.572" y1="-9.766" x2="1.451" y2="9.611" xlink:href="#linear-gradient"/>
    <linearGradient id="linear-gradient-16" x1="0.061" y1="-0.411" x2="0.644" y2="0.638" xlink:href="#linear-gradient-2"/>
    <linearGradient id="linear-gradient-17" x1="-0.738" y1="-4.532" x2="4.341" y2="16.423" xlink:href="#linear-gradient-2"/>
    <linearGradient id="linear-gradient-18" x1="-1.894" y1="-5.309" x2="9.347" y2="22.417" xlink:href="#linear-gradient-2"/>
  </defs>
  <g id="_1" data-name="1" transform="translate(-46.182 -47.226)">
    <path id="Path_13468" data-name="Path 13468" d="M248.589,315.364c0,1.77-2.091,3.433-5.1,3.873L142.255,334.276l-2.543.381-1.366.2c-8.6,1.283-16.834-1.842-18.389-6.973-.618-2.008,1.627-4.04,4.989-4.538L230.1,307.725c8.59-1.284,16.822,1.841,18.39,6.973A2.162,2.162,0,0,1,248.589,315.364Z" transform="translate(-2.143 -7.568)" fill="#93a8d4" opacity="0.2"/>
    <g id="Group_3593" data-name="Group 3593" transform="translate(193.152 303.524)" opacity="0.2">
      <path id="Path_13469" data-name="Path 13469" d="M199.335,332.8a1.782,1.782,0,0,1-.276-3.542l114.014-18.038a1.782,1.782,0,1,1,.556,3.52L199.615,332.782A1.819,1.819,0,0,1,199.335,332.8Z" transform="translate(-197.555 -311.202)" fill="#93a8d4"/>
    </g>
    <g id="Group_3596" data-name="Group 3596" transform="translate(129.86 81.395)">
      <path id="Path_13470" data-name="Path 13470" d="M216.784,82.549l-69.706,9.9c-7.908,1.111-14.342,8.944-14.359,17.479l-.352,189.949c0,10.853,10.651,18.893,18.559,17.781l65.448-14.234c7.908-1.111,14.326-8.942,14.342-17.477L236.8,98.745C236.82,90.21,227,81.234,216.784,82.549Z" transform="translate(-132.367 -82.418)" fill="url(#linear-gradient)"/>
      <path id="Path_13471" data-name="Path 13471" d="M231.352,87.584a17.775,17.775,0,0,0-12.38-3.277l-69.7,9.894c-7.918,1.125-14.354,8.944-14.354,17.493l-.355,189.943a17.846,17.846,0,0,0,6.022,13.11,18.369,18.369,0,0,1-8.214-14.868l.336-189.943c.019-8.529,6.457-16.368,14.374-17.494l69.7-9.893A18.318,18.318,0,0,1,231.352,87.584Z" transform="translate(-132.367 -82.418)" opacity="0.4" fill="url(#linear-gradient-2)" style="mix-blend-mode: overlay;isolation: isolate"/>
      <path id="Path_13472" data-name="Path 13472" d="M222.772,87.068l-69.706,9.9c-7.908,1.111-14.342,8.944-14.359,17.479L138.355,304.4c-.016,8.535,6.393,14.564,14.3,13.452l69.707-9.9c7.908-1.112,14.326-8.942,14.342-17.477l.352-189.949C237.073,91.987,230.68,85.956,222.772,87.068Z" transform="translate(-132.541 -82.55)" fill="#fff"/>
      <path id="Path_13473" data-name="Path 13473" d="M237.156,100.664,236.8,290.607c-.02,8.529-6.437,16.369-14.335,17.475l-69.716,9.913a11.984,11.984,0,0,1-10.9-3.949,12.029,12.029,0,0,0,10.623,3.613l69.715-9.913c7.918-1.106,14.335-8.925,14.335-17.474l.355-189.943a14.4,14.4,0,0,0-2.784-8.787A14.231,14.231,0,0,1,237.156,100.664Z" transform="translate(-132.643 -82.684)" fill="url(#linear-gradient-3)"/>
      <path id="Path_13474" data-name="Path 13474" d="M228.363,96.595l-80.857,11.472c-4.081.573-7.393,4.623-7.4,9.027l-.345,185.868c-.009,4.4,3.29,7.525,7.371,6.952l80.857-11.471c4.081-.574,7.393-4.623,7.4-9.028l.346-185.868C235.742,99.143,232.443,96.022,228.363,96.595Z" transform="translate(-132.582 -82.829)" fill="#dce7f7"/>
      <path id="Path_13475" data-name="Path 13475" d="M235.829,103.557l-.344,185.869c0,4.407-3.315,8.459-7.4,9.029l-80.858,11.471a6.361,6.361,0,0,1-4.026-.737,6.407,6.407,0,0,0,3.064.3l80.858-11.471c4.087-.57,7.4-4.621,7.4-9.029l.344-185.869a6.9,6.9,0,0,0-3.338-6.213A6.77,6.77,0,0,1,235.829,103.557Z" transform="translate(-132.682 -82.839)" fill="#dce7f7" style="mix-blend-mode: multiply;isolation: isolate"/>
      <g id="Group_3594" data-name="Group 3594" transform="translate(35.509 11.76)">
        <path id="Path_13476" data-name="Path 13476" d="M182.989,99.917l17.951-2.523a1.642,1.642,0,0,0,1.331-1.6,1.179,1.179,0,0,0-1.326-1.248l-17.951,2.522a1.646,1.646,0,0,0-1.331,1.621A1.158,1.158,0,0,0,182.989,99.917Z" transform="translate(-169.31 -94.531)" fill="#dce7f7"/>
        <path id="Path_13477" data-name="Path 13477" d="M170.945,102.393a2.463,2.463,0,0,0,2-2.43,1.764,1.764,0,0,0-1.989-1.888,2.5,2.5,0,0,0-2.013,2.451A1.761,1.761,0,0,0,170.945,102.393Z" transform="translate(-168.94 -94.633)" fill="#dce7f7"/>
      </g>
      <g id="Group_3595" data-name="Group 3595" transform="translate(36.202 11.767)" style="mix-blend-mode: multiply;isolation: isolate">
        <path id="Path_13478" data-name="Path 13478" d="M202.277,95.786a1.626,1.626,0,0,1-1.33,1.6L183,99.92a1.086,1.086,0,0,1-.985-.333,1.266,1.266,0,0,0,.3,0l17.949-2.519a1.647,1.647,0,0,0,1.331-1.6,1.285,1.285,0,0,0-.356-.927A1.194,1.194,0,0,1,202.277,95.786Z" transform="translate(-170.012 -94.538)" fill="#dce7f7"/>
        <path id="Path_13479" data-name="Path 13479" d="M172.967,99.964a2.472,2.472,0,0,1-2,2.435,1.683,1.683,0,0,1-1.318-.345,1.771,1.771,0,0,0,.618.012,2.461,2.461,0,0,0,2-2.435,1.933,1.933,0,0,0-.7-1.545A1.818,1.818,0,0,1,172.967,99.964Z" transform="translate(-169.653 -94.641)" fill="#dce7f7"/>
      </g>
      <path id="Path_13480" data-name="Path 13480" d="M237.062,100.522l-.024,10.6L138.5,230.616l.215-116.159c.012-8.541,6.451-16.37,14.362-17.486l69.7-9.908C230.682,85.957,237.074,91.992,237.062,100.522Z" transform="translate(-132.545 -82.549)" fill="#fff" opacity="0.2"/>
    </g>
    <path id="Path_13481" data-name="Path 13481" d="M238.135,184.342l-1.178,80.018-49.645,6.973c-3.4.476-6.154-2.1-6.142-5.773l.131-67.073a7.617,7.617,0,0,1,6.154-7.5Z" transform="translate(-3.926 -3.988)" fill="#93a8d4" opacity="0.2"/>
    <path id="Path_13482" data-name="Path 13482" d="M97.413,308.48" transform="translate(-1.49 -7.599)" fill="none" stroke="#90f4e1" stroke-miterlimit="10" stroke-width="1"/>
    <g id="Group_3606" data-name="Group 3606" transform="translate(46.182 164.581)">
      <g id="Group_3605" data-name="Group 3605" clip-path="url(#clip-path)">
        <g id="Group_3604" data-name="Group 3604" transform="translate(27.605 -2.454)">
          <g id="Group_3597" data-name="Group 3597" transform="translate(0.005)">
            <path id="Path_13483" data-name="Path 13483" d="M150.452,211.892v85.7c-.228,1.509-2.011,3.22-5.923,5.2-21.848,11.095-69.911,6.07-69.911,6.07V223.273a261.753,261.753,0,0,0,36.387.831h.043c12.2-.653,24.872-2.53,33.481-6.9,3.894-1.972,5.678-3.671,5.914-5.191A.551.551,0,0,0,150.452,211.892Z" transform="translate(-74.619 -166.916)" fill="#90f4e1"/>
            <path id="Path_13484" data-name="Path 13484" d="M156.816,165.569v85.593s-2.053.713-5.272,1.924V210.545a1.279,1.279,0,0,0,0-.439c-.609-6.57-30.676-9.54-38.28-16.9a3.439,3.439,0,0,1-1.123-2.127v-.547C112.8,180.846,156.816,165.569,156.816,165.569Z" transform="translate(-75.71 -165.569)" fill="#90f4e1"/>
            <path id="Path_13485" data-name="Path 13485" d="M151.544,210.87a1.279,1.279,0,0,1,0,.439.551.551,0,0,1-.009.119c-.236,1.52-2.02,3.22-5.914,5.191-8.609,4.371-21.281,6.248-33.481,6.9V191.838a3.439,3.439,0,0,0,1.123,2.127C120.868,201.33,150.935,204.3,151.544,210.87Z" transform="translate(-75.71 -166.333)" fill="#90f4e1"/>
          </g>
          <g id="Group_3598" data-name="Group 3598" transform="translate(14.09 7.181)">
            <path id="Path_13486" data-name="Path 13486" d="M150.876,228.612v62.439c-.737.452-1.568.915-2.507,1.389-9.789,4.978-24.211,7.1-38.086,7.853h-.048c-1.888.107-3.766.179-5.63.226-.048-.12-.1-.238-.154-.357-2.08-4.965-7.948-8.85-15.325-10.132v-39.7c8.423-1.461,14.849-6.3,15.977-12.261a3.318,3.318,0,0,0,.06-.332l5.072.118h.048c13.875-.749,28.3-2.887,38.086-7.853C149.308,229.527,150.139,229.063,150.876,228.612Z" transform="translate(-89.126 -174.584)" fill="url(#linear-gradient-4)"/>
            <path id="Path_13487" data-name="Path 13487" d="M156.883,172.965v78.418s-2.054.713-5.274,1.924V210.766a1.391,1.391,0,0,0,0-.44c-.583-6.308-28.357-9.3-37.278-16.061C123.051,186.139,146.572,176.8,156.883,172.965Z" transform="translate(-89.859 -172.965)" fill="url(#linear-gradient-5)"/>
            <path id="Path_13488" data-name="Path 13488" d="M146.592,216.45c-.309.167-.63.333-.975.512-8.6,4.371-21.276,6.248-33.476,6.9V203.407l.083.083C118.08,209.157,135.639,212.542,146.592,216.45Z" transform="translate(-89.795 -173.85)" fill="url(#linear-gradient-6)"/>
          </g>
          <g id="Group_3599" data-name="Group 3599" style="mix-blend-mode: multiply;isolation: isolate">
            <path id="Path_13489" data-name="Path 13489" d="M150.454,211.892v1.034a.409.409,0,0,1-.012.118c-.238,1.52-2.02,3.22-5.917,5.191-8.6,4.372-21.276,6.249-33.476,6.9H111a261.759,261.759,0,0,1-36.388-.832v-1.033A261.85,261.85,0,0,0,111,224.1h.048c12.2-.653,24.876-2.53,33.476-6.9a24.18,24.18,0,0,0,3.422-2.044c.3-.214.558-.427.8-.629a2.908,2.908,0,0,0,.285-.262,3.337,3.337,0,0,0,.356-.356c.1-.1.178-.2.261-.3s.154-.2.225-.3a2.458,2.458,0,0,0,.19-.3l.143-.25a5.589,5.589,0,0,0,.2-.594c.012-.059.023-.107.036-.166A.416.416,0,0,0,150.454,211.892Z" transform="translate(-74.614 -166.916)" fill="#e6e6e6"/>
            <path id="Path_13490" data-name="Path 13490" d="M150.454,298.986v1.033a.416.416,0,0,1-.012.119c-.238,1.52-2.02,3.219-5.917,5.191-8.6,4.371-21.276,6.248-33.476,6.9H111a261.851,261.851,0,0,1-36.388-.831v-1.034A261.758,261.758,0,0,0,111,311.2h.048c12.2-.653,24.876-2.53,33.476-6.9a24.177,24.177,0,0,0,3.422-2.044c.3-.214.558-.427.8-.629a2.786,2.786,0,0,0,.285-.261,3.441,3.441,0,0,0,.356-.356c.1-.1.178-.2.261-.3s.154-.2.225-.3a2.465,2.465,0,0,0,.19-.3l.143-.25a1.71,1.71,0,0,0,.118-.32,1.763,1.763,0,0,0,.083-.274c.012-.059.023-.107.036-.166A.412.412,0,0,0,150.454,298.986Z" transform="translate(-74.614 -169.45)" fill="#e6e6e6"/>
            <path id="Path_13491" data-name="Path 13491" d="M156.82,165.569V166.6s-43.265,15.016-44.643,24.71c-.013-.071-.024-.154-.036-.238v-.547C112.794,180.846,156.82,165.569,156.82,165.569Z" transform="translate(-75.705 -165.569)" fill="#e6e6e6"/>
            <path id="Path_13492" data-name="Path 13492" d="M151.546,210.87a1.387,1.387,0,0,1,0,.439.415.415,0,0,1-.012.119c-.013.059-.024.107-.036.166a3.422,3.422,0,0,0-1.117-1.7c-.1-.1-.2-.178-.309-.273a14.978,14.978,0,0,0-3.136-1.853c-.285-.118-.583-.25-.891-.38a6.907,6.907,0,0,0-.689-.285c-.2-.084-.4-.166-.606-.238-3.92-1.509-9.052-2.911-14.1-4.4-.7-.2-1.4-.416-2.091-.617-.1-.036-.2-.059-.3-.1-.261-.083-.522-.166-.784-.238-.975-.3-1.924-.606-2.852-.915-.071-.023-.154-.059-.238-.083-.688-.226-1.366-.464-2.019-.7l-.179-.072c-.238-.084-.476-.178-.713-.261-.416-.154-.832-.32-1.223-.475-.951-.392-1.842-.785-2.673-1.188-.2-.1-.392-.2-.583-.3a19.122,19.122,0,0,1-2.97-1.865c-.273-.214-.522-.44-.76-.665a3.4,3.4,0,0,1-1.128-2.126v-1.034c.012.084.023.167.036.238v.036c.035.142.071.284.118.427.012.012.012.024.023.048a2.747,2.747,0,0,0,.226.463,2.156,2.156,0,0,0,.273.4.323.323,0,0,0,.059.072,2.683,2.683,0,0,0,.392.44C120.872,201.33,150.94,204.3,151.546,210.87Z" transform="translate(-75.705 -166.333)" fill="#e6e6e6"/>
            <path id="Path_13493" data-name="Path 13493" d="M74.614,223.614v85.594l.951.067-.475-85.661Z" transform="translate(-74.614 -167.257)" fill="#e6e6e6"/>
          </g>
          <path id="Path_13494" data-name="Path 13494" d="M152.356,240.138v44.026c-7.365-3.1-12.391-10.716-12.367-20.3A29.606,29.606,0,0,1,152.356,240.138Z" transform="translate(-76.515 -167.738)" fill="#90f4e1"/>
          <path id="Path_13495" data-name="Path 13495" d="M136.516,220.836a114.883,114.883,0,0,1-21.989,3.386,19.366,19.366,0,0,1,16.287-5.024A23.053,23.053,0,0,1,136.516,220.836Z" transform="translate(-75.775 -167.123)" fill="#90f4e1"/>
          <path id="Path_13496" data-name="Path 13496" d="M143.268,218.869" transform="translate(-76.611 -167.119)" fill="#dfdf00"/>
          <g id="Group_3603" data-name="Group 3603" transform="translate(29.153 116.75)">
            <g id="Group_3600" data-name="Group 3600" transform="translate(0 2.15)">
              <path id="Path_13497" data-name="Path 13497" d="M106.422,288.03a1.766,1.766,0,0,1,.958.631,2.051,2.051,0,0,1,.3,1.2l-.012,6.419a.716.716,0,0,0,.086.388,1.994,1.994,0,0,0,.555.476l.776-.792.217.228-1.88,1.913-1.721-.983.482-.751.011-5.735a3.346,3.346,0,0,0-.064-.8,1.128,1.128,0,0,0-.349-.528l-.284-.1a.838.838,0,0,0-.393.267l-.251.259-.217-.241Z" transform="translate(-104.64 -288.03)" fill="#90f4e1"/>
            </g>
            <g id="Group_3601" data-name="Group 3601" transform="translate(6.42 1.041)">
              <path id="Path_13498" data-name="Path 13498" d="M117.01,288.443a4.862,4.862,0,0,1,.889,2.972,6.873,6.873,0,0,1-.847,3.3,9.32,9.32,0,0,1-2.253,2.742,4.017,4.017,0,0,1-1.853-.717,3.947,3.947,0,0,1-1.262-1.624,5.351,5.351,0,0,1-.432-2.165,7.218,7.218,0,0,1,.889-3.351,7.479,7.479,0,0,1,2.362-2.711A4.247,4.247,0,0,1,117.01,288.443Zm-.36,5.867a5.274,5.274,0,0,0-.189-3.553,3.783,3.783,0,0,0-1.241-1.521,4.931,4.931,0,0,0-1.952-.762,5.239,5.239,0,0,0-.522,5.22,3.769,3.769,0,0,0,1.36,1.562,3.373,3.373,0,0,0,1.811.57,7.04,7.04,0,0,0,.733-1.516" transform="translate(-111.252 -286.888)" fill="#90f4e1"/>
            </g>
            <g id="Group_3602" data-name="Group 3602" transform="translate(13.839)">
              <path id="Path_13499" data-name="Path 13499" d="M124.641,287.371a4.785,4.785,0,0,1,.889,2.971,6.865,6.865,0,0,1-.835,3.3,9.506,9.506,0,0,1-2.264,2.744,3.972,3.972,0,0,1-1.842-.717,3.842,3.842,0,0,1-1.262-1.624,5.367,5.367,0,0,1-.433-2.164,7.315,7.315,0,0,1,.88-3.351,7.464,7.464,0,0,1,2.361-2.71A4.163,4.163,0,0,1,124.641,287.371Zm-.349,5.865a5.284,5.284,0,0,0-.19-3.553,3.7,3.7,0,0,0-1.252-1.52,4.885,4.885,0,0,0-1.941-.764,5.169,5.169,0,0,0-.522,5.22,3.793,3.793,0,0,0,1.361,1.563,3.381,3.381,0,0,0,1.8.571,7.16,7.16,0,0,0,.746-1.518" transform="translate(-118.894 -285.816)" fill="#90f4e1"/>
            </g>
          </g>
          <path id="Path_13500" data-name="Path 13500" d="M156.816,165.569v85.593s-2.053.713-5.272,1.924V210.545a1.279,1.279,0,0,0,0-.439c-.609-6.57-30.676-9.54-38.28-16.9a3.439,3.439,0,0,1-1.123-2.127v-.547C112.8,180.846,156.816,165.569,156.816,165.569Z" transform="translate(-75.705 -165.569)" fill="#93a8d4" opacity="0.3" style="mix-blend-mode: multiply;isolation: isolate"/>
          <path id="Path_13501" data-name="Path 13501" d="M151.269,210.315c1.307,2.262-1.8,4.7-5.651,6.651-8.6,4.372-21.277,6.249-33.477,6.9V203.993a74.411,74.411,0,0,1,12.517,0C142.477,205.445,151.269,210.315,151.269,210.315Z" transform="translate(-75.705 -166.679)" fill="#93a8d4" opacity="0.3" style="mix-blend-mode: multiply;isolation: isolate"/>
          <path id="Path_13502" data-name="Path 13502" d="M150.454,211.893v22.845c-7.686,18.5-26.527,46.046-72.478,74.425-2.138-.166-3.361-.3-3.361-.3V223.274a261.832,261.832,0,0,0,36.387.831h.048c12.2-.653,24.876-2.53,33.477-6.9,3.9-1.972,5.678-3.67,5.916-5.191A.407.407,0,0,0,150.454,211.893Z" transform="translate(-74.614 -166.916)" fill="#f2f2f2" opacity="0.2"/>
        </g>
      </g>
    </g>
    <path id="Path_13516" data-name="Path 13516" d="M107.869,74.582a4.712,4.712,0,1,1-4.713-4.713A4.713,4.713,0,0,1,107.869,74.582Z" transform="translate(-1.52 -0.659)" fill="#fcee21"/>
    <path id="Path_13517" data-name="Path 13517" d="M254.489,50.558a3.333,3.333,0,1,1-3.332-3.332A3.332,3.332,0,0,1,254.489,50.558Z" transform="translate(-5.865)" fill="#fcee21"/>
    <path id="Path_13518" data-name="Path 13518" d="M112.4,145.823a2.35,2.35,0,1,1-2.35-2.35A2.349,2.349,0,0,1,112.4,145.823Z" transform="translate(-1.789 -2.799)" fill="#fcee21"/>
    <path id="Path_13519" data-name="Path 13519" d="M79.628,134.655a1.662,1.662,0,1,1-1.661-1.661A1.661,1.661,0,0,1,79.628,134.655Z" transform="translate(-0.876 -2.495)" fill="#fcee21"/>
    <path id="Path_13520" data-name="Path 13520" d="M72.669,198.986a3.625,3.625,0,1,1-3.625-3.624A3.626,3.626,0,0,1,72.669,198.986Z" transform="translate(-0.559 -4.309)" fill="#fcee21"/>
    <path id="Path_13521" data-name="Path 13521" d="M65.293,188.4l.5,3.671,3.671.5-3.671.5-.5,3.671-.5-3.671-3.671-.5,3.671-.5Z" transform="translate(-0.435 -4.106)" fill="#fcee21"/>
    <path id="Path_13522" data-name="Path 13522" d="M99.341,142.624l.5,3.671,3.671.5-3.671.5-.5,3.671-.5-3.671-3.671-.5,3.671-.5Z" transform="translate(-1.425 -2.775)" fill="#fcee21"/>
    <path id="Path_13523" data-name="Path 13523" d="M164.761,76.771l.7,5.186,5.186.7-5.186.7-.7,5.186-.7-5.186-5.186-.7,5.186-.7Z" transform="translate(-3.278 -0.859)" fill="#fcee21"/>
    <path id="Path_13524" data-name="Path 13524" d="M262,75.646l.7,5.186,5.186.7-5.186.7-.7,5.186-.7-5.186-5.186-.7,5.186-.7Z" transform="translate(-6.106 -0.827)" fill="#fcee21"/>
    <path id="Path_13525" data-name="Path 13525" d="M301.25,144.871l.4,2.944,2.944.4-2.944.4-.4,2.944-.4-2.944-2.944-.4,2.944-.4Z" transform="translate(-7.322 -2.84)" fill="#fcee21"/>
    <g id="Group_3634" data-name="Group 3634" transform="translate(193.352 185.685)">
      <path id="Path_13526" data-name="Path 13526" d="M307.772,189.889c3.386-.476,6.132,2.108,6.126,5.773l-.124,67.071a7.631,7.631,0,0,1-6.15,7.5L203.9,284.81c-3.4.478-6.143-2.107-6.136-5.772l.124-67.071a7.633,7.633,0,0,1,6.161-7.5Z" transform="translate(-197.761 -189.833)" fill="url(#linear-gradient-7)"/>
      <path id="Path_13527" data-name="Path 13527" d="M309.4,191.094c3.386-.476,6.132,2.109,6.125,5.774l-.124,67.07a7.631,7.631,0,0,1-6.151,7.5L205.52,286.016c-3.4.477-6.143-2.108-6.136-5.773l.124-67.07a7.632,7.632,0,0,1,6.161-7.5Z" transform="translate(-197.808 -189.868)" fill="url(#linear-gradient-8)"/>
      <g id="Group_3632" data-name="Group 3632" transform="translate(40.973 13.61)" opacity="0.6">
        <g id="Group_3622" data-name="Group 3622" transform="translate(0 8.803)">
          <path id="Path_13528" data-name="Path 13528" d="M243.8,212.917l0,.972-1.81.254a1.1,1.1,0,0,0-.714.388,1.073,1.073,0,0,0-.268.712l-.01,5.108a.833.833,0,0,0,.266.646.863.863,0,0,0,.713.179l1.81-.254,0,.972-1.685.237a1.961,1.961,0,0,1-1.586-.316,1.933,1.933,0,0,1-.55-1.558l.009-4.618a2.449,2.449,0,0,1,.555-1.714,2.484,2.484,0,0,1,1.588-.771Z" transform="translate(-239.961 -212.917)" fill="#fff"/>
        </g>
        <g id="Group_3623" data-name="Group 3623" transform="translate(5.951 8.153)">
          <path id="Path_13529" data-name="Path 13529" d="M249.307,217.188l1.641,3.7-1.132.158-1.526-3.5-1.158.163-.007,3.714-1.034.146.017-8.976,2.228-.314a1.99,1.99,0,0,1,1.532.265,1.761,1.761,0,0,1,.515,1.448l0,1.232A1.968,1.968,0,0,1,249.307,217.188Zm-.837-.622a.974.974,0,0,0,.66-.323,1.12,1.12,0,0,0,.216-.743l0-1.472a.853.853,0,0,0-.213-.672.78.78,0,0,0-.659-.129l-1.337.188-.006,3.338,1.337-.187" transform="translate(-246.09 -212.248)" fill="#fff"/>
        </g>
        <g id="Group_3624" data-name="Group 3624" transform="translate(12.761 6.989)">
          <path id="Path_13530" data-name="Path 13530" d="M257.087,211.048l0,.933-2.933.412-.005,2.944,2.639-.371,0,.933-2.639.371-.006,3.233,2.933-.412,0,.933-3.967.557.017-8.976Z" transform="translate(-253.104 -211.048)" fill="#fff"/>
        </g>
        <g id="Group_3625" data-name="Group 3625" transform="translate(18.929 6.314)">
          <path id="Path_13531" data-name="Path 13531" d="M263.4,210.639a1.683,1.683,0,0,1,.541,1.453l-.009,4.955a2.4,2.4,0,0,1-.476,1.624,2.471,2.471,0,0,1-1.552.68l-2.443.344.016-8.976,2.3-.323A2.2,2.2,0,0,1,263.4,210.639Zm-.5,6.678.01-5.2a.814.814,0,0,0-.239-.64.741.741,0,0,0-.623-.162l-1.533.216-.014,7.052,1.516-.213a1,1,0,0,0,.669-.316,1.128,1.128,0,0,0,.215-.742" transform="translate(-259.457 -210.354)" fill="#fff"/>
        </g>
        <g id="Group_3626" data-name="Group 3626" transform="translate(25.989 5.241)">
          <path id="Path_13532" data-name="Path 13532" d="M269.919,209.249l0,.933-1.07.15-.013,7.11,1.07-.15,0,.933-3.173.446,0-.933,1.07-.15.013-7.11-1.07.15,0-.933Z" transform="translate(-266.729 -209.249)" fill="#fff"/>
        </g>
        <g id="Group_3627" data-name="Group 3627" transform="translate(31.602 4.224)">
          <path id="Path_13533" data-name="Path 13533" d="M277.325,208.2l0,.972-1.89.265-.015,8-1.034.145.015-8-1.89.266,0-.972Z" transform="translate(-272.51 -208.201)" fill="#fff"/>
        </g>
        <g id="Group_3628" data-name="Group 3628" transform="translate(44.926 2.489)">
          <path id="Path_13534" data-name="Path 13534" d="M290.069,206.414v.972l-1.81.254a1.1,1.1,0,0,0-.714.388,1.078,1.078,0,0,0-.269.711l-.01,5.109a.836.836,0,0,0,.266.646.863.863,0,0,0,.713.179l1.81-.254,0,.972-1.685.237a1.959,1.959,0,0,1-1.586-.316,1.926,1.926,0,0,1-.549-1.558l.009-4.618a2.449,2.449,0,0,1,.555-1.714,2.479,2.479,0,0,1,1.587-.771Z" transform="translate(-286.233 -206.414)" fill="#fff"/>
        </g>
        <g id="Group_3629" data-name="Group 3629" transform="translate(50.573 1.757)">
          <path id="Path_13535" data-name="Path 13535" d="M295.444,205.66l1.954,8.7-1.052.149-.45-2.207-2.318.325-.468,2.336-1.061.15,2.031-9.26Zm-1.678,5.978,1.944-.273-.972-4.759-.972,5.032" transform="translate(-292.049 -205.66)" fill="#fff"/>
        </g>
        <g id="Group_3630" data-name="Group 3630" transform="translate(57.295 0.938)">
          <path id="Path_13536" data-name="Path 13536" d="M302.188,209.756l1.642,3.7-1.132.158-1.526-3.5-1.158.163L300.006,214l-1.034.146.017-8.977,2.228-.313a1.994,1.994,0,0,1,1.532.265,1.761,1.761,0,0,1,.515,1.448l0,1.232A1.967,1.967,0,0,1,302.188,209.756Zm-.836-.622a.966.966,0,0,0,.659-.324,1.105,1.105,0,0,0,.216-.742l0-1.472a.853.853,0,0,0-.213-.672.78.78,0,0,0-.659-.129l-1.337.188-.006,3.338,1.337-.187" transform="translate(-298.972 -204.816)" fill="#fff"/>
        </g>
        <g id="Group_3631" data-name="Group 3631" transform="translate(63.855)">
          <path id="Path_13537" data-name="Path 13537" d="M309.667,204.136a1.688,1.688,0,0,1,.541,1.453l-.01,4.956a2.4,2.4,0,0,1-.475,1.624,2.472,2.472,0,0,1-1.552.681l-2.442.343.016-8.976,2.3-.323A2.2,2.2,0,0,1,309.667,204.136Zm-.5,6.678.01-5.2a.818.818,0,0,0-.24-.64.741.741,0,0,0-.623-.162l-1.533.216-.014,7.052,1.516-.213a1,1,0,0,0,.669-.315,1.133,1.133,0,0,0,.216-.743" transform="translate(-305.729 -203.851)" fill="#fff"/>
        </g>
      </g>
      <path id="Path_13538" data-name="Path 13538" d="M313.4,269.573a6.725,6.725,0,0,1-4.156,2.35L205.517,286.509c-3.4.477-6.143-2.12-6.126-5.782l.115-67.068a7.984,7.984,0,0,1,2.711-5.864,7.852,7.852,0,0,0-1.971,5.141L200.113,280c0,3.663,2.743,6.242,6.144,5.765L309.971,271.2A6.484,6.484,0,0,0,313.4,269.573Z" transform="translate(-197.808 -190.355)" opacity="0.4" fill="url(#linear-gradient-9)" style="mix-blend-mode: overlay;isolation: isolate"/>
      <path id="Path_13539" data-name="Path 13539" d="M315.584,196.876l-.115,67.068a7.979,7.979,0,0,1-2.727,5.881A8.026,8.026,0,0,0,314.8,264.6l.115-67.069c.017-3.662-2.726-6.241-6.126-5.765L205.069,206.338a6.488,6.488,0,0,0-3.433,1.626,6.72,6.72,0,0,1,4.107-2.284l103.715-14.586C312.842,190.618,315.6,193.2,315.584,196.876Z" transform="translate(-197.874 -189.868)" opacity="0.4" fill="url(#linear-gradient-10)" style="mix-blend-mode: overlay;isolation: isolate"/>
      <path id="Path_13540" data-name="Path 13540" d="M234.43,225.849l-17.5,2.458a3.683,3.683,0,0,0-2.969,3.616l-.028,15.378a2.616,2.616,0,0,0,2.957,2.783l17.5-2.459a3.684,3.684,0,0,0,2.98-3.617l.029-15.378A2.617,2.617,0,0,0,234.43,225.849Z" transform="translate(-198.231 -190.88)" fill="#f7931e" opacity="0.7" style="mix-blend-mode: color-dodge;isolation: isolate"/>
      <path id="Path_13541" data-name="Path 13541" d="M303.168,255.657c-3.164.445-5.732,3.787-5.739,7.463s2.551,6.3,5.715,5.855,5.732-3.787,5.739-7.463S306.332,255.212,303.168,255.657Z" transform="translate(-200.66 -191.746)" fill="#fff" opacity="0.8"/>
      <g id="Group_3633" data-name="Group 3633" transform="translate(15.677 51.649)" opacity="0.8">
        <path id="Path_13542" data-name="Path 13542" d="M298.976,246.681l0-1.571a.784.784,0,0,0-.2-.564.491.491,0,0,0-.475-.184l-2.4.338-.233.158a.542.542,0,0,0-.106.311.419.419,0,0,0,.1.282l.232.092,2.4-.338,0,1.617a.534.534,0,0,1-.1.309l-.243.159-1.36.191-.232.158a.478.478,0,0,0-.106.311.365.365,0,0,0,.1.281l.231.093,1.361-.191.231.092a.414.414,0,0,1,.1.282l0,1.639-2.373.334-.243.159a.526.526,0,0,0-.1.309.414.414,0,0,0,.094.283l.242.091,2.374-.333a.714.714,0,0,0,.485-.318,1,1,0,0,0,.2-.62l0-1.639a1.255,1.255,0,0,0-.283-.8A1.569,1.569,0,0,0,298.976,246.681Z" transform="translate(-216.283 -243.068)" fill="#fff"/>
        <path id="Path_13543" data-name="Path 13543" d="M221.757,255.121l-2.4.338-.243.159a.531.531,0,0,0-.1.31.416.416,0,0,0,.094.283l.243.091,2.4-.338,0,2.038-2.046.287a.669.669,0,0,0-.475.316,1.038,1.038,0,0,0-.2.632l0,2.891,3.058-.43.243-.159a.527.527,0,0,0,.1-.31.416.416,0,0,0-.094-.283l-.243-.09-2.384.334,0-2.049,2.047-.287a.745.745,0,0,0,.475-.318,1.042,1.042,0,0,0,.2-.631l0-2.038a.776.776,0,0,0-.2-.563A.512.512,0,0,0,221.757,255.121Z" transform="translate(-214.057 -243.381)" fill="#fff"/>
        <path id="Path_13544" data-name="Path 13544" d="M273.46,250.267l0-1.571a.78.78,0,0,0-.2-.563.488.488,0,0,0-.474-.184l-2.4.338-.232.158a.526.526,0,0,0-.1.309.417.417,0,0,0,.094.284l.232.092,2.4-.338,0,1.617a.52.52,0,0,1-.1.309l-.243.159-1.36.191-.233.158a.482.482,0,0,0-.106.311.372.372,0,0,0,.1.281l.232.093,1.36-.191.232.092a.419.419,0,0,1,.1.282l0,1.639-2.373.334-.243.159a.526.526,0,0,0-.1.309.407.407,0,0,0,.094.283l.243.091,2.372-.333a.714.714,0,0,0,.486-.318,1,1,0,0,0,.2-.62l0-1.639a1.248,1.248,0,0,0-.283-.8A1.5,1.5,0,0,0,273.46,250.267Z" transform="translate(-215.541 -243.172)" fill="#fff"/>
        <path id="Path_13545" data-name="Path 13545" d="M277.884,247.233l-2.394.337-.243.159a.527.527,0,0,0-.1.309.412.412,0,0,0,.094.284l.242.09,2.394-.336,0,2.038-2.035.285a.675.675,0,0,0-.476.317,1.034,1.034,0,0,0-.2.631l-.006,2.891,3.058-.43.233-.157a.478.478,0,0,0,.106-.311.372.372,0,0,0-.1-.282l-.232-.092-2.384.335,0-2.05,2.036-.285a.753.753,0,0,0,.485-.318,1.037,1.037,0,0,0,.2-.632l0-2.037a.777.777,0,0,0-.2-.564A.518.518,0,0,0,277.884,247.233Z" transform="translate(-215.689 -243.151)" fill="#fff"/>
        <path id="Path_13546" data-name="Path 13546" d="M247.262,251.537l-2.394.336-.243.16a.526.526,0,0,0-.1.309.416.416,0,0,0,.094.283l.243.091,2.394-.337,0,2.038-2.036.286a.671.671,0,0,0-.475.317,1.038,1.038,0,0,0-.2.632l0,2.891,3.058-.43.243-.159a.527.527,0,0,0,.1-.31.411.411,0,0,0-.094-.283l-.242-.091-2.384.336,0-2.05,2.035-.286a.747.747,0,0,0,.485-.318,1.033,1.033,0,0,0,.2-.631l0-2.038a.781.781,0,0,0-.2-.563A.517.517,0,0,0,247.262,251.537Z" transform="translate(-214.799 -243.276)" fill="#fff"/>
        <path id="Path_13547" data-name="Path 13547" d="M293.2,245.081l-2.4.338-.243.159a.527.527,0,0,0-.1.31.411.411,0,0,0,.094.282l.243.092,2.4-.339,0,2.038-2.046.287a.7.7,0,0,0-.475.317,1.034,1.034,0,0,0-.2.631l0,2.891,3.058-.43.243-.159a.527.527,0,0,0,.1-.309.414.414,0,0,0-.094-.283l-.243-.091-2.384.335,0-2.05,2.047-.287a.729.729,0,0,0,.475-.317,1.044,1.044,0,0,0,.2-.632l0-2.037a.777.777,0,0,0-.2-.564A.5.5,0,0,0,293.2,245.081Z" transform="translate(-216.135 -243.089)" fill="#fff"/>
        <path id="Path_13548" data-name="Path 13548" d="M303.72,247.224l-.243.159-.1.31,0,1.742-.675.094.011-5.783-1.687.238-.243.159a.521.521,0,0,0-.1.31.42.42,0,0,0,.094.283l.243.09,1.013-.142-.01,4.94-1.033.146-.232.157-.106.3a.409.409,0,0,0,.1.292l.231.092,2.721-.383.232-.157a.479.479,0,0,0,.106-.311l0-2.163a.364.364,0,0,0-.1-.281Z" transform="translate(-216.431 -243.05)" fill="#fff"/>
        <path id="Path_13549" data-name="Path 13549" d="M309.057,246.6l-.232-.092-.243.159-.1.309,0,1.742-.675.1.011-5.783-1.687.237-.243.159a.531.531,0,0,0-.1.31.416.416,0,0,0,.094.283l.243.091,1.012-.143-.009,4.941-1.034.145-.243.159-.1.3a.47.47,0,0,0,.094.294l.243.091,2.72-.383.232-.158a.52.52,0,0,0,.1-.309l0-2.163A.416.416,0,0,0,309.057,246.6Z" transform="translate(-216.58 -243.029)" fill="#fff"/>
        <path id="Path_13550" data-name="Path 13550" d="M242.478,255.831l-.244.16-.1.309,0,1.742-.675.094.011-5.782-1.687.237-.243.159a.521.521,0,0,0-.1.31.421.421,0,0,0,.094.283l.243.09,1.023-.144-.01,4.941-1.033.145-.243.159-.1.3a.472.472,0,0,0,.094.294l.243.091,2.711-.381.243-.16a.526.526,0,0,0,.1-.309l0-2.163a.411.411,0,0,0-.094-.283Z" transform="translate(-214.65 -243.3)" fill="#fff"/>
        <path id="Path_13551" data-name="Path 13551" d="M216.962,259.418l-.244.158-.1.31,0,1.742-.675.1.011-5.783-1.687.237-.233.157a.48.48,0,0,0-.106.312.368.368,0,0,0,.1.281l.232.093,1.023-.145-.01,4.941-1.033.145-.243.159-.1.3a.468.468,0,0,0,.094.294l.243.091,2.711-.381.243-.159a.531.531,0,0,0,.1-.31l0-2.163a.416.416,0,0,0-.094-.283Z" transform="translate(-213.908 -243.405)" fill="#fff"/>
        <path id="Path_13552" data-name="Path 13552" d="M283.3,250.094l-.232.158-.1.309,0,1.742-.675.1.011-5.783-1.687.237-.243.159a.53.53,0,0,0-.1.31.411.411,0,0,0,.094.283l.242.091,1.013-.143-.009,4.941-1.034.145-.243.159-.1.3a.47.47,0,0,0,.094.294l.243.091,2.71-.381.243-.16a.527.527,0,0,0,.1-.309l0-2.163a.416.416,0,0,0-.094-.283Z" transform="translate(-215.837 -243.133)" fill="#fff"/>
        <path id="Path_13553" data-name="Path 13553" d="M267.841,252.262l0-2.459a.411.411,0,0,0-.094-.283l-.242-.091-.233.158a.526.526,0,0,0-.1.309l0,2.459-1.351.189.006-3.188a.414.414,0,0,0-.1-.292l-.232-.092-.243.159a.606.606,0,0,0-.106.322l-.008,4.041,2.036-.286,0,1.742a.411.411,0,0,0,.094.283l.231.092.243-.159a.521.521,0,0,0,.1-.309l0-1.753.243-.159a.528.528,0,0,0,.1-.31.416.416,0,0,0-.1-.283Z" transform="translate(-215.398 -243.202)" fill="#fff"/>
        <path id="Path_13554" data-name="Path 13554" d="M257.641,253.7l0-2.459a.372.372,0,0,0-.1-.281l-.232-.092-.243.159a.527.527,0,0,0-.1.309l0,2.459-1.351.189.006-3.188a.459.459,0,0,0-.094-.293l-.242-.091-.243.159a.583.583,0,0,0-.1.32l-.008,4.041,2.025-.284,0,1.742a.411.411,0,0,0,.094.283l.242.091.233-.158a.477.477,0,0,0,.106-.311l0-1.753.233-.158a.478.478,0,0,0,.106-.311.375.375,0,0,0-.1-.282Z" transform="translate(-215.101 -243.244)" fill="#fff"/>
        <path id="Path_13555" data-name="Path 13555" d="M253.049,253.136l0-1.571a.781.781,0,0,0-.2-.564.489.489,0,0,0-.475-.183l-2.4.338-.232.157a.48.48,0,0,0-.107.311.373.373,0,0,0,.1.282l.232.092,2.4-.338,0,1.617a.521.521,0,0,1-.1.31l-.243.159-1.36.191-.243.159a.527.527,0,0,0-.1.31.416.416,0,0,0,.094.283l.242.091,1.351-.19.242.091a.411.411,0,0,1,.1.283l0,1.639-2.372.334-.233.157a.529.529,0,0,0-.1.31.416.416,0,0,0,.094.283l.232.093,2.384-.336a.708.708,0,0,0,.485-.318,1.069,1.069,0,0,0,.2-.62l0-1.639a1.25,1.25,0,0,0-.283-.8A1.571,1.571,0,0,0,253.049,253.136Z" transform="translate(-214.947 -243.255)" fill="#fff"/>
        <path id="Path_13556" data-name="Path 13556" d="M232.125,257.282l0-2.458a.37.37,0,0,0-.106-.282l-.231-.092-.243.159a.52.52,0,0,0-.1.309l0,2.459-1.351.189.006-3.188a.465.465,0,0,0-.094-.293l-.242-.091-.244.159a.59.59,0,0,0-.1.32l-.008,4.041,2.025-.284,0,1.742a.411.411,0,0,0,.094.283l.242.091.233-.158a.475.475,0,0,0,.106-.311l0-1.753.232-.158a.543.543,0,0,0,.107-.311.42.42,0,0,0-.106-.282Z" transform="translate(-214.359 -243.348)" fill="#fff"/>
        <path id="Path_13557" data-name="Path 13557" d="M227.533,256.722l0-1.571a.781.781,0,0,0-.2-.564.489.489,0,0,0-.475-.184l-2.4.338-.233.158a.477.477,0,0,0-.106.311.368.368,0,0,0,.1.281l.232.093,2.4-.338,0,1.616a.528.528,0,0,1-.1.31l-.243.159-1.36.191-.243.159a.527.527,0,0,0-.1.31.411.411,0,0,0,.094.283l.242.091,1.351-.19.242.091a.416.416,0,0,1,.1.283l0,1.639-2.374.334-.232.158a.526.526,0,0,0-.1.309.416.416,0,0,0,.094.283l.232.093,2.384-.335a.712.712,0,0,0,.485-.319,1.067,1.067,0,0,0,.2-.619l0-1.64a1.25,1.25,0,0,0-.284-.8A1.568,1.568,0,0,0,227.533,256.722Z" transform="translate(-214.205 -243.36)" fill="#fff"/>
      </g>
      <path id="Path_13558" data-name="Path 13558" d="M298.384,192.689l-74.806,90.832-18.057,2.542c-3.4.476-6.141-2.1-6.141-5.773l.13-67.073a7.629,7.629,0,0,1,6.154-7.5Z" transform="translate(-197.808 -189.916)" fill="#fff" opacity="0.2"/>
    </g>
    <g id="Group_3635" data-name="Group 3635" transform="translate(165.933 47.428)">
      <path id="Path_13559" data-name="Path 13559" d="M292.506,176.855a1.78,1.78,0,0,1-1.744-2.158c.108-.5.216-1.009.318-1.515a1.782,1.782,0,1,1,3.492.713q-.159.778-.328,1.554A1.782,1.782,0,0,1,292.506,176.855Z" transform="translate(-173.046 -51.05)" fill="url(#linear-gradient-11)"/>
      <path id="Path_13560" data-name="Path 13560" d="M294.043,168.3a1.761,1.761,0,0,1-.265-.02,1.782,1.782,0,0,1-1.5-2.025c.35-2.334.634-4.709.846-7.06a1.782,1.782,0,0,1,3.55.321c-.218,2.42-.512,4.865-.871,7.265A1.782,1.782,0,0,1,294.043,168.3Z" transform="translate(-173.091 -50.638)" fill="url(#linear-gradient-12)"/>
      <path id="Path_13561" data-name="Path 13561" d="M292.479,150.416h-.052a1.781,1.781,0,0,1-1.729-1.832q.044-1.557.047-3.118c.054-29.293-10.619-55.177-30.054-72.884-17.53-15.973-40.614-23.491-65.017-21.171a1.781,1.781,0,1,1-.337-3.547c25.408-2.419,49.471,5.424,67.755,22.083,20.187,18.392,31.273,45.213,31.216,75.523q0,1.609-.049,3.215A1.78,1.78,0,0,1,292.479,150.416Z" transform="translate(-170.225 -47.434)" fill="url(#linear-gradient-13)"/>
      <path id="Path_13562" data-name="Path 13562" d="M180.066,54.07a1.782,1.782,0,0,1-.438-3.51c2.675-.679,5.4-1.255,8.11-1.712a1.782,1.782,0,1,1,.594,3.514c-2.613.441-5.246,1-7.828,1.652A1.8,1.8,0,0,1,180.066,54.07Z" transform="translate(-169.776 -47.475)" fill="url(#linear-gradient-14)"/>
      <path id="Path_13563" data-name="Path 13563" d="M171.3,56.733a1.782,1.782,0,0,1-.583-3.466c.561-.194,1.12-.384,1.683-.568a1.782,1.782,0,1,1,1.114,3.385q-.816.269-1.628.551A1.81,1.81,0,0,1,171.3,56.733Z" transform="translate(-169.521 -47.585)" fill="url(#linear-gradient-15)"/>
    </g>
    <g id="Group_3636" data-name="Group 3636" transform="translate(165.934 47.426)" opacity="0.8" style="mix-blend-mode: overlay;isolation: isolate">
      <path id="Path_13564" data-name="Path 13564" d="M294.122,138.48c-1.949-26.6-12.747-49.977-30.9-66.525-18.282-16.656-42.35-24.5-67.761-22.084a1.762,1.762,0,0,0-1.354.867,1.756,1.756,0,0,1-.381-.927,1.787,1.787,0,0,1,1.6-1.948c25.411-2.423,49.479,5.428,67.762,22.084C281.708,86.911,292.589,111.051,294.122,138.48Z" transform="translate(-170.226 -47.432)" fill="url(#linear-gradient-16)"/>
      <path id="Path_13565" data-name="Path 13565" d="M189.8,50.3a1.812,1.812,0,0,1-.238,1.224,1.75,1.75,0,0,0-1.7-.665c-2.7.451-5.428,1.033-8.1,1.711a1.71,1.71,0,0,0-1.093.807,1.755,1.755,0,0,1,.962-2.815c2.673-.689,5.405-1.259,8.114-1.723A1.8,1.8,0,0,1,189.8,50.3Z" transform="translate(-169.777 -47.472)" fill="url(#linear-gradient-17)"/>
      <path id="Path_13566" data-name="Path 13566" d="M174.491,55.3a1.789,1.789,0,0,0-1.96-.582c-.558.178-1.128.368-1.686.558a1.713,1.713,0,0,0-.939.784,2.043,2.043,0,0,1-.285-.522,1.782,1.782,0,0,1,1.1-2.269l1.676-.57a1.786,1.786,0,0,1,2.09,2.6Z" transform="translate(-169.522 -47.583)" fill="url(#linear-gradient-18)"/>
    </g>
    <path id="Path_13567" data-name="Path 13567" d="M140.932,335.08a12.558,12.558,0,0,1-2.423,5.037c-5.275,6.855-20.469,15.23-62.927,16.192h-.023a1.184,1.184,0,0,1-1.188-1.152,1.2,1.2,0,0,1,1.164-1.223c41.294-.939,55.953-8.743,60.99-15.135a11.085,11.085,0,0,0,1.865-3.338Z" transform="translate(-0.82 -8.372)" fill="#93a8d4" opacity="0.2"/>
  </g>
</svg>
