<svg xmlns="http://www.w3.org/2000/svg" xmlns:xlink="http://www.w3.org/1999/xlink" version="1.1" id="Layer_1" x="0px" y="0px" viewBox="0 0 750 750.2" style="enable-background:new 0 0 750 750.2;" xml:space="preserve">
<style type="text/css">
	.st0{fill:#EF3838;}
	.st1{fill:#B61F24;}
	.st2{fill:#3D3D3D;}
</style>
<g>
	<path class="st0" d="M336.7,542.4h353.1c64,0,45-21.9,31.8-36.4L610.4,370.5c-4.4-6.1-4.2-14,0-20.2l115.1-134.9   c8.3-8.3,25.9-34.9-28.5-34.9h-379v343.2C318.1,534.1,326.4,542.4,336.7,542.4z"/>
	<path class="st1" d="M439.8,506.3c0,0-89.9,0-102.2,0c-18.9,0-19.3,15.4-19.3,15.4v-81.2h142.3v45.2   C460.4,497,451.2,506.3,439.8,506.3z"/>
	<path class="st0" d="M432.1,118.5c-0.7-0.2-6.8-0.9-10.1-0.9c-1.8,0-3.5,0-5.5,0c-2.6,0-92.3,0-93.7,0c-0.2,0-252.2,0-252.2,0v340   H322h110.1c1.1,0,1.8,0,2.2,0c25.9,0,26.3,17.5,26.3,17.5l-0.4-321.8c0-5.3-1.3-10.7-3.5-15.6c-2.2-4.6-5.5-8.8-9.7-12.1   C442.9,122.2,437.6,120,432.1,118.5z"/>
	<g>
		<path class="st2" d="M61.9,687.2L61.9,687.2c-12.9,0-23.7-10.5-23.7-23.7V111.9c0-12.9,10.5-23.7,23.5-23.7l0,0    c12.9,0,23.5,10.5,23.5,23.7v551.6C85.6,676.7,75.1,687.2,61.9,687.2z"/>
		<path d="M90.6,103.4H35.1c-11,0-20.2-9-20.2-20.2l0,0c0-11,9-20.2,20.2-20.2h55.5c11,0,20.2,9,20.2,20.2l0,0    C110.8,94.4,101.8,103.4,90.6,103.4z"/>
	</g>
</g>
</svg>