<svg xmlns="http://www.w3.org/2000/svg" width="153.176" height="110" viewBox="0 0 153.176 110"><defs><style>.a,.c{fill:#6c63ff;}.a{opacity:0.3;}.b{fill:none;stroke:#3f3d56;stroke-miterlimit:10;stroke-width:0.5px;}.d{fill:#f2f2f2;}.e{fill:#47465a;}.f,.j,.m{opacity:0.1;}.g{fill:#7a799c;}.h,.m{fill:#9493b6;}.i,.j{fill:#3f3d56;}.k{fill:#fbbebe;}.l{fill:#575a89;}</style></defs><rect class="a" width="10.943" height="4.075" transform="translate(93.358 6.943)"/><rect class="a" width="10.943" height="4.075" transform="translate(111.547)"/><rect class="a" width="10.943" height="4.075" transform="translate(112.301 12.604)"/><rect class="a" width="10.943" height="4.075" transform="translate(77.283 17.283)"/><rect class="a" width="10.943" height="4.075" transform="translate(73.811 34.037)"/><rect class="a" width="10.943" height="4.075" transform="translate(90.339 33.66)"/><path class="b" d="M777.375,14.856l-7.245,6.875,8,5.755" transform="translate(-665.828 -12.844)"/><line class="b" x1="10.604" y2="8.396" transform="translate(82.755 8.887)"/><path class="b" d="M585.4,170.378l3.472-12.676L601.929,170" transform="translate(-506.118 -136.344)"/><rect class="a" width="10.943" height="4.075" transform="translate(19.547 11.142)"/><rect class="a" width="10.943" height="4.075" transform="translate(37.735 4.198)"/><rect class="a" width="10.943" height="4.075" transform="translate(38.49 16.802)"/><rect class="a" width="10.943" height="4.075" transform="translate(3.472 21.481)"/><rect class="a" width="10.943" height="4.075" transform="translate(0 38.236)"/><rect class="a" width="10.943" height="4.075" transform="translate(16.528 37.858)"/><path class="b" d="M232.375,45.856l-7.245,6.875,8,5.755" transform="translate(-194.64 -39.646)"/><line class="b" x1="10.604" y2="8.396" transform="translate(8.943 13.085)"/><path class="b" d="M40.4,201.378,43.873,188.7,56.929,201" transform="translate(-34.929 -163.145)"/><line class="b" x2="12.41" transform="translate(49.433 18.84)"/><rect class="c" width="12.866" height="4.063" transform="translate(56.273 16.754)"/><line class="b" x2="8.128" transform="translate(69.156 18.785)"/><line class="b" x1="7.533" y1="12.575" transform="translate(48.679 6.21)"/><ellipse class="d" cx="59.591" cy="13.272" rx="59.591" ry="13.272" transform="translate(33.994 83.455)"/><path class="e" d="M846.417,391.611l-5.811,29.114h-1.258l-.138-.215-.4-.624,5.032-27.2.764-.32Z" transform="translate(-725.206 -338.574)"/><path class="f" d="M844.6,397.21l-5.4,28.141-.4-.624,5.032-27.2Z" transform="translate(-725.206 -343.414)"/><path class="e" d="M892.162,438.152l-1.494.482-.363.117-.479-1.078L881.6,400.166l.855-.192,1.8-.4Z" transform="translate(-762.205 -345.457)"/><path class="f" d="M890.668,441.2l-.363.117-.479-1.078L881.6,402.737l.855-.192Z" transform="translate(-762.205 -348.027)"/><path class="e" d="M412.22,391.611,410.9,429.352l-1.51.335-.107.024-.419-.779.839-36.962.807-.115Z" transform="translate(-353.491 -338.574)"/><path class="f" d="M410.511,393.415l-1.119,37.832-.107.024-.419-.779.839-36.962Z" transform="translate(-353.491 -340.133)"/><path class="e" d="M428.864,446.917l-1.562.27-.175.03-.479-1.018-7.608-49.3.219-.066,1.159-.353Z" transform="translate(-362.287 -342.78)"/><path class="f" d="M427.3,449.439l-.175.03-.479-1.018-7.608-49.3.219-.066Z" transform="translate(-362.287 -345.032)"/><path class="g" d="M770.246,399.947l5.817,7.433a1.886,1.886,0,0,0,1.7.711l23.88-2.8a1.886,1.886,0,0,0,1.667-1.874v-5.51Z" transform="translate(-670.601 -349.965)"/><path class="e" d="M880.388,377.9h1.617v2.334a.6.6,0,0,1-.6.6h-.416a.6.6,0,0,1-.6-.6V377.9Z" transform="translate(-761.153 -326.718)"/><path class="g" d="M453.539,434.89l5.817,7.433a1.886,1.886,0,0,0,1.7.711l23.879-2.8a1.886,1.886,0,0,0,1.667-1.874v-5.511Z" transform="translate(-396.787 -380.175)"/><path class="e" d="M563.68,412.842H565.3v2.334a.6.6,0,0,1-.6.6h-.415a.6.6,0,0,1-.6-.6v-2.334Z" transform="translate(-487.339 -356.929)"/><path class="e" d="M415.983,359.492l71.029-8.274a1.045,1.045,0,0,0,.349-1.97l-12.706-6.39a14.706,14.706,0,0,0-8.1-1.492l-63.1,6.434a1.208,1.208,0,0,0-.739,2.044l7.348,7.539A7.134,7.134,0,0,0,415.983,359.492Z" transform="translate(-352.548 -301.013)"/><path class="e" d="M1069.786,403.637l-.76-.42s-.82.6-1.488,3.147,1.249.028,1.249.028l.839-1.737Z" transform="translate(-927.507 -354.553)"/><path class="e" d="M828,533.844s-.779,3.654-1.138,4.673c-.176.5-1.027.954-1.97,1.3a13.185,13.185,0,0,1-2.583.674c-1.018.12-14.078-1.917-20.428-3.295-4.278-.928-4.831-1.992-4.736-2.588a.864.864,0,0,1,.243-.467s6.29-4.253,8.507-6.29,6.59-.419,11.382.419S828,533.844,828,533.844Z" transform="translate(-693.849 -461.457)"/><path class="e" d="M1004.836,403.217s2.935,1.917-6.949,5.871c0,0-5.373,3.029-4.673,15.508a3.422,3.422,0,0,0,.5,1.585c1.02,1.677,3.205,5.923-.437,6.451v.959s6.59-3.295,7.308-6.11,3.115-18.451,4.313-19.889S1006.873,403.876,1004.836,403.217Z" transform="translate(-863.317 -354.553)"/><path class="f" d="M824.89,589.25a13.2,13.2,0,0,1-2.583.674c-1.018.12-14.078-1.917-20.428-3.295-4.278-.928-4.831-1.992-4.736-2.588,2.812.961,11.943,4.013,15.22,4.265,3.894.3,11.333,1.132,11.9.566C824.476,588.655,824.7,588.885,824.89,589.25Z" transform="translate(-693.847 -510.888)"/><path class="e" d="M749.457,623.8l5.691-26s1.018-2.756,3.355-2.636l2.157,1.078s-3.594-.839-4.373,1.917-5.751,25.64-5.751,25.64Z" transform="translate(-652.628 -520.5)"/><path class="e" d="M815.808,573.8l2.276-15.875H819.1L816.766,573.8Z" transform="translate(-705.32 -482.364)"/><path class="e" d="M997.553,630.308l-2.157-24.8a4.962,4.962,0,0,1,1.078-3.115c1.078-1.018,4.559-3.923,4.559-3.923s.892-.21,1.611,1.827,5.691,22.4,5.691,22.4l-.959.419-6.171-23.483-4.253,4.014a4.211,4.211,0,0,0-.419,2.875c.419,1.378,1.977,23.783,1.977,23.783Z" transform="translate(-865.259 -523.356)"/><path class="e" d="M927.717,579.158l5.391,1.558,1.2-1.138-3.115-.419Z" transform="translate(-802.073 -500.721)"/><path class="g" d="M608.294,282.483l.874,13.113,19.11-1.857-.76-12.819a1.289,1.289,0,0,0-1.4-1.208l-16.651,1.4A1.289,1.289,0,0,0,608.294,282.483Z" transform="translate(-530.581 -247.771)"/><path class="g" d="M606.935,342.249l-19.05,2.078-.719.078-5.571-3.594v-.779l18.93-1.7Z" transform="translate(-502.827 -292.507)"/><path class="f" d="M587.885,355.731l-.719.078-5.571-3.594v-.7Z" transform="translate(-502.827 -303.911)"/><path class="h" d="M583.364,247.342l.659,11.682,16.774-1.557-.6-11.382Z" transform="translate(-504.357 -212.756)"/><path class="f" d="M657.233,362.071l2.037,1.378,6.17-.6-2.1-1.318Z" transform="translate(-568.222 -312.568)"/><path class="h" d="M595.749,343.185l2.576,1.917,16.474-1.557-2.935-1.917Z" transform="translate(-515.065 -295.359)"/><rect class="i" width="12.161" height="12.161" transform="translate(109.919 30.123)"/><rect class="j" width="12.161" height="12.161" transform="translate(109.919 30.123)"/><path class="k" d="M875.466,293.564s1.716,4.646,0,5.5,6.147,0,6.147,0l2.216-1.787s-5-1.43-4.289-4.718S875.466,293.564,875.466,293.564Z" transform="translate(-761.359 -257.813)"/><path class="f" d="M875.466,293.564s1.716,4.646,0,5.5,6.147,0,6.147,0l2.216-1.787s-5-1.43-4.289-4.718S875.466,293.564,875.466,293.564Z" transform="translate(-761.359 -257.813)"/><path class="k" d="M773.056,646.245s6.433,9.078,5.361,11.58-.5,4.074-2.645,4.932-2.716,2.43-.858,2.359,4.289-.572,4.646-1.215,1.215-3.717,2.43-4.146,3.5-2.073,1.858-4.074-5.786-9.373-5.466-10.119S773.056,646.245,773.056,646.245Z" transform="translate(-673.031 -563.889)"/><path class="i" d="M759.115,519.512s-13.3.858-16.726,4.074,3,15.225,3.717,15.368,6.29-.429,6.076-2-4-8.006-4-8.006a57.461,57.461,0,0,1,7.648-2.216,17.428,17.428,0,0,0,5.718-2.43Z" transform="translate(-645.652 -455.098)"/><path class="k" d="M827.417,502.909s.214,7.934,2.216,8.22,0-6.076,0-6.076l-.071-2.43Z" transform="translate(-720.029 -440.496)"/><path class="l" d="M829.843,349.892s-3.717-1.072-4.432,1.787-.929,12.723-.929,12.723l-1.287,7.863s2.359-.715,2.859-.357l3-3.788Z" transform="translate(-716.379 -308.28)"/><path class="m" d="M829.843,349.892s-3.717-1.072-4.432,1.787-.929,12.723-.929,12.723l-1.287,7.863s2.359-.715,2.859-.357l3-3.788Z" transform="translate(-716.379 -308.28)"/><path class="k" d="M890.783,663.225s2.5,4.911,4,4.839,2.931-1,3.646,1.93-.143,2.144.715,3.86,1,4.718-.643,5.432-3.145.786-3.217,0,1.43-.786-.286-3.574-5.361-7.863-6.862-8.363S890.783,663.225,890.783,663.225Z" transform="translate(-772.241 -579.347)"/><path class="i" d="M829.824,497.873s5.147,8.578,1.787,11.079-13.367,7.291-13.367,7.291,5.361,3.645,5.647,4.861-2.573,4.5-3.574,4.575-3.931-3.288-7.077-4.146-5.075-7.005-1.644-9.292a38.341,38.341,0,0,0,6.648-6.076l-1-5.5Z" transform="translate(-704.781 -436.389)"/><path class="k" d="M850.422,251.839c0,3.04-3.114,5.553-6.154,5.553a5.5,5.5,0,0,1,0-11.008C847.308,246.384,850.422,248.8,850.422,251.839Z" transform="translate(-729.84 -218.96)"/><path class="l" d="M846.269,329.488s4.932-2.144,4.932-2.43,2.859.643,3.5,1.215,1,.5,1.43,1.644-2.144,11.794-2.144,11.794,1.43,8.22,2.216,9.006-6.362,1.93-6.362,1.93-4.718.858-5.5,1.215-2.216.858-1.93,0,1.5-1.5-.572-2.573c0,0,.715-3.5,0-5.075s-4-7.291-1.358-11.437,3.86-5.647,3.86-5.647A2.014,2.014,0,0,0,846.269,329.488Z" transform="translate(-730.447 -288.662)"/><path class="k" d="M824.431,489.428s-5.575,2.473-7.255,2.7-6.755,1.516-3.967,2.659,7-.572,7-.572l5.933-2.5Z" transform="translate(-707.036 -429.088)"/><path class="f" d="M893.456,342.889s2.059-1,2.631,2.507,2.573,14.582,0,16.226a92.211,92.211,0,0,1-8.506,4.289s-3.5-2.359-1.858-3.217,5.575-3.288,6.147-4.146,1.15-10.432.149-12S893.456,342.889,893.456,342.889Z" transform="translate(-770.058 -302.282)"/><path class="l" d="M897.521,337.422s2.859-.143,3.431,3.36,2.573,14.582,0,16.226a92.2,92.2,0,0,1-8.506,4.289s-3.5-2.359-1.859-3.217,5.575-3.288,6.147-4.146-.429-9.793-1.43-11.365S897.521,337.422,897.521,337.422Z" transform="translate(-774.265 -297.668)"/><path class="i" d="M829.11,218.172a2.962,2.962,0,0,0-2.26,1.208,10.212,10.212,0,0,0-.452,1.216c-.459,1.1-1.575,1.764-2.38,2.648a4.175,4.175,0,0,0-.952,4.319,17.657,17.657,0,0,0,.924,1.555,10.229,10.229,0,0,1,.891,4.916l.046,3.31a4.758,4.758,0,0,1-.14,1.5,1.61,1.61,0,0,1-.974,1.086,2.525,2.525,0,0,0,2.94-1,2.58,2.58,0,0,1-.789,2.289,5.117,5.117,0,0,0,3.1-2.416,9.365,9.365,0,0,0,1.157-3.836,5.029,5.029,0,0,0-.121-2.116,6.628,6.628,0,0,0-.693-1.331,10.28,10.28,0,0,1-1.495-3.553,4.561,4.561,0,0,1,.829-3.666,3.312,3.312,0,0,1,2.616-1.2,2.912,2.912,0,0,1,2.428,1.486c.191.36.463.848.851.721a2.113,2.113,0,0,0,.21-.1c.432-.2.923.191,1.113.626.6,1.371-.506,2.869-.621,4.362a5.275,5.275,0,0,0,1.593,3.74,12.287,12.287,0,0,0,6.007,3.691,1.686,1.686,0,0,1-.871-.541,11.44,11.44,0,0,0,2.811-.236,19.379,19.379,0,0,1-2.858-2.461,6.5,6.5,0,0,1-1.686-3.321c-.243-1.673.38-3.484-.332-5.017-.651-1.4-2.266-2.184-2.856-3.613-.6-1.451-.987-2.711-2.574-3.343A10.909,10.909,0,0,0,829.11,218.172Z" transform="translate(-716.037 -194.51)"/></svg>