<svg xmlns="http://www.w3.org/2000/svg" xmlns:xlink="http://www.w3.org/1999/xlink" width="137.429" height="114" viewBox="0 0 137.429 114"><defs><style>.a{fill:none;stroke:#64ffda;stroke-miterlimit:10;stroke-width:4px;stroke-dasharray:12.07 15.09;}.b,.f{fill:#6c63ff;}.b,.i,.k,.o{opacity:0.2;}.c{fill:url(#a);}.d{fill:#fff;}.e{fill:url(#b);}.g{fill:#e0e0e0;}.h{fill:#f5f5f5;}.i,.j{fill:#69f0ae;}.k,.l,.m{fill:#ff6e40;}.l{opacity:0.3;}.n{fill:url(#d);}</style><linearGradient id="a" x1="0.5" y1="1" x2="0.5" gradientUnits="objectBoundingBox"><stop offset="0" stop-color="gray" stop-opacity="0.251"/><stop offset="0.54" stop-color="gray" stop-opacity="0.122"/><stop offset="1" stop-color="gray" stop-opacity="0.102"/></linearGradient><linearGradient id="b" x1="0" y1="0.5" x2="1" y2="0.5" xlink:href="#a"/><linearGradient id="d" x1="0.5" y1="1" x2="0.5" y2="0" xlink:href="#a"/></defs><g transform="translate(0)"><circle class="a" cx="55" cy="55" r="55" transform="translate(9.114 2)"/><rect class="b" width="57.876" height="36.814" transform="translate(11.552 18.347)"/><rect class="c" width="66.371" height="37.698" transform="translate(0 13.055)"/><rect class="d" width="64.779" height="31.327" transform="translate(0.708 18.542)"/><rect class="e" width="22.477" height="23.717" transform="translate(5.133 21.197)"/><rect class="f" width="21.239" height="22.655" transform="translate(5.841 21.727)"/><path class="d" d="M226.951,233.894a15.364,15.364,0,0,0-.909-3.953,6.551,6.551,0,0,0-2.494-3.13,2.85,2.85,0,0,0-1.379-.477,2.588,2.588,0,0,0-2.2,1.35,6.293,6.293,0,0,0-.411.835,1.944,1.944,0,0,0-1.614,1.78,4.958,4.958,0,0,0,.7,9.361v.845a4.976,4.976,0,0,0-3.717,4.8v2.3h9.912v-2.3a4.976,4.976,0,0,0-3.717-4.8v-.845a4.958,4.958,0,0,0,3.717-4.8v-.035l.558,1.241a6.752,6.752,0,0,1,.868,3.73C227.283,238.056,227.2,235.9,226.951,233.894Z" transform="translate(-204.559 -203.221)"/><rect class="f" width="64.779" height="4.779" transform="translate(0.708 13.764)"/><rect class="g" width="24.602" height="1.592" transform="translate(35.752 28.365)"/><rect class="h" width="24.602" height="1.592" transform="translate(35.752 35.091)"/><rect class="b" width="14.514" height="1.592" transform="translate(35.574 31.727)"/><rect class="i" width="9.912" height="1.592" transform="translate(35.574 38.453)"/><rect class="j" width="9.912" height="1.592" transform="translate(47.256 38.453)"/><rect class="k" width="32.659" height="15.23" transform="translate(101.115 22.405)"/><rect class="c" width="35.021" height="16.544" transform="translate(95.98 18.764)"/><rect class="d" width="32.659" height="15.23" transform="translate(97.268 19.158)"/><rect class="l" width="19.052" height="1.808" transform="translate(102.217 22.488)"/><rect class="m" width="9.88" height="1.808" transform="translate(102.217 26.624)"/><rect class="b" width="76.186" height="20.492" transform="translate(61.242 86.158)"/><rect class="n" width="77.295" height="21.82" transform="translate(56.559 81.686)"/><rect class="d" width="76.186" height="20.341" transform="translate(57.114 82.426)"/><circle class="c" cx="7.621" cy="7.621" r="7.621" transform="translate(68.111 84.976)"/><circle class="f" cx="6.774" cy="6.774" r="6.774" transform="translate(68.958 85.823)"/><g class="o" transform="translate(89.068 87.517)"><rect class="f" width="12.067" height="2.117"/><rect class="f" width="33.235" height="2.117" transform="translate(0 4.021)"/><rect class="f" width="33.235" height="2.117" transform="translate(0 8.044)"/></g><path class="d" d="M480.272,575.655l-1.488-1.135-3.921,5.138-2.188-1.67-1.135,1.486,2.933,2.239.008-.011.742.567Z" transform="translate(-400.095 -485.775)"/></g></svg>