<svg xmlns="http://www.w3.org/2000/svg" xmlns:xlink="http://www.w3.org/1999/xlink" width="143.569" height="110" viewBox="0 0 143.569 110"><defs><style>.a,.h{fill:#6c63ff;}.a,.e{opacity:0.1;}.b{fill:url(#a);}.c{fill:#3f3d56;}.d{fill:#ffbcc8;}.f{fill:#575a89;}.g{fill:url(#b);}.i{opacity:0.3;}.j{fill:#d6d6e3;}.k{opacity:0.05;}.l{fill:#8ed16f;}</style><linearGradient id="a" x1="0.5" y1="1" x2="0.5" gradientUnits="objectBoundingBox"><stop offset="0" stop-color="gray" stop-opacity="0.251"/><stop offset="0.54" stop-color="gray" stop-opacity="0.122"/><stop offset="1" stop-color="gray" stop-opacity="0.102"/></linearGradient><linearGradient id="b" x1="0.5" x2="0.5" y2="0" xlink:href="#a"/></defs><g transform="translate(0.007 0.029)"><path class="a" d="M70.461,129.906a6.371,6.371,0,0,0-4.342,4.4c-.568,2.5.74,5.033.927,7.6.611,8.425-10.48,14.369-8.9,22.648.629,3.286,3.169,5.708,5.674,7.7,4.009,3.193,8.457,6.013,13.377,6.81,7.475,1.209,15.287-2.348,22.554-.1,5.861,1.813,10.345,7.129,16.166,9.091,4.432,1.494,9.2.9,13.811.3,2.478-.324,5.082-.7,7.086-2.31,3.731-3,3.956-8.911,6.451-13.15,3.85-6.544,12.292-7.822,19.371-6.551s13.949,4.406,21.121,4.142a9.048,9.048,0,0,0,4.44-1.093,11.647,11.647,0,0,0,3.7-4.449,76.306,76.306,0,0,0,9.66-35.769,13.816,13.816,0,0,0-.973-6.357c-1.192-2.425-3.576-3.873-5.96-4.85-5.706-2.334-12.009-2.711-17.6-5.36-5.394-2.552-9.765-7.03-14.462-10.86a74.406,74.406,0,0,0-31.723-15.265,18.655,18.655,0,0,0-8.178-.315c-3.089.75-5.751,2.83-8.144,5.069-6.369,5.96-11.472,13.308-17.34,19.837A101.334,101.334,0,0,1,84,123.337a48.13,48.13,0,0,1-6.9,4.949C74.882,129.429,72.8,129.142,70.461,129.906Z" transform="translate(-58 -79.093)"/><path class="b" d="M312.964,89.854c-2.914-.609-8.43-1.752-14.673-3.018-9.243-1.874-11.655,5.22-11.655,5.22,0,3.613-12.052,18.6-12.052,18.6l-3.595-8.053a3.791,3.791,0,0,0,1.653-.111c2.058-.615,3.075-2.936,3.405-5.057a16.617,16.617,0,0,0-1.294-9.4c-.613-1.343-1.408-2.607-1.9-4-2.078-5.835,1.522-12.59-.656-18.4-.9-2.4-2.693-4.344-3.932-6.585-2.781-5.039-2.662-11.344-5.7-16.239a14.7,14.7,0,0,0-13.822-6.7c-3.167.358-5.43,1.489-8.381.132-2.491-1.142-5.482-2.418-8.047-.62-2.188,1.534-2.56,4.555-3.755,6.943-2.1,4.195-7.075,6.932-7.661,11.585a20.638,20.638,0,0,1-.335,3.444c-.956,3.13-5.12,4.054-6.826,6.847a5.385,5.385,0,0,0,3.124,7.655c1.324.336,2.75.132,4.073.489,1.241.331,2.445,1.491,2.23,2.7l-2.752.5-7.919.879-1.225.077v.06l-.066.008.065.053v.434c-2.229.873-5.841,3.2-7.2,9.313a9.25,9.25,0,0,1-1.845,3.808c-2.03,2.5-5.4,7.392-5.212,12.084.265,6.691.265,9.368,9.109,7.494a30.808,30.808,0,0,0,7.05-2.626,27.047,27.047,0,0,0,1.256,7.577c2.412,6.557-2.679,29.709-2.679,29.709h49.167s-4.153-13.65-8.172-20.608c-2.846-4.93-1.795-7.911-.939-9.231a12.392,12.392,0,0,0,1.641-3.658c.146-.571.287-1.218.409-1.936a10.332,10.332,0,0,0,2.963,1.8,5.347,5.347,0,0,0,3.187.184c2.1,2.561,4.436,5.371,6.94,8.29,9.646,11.241,12.325,4.282,12.325,4.282s9.78-18.6,11.125-24.221S294.68,94.2,294.68,94.2c8.063,2.038,15.21-.92,18.53-2.7a.883.883,0,0,0-.246-1.648Zm-99.481,3.363A12.724,12.724,0,0,0,215.2,90.7h.025a19.113,19.113,0,0,1-.942,2.739c-.751.144-1.2.22-1.2.22Z" transform="translate(-178.599 -34.75)"/><path class="c" d="M336.434,44.654c-2.163,1.518-2.531,4.5-3.708,6.871-2.074,4.151-6.994,6.862-7.573,11.466a20.46,20.46,0,0,1-.331,3.406c-.944,3.1-5.062,4.013-6.755,6.777a5.331,5.331,0,0,0,3.089,7.576c1.313.334,2.718.132,4.026.483s2.576,1.633,2.143,2.914c-.322.954-1.457,1.5-1.664,2.482a2.909,2.909,0,0,0,.956,2.315,9.6,9.6,0,0,0,2.417,2.2c2.612,1.5,5.87.6,8.882.5a16.048,16.048,0,0,1,10.128,3.22,7.766,7.766,0,0,1,2.134,2.271c1.683,2.964.091,6.684.449,10.074.405,3.851,3.282,6.943,6.186,9.5a12.442,12.442,0,0,0,3.841,2.559,4.708,4.708,0,0,0,4.424-.444,5.45,5.45,0,0,0,1.743-4.371c.008-1.625-.334-3.242-.252-4.865.04-.795.33-1.739,1.1-1.9a1.805,1.805,0,0,1,1.135.257c2.471,1.242,4.842,3.675,7.491,2.886,2.036-.608,3.046-2.906,3.367-5.005a16.461,16.461,0,0,0-1.279-9.3c-.607-1.324-1.392-2.579-1.879-3.956-2.048-5.786,1.509-12.474-.642-18.223-.889-2.373-2.662-4.3-3.887-6.518-2.755-4.988-2.632-11.227-5.632-16.072a14.525,14.525,0,0,0-13.664-6.634c-3.131.354-5.368,1.474-8.286.132C341.933,44.139,338.977,42.869,336.434,44.654Z" transform="translate(-283.065 -42.596)"/><path class="d" d="M596.944,366.109s8.609-2.649,12.052,12.715l8.741,19.6s11.92-14.834,11.92-18.41c0,0,2.384-7.02,11.523-5.165,6.173,1.253,11.621,2.384,14.507,2.987a.874.874,0,0,1,.237,1.625c-3.282,1.762-10.348,4.69-18.32,2.673,0,0-2.914-.265-4.238,5.3s-10.993,23.972-10.993,23.972-2.649,6.887-12.185-4.238S593.5,386.506,593.5,386.506Z" transform="translate(-522.582 -322.097)"/><path class="d" d="M382.657,263.262l-1.142,3.76-1.128,3.719-2.233,7.355-10.6,1.987-3.453-2.2-4.229-2.7-3.646-2.516-5.36-3.708-4.371-9.139s1.205-.213,4.963-.9l5.236-.958c3.616-.662,4.983-3.353,5.4-6.092a18.824,18.824,0,0,0-.367-6.622h13.377a10.6,10.6,0,0,1,1.262,6.14,15.565,15.565,0,0,1-.6,3.4c-1.176,4.071,1.479,5.43,3.281,5.871a7.465,7.465,0,0,0,1.487.221Z" transform="translate(-308.296 -217.396)"/><path class="e" d="M476.109,251.407a12.59,12.59,0,0,1-14.272.485,18.825,18.825,0,0,0-.367-6.622h13.377A10.526,10.526,0,0,1,476.109,251.407Z" transform="translate(-408.039 -217.413)"/><circle class="d" cx="12.582" cy="12.582" r="12.582" transform="translate(48.005 10.901)"/><path class="e" d="M382.657,352.82l-1.142,3.76-1.128,3.719-2.233,7.355-10.6,1.987-3.453-2.2-4.229-2.7-3.646-2.516-5.36-3.708-4.371-9.139s1.205-.213,4.963-.9c2.649,7.371,6,10.115,9.023,11a11.125,11.125,0,0,0,4.845.2,12.5,12.5,0,0,1,5.2.265c4.066,1.131,6.206-1.034,7.331-3.783a19.188,19.188,0,0,0,1.192-5.96,7.466,7.466,0,0,0,1.487.221Z" transform="translate(-308.296 -306.954)"/><path class="f" d="M304.012,418.042s5.033-22.913,2.649-29.4a25.267,25.267,0,0,1-1.2-6.792,84.265,84.265,0,0,1,.405-13.075c.114-.221.221-.441.324-.662q.4-.848.7-1.658c2.838-7.637-.693-12.721-2.483-14.666a8.918,8.918,0,0,0-.927-.891l10.132-1.126c2.663,7.643,6.079,10.463,9.152,11.366a11.126,11.126,0,0,0,4.845.2,12.5,12.5,0,0,1,5.2.265c4.066,1.131,6.206-1.034,7.331-3.783a21.456,21.456,0,0,0,1.224-7.72l5.828,1.722s-.514,3.192-.979,7.386c-.11.984-.217,2.022-.314,3.089a63.043,63.043,0,0,0-.164,12.7,25.7,25.7,0,0,1-.5,9.891,12.266,12.266,0,0,1-1.621,3.621c-.846,1.306-1.886,4.258.927,9.139,3.973,6.887,8.079,20.4,8.079,20.4Z" transform="translate(-270.974 -308.073)"/><path class="f" d="M595.051,365.75s4.812,7.549-1.5,14.039-3.8-2.649-3.8-2.649l1.589-10.6Z" transform="translate(-518.902 -321.937)"/><path class="e" d="M310.48,363.386a6.55,6.55,0,0,1,1.1-.246c1.722.821,2.675,3.1,3.193,5.481a12.325,12.325,0,0,1-1.811,9.438C315.8,370.415,312.271,365.331,310.48,363.386Z" transform="translate(-277.046 -319.672)"/><path class="e" d="M358.152,413.819a50.964,50.964,0,0,1-6.522-.144,5.769,5.769,0,0,1-1.589,5.218,3.61,3.61,0,0,1-3.266,1.143c-6.111-1.06-15.4,4.5-15.4,4.5a86.021,86.021,0,0,1-13.655,8.837,84.265,84.265,0,0,1,.405-13.075c.114-.221.221-.441.324-.662,2.832-.53,13.12-2.622,15.171-5.7a4.852,4.852,0,0,1,1.4-1.282,25.644,25.644,0,0,1,7.222-2.671,28.844,28.844,0,0,1,10.149-.644,28,28,0,0,1,4.312.841c.617.171,1.213.355,1.76.547,1.5.53,2.636,1.122,2.833,1.752C361.565,413.334,360.054,413.694,358.152,413.819Z" transform="translate(-283.229 -359.597)"/><path class="e" d="M444.126,406.832c-2.038-.034-3.822-.195-3.822-.195a5.769,5.769,0,0,1-1.589,5.218A3.61,3.61,0,0,1,435.449,413a16.7,16.7,0,0,0-7.6.972l-4.234-2.7-3.646-2.516a6.432,6.432,0,0,0,2.322-1.854c1.176-1.764,5.033-3.077,8.626-3.953a28.618,28.618,0,0,1,14.337.164l.125.033c2.3.642,4.324,1.438,4.593,2.3C450.359,406.684,446.993,406.883,444.126,406.832Z" transform="translate(-372.035 -353.487)"/><path class="d" d="M213.383,358.12s-6.928.7-8.948,9.686a9.3,9.3,0,0,1-1.841,3.814c-2.008,2.481-5.328,7.311-5.143,11.948.265,6.622.265,9.271,9.006,7.417s20.529-11.39,20.529-11.39,9.292-5.553,15.4-4.5a3.613,3.613,0,0,0,3.266-1.143,5.751,5.751,0,0,0,1.589-5.218s10.331.927,9.668-1.192c-.265-.861-2.29-1.657-4.593-2.3a28.638,28.638,0,0,0-14.462-.2c-3.6.878-7.45,2.191-8.626,3.953-2.384,3.576-15.893,5.828-15.893,5.828l.4-.446a12.374,12.374,0,0,0,2.84-10.776C216.06,361.221,215.11,358.941,213.383,358.12Z" transform="translate(-178.981 -315.317)"/><path class="f" d="M303.964,356.015s-.4,16.026,5.563,13.642,1.324-13.642,1.324-13.642l-2.649-.265Z" transform="translate(-271.389 -313.261)"/><path class="e" d="M415.082,115.629a58.577,58.577,0,0,0,11.566-2.486,3.887,3.887,0,0,0,2.469-1.637c.117-.234.2-.513.433-.641a.917.917,0,0,1,.654-.025,26.46,26.46,0,0,1,3.63,1.612c1.23.5,2.8.613,3.743-.319,1.117-1.1.747-3,.012-4.38-2.73-5.149-9.124-7.5-14.941-7.074a6.45,6.45,0,0,0-2.384.53c-1.558.748-2.41,2.413-3.254,3.922C415.369,108.055,406.693,116.557,415.082,115.629Z" transform="translate(-364.67 -91.929)"/><path class="c" d="M415.082,112.629a58.578,58.578,0,0,0,11.566-2.486,3.887,3.887,0,0,0,2.469-1.637c.117-.234.2-.513.433-.641a.917.917,0,0,1,.654-.025,26.46,26.46,0,0,1,3.63,1.612c1.23.5,2.8.613,3.743-.319,1.117-1.1.747-3,.012-4.38-2.73-5.149-9.124-7.5-14.941-7.074a6.45,6.45,0,0,0-2.384.53c-1.558.748-2.41,2.413-3.254,3.922C415.369,105.055,406.693,113.557,415.082,112.629Z" transform="translate(-364.67 -89.327)"/><path class="g" d="M899.1,316.75H872.215a1.225,1.225,0,0,0-1.225,1.225v15.761a1.225,1.225,0,0,0,1.225,1.225H899.1a1.225,1.225,0,0,0,1.225-1.225V317.975A1.225,1.225,0,0,0,899.1,316.75Z" transform="translate(-763.32 -279.426)"/><rect class="h" width="28.652" height="17.783" rx="2" transform="translate(108.01 37.538)"/><rect class="h" width="28.652" height="3.261" transform="translate(108.01 40.651)"/><rect class="i" width="28.652" height="3.261" transform="translate(108.01 40.651)"/><rect class="j" width="23.217" height="1.581" transform="translate(110.727 46.331)"/><circle class="h" cx="2.273" cy="2.273" r="2.273" transform="translate(110.381 49.591)"/><circle class="i" cx="2.273" cy="2.273" r="2.273" transform="translate(110.381 49.591)"/><path class="k" d="M285.841,484.75s-2.516,1.336-2.934,2.969S282,489.65,282,489.65" transform="translate(-252.338 -425.176)"/><path class="k" d="M773.53,610.75s-1.192,4.106,0,4.636" transform="translate(-678.308 -534.488)"/><path class="k" d="M328,630.134s10.331,2.252,18.012-2.384h3.311s9.933,5.033,14.7,3.576" transform="translate(-292.246 -549.236)"/><rect class="l" width="5.008" height="9.758" transform="translate(107.085 77.524) rotate(-66.42)"/><ellipse class="l" cx="1.028" cy="2.054" rx="1.028" ry="2.054" transform="translate(110.237 77.36) rotate(-66.42)"/><ellipse class="e" cx="1.028" cy="2.054" rx="1.028" ry="2.054" transform="translate(110.237 77.36) rotate(-66.42)"/><rect class="l" width="5.008" height="9.758" transform="translate(120.201 61.172) rotate(-66.42)"/><ellipse class="l" cx="1.028" cy="2.054" rx="1.028" ry="2.054" transform="translate(123.353 61.009) rotate(-66.42)"/><ellipse class="e" cx="1.028" cy="2.054" rx="1.028" ry="2.054" transform="translate(123.353 61.009) rotate(-66.42)"/><rect class="l" width="5.008" height="9.758" transform="translate(133.177 74.157) rotate(-11.09)"/><ellipse class="l" cx="1.028" cy="2.054" rx="1.028" ry="2.054" transform="translate(135.106 76.657) rotate(-11.09)"/><ellipse class="e" cx="1.028" cy="2.054" rx="1.028" ry="2.054" transform="translate(135.106 76.657) rotate(-11.09)"/><rect class="l" width="5.008" height="9.758" transform="translate(118.408 99.99) rotate(-66.42)"/><ellipse class="l" cx="1.028" cy="2.054" rx="1.028" ry="2.054" transform="translate(121.563 99.827) rotate(-66.42)"/><ellipse class="e" cx="1.028" cy="2.054" rx="1.028" ry="2.054" transform="translate(121.563 99.827) rotate(-66.42)"/><rect class="l" width="5.008" height="9.758" transform="translate(96.309 95.653) rotate(-66.42)"/><ellipse class="l" cx="1.028" cy="2.054" rx="1.028" ry="2.054" transform="translate(99.463 95.489) rotate(-66.42)"/><ellipse class="e" cx="1.028" cy="2.054" rx="1.028" ry="2.054" transform="translate(99.463 95.489) rotate(-66.42)"/></g></svg>