<svg xmlns="http://www.w3.org/2000/svg" xmlns:xlink="http://www.w3.org/1999/xlink" width="189.283" height="110.702" viewBox="0 0 189.283 110.702"><defs><style>.a{fill:none;stroke:#3f3d56;stroke-miterlimit:10;}.b{fill:#6c63ff;}.c{fill:#f2f2f2;}.d{fill:url(#a);}.e{fill:#3f3d56;}.f,.m{opacity:0.1;}.g{fill:#ffb9b9;}.h{opacity:0.05;}.i{fill:#575a89;}.j{fill:#cdd0db;}.k{fill:#9da7c0;}.l{fill:#fff;opacity:0.3;}.n{fill:#57b894;}.o{fill:#656380;}.p{opacity:0.2;}</style><linearGradient id="a" x1="0.5" y1="1" x2="0.5" gradientUnits="objectBoundingBox"><stop offset="0" stop-color="gray" stop-opacity="0.251"/><stop offset="0.535" stop-color="gray" stop-opacity="0.122"/><stop offset="1" stop-color="gray" stop-opacity="0.102"/></linearGradient></defs><g transform="translate(0 0)"><ellipse class="a" cx="4.804" cy="4.804" rx="4.804" ry="4.804" transform="translate(108.579 9.833)"/><path class="b" d="M688.684,183.846l-1.162-1.168a.617.617,0,0,0-.876-.006l-7.292,7.231-3.083-3.108a.615.615,0,0,0-.87-.006l-1.174,1.162a.622.622,0,0,0-.006.876l4.683,4.719a.622.622,0,0,0,.876.006l8.9-8.83a.617.617,0,0,0,.006-.876Z" transform="translate(-565.509 -178.244)"/><rect class="c" width="87.113" height="9.929" rx="4.965" transform="translate(0 12.236)"/><rect class="c" width="87.113" height="9.929" rx="4.965" transform="translate(0.109 29.451)"/><rect class="c" width="87.113" height="9.929" rx="4.965" transform="translate(0.218 46.667)"/><rect class="c" width="87.113" height="9.929" rx="4.965" transform="translate(0.327 63.883)"/><rect class="a" width="87.113" height="9.929" rx="4.965" transform="translate(2.722 9.673)"/><rect class="a" width="87.113" height="9.929" rx="4.965" transform="translate(2.831 26.889)"/><rect class="a" width="87.113" height="9.929" rx="4.965" transform="translate(2.94 44.105)"/><rect class="a" width="87.113" height="9.929" rx="4.965" transform="translate(3.049 61.32)"/><ellipse class="a" cx="4.804" cy="4.804" rx="4.804" ry="4.804" transform="translate(108.579 27.129)"/><ellipse class="a" cx="4.804" cy="4.804" rx="4.804" ry="4.804" transform="translate(108.579 44.425)"/><ellipse class="a" cx="4.804" cy="4.804" rx="4.804" ry="4.804" transform="translate(108.579 61.721)"/><path class="b" d="M688.684,275.224l-1.162-1.168a.617.617,0,0,0-.876-.006l-7.292,7.231-3.083-3.108a.615.615,0,0,0-.87-.006l-1.174,1.162a.622.622,0,0,0-.006.876l4.683,4.719a.622.622,0,0,0,.876.006l8.9-8.831a.617.617,0,0,0,.006-.876Z" transform="translate(-565.509 -252.165)"/><path class="b" d="M688.684,457.979l-1.162-1.168a.617.617,0,0,0-.876-.006l-7.292,7.231-3.083-3.108a.615.615,0,0,0-.87-.006l-1.174,1.162a.622.622,0,0,0-.006.876l4.683,4.719a.622.622,0,0,0,.876.006l8.9-8.831a.617.617,0,0,0,.006-.876Z" transform="translate(-565.509 -400.009)"/><ellipse class="c" cx="29.419" cy="4.585" rx="29.419" ry="4.585" transform="translate(125.17 101.533)"/><ellipse class="a" cx="29.419" cy="4.585" rx="29.419" ry="4.585" transform="translate(129.946 99.814)"/><path class="d" d="M894.054,181.238q-.127-.145-.262-.283a4.148,4.148,0,0,0,1.4-2.59c-.008-1.222-1.092-2.159-1.5-3.314-.551-1.572.214-3.256.528-4.89a9.171,9.171,0,0,0-1.989-7.551,2.651,2.651,0,0,0-1.162-.89,5.372,5.372,0,0,0-2.24.181c-2.48.306-4.737-1.831-7.229-1.639a1.344,1.344,0,0,0-.48.107,2.034,2.034,0,0,0-.7.788,7.506,7.506,0,0,1-3.367,2.29,1.759,1.759,0,0,0-.459.211c-.388.181-.771.369-1.132.583-2.442,1.445-2.088,3.467-.648,4.716-.281,1.4-1.715,2.637-1.468,4.078.194,1.13,1.371,1.9,1.6,3.023a3.034,3.034,0,0,1-.364,1.893c-2.732.632-5.819,1.8-6.06,3.852-.419,3.575-1.68,13.45-1.68,13.45s-1.461,7.912,4.092,4.172l-.071.211a46.023,46.023,0,0,0-2.038,9.326c-.056.472-.169.843-.375.965-.075.044.073.114.394.2-.036.133-.075.265-.11.4a37.9,37.9,0,0,0-1.165,7.063,49.68,49.68,0,0,1-.872,6.29c-1.315,6.617,0,15.1,0,15.1l2.87,13.513.491,2.31a3.432,3.432,0,0,0,1.163.84,18.005,18.005,0,0,1,.4,2.515c.008.094.014.19.02.285a1.2,1.2,0,0,0-.852.532c-1.023,1.438.146,2.589-3.8,5.466a3.756,3.756,0,0,0-1.636,1.993h0a1.342,1.342,0,0,0,.678,1.456h0a2.468,2.468,0,0,0,.276.154l0,0q.072.035.148.066h0q.076.031.156.059l.009,0q.075.026.152.049l.011,0q.081.023.164.043l.014,0q.076.018.155.033l.02,0q.084.016.169.028l.019,0q.077.011.155.018l.03,0q.085.008.172.013h.022l.154,0h.036c.058,0,.116,0,.174,0h.023l.154-.009.041,0c.058,0,.116-.011.174-.018l.021,0,.156-.023.043-.007c.058-.01.115-.021.172-.033l.017,0c.052-.012.1-.024.157-.038l.044-.012c.057-.016.113-.032.169-.05l.009,0c.053-.017.106-.036.159-.055l.042-.016c.055-.021.11-.043.165-.067,2.63-1.151,8.037-4.172,8.037-4.172v-.176c0-.015,0-.03,0-.046V263.6c0-.02,0-.04,0-.062s0-.031,0-.047v-.07q0-.06,0-.126h0c-.027-1.257-.151-4.145-.723-4.032-.195.038-.328.312-.464.628l-.068-.129a12.154,12.154,0,0,1-1.441-4.719,8.451,8.451,0,0,0,1.242-1.1s-.294-1.237-.544-2.542a12.5,12.5,0,0,1-.333-2.781c.146-1.007-1.754-8.775-1.754-8.775s.2-1.709.589-4.084c.764-4.616,2.269-11.749,4.516-13.766.053-.046.1-.091.156-.131,0,0,1.607.288,2.923,9.35l.381,4.036a23.432,23.432,0,0,0,.567,3.317,17.467,17.467,0,0,1,.367,5.305c-.167,2.379-.238,5.18-.269,7.146-.023,1.482-.023,2.491-.023,2.491a5.516,5.516,0,0,0,.877.606v1.32a1.1,1.1,0,0,1-.308.75l-.005.006a2.036,2.036,0,0,0-.441.812,5.981,5.981,0,0,0-.561,2.4c-.292,3.884-.438,3.452-.438,3.452a5.123,5.123,0,0,0-.331,1.31h0c-.008.084-.014.169-.015.253,0,.013,0,.027,0,.04q0,.058,0,.116,0,.028,0,.057t.007.086c0,.026.006.052.009.077s.005.036.008.054q.009.052.021.1c0,.015.008.03.012.045.009.035.019.07.031.1l.012.032q.017.047.038.091l.012.027c.017.035.036.068.057.1l.017.027a1.077,1.077,0,0,0,.07.095l.018.021a1.039,1.039,0,0,0,.088.09l.01.008a1.073,1.073,0,0,0,.1.078l.016.011a1.175,1.175,0,0,0,.12.069l.025.012a1.335,1.335,0,0,0,.137.056l.025.008a1.588,1.588,0,0,0,.163.044h.006c.057.012.117.021.18.028l.026,0c.062.006.128.009.2.011H883c.069,0,.142,0,.217-.007l.036,0c.081-.006.163-.014.251-.027,3.069-.432,4.53-.719,4.384-2.445-.088-1.04-.335-2.551-.518-3.587a5.393,5.393,0,0,0-.505-1.513q.011-.121.021-.25a5.49,5.49,0,0,0-.167-2.13l.067-1.259a4.015,4.015,0,0,0,1.979-1.186s.022-.934.086-2.171a29.444,29.444,0,0,1,.644-5.6c.585-1.726,0-7.768,0-7.768s-2.192-10.357-.146-14.816a13.56,13.56,0,0,0,.053-11.7.59.59,0,0,0,.093-.092s-.438-.288-.292-3.6a18.956,18.956,0,0,0-.984-6.226,15.224,15.224,0,0,0,1.715.616c3.361,1.007,3.653-2.733,3.653-2.733l.73-5.61.867-8.362h0C895.422,184.8,895.739,183.158,894.054,181.238ZM879.2,175.7c0,.093-.01.185-.02.277a3.722,3.722,0,0,1-.187.873,5.808,5.808,0,0,0,.181-1.167l.026.016Zm8.835,20.421c.052.095.1.187.149.278l-.369-.188a8.263,8.263,0,0,1,.659-1.96,13.873,13.873,0,0,0,.893-2.258,22.533,22.533,0,0,0,.13,2.69C889.786,196.98,888.033,196.117,888.033,196.117Z" transform="translate(-720.245 -160.25)"/><path class="e" d="M910.231,180.07a2.547,2.547,0,0,0-1.122,1.227c-.268.872.4,1.747.471,2.656.121,1.654-1.749,3.021-1.474,4.656.189,1.121,1.338,1.884,1.559,3,.323,1.626-1.44,3.06-1.3,4.712a3.271,3.271,0,0,0,1.38,2.172,6.718,6.718,0,0,0,3.371,1.383c-.082-1.414-1.131-2.7-.951-4.107a10.2,10.2,0,0,1,1.194-2.64,7.828,7.828,0,0,0,.055-5.022,22.6,22.6,0,0,1-1.039-5c-.018-1.027.464-2.535.11-3.509C912.055,178.416,911.031,179.524,910.231,180.07Z" transform="translate(-754.835 -175.478)"/><path class="f" d="M910.231,180.276a2.547,2.547,0,0,0-1.122,1.227c-.268.872.4,1.747.471,2.656.121,1.654-1.749,3.021-1.474,4.656.189,1.121,1.338,1.884,1.559,3,.323,1.626-1.44,3.06-1.3,4.712a3.271,3.271,0,0,0,1.38,2.172,6.718,6.718,0,0,0,3.371,1.383c-.082-1.414-1.131-2.7-.951-4.107a10.2,10.2,0,0,1,1.194-2.64,7.828,7.828,0,0,0,.055-5.022,22.6,22.6,0,0,1-1.039-5c-.018-1.027.464-2.535.11-3.509C912.055,178.622,911.031,179.73,910.231,180.276Z" transform="translate(-754.835 -175.645)"/><path class="g" d="M901.126,652.7l-1.284,1.284s-4.565,2.425-3.994-.856a11.81,11.81,0,0,0,.1-2.95,18.34,18.34,0,0,0-.812-4.04l4.28-.856c-.712,2.237.461,5.053,1.193,6.487C900.9,652.344,901.126,652.7,901.126,652.7Z" transform="translate(-744.363 -552.624)"/><path class="g" d="M960.192,645.875a13.036,13.036,0,0,1-.163,1.311s-3.566,2.425-3.852-.285c-.185-1.766.234-2.564.551-2.9l.005-.005a1.1,1.1,0,0,0,.3-.744v-3.194l3.138,1-.143,2.71A5.533,5.533,0,0,1,960.192,645.875Z" transform="translate(-793.708 -548.396)"/><path class="h" d="M903.938,673.374l-1.284,1.284s-4.565,2.425-3.994-.856a11.8,11.8,0,0,0,.1-2.95c1-.147,2.184.953,2.184.953,1.672,2.359,2.123,1.466,2.477.638C903.714,673.02,903.938,673.374,903.938,673.374Z" transform="translate(-747.175 -573.3)"/><path class="e" d="M875.523,673.294s-2-1.854-3-.428.143,2.568-3.709,5.421,0,4.708,2.568,3.566,7.846-4.137,7.846-4.137,0-4.708-.713-4.565S877.948,676.718,875.523,673.294Z" transform="translate(-721.756 -574.505)"/><path class="h" d="M960.192,661.844a13.036,13.036,0,0,1-.163,1.311s-3.566,2.425-3.852-.285c-.185-1.766.234-2.564.551-2.9a.852.852,0,0,1,.876-.091c.571-.254,1.2.17,1.718.718A5.042,5.042,0,0,1,960.192,661.844Z" transform="translate(-793.708 -564.365)"/><path class="e" d="M952.735,661.366s-1.569-.856-1.854,3-.428,3.424-.428,3.424-1.427,3.424,1.569,3,4.422-.713,4.28-2.425c-.086-1.032-.327-2.53-.506-3.558a5.231,5.231,0,0,0-1.343-2.716C953.932,661.535,953.305,661.112,952.735,661.366Z" transform="translate(-788.839 -565.572)"/><path class="e" d="M894.063,438.333s.571,5.992,0,7.7a29.639,29.639,0,0,0-.629,5.551c-.063,1.227-.084,2.153-.084,2.153-2.71,2.853-5.849,0-5.849,0s0-1,.023-2.471c.03-1.95.1-4.728.263-7.087a17.594,17.594,0,0,0-.358-5.261,23.58,23.58,0,0,1-.554-3.29l-.372-4c-1.284-8.987-2.853-9.273-2.853-9.273-.051.04-.1.084-.153.13-2.193,2-3.662,9.074-4.408,13.652-.384,2.355-.575,4.05-.575,4.05s1.855,7.7,1.712,8.7a12.587,12.587,0,0,0,.325,2.758c.244,1.294.531,2.521.531,2.521-3.566,3.852-5.992.856-5.992.856l-.479-2.291-2.8-13.4s-1.284-8.417,0-14.979a50.019,50.019,0,0,0,.852-6.238,38.133,38.133,0,0,1,1.137-7q.261-1.019.579-2.021a70.374,70.374,0,0,1,10.4-.932c3.783,0,7.39.524,8.43,2.358q.359.633.653,1.27a13.664,13.664,0,0,1,.06,11.855C891.923,428.061,894.063,438.333,894.063,438.333Z" transform="translate(-725.032 -360.799)"/><path class="g" d="M911.116,230.266s-7.561-7.7-1.855-7.133a3.837,3.837,0,0,0,2.75-.535,2.763,2.763,0,0,0,1.017-2.039,8.409,8.409,0,0,0-.486-3.275s7.7-6.134,6.134,1.569a13.133,13.133,0,0,0-.3,2.381c-.026,1.635.512,2.261,1.267,2.518,1.272.435,3.164-.174,4.026,1.235C925.238,227.555,911.116,230.266,911.116,230.266Z" transform="translate(-754.067 -204.516)"/><path class="f" d="M911.116,230.266s-7.561-7.7-1.855-7.133a3.837,3.837,0,0,0,2.75-.535,2.763,2.763,0,0,0,1.017-2.039,8.409,8.409,0,0,0-.486-3.275s7.7-6.134,6.134,1.569a13.133,13.133,0,0,0-.3,2.381c-.026,1.635.512,2.261,1.267,2.518,1.272.435,3.164-.174,4.026,1.235C925.238,227.555,911.116,230.266,911.116,230.266Z" transform="translate(-754.067 -204.516)"/><path class="g" d="M935.781,189.91a6.134,6.134,0,1,1-12.268,0c0-.114,0-.228.01-.341a6.134,6.134,0,0,1,12.259.341Z" transform="translate(-767.32 -179.282)"/><path class="h" d="M911.116,262.572s-7.561-7.7-1.855-7.133a3.837,3.837,0,0,0,2.75-.535c-1.1,1.832-2.347,5.126,3.241,4.815,5.114-.284,5.027-2.322,4.391-3.661,1.272.435,3.164-.174,4.026,1.235C925.238,259.861,911.116,262.572,911.116,262.572Z" transform="translate(-754.067 -236.822)"/><path class="f" d="M904.9,412.369c-1.3,1.688-17.846-.525-20.266-1.26q.261-1.019.579-2.021a70.372,70.372,0,0,1,10.4-.932c3.783,0,7.39.524,8.43,2.358q.36.633.653,1.27C904.79,412.3,904.9,412.369,904.9,412.369Z" transform="translate(-735.869 -360.799)"/><path class="i" d="M885.951,250.983s-9.629.785-10.057,4.494c-.409,3.546-1.641,13.338-1.641,13.338s-1.427,7.846,3.994,4.137l-.07.209a46.265,46.265,0,0,0-1.99,9.248c-.055.468-.165.836-.366.957-.713.428,19.116,3.281,20.543,1.427,0,0-.428-.285-.285-3.566a19.679,19.679,0,0,0-1.141-6.7,9.851,9.851,0,0,1,.428-6.7c1.569-3.281,1-4.28,1-4.28l5.421-4.137s1.171-2.007-.97-4.484a7.414,7.414,0,0,0-5.1-2.511l-3.739-.266s4.1,4.408-3.606,4.836S885.951,250.983,885.951,250.983Z" transform="translate(-727.333 -233.65)"/><path class="h" d="M899.35,292.056s.285,2.283-.285,3-.713,3.994,0,5.992" transform="translate(-747.152 -266.877)"/><path class="f" d="M916.058,469.323c-2.193,2-3.662,9.074-4.408,13.652-1.039-6.372,3.277-16.921,3.277-16.921Z" transform="translate(-757.593 -407.636)"/><path class="f" d="M895.362,638.339c-3.566,3.852-5.992.856-5.992.856l-.479-2.291a4.74,4.74,0,0,0,5.94-1.086C895.076,637.112,895.362,638.339,895.362,638.339Z" transform="translate(-739.313 -544.97)"/><path class="f" d="M962.3,634.158c-.063,1.227-.084,2.153-.084,2.153-2.71,2.853-5.849,0-5.849,0s0-1,.023-2.471A5.879,5.879,0,0,0,962.3,634.158Z" transform="translate(-793.901 -543.37)"/><rect class="j" width="9.701" height="3.994" rx="1.997" transform="translate(152.911 30.029)"/><rect class="h" width="9.701" height="3.994" rx="1.997" transform="translate(152.911 30.029)"/><rect class="e" width="9.701" height="3.994" rx="1.997" transform="translate(152.911 30.172)"/><ellipse class="k" cx="0.428" cy="0.428" rx="0.428" ry="0.428" transform="translate(160.115 31.67)"/><path class="h" d="M884.224,329.845a2.774,2.774,0,0,1,1.612-1.7,2.529,2.529,0,0,0,1.384-1.242c.563-1.245,1.561-2.529,4.129-1.673s-.713,1.427-.713,1.427,5.849-.856,3.566.856a21.848,21.848,0,0,1-5.136,2.71l-1.4,1.488a2.1,2.1,0,0,1-3.136-.062A1.817,1.817,0,0,1,884.224,329.845Z" transform="translate(-735.441 -293.491)"/><path class="g" d="M883.477,328.351a2.774,2.774,0,0,1,1.612-1.7,2.529,2.529,0,0,0,1.384-1.242c.563-1.245,1.561-2.529,4.129-1.673s-.713,1.427-.713,1.427,5.849-.856,3.566.856a21.85,21.85,0,0,1-5.136,2.71l-1.4,1.488a2.1,2.1,0,0,1-3.136-.062A1.817,1.817,0,0,1,883.477,328.351Z" transform="translate(-734.837 -292.282)"/><path class="h" d="M947.746,334.772l-1,2.425-1.278-.94-3.572-2.626-2.425-1.569c-3.424-2.568,0-3,0-3-1.284-.571,0-1.141,0-1.141,4.565-1,3.709,2.71,3.709,2.71l2.892,1.5.96.5Z" transform="translate(-779 -295.756)"/><path class="g" d="M949.239,333.279l-1,2.425-1.278-.94-3.572-2.626-2.425-1.569c-3.424-2.568,0-3,0-3-1.284-.571,0-1.141,0-1.141,4.565-1,3.709,2.71,3.709,2.71l2.892,1.5.96.5Z" transform="translate(-780.208 -294.548)"/><path class="h" d="M981.08,351.829l-1,2.425-1.278-.94c1.157.041,2.524-.518.6-4.123l.96.5Z" transform="translate(-812.049 -313.098)"/><path class="i" d="M982.707,287.575l.275,1.122-.846,8.293-.713,5.564s-.285,3.709-3.566,2.711-3.566-2-3.566-2S979,304.837,976,299.273c0,0,1.712.856,1.427-1.427a42.656,42.656,0,0,1,0-6.277Z" transform="translate(-808.398 -263.252)"/><path class="h" d="M935.823,189.911a6.135,6.135,0,0,1-4.778,5.983,3.1,3.1,0,0,1-.2-1.785c.29-1.166,1.635-2.016,1.485-3.207a.79.79,0,0,0-.136-.374c-.3-.4-.914-.2-1.4-.1a2.668,2.668,0,0,1-2.984-1.84,4.169,4.169,0,0,1-4.243.983,6.134,6.134,0,0,1,12.258.341Z" transform="translate(-767.362 -179.283)"/><path class="e" d="M916.921,171.177a2.666,2.666,0,0,0,2.983,1.84c.488-.1,1.1-.294,1.4.1a.771.771,0,0,1,.135.372c.151,1.192-1.195,2.042-1.484,3.208-.3,1.2.576,2.36.763,3.584a14.566,14.566,0,0,1,0,2.027,2.5,2.5,0,0,0,.661,1.858,1.19,1.19,0,0,0,1.765-.129c1.605.848.964,3.477,2.183,4.823a3.289,3.289,0,0,0,2.775.826,1.171,1.171,0,0,0,.652-.211,1.134,1.134,0,0,0,.319-.6,4.866,4.866,0,0,0-.124-2.886,3.016,3.016,0,0,1-.33-1.359,2.011,2.011,0,0,1,.495-.97c.766-.95,1.812-1.869,1.8-3.089s-1.066-2.141-1.461-3.287c-.538-1.559.209-3.229.516-4.849a9.2,9.2,0,0,0-1.941-7.489,2.593,2.593,0,0,0-1.135-.882,5.166,5.166,0,0,0-2.186.18c-2.421.3-4.624-1.816-7.057-1.626a1.3,1.3,0,0,0-.468.107,2.007,2.007,0,0,0-.68.781c-1.074,1.605-3.185,2.063-4.84,3.058C906.835,169.474,913.224,174.735,916.921,171.177Z" transform="translate(-756.332 -162.158)"/><path class="l" d="M871.39,701.709c-1.667.741-3.875.219-4.165-1.019-.349,1.635,2.26,2.436,4.165,1.59,2.568-1.141,7.846-4.137,7.846-4.137s0-.222-.007-.566C879.075,697.663,873.92,700.585,871.39,701.709Z" transform="translate(-721.76 -594.93)"/><path class="l" d="M956.3,697.871c-.165,1.283-1.588,1.553-4.272,1.937-1.365.2-1.811-.41-1.893-1.126-.089.917.171,1.943,1.893,1.7,3-.428,4.422-.713,4.28-2.425C956.3,697.927,956.3,697.9,956.3,697.871Z" transform="translate(-788.842 -595.169)"/><g class="m" transform="translate(153.599 0.497)"><path d="M928.682,207.36a3.289,3.289,0,0,1-2.775-.826c-1.219-1.346-.578-3.975-2.183-4.823a1.19,1.19,0,0,1-1.765.129,2.5,2.5,0,0,1-.661-1.858,14.566,14.566,0,0,0,0-2.027c-.186-1.223-1.061-2.383-.763-3.584.29-1.166,1.635-2.016,1.484-3.208a.77.77,0,0,0-.135-.372c-.3-.4-.914-.2-1.4-.1a2.666,2.666,0,0,1-2.983-1.84c-3.3,3.18-8.758-.686-6.426-3.619-3.639,2.957,2.331,7.581,5.856,4.189a2.666,2.666,0,0,0,2.983,1.84c.488-.1,1.1-.294,1.4.1a.772.772,0,0,1,.135.372c.151,1.192-1.195,2.042-1.484,3.208-.3,1.2.576,2.36.763,3.584a14.566,14.566,0,0,1,0,2.027,2.5,2.5,0,0,0,.661,1.858,1.19,1.19,0,0,0,1.765-.129c1.605.848.964,3.477,2.183,4.823a3.289,3.289,0,0,0,2.775.826,1.171,1.171,0,0,0,.652-.211.929.929,0,0,0,.263-.418A2,2,0,0,1,928.682,207.36Z" transform="translate(-909.935 -180.955)"/><path d="M944.045,163.076c.049-.073.1-.149.145-.225l-.036.014a2.007,2.007,0,0,0-.68.781q-.1.15-.213.287A4.08,4.08,0,0,0,944.045,163.076Z" transform="translate(-936.896 -162.851)"/></g><path class="f" d="M906.251,372.935s-.369,1.284,2.056,1.855S906.251,372.935,906.251,372.935Z" transform="translate(-753.34 -332.306)"/><path class="f" d="M899.7,392.849s-1.238.9,1.748,2.473S899.7,392.849,899.7,392.849Z" transform="translate(-747.851 -348.415)"/><path class="f" d="M886.232,460.334s3.361-.951,3.82-2.378S886.232,460.334,886.232,460.334Z" transform="translate(-737.161 -400.826)"/><path class="f" d="M886.232,566.349a5.788,5.788,0,0,0,2.365.618C889.513,566.872,886.232,566.349,886.232,566.349Z" transform="translate(-737.161 -488.772)"/><path class="f" d="M888.892,576.8a4.85,4.85,0,0,0,1.857.38C891.95,577.232,888.892,576.8,888.892,576.8Z" transform="translate(-739.313 -497.229)"/><path class="n" d="M1009.335,581.081a2.966,2.966,0,1,0,.4-5.689l.074,1.527-.722-1.309a2.955,2.955,0,0,0-1.523,1.671,2.905,2.905,0,0,0-.171.8A2.966,2.966,0,0,0,1009.335,581.081Z" transform="translate(-835.167 -496.034)"/><path class="a" d="M1033.953,587.993c-.255-1.3.85-2.45,1.941-3.2s2.367-1.483,2.739-2.753c.535-1.825-1.059-3.5-2.3-4.938a17.864,17.864,0,0,1-2.355-3.5,4.823,4.823,0,0,1-.563-1.592,5.494,5.494,0,0,1,.424-2.385q1.308-3.856,2.8-7.647" transform="translate(-856.211 -485.237)"/><path class="a" d="M1009.965,579.023a2.966,2.966,0,1,0,.4-5.689l.074,1.527-.722-1.309a2.956,2.956,0,0,0-1.523,1.671,2.9,2.9,0,0,0-.171.8A2.966,2.966,0,0,0,1009.965,579.023Z" transform="translate(-835.677 -494.369)"/><path class="n" d="M1033.666,550.944a2.963,2.963,0,0,1,2.135-1.881l.244,1.451.453-1.524a2.966,2.966,0,1,1-2.832,1.954Z" transform="translate(-856.287 -474.729)"/><path class="a" d="M1034.518,548.2a2.963,2.963,0,0,1,2.136-1.881l.244,1.451.453-1.524a2.966,2.966,0,1,1-2.832,1.954Z" transform="translate(-856.977 -472.509)"/><path class="n" d="M1037.769,616.932a2.966,2.966,0,0,0,2.625-5.277l-.348,1.172-.247-1.469-.008,0a2.966,2.966,0,1,0-2.023,5.577Z" transform="translate(-858.168 -525.035)"/><path class="a" d="M1038.509,614.153a2.966,2.966,0,0,0,2.625-5.277l-.348,1.171-.247-1.469-.007,0a2.966,2.966,0,0,0-2.023,5.577Z" transform="translate(-858.767 -522.787)"/><path class="n" d="M1029.7,652.363a2.965,2.965,0,1,0,.572-2.323l1.322,1.989-1.806-1.056A2.938,2.938,0,0,0,1029.7,652.363Z" transform="translate(-853.183 -555.541)"/><path class="a" d="M1030.337,650.305a2.965,2.965,0,1,0,.572-2.323l1.322,1.989-1.806-1.056A2.938,2.938,0,0,0,1030.337,650.305Z" transform="translate(-853.701 -553.876)"/><path class="o" d="M1014.76,697.366a25.834,25.834,0,0,0,3.407-1.588c.789-.562,4.027-1.233,4.222-.332s3.934,4.481.979,4.5-6.867.485-7.654.005S1014.76,697.366,1014.76,697.366Z" transform="translate(-841.137 -592.852)"/><path class="p" d="M1023.416,709.617c-2.955.024-6.867.485-7.654.005-.6-.365-.839-1.676-.919-2.281l-.087,0s.166,2.111.953,2.591,4.7.019,7.654-.005c.853-.007,1.148-.31,1.131-.76C1024.377,709.442,1024.05,709.611,1023.416,709.617Z" transform="translate(-841.133 -602.83)"/></g></svg>