<svg xmlns="http://www.w3.org/2000/svg" xmlns:xlink="http://www.w3.org/1999/xlink" width="486.59" height="486.589" viewBox="0 0 486.59 486.589"><defs><style>.a,.j{fill:none;}.b{opacity:0.45;}.c{clip-path:url(#a);}.d{fill:url(#b);}.e{fill:#fff;}.f{opacity:0.6;fill:url(#c);}.g{opacity:0.5;fill:url(#d);}.h{fill:#ffecd1;}.i{opacity:0.37;}.j{stroke:#80aaf4;stroke-linecap:round;stroke-linejoin:round;stroke-width:4px;stroke-dasharray:2 5;}.k{fill:#ff859f;}.l{fill:url(#e);}.m{fill:url(#f);}.n{fill:url(#g);}.o{fill:url(#h);}.p{fill:url(#j);}.q{fill:url(#l);}.r{fill:#939598;}.s{fill:#a8ed7c;}.t{fill:#97ccef;}.u{fill:#ed4c76;}.v{fill:#f46e91;}</style><clipPath id="a"><rect class="a" width="486.589" height="486.589"/></clipPath><linearGradient id="b" x1="0.447" y1="0.964" x2="0.447" y2="0.253" gradientUnits="objectBoundingBox"><stop offset="0.011" stop-color="#ffecd1"/><stop offset="0.527" stop-color="#adc7cc"/><stop offset="1" stop-color="#64a5c8"/></linearGradient><linearGradient id="c" x1="0.146" y1="0.854" x2="0.854" y2="0.146" gradientUnits="objectBoundingBox"><stop offset="0.011" stop-color="#ffecd1"/><stop offset="0.104" stop-color="#fbead0" stop-opacity="0.976"/><stop offset="0.227" stop-color="#f1e5d0" stop-opacity="0.91"/><stop offset="0.368" stop-color="#e0ddcf" stop-opacity="0.804"/><stop offset="0.521" stop-color="#c8d3cd" stop-opacity="0.651"/><stop offset="0.685" stop-color="#aac5cc" stop-opacity="0.455"/><stop offset="0.855" stop-color="#86b4ca" stop-opacity="0.224"/><stop offset="1" stop-color="#64a5c8" stop-opacity="0"/></linearGradient><linearGradient id="d" x1="0.146" y1="0.854" x2="0.854" y2="0.146" xlink:href="#b"/><linearGradient id="e" y1="0.5" x2="1" y2="0.5" gradientUnits="objectBoundingBox"><stop offset="0" stop-color="#2557f4"/><stop offset="1" stop-color="#00b3c5"/></linearGradient><linearGradient id="f" x1="0" y1="0.5" x2="1" y2="0.5" xlink:href="#e"/><linearGradient id="g" x1="0" y1="0.5" x2="1" y2="0.5" xlink:href="#e"/><linearGradient id="h" x1="0" y1="0.5" x2="1" y2="0.5" xlink:href="#e"/><linearGradient id="j" x1="0" y1="0.5" x2="1" y2="0.5" xlink:href="#e"/><linearGradient id="l" x1="0" y1="0.5" x2="1" y2="0.5" xlink:href="#e"/></defs><g transform="translate(-1433 -593.411)"><g class="b" transform="translate(1919.59 1080) rotate(180)"><g class="c"><path class="d" d="M169.085-156.2C231.131-156.78,317.59-110.062,348-55.993c21.9,38.935,2.649,56.338-10.922,92.052C302,128.39,437.694,97.787,459.948,142.15c21.389,42.64-23.106,105.815-22.667,150.394.236,23.891,13.89,42.748-3.95,62.838-42.708,48.093-87.4,59.844-144.832,28.854-43-23.206-70.1-68.138-122.931-50.511-71.909,24-133.8,22.139-208.682.774-67.865-19.36-159.515-60.019-148.009-146.677C-175.4,69.422-20.6-154.416,169.085-156.2Z" transform="translate(5.153 4.19)"/><path class="e" d="M446.188,306.956c-1.84-9.42-1.239-19.23.135-28.663,2.8-19.224,9.386-37.684,14.248-56.43,4.087-15.761,7.68-33.024,3.062-49.068-5-17.38-20.481-26.783-36.424-32.856-22.3-8.5-46.573-12.567-66.665-26.134C339.8,99.8,331.932,77.353,333.846,53.1c1.791-22.7,11.866-46.276,29.875-60.721.09-.072-.031-.229-.125-.161-16.348,12-25.436,32.1-29.161,51.554-3.621,18.916-1.908,40.676,10.337,56.3,14.373,18.342,36.347,26.153,57.816,32.953,19.892,6.3,44.089,11.847,55.775,30.91,9.309,15.185,6.312,34.6,2.567,50.99-4.324,18.922-10.935,37.245-14.693,56.31a113.949,113.949,0,0,0-2.373,26.5c.369,9.3,3.21,17.437,6.418,26.066,7.346,19.748,12.135,41.787,6.656,62.607-6.011,22.839-24.878,36.52-45.063,46.394-.391.191-.11.869.3.706,18.974-7.59,35.969-21.079,43.823-40.351,7.364-18.074,4.866-38.554-.268-56.841C452.945,326.406,448.165,317.068,446.188,306.956Z" transform="translate(-8.925 0.209)"/><path class="e" d="M399.865,400.415c-25.613,11.3-53.41,15.039-80.062,6.854-24.577-7.549-43.054-25.508-60.125-45.273-14.916-17.27-29.934-34.669-51.19-42.179-23.84-8.421-50.458-5.916-74.817-.962-31.822,6.472-62.5,18.646-94.778,22.537-15.37,1.851-31.513,2-46.183-3.7-15.47-6.012-25.6-19.595-29.743-36.758a.161.161,0,1,0-.312.074c3.7,15.762,12.207,28.5,25.742,35.533,13.866,7.209,30.379,7.679,45.482,6.373,35.7-3.082,69.515-17.2,104.639-23.876,25.479-4.843,53.556-6.2,77.652,5.1,21.4,10.034,36.2,31.752,52.173,49.307,16.659,18.314,36.6,32.019,60.033,37.24,23.964,5.335,49.392,1.1,71.817-9.558A.4.4,0,0,0,399.865,400.415Z" transform="translate(1.002 -8.068)"/></g><g transform="translate(47.74 1.761)"><g transform="translate(0 0)"><circle class="f" cx="90.67" cy="90.67" r="90.67" transform="translate(0 170.405) rotate(-70.001)"/><circle class="g" cx="30.101" cy="30.101" r="30.101" transform="translate(308.036 78.135) rotate(-76.894)"/><path class="h" d="M225.208,374.129a18.066,18.066,0,1,1-18.065-18.064A18.065,18.065,0,0,1,225.208,374.129Z" transform="translate(-52.812 -11.311)"/></g></g></g><g class="i" transform="matrix(0.978, -0.208, 0.208, 0.978, 839.156, 687.463)"><path class="j" d="M897.023,224.557s154.116,109.979-63.672,235.877-80.432-23-80.432-23" transform="translate(-2.906 -19.552)"/><path class="k" d="M607.736,163.643h-2.864a11.387,11.387,0,0,0-.863-2.085l2.026-2.024a1.926,1.926,0,0,0,0-2.722l-2-2a1.926,1.926,0,0,0-2.722,0l-2.024,2.026a11.351,11.351,0,0,0-2.087-.863V153.11a1.924,1.924,0,0,0-1.924-1.924h-2.826a1.926,1.926,0,0,0-1.926,1.924v2.866a11.512,11.512,0,0,0-2.085.861l-2.024-2.024a1.926,1.926,0,0,0-2.722,0l-2,2a1.926,1.926,0,0,0,0,2.722l2.024,2.024a11.518,11.518,0,0,0-.861,2.085H580a1.926,1.926,0,0,0-1.924,1.926v2.825A1.924,1.924,0,0,0,580,170.319h2.866a11.336,11.336,0,0,0,.863,2.087l-2.026,2.024a1.926,1.926,0,0,0,0,2.722l2,2a1.926,1.926,0,0,0,2.722,0l2.024-2.026a11.377,11.377,0,0,0,2.085.863v2.864a1.927,1.927,0,0,0,1.926,1.926h2.826a1.925,1.925,0,0,0,1.924-1.926v-2.864a11.35,11.35,0,0,0,2.087-.863l2.024,2.026a1.926,1.926,0,0,0,2.722,0l2-2a1.926,1.926,0,0,0,0-2.722l-2.026-2.024a11.348,11.348,0,0,0,.863-2.087h2.864a1.925,1.925,0,0,0,1.926-1.924v-2.825A1.927,1.927,0,0,0,607.736,163.643ZM593.867,175.6a8.623,8.623,0,1,1,8.62-8.623A8.623,8.623,0,0,1,593.867,175.6Z" transform="translate(325.862 127.16)"/><g transform="translate(818.834 356.028)"><circle class="l" cx="43.154" cy="43.154" r="43.154"/><circle class="e" cx="36.902" cy="36.902" r="36.902" transform="translate(6.252 6.253)"/><path class="m" d="M543.584,155.992a1.464,1.464,0,1,1-1.463-1.465A1.464,1.464,0,0,1,543.584,155.992Z" transform="translate(-466.785 -112.837)"/><path class="n" d="M538.511,143.746a1.464,1.464,0,1,1-2.07,0A1.462,1.462,0,0,1,538.511,143.746Z" transform="translate(-471.567 -124.382)"/><path class="o" d="M526.267,138.673a1.464,1.464,0,1,1-1.465,1.466A1.464,1.464,0,0,1,526.267,138.673Z" transform="translate(-483.112 -129.164)"/><path class="m" d="M514.02,143.746a1.464,1.464,0,1,1,0,2.07A1.463,1.463,0,0,1,514.02,143.746Z" transform="translate(-494.656 -124.382)"/><path class="p" d="M508.947,155.992a1.464,1.464,0,1,1,1.465,1.463A1.465,1.465,0,0,1,508.947,155.992Z" transform="translate(-499.438 -112.837)"/><path class="m" d="M514.02,168.237a1.464,1.464,0,1,1,2.071,0A1.463,1.463,0,0,1,514.02,168.237Z" transform="translate(-494.656 -101.293)"/><path class="q" d="M526.267,173.31a1.464,1.464,0,1,1,1.463-1.464A1.464,1.464,0,0,1,526.267,173.31Z" transform="translate(-483.112 -96.511)"/><path class="n" d="M538.511,168.237a1.464,1.464,0,1,1,0-2.07A1.463,1.463,0,0,1,538.511,168.237Z" transform="translate(-471.567 -101.293)"/><path class="l" d="M542.025,183.761l-12.3-12.3a2.859,2.859,0,0,0-1.537-3.719V141.7a1.179,1.179,0,1,0-2.359,0v26.04a2.915,2.915,0,0,0,2.227,5.387l12.3,12.3a1.18,1.18,0,0,0,1.669-1.668Z" transform="translate(-483.854 -127.259)"/></g><g transform="translate(707.384 367.357)"><path class="k" d="M420.528,198.119h65.765a4.525,4.525,0,0,0,4.518-4.518V134.765h-1.023V193.6a3.5,3.5,0,0,1-3.5,3.5H420.528Z" transform="translate(-420.528 -134.765)"/><rect class="k" width="13.567" height="31.032" transform="translate(61.821 58.547) rotate(180)"/><rect class="k" width="13.567" height="46.507" transform="translate(40.63 58.547) rotate(180)"/><rect class="k" width="13.568" height="54.841" transform="translate(19 58.547) rotate(180)"/></g><g transform="translate(751.252 293.014)"><circle class="r" cx="25.654" cy="25.654" r="25.654" transform="translate(0 51.145) rotate(-85.416)"/><g transform="translate(4.333 4.333)"><path class="e" d="M391.568,252.113a23.29,23.29,0,1,1,23.29-23.29A23.316,23.316,0,0,1,391.568,252.113Zm0-45.01a21.721,21.721,0,1,0,21.721,21.721A21.745,21.745,0,0,0,391.568,207.1Z" transform="translate(-368.278 -205.534)"/></g><g transform="translate(20.541 12.078)"><path class="e" d="M382.058,240.44v-3.826a11.009,11.009,0,0,1-5.8-1.666l.909-2.537a10.1,10.1,0,0,0,5.454,1.63c2.687,0,4.506-1.553,4.506-3.712,0-2.083-1.478-3.369-4.281-4.506-3.861-1.514-6.248-3.256-6.248-6.55,0-3.144,2.235-5.529,5.718-6.1V209.35h2.348v3.672a10.1,10.1,0,0,1,4.922,1.325l-.946,2.5a9.176,9.176,0,0,0-4.772-1.287c-2.915,0-4.013,1.742-4.013,3.258,0,1.969,1.4,2.953,4.695,4.317,3.9,1.589,5.87,3.558,5.87,6.93,0,2.99-2.085,5.793-5.984,6.436v3.94Z" transform="translate(-376.263 -209.35)"/></g></g><g transform="translate(676.754 454.38)"><circle class="s" cx="25.094" cy="25.094" r="25.094" transform="translate(0 11.592) rotate(-13.354)"/><g transform="translate(7.43 7.43)"><path class="e" d="M499.142,177.072a22.782,22.782,0,1,1,22.782-22.782A22.808,22.808,0,0,1,499.142,177.072Zm0-44.028a21.246,21.246,0,1,0,21.246,21.246A21.27,21.27,0,0,0,499.142,133.044Z" transform="translate(-476.36 -131.507)"/></g><g transform="translate(23.285 15.007)"><path class="e" d="M489.838,165.65v-3.741a10.79,10.79,0,0,1-5.667-1.63l.889-2.48a9.892,9.892,0,0,0,5.334,1.591c2.631,0,4.409-1.518,4.409-3.629,0-2.038-1.445-3.3-4.185-4.409-3.78-1.482-6.112-3.185-6.112-6.408,0-3.075,2.184-5.409,5.592-5.964V135.24h2.3v3.593a9.872,9.872,0,0,1,4.815,1.3l-.926,2.446a8.958,8.958,0,0,0-4.668-1.258c-2.852,0-3.926,1.7-3.926,3.185,0,1.926,1.37,2.888,4.593,4.222,3.816,1.557,5.74,3.483,5.74,6.779,0,2.927-2.036,5.667-5.852,6.3v3.853Z" transform="translate(-484.171 -135.24)"/></g></g><g transform="translate(729.487 263.491)"><g transform="translate(5.485 18.803)"><path class="t" d="M371.051,268.822a1.022,1.022,0,0,1-.576-.175l-18.443-12.282a1.039,1.039,0,0,1,1.153-1.729l18.443,12.284a1.038,1.038,0,0,1-.576,1.9Z" transform="translate(-351.571 -254.461)"/></g><g transform="translate(25.808 7.964)"><path class="t" d="M369.389,268.11a1.039,1.039,0,0,1-.964-.654l-6.767-16.908a1.038,1.038,0,1,1,1.926-.773l6.769,16.908a1.041,1.041,0,0,1-.964,1.427Z" transform="translate(-361.583 -249.121)"/></g><g transform="translate(3.025 41.147)"><path class="t" d="M369.609,267.789H369.6l-18.211-.241a1.039,1.039,0,0,1,.014-2.079h.014l18.211.244a1.038,1.038,0,0,1-.014,2.076Z" transform="translate(-350.359 -265.469)"/></g><g transform="translate(41.133)"><path class="t" d="M371.355,269.221a1.037,1.037,0,0,1-1.037-.982l-1.183-21.946a1.041,1.041,0,0,1,.98-1.094,1,1,0,0,1,1.094.982l1.183,21.946a1.041,1.041,0,0,1-.98,1.094Z" transform="translate(-369.133 -245.197)"/></g><g transform="translate(0 49.741)"><path class="t" d="M349.909,278.62a1.039,1.039,0,0,1-.331-2.024l20.436-6.84a1.04,1.04,0,1,1,.662,1.971l-20.438,6.84A1.031,1.031,0,0,1,349.909,278.62Z" transform="translate(-348.869 -269.703)"/></g></g><path class="r" d="M599.221,177.508h-4.265a16.847,16.847,0,0,0-1.283-3.1l3.014-3.014a2.866,2.866,0,0,0,0-4.051l-2.976-2.976a2.865,2.865,0,0,0-4.051,0l-3.012,3.014a16.926,16.926,0,0,0-3.1-1.283v-4.265a2.865,2.865,0,0,0-2.866-2.864h-4.206a2.865,2.865,0,0,0-2.866,2.864V166.1a16.854,16.854,0,0,0-3.1,1.283l-3.014-3.014a2.865,2.865,0,0,0-4.051,0l-2.976,2.976a2.865,2.865,0,0,0,0,4.051l3.014,3.014a16.86,16.86,0,0,0-1.283,3.1h-4.264a2.865,2.865,0,0,0-2.864,2.866v4.206a2.865,2.865,0,0,0,2.864,2.866H562.2a16.92,16.92,0,0,0,1.283,3.1l-3.014,3.014a2.865,2.865,0,0,0,0,4.051l2.976,2.976a2.865,2.865,0,0,0,4.051,0l3.014-3.014a16.854,16.854,0,0,0,3.1,1.283v4.265a2.865,2.865,0,0,0,2.866,2.864h4.206a2.865,2.865,0,0,0,2.866-2.864v-4.265a16.926,16.926,0,0,0,3.1-1.283l3.012,3.014a2.865,2.865,0,0,0,4.051,0l2.976-2.976a2.866,2.866,0,0,0,0-4.051l-3.014-3.014a16.907,16.907,0,0,0,1.283-3.1h4.265a2.865,2.865,0,0,0,2.864-2.866v-4.206A2.865,2.865,0,0,0,599.221,177.508Zm-20.645,17.8a12.832,12.832,0,1,1,12.832-12.832A12.832,12.832,0,0,1,578.576,195.309Z" transform="translate(302.173 135.173)"/><g transform="translate(848.454 169.44)"><path class="k" d="M678.864,177.163l-29.428,54.073-41.918-33.48Z" transform="translate(-607.518 -177.163)"/><path class="u" d="M620.472,210.3l40.009-31.123L611.2,202.9l.708,18.794Z" transform="translate(-598.77 -172.375)"/><path class="v" d="M611.41,199.786l12.938-7.895-4.373-3.493Z" transform="translate(-598.272 -150.472)"/></g></g></g></svg>