<svg xmlns="http://www.w3.org/2000/svg" width="1920" height="1079.262" viewBox="0 0 1920 1079.262"><defs><style>.a{fill:#f5f5f5;}.b{opacity:0.3;}.c{opacity:0.7;}.d{fill:#9fb7ff;}.e{fill:#b7c9ff;}.f{fill:none;stroke:#b7c9ff;stroke-miterlimit:10;stroke-width:1.407px;}.g{fill:#bfcfff;}.h{fill:#dbe4ff;}.i{fill:#dde5ff;}.j{fill:#b1c4ff;}.k{fill:#ffcc38;}.l{fill:#fff;}.m{fill:#c2d1ff;}.n{fill:#e9eeff;}.o{fill:#ffe088;}.p{fill:#fff9ea;}.q{fill:#ffebaf;}.r{fill:#7b9cff;}</style></defs><rect class="a" width="1920" height="1079"/><g class="b" transform="translate(107.3 -822)"><g transform="translate(275 865.3)"><g class="c" transform="translate(45.466 617.876)"><g transform="translate(47.984 86.386)"><path class="d" d="M64.491,401.867,111.145,314.2S34.756,365.468,64.491,401.867Z" transform="translate(-57.619 -314.2)"/><path class="e" d="M60.3,401.867,106.953,314.2S106.953,406.225,60.3,401.867Z" transform="translate(-53.428 -314.2)"/></g><line class="f" y1="115.352" x2="0.256" transform="translate(54.856 90.231)"/><g transform="translate(35.004)"><path class="g" d="M74.2,384.317V280.5S25.5,365.348,74.2,384.317Z" transform="translate(-52.556 -280.5)"/><path class="h" d="M61,384.317V280.5S104.577,365.348,61,384.317Z" transform="translate(-39.354 -280.5)"/></g><g transform="translate(0 89.974)"><path class="g" d="M93.756,398.4,38.9,315.6C38.9,315.856,47.615,407.369,93.756,398.4Z" transform="translate(-38.9 -315.6)"/><path class="h" d="M93.756,398.4,38.9,315.6C38.9,315.856,119.9,359.69,93.756,398.4Z" transform="translate(-38.9 -315.6)"/></g></g><path class="e" d="M383.246,124.415a21.716,21.716,0,0,0-1.025-4.358l-2.563-5.383-3.845-4.614-4.87-3.589c-2.051-.769-3.845-1.538-5.9-2.307a49.94,49.94,0,0,0-6.408-.513,15.129,15.129,0,0,0-3.589.513,19.939,19.939,0,0,0-.513-10.253,18.458,18.458,0,0,0-3.845-6.921,16.156,16.156,0,0,0-5.9-5.127A22.249,22.249,0,0,0,334.029,79.3c-3.589.513-7.177,1.025-10.254,3.076-1.282,1.025-2.82,2.307-4.1,3.332a21.33,21.33,0,0,0-3.332,4.614c-.769,1.794-1.282,3.589-2.051,5.127a14.788,14.788,0,0,0-.256,6.665h-.769a12.7,12.7,0,0,0-6.921,1.794,13.023,13.023,0,0,0-5.9,4.1,12.634,12.634,0,0,0-3.589,6.152h0a22.712,22.712,0,0,0-10-1.538h-.513c-2.051.256-4.1.769-6.152,1.025h-.513c-1.794.769-3.845,1.794-5.639,2.563a22.832,22.832,0,0,0-7.946,7.69H383.246Z" transform="translate(361.765 22.825)"/><g transform="translate(888.303 160.275)"><path class="i" d="M587.125,145.857a28.441,28.441,0,0,0-7.946-12.561c-2.051-1.538-4.1-3.076-6.152-4.358A31.317,31.317,0,0,0,557.9,125.35a19.924,19.924,0,0,0-4.1.513,23.107,23.107,0,0,0-2.307-8.2,19.075,19.075,0,0,0-5.383-7.946,27.836,27.836,0,0,0-11.792-6.408,26.051,26.051,0,0,0-13.33.513,23.8,23.8,0,0,0-11.022,6.921c0,.256-.256.256-.256.513l-3.845,5.383h0a25.031,25.031,0,0,0-5.383-7.434c-1.794-1.282-3.589-2.563-5.383-4.1a25.24,25.24,0,0,0-13.586-3.076,18.475,18.475,0,0,0-9.741,2.563,22.418,22.418,0,0,0-8.2,5.639,17.955,17.955,0,0,0-5.127,8.715,15.462,15.462,0,0,0-1.538,4.87,31.078,31.078,0,0,0-15.124-3.332,22.874,22.874,0,0,0-11.535,3.076,21.476,21.476,0,0,0-9.741,6.665,25.329,25.329,0,0,0-5.639,8.972l-.769-.769-6.152-4.614a29.582,29.582,0,0,0-15.38-3.589,22.722,22.722,0,0,0-11.022,2.82,25.931,25.931,0,0,0-9.485,6.408A20.682,20.682,0,0,0,367.7,145.6H587.125Z" transform="translate(-367.7 -101.985)"/></g><path class="i" d="M365.7,91.615h48.448a6.033,6.033,0,0,0-.513-2.051,15.584,15.584,0,0,0-3.845-6.152,11.408,11.408,0,0,0-5.383-3.076,8.72,8.72,0,0,0,.256-2.563c-.256-7.69-6.921-13.073-14.355-13.073-7.177,0-12.817,6.408-13.073,13.33a7.746,7.746,0,0,0-4.1,1.282,10.139,10.139,0,0,0-3.845,2.563,10.035,10.035,0,0,0-2.563,4.1,7.894,7.894,0,0,0-.769,4.87A.942.942,0,0,0,365.7,91.615Z" transform="translate(517.477)"/><path class="j" d="M269.96,157.363l-12.817,7.177,2.563,11.023a59.275,59.275,0,0,0-5.127,6.152H243.3l-4.1,14.1,9.741,5.9a44.1,44.1,0,0,0,.513,8.2l-8.459,8.2,7.177,12.817,11.535-2.82a52.944,52.944,0,0,0,6.408,4.87v11.279l14.1,4.1,5.9-9.741a46.562,46.562,0,0,0,8.2-.769l8.2,8.2,12.817-7.177L312.769,227.6a38.445,38.445,0,0,0,4.87-6.408h11.279l4.1-14.1-9.741-5.9a40.148,40.148,0,0,0-1.282-7.69l7.69-7.69L322.51,173l-10.766,2.307a59.281,59.281,0,0,0-6.152-5.127V158.9l-14.1-4.1-5.9,9.484a45.041,45.041,0,0,0-7.946,1.025ZM302,192.482a18.3,18.3,0,1,1-24.865-7.177A18.234,18.234,0,0,1,302,192.482Z" transform="translate(527.71 82.86)"/><path class="h" d="M283.459,200.93l-5.639,9.484,5.639,6.152a47.311,47.311,0,0,0-1.025,5.9L275,226.82l2.563,10.766,8.459.256a35.2,35.2,0,0,0,3.332,5.127l-2.307,8.459,9.484,5.639,6.409-6.152a25.733,25.733,0,0,0,6.152,1.025l4.358,7.69,10.766-2.82.256-8.972a22.972,22.972,0,0,0,4.87-3.845l8.459,2.051,5.639-9.484-5.9-6.408a25.28,25.28,0,0,0,.769-6.152l7.434-4.358-2.82-10.766-8.459-.256a21.652,21.652,0,0,0-3.845-4.614l2.051-7.946-9.485-5.639-6.152,5.639a23.724,23.724,0,0,0-5.9-1.025l-4.1-7.434-10.51,2.563-.256,8.459a22.1,22.1,0,0,0-4.614,3.589Zm34.093,11.022a13.628,13.628,0,1,1-18.713,4.614A13.42,13.42,0,0,1,317.552,211.952Z" transform="translate(20.679 430.139)"/><g transform="translate(889.072 310.51)"><path class="k" d="M484.633,184h-77.67C385.431,184,368,203.225,368,224.758v18.969c0,21.532,17.431,37.682,38.963,37.682h57.163l24.352,16.662V282.69c20.507-1.282,35.887-18.2,35.887-38.963V224.758C524.366,203.225,506.422,184,484.633,184Z" transform="translate(-368 -184)"/><path class="l" d="M457.038,201.377H386.289a3.5,3.5,0,0,1-3.589-3.589h0a3.5,3.5,0,0,1,3.589-3.589h70.749a3.5,3.5,0,0,1,3.589,3.589h0A3.5,3.5,0,0,1,457.038,201.377Z" transform="translate(-345.018 -168.054)"/><path class="l" d="M457.038,209.277H386.289a3.5,3.5,0,0,1-3.589-3.589h0a3.5,3.5,0,0,1,3.589-3.589h70.749a3.5,3.5,0,0,1,3.589,3.589h0A3.666,3.666,0,0,1,457.038,209.277Z" transform="translate(-345.018 -155.703)"/><path class="l" d="M395.873,217.077h-9.484a3.5,3.5,0,0,1-3.589-3.589h0a3.5,3.5,0,0,1,3.589-3.589h9.484a3.5,3.5,0,0,1,3.589,3.589h0A3.666,3.666,0,0,1,395.873,217.077Z" transform="translate(-344.862 -143.509)"/></g><g transform="translate(34.7 802.952)"><path class="m" d="M223.05,457.542h0A104.8,104.8,0,0,0,118.208,352.7H117.7a103.857,103.857,0,0,0-61.521,19.994c-26.146,18.969,14.355,212.247,85.1,212.247l153.033.769A50.98,50.98,0,0,0,345.323,534.7h0A50.945,50.945,0,0,0,310.2,486.252Z" transform="translate(-13.623 -352.7)"/><path class="n" d="M242.333,522.093h0c0-21.789-14.611-41.27-35.375-48.191L162.1,459.29c-22.558-7.434-40.758-24.608-47.935-47.166A103.059,103.059,0,0,0,77,360.6c-26.146,18.969-42.3,49.986-42.3,84.591v-.256c0,70.749,56.651,127.912,127.4,127.912h29.222A50.762,50.762,0,0,0,242.333,522.093Z" transform="translate(-34.7 -340.349)"/></g><g transform="translate(153.897 331.611)"><g transform="translate(1.014 40.181)"><g transform="translate(41.483 42.175)"><path class="k" d="M117.528,273.617a52.273,52.273,0,0,1,27.684-68.442c26.659-11.279,57.676.769,68.955,27.428,5.383,12.561,4.614,26.4.769,38.194-3.589,10.51-3.589,21.789.769,31.786l.769,1.794-48.96,20.763-.769-1.794c-4.358-10.254-12.561-17.944-22.3-22.814C133.165,295.406,122.911,286.178,117.528,273.617Z" transform="translate(-113.383 -200.953)"/><path class="j" d="M134.6,262.063l.256.769a17.273,17.273,0,0,0,13.842,10.51,17.924,17.924,0,0,0,21.276,5.9c7.69-3.332,12.561-11.792,11.022-19.738,3.589-4.87,5.127-11.535,2.563-17.431l-.256-.769Z" transform="translate(-80.212 -137.875)"/><path class="o" d="M169.633,226.971a26.591,26.591,0,1,1-34.862-14.1A26.56,26.56,0,0,1,169.633,226.971Z" transform="translate(-105.248 -185.58)"/><path class="p" d="M137.622,217.351a12.591,12.591,0,1,1-16.406,6.921A12.657,12.657,0,0,1,137.622,217.351Z" transform="translate(-102.716 -176.728)"/></g><path class="o" d="M141.2,213.71,144.02,185l13.073,5.383Z" transform="translate(-28.412 -183.718)"/><path class="k" d="M133.159,205.263,134.7,184.5l-10,2.307Z" transform="translate(-54.207 -184.5)"/><path class="q" d="M158.7,222.939l25.377-5.639-1.025,12.561Z" transform="translate(-1.053 -133.221)"/><path class="o" d="M131.037,224.02,103.1,203l-5.9,16.406Z" transform="translate(-97.2 -155.578)"/><path class="k" d="M124.924,238.4,109.8,249.935l7.69,5.639Z" transform="translate(-77.501 -100.234)"/><path class="k" d="M158.2,219.58l10.766-15.38,5.9,7.434Z" transform="translate(-1.834 -153.702)"/><path class="q" d="M118.256,217.282l-17.175,7.947L99.8,216Z" transform="translate(-93.135 -135.254)"/><path class="q" d="M127.144,212.369,109.2,199.808l8.459-6.408Z" transform="translate(-78.44 -170.586)"/><path class="q" d="M126.434,233.1,100.8,237.97l5.9,11.023Z" transform="translate(-91.572 -108.52)"/></g><g transform="translate(170.977 219.361)"><g transform="translate(0 12.817)"><path class="h" d="M148.156,312.462h0l-.256-18.713h.256A59.83,59.83,0,0,0,198.4,265.808l4.1-6.408,15.893,10-4.1,6.408A78.657,78.657,0,0,1,148.156,312.462Z" transform="translate(-147.9 -259.4)"/></g><g transform="translate(36.144)"><path class="h" d="M162,271.062,199.169,254.4l1.538,40.758Z" transform="translate(-162 -254.4)"/></g></g><g transform="translate(5.383)"><path class="h" d="M150.717,169.017h0L152,187.73h-.256a58.909,58.909,0,0,0-48.191,31.017l-3.589,6.665L83.3,216.44l3.589-6.665A78.324,78.324,0,0,1,150.717,169.017Z" transform="translate(-83.3 -168.825)"/></g><g transform="translate(0 29.671)"><path class="h" d="M121.445,202.189,85.3,221.158,81.2,180.4Z" transform="translate(-81.2 -180.4)"/></g></g><path class="r" d="M308.149,150.469,297.9,165.849l8.972,10.766a46.215,46.215,0,0,0-2.051,10L292,193.021l3.589,18.2,14.355,1.282c1.538,3.076,3.076,6.408,5.383,8.972l-4.87,14.1,15.38,10.254,11.279-9.741a47.821,47.821,0,0,0,10.254,1.794l6.665,12.56,18.2-3.589,1.282-14.355a49.7,49.7,0,0,0,8.715-5.383l13.842,4.614,10.254-15.38-9.485-11.023a45.572,45.572,0,0,0,1.794-10l12.817-6.665-3.589-18.2-14.355-1.282c-1.538-3.076-3.845-5.383-5.9-7.947l4.1-13.073-15.38-10.253-10.766,8.715a44.766,44.766,0,0,0-9.741-2.307L349.42,131.5l-18.2,3.589-1.282,14.355a46.458,46.458,0,0,0-8.2,5.639Zm56.394,21.02a23.071,23.071,0,1,1-32.042,6.152A23.516,23.516,0,0,1,364.543,171.489Z" transform="translate(531.256 485.433)"/></g></g></svg>