<?xml version="1.0" encoding="utf-8"?>
<!-- Generator: Adobe Illustrator 23.0.3, SVG Export Plug-In . SVG Version: 6.00 Build 0)  -->
<svg version="1.1" id="Layer_1" xmlns="http://www.w3.org/2000/svg" xmlns:xlink="http://www.w3.org/1999/xlink" x="0px" y="0px"
	 viewBox="0 0 1000 1000" style="enable-background:new 0 0 1000 1000;" xml:space="preserve">
<style type="text/css">
	.st0{opacity:0.5;}
	.st1{opacity:0.17;}
	.st2{fill:none;stroke:#1B3242;stroke-width:8;stroke-linecap:round;stroke-linejoin:round;stroke-miterlimit:10;}
	.st3{opacity:0.1;}
	.st4{fill:none;stroke:#1B3242;stroke-width:10;stroke-linecap:round;stroke-linejoin:round;stroke-miterlimit:10;}
	.st5{fill:none;stroke:#1B3242;stroke-width:6;stroke-linecap:round;stroke-linejoin:round;stroke-miterlimit:10;}
	.st6{fill:#1B3242;}
	.st7{fill:none;stroke:#1B3242;stroke-width:4;stroke-linecap:round;stroke-linejoin:round;stroke-miterlimit:10;}
	.st8{fill:#FFFFFF;}
	.st9{fill:#FFFFFF;stroke:#653232;stroke-width:3;stroke-linecap:round;stroke-linejoin:round;stroke-miterlimit:10;}
	.st10{fill:#FFF7F3;stroke:#653232;stroke-width:4;stroke-miterlimit:10;}
	.st11{fill:#FFF0E9;stroke:#653232;stroke-width:4;stroke-miterlimit:10;}
	.st12{fill:none;stroke:#F67E21;stroke-width:5;stroke-linecap:round;stroke-linejoin:round;stroke-miterlimit:10;}
	.st13{fill:none;stroke:#F28C27;stroke-width:5;stroke-linecap:round;stroke-linejoin:round;stroke-miterlimit:10;}
	.st14{fill:#FF8D40;}
	.st15{fill:#FCD2B1;}
	.st16{fill:#E55C00;}
	.st17{fill:#653232;}
	.st18{fill:none;stroke:#91C2FF;stroke-width:3;stroke-linecap:round;stroke-linejoin:round;stroke-miterlimit:10;}
	.st19{fill:#FF6700;}
	.st20{fill:#FDFDFD;}
	.st21{fill:#F9CAA0;}
	.st22{fill:none;stroke:#653232;stroke-width:4.0485;stroke-linecap:round;stroke-linejoin:round;stroke-miterlimit:10;}
	.st23{fill:none;stroke:#653232;stroke-width:2;stroke-linecap:round;stroke-linejoin:round;stroke-miterlimit:10;}
	.st24{fill:none;stroke:#F67E21;stroke-width:3;stroke-linecap:round;stroke-linejoin:round;stroke-miterlimit:10;}
	.st25{fill:#FFF0E9;}
	.st26{fill:none;stroke:#653232;stroke-width:3;stroke-linecap:round;stroke-linejoin:round;stroke-miterlimit:10;}
	.st27{fill:none;stroke:#6D4545;stroke-width:2;stroke-linecap:round;stroke-linejoin:round;stroke-miterlimit:10;}
</style>
<g class="st0">
	<g id="XMLID_19_" class="st1">
		<polyline id="XMLID_8_" class="st2" points="687.8,431.1 687.8,478.5 593.1,478.5 		"/>
		<polyline id="XMLID_7_" class="st2" points="782.5,478.5 687.8,478.5 687.8,431.1 		"/>
		<rect id="XMLID_22_" x="640.4" y="478.5" class="st2" width="94.7" height="47.4"/>
		<polyline id="XMLID_6_" class="st2" points="714.8,573.3 687.8,573.3 687.8,525.9 782.5,525.9 		"/>
		<polyline id="XMLID_5_" class="st2" points="593.1,525.9 687.8,525.9 687.8,573.3 610.9,573.3 		"/>
		<polyline id="XMLID_4_" class="st2" points="560.8,478.5 640.4,478.5 640.4,525.9 593.1,525.9 		"/>
		<polyline id="XMLID_21_" class="st2" points="803.6,525.9 735.2,525.9 735.2,478.5 768.1,478.5 		"/>
	</g>
	<g id="XMLID_1_" class="st1">
		<polyline id="XMLID_78_" class="st2" points="813.6,266.4 813.6,313.7 718.8,313.7 		"/>
		<polyline id="XMLID_59_" class="st2" points="908.3,313.7 813.6,313.7 813.6,266.4 		"/>
		<rect id="XMLID_51_" x="766.2" y="313.7" class="st2" width="94.7" height="47.4"/>
		<polyline id="XMLID_50_" class="st2" points="840.6,408.6 813.6,408.6 813.6,361.1 908.3,361.1 		"/>
		<polyline id="XMLID_25_" class="st2" points="718.8,361.1 813.6,361.1 813.6,408.6 736.7,408.6 		"/>
		<polyline id="XMLID_3_" class="st2" points="686.5,313.7 766.2,313.7 766.2,361.1 718.8,361.1 		"/>
		<polyline id="XMLID_2_" class="st2" points="929.4,361.1 861,361.1 861,313.7 893.8,313.7 		"/>
	</g>
</g>
<g id="XMLID_278_" class="st3">
	<polyline id="XMLID_285_" class="st2" points="275.5,386.3 275.5,427.2 193.7,427.2 	"/>
	<polyline id="XMLID_284_" class="st2" points="357.3,427.2 275.5,427.2 275.5,386.3 	"/>
	<rect id="XMLID_283_" x="234.6" y="427.2" class="st2" width="81.8" height="40.9"/>
	<polyline id="XMLID_282_" class="st2" points="298.8,509.1 275.5,509.1 275.5,468.1 357.3,468.1 	"/>
	<polyline id="XMLID_281_" class="st2" points="193.7,468.1 275.5,468.1 275.5,509.1 209.1,509.1 	"/>
	<polyline id="XMLID_280_" class="st2" points="165.8,427.2 234.6,427.2 234.6,468.1 193.7,468.1 	"/>
	<polyline id="XMLID_279_" class="st2" points="375.5,468.1 316.4,468.1 316.4,427.2 344.8,427.2 	"/>
</g>
<g id="XMLID_190_" class="st3">
	<circle id="XMLID_189_" class="st4" cx="270.3" cy="273.7" r="57.3"/>
	<line id="XMLID_188_" class="st5" x1="270.3" y1="222.2" x2="270.3" y2="227.8"/>
	<line id="XMLID_187_" class="st5" x1="270.3" y1="319.6" x2="270.3" y2="325.3"/>
	<line id="XMLID_186_" class="st5" x1="321.8" y1="273.7" x2="316.2" y2="273.7"/>
	<line id="XMLID_185_" class="st5" x1="224.4" y1="273.7" x2="218.8" y2="273.7"/>
	<circle id="XMLID_182_" class="st6" cx="270.3" cy="273.7" r="4.6"/>
	<line id="XMLID_183_" class="st7" x1="270.3" y1="273.7" x2="295" y2="243.1"/>
	<line id="XMLID_184_" class="st5" x1="254.7" y1="258.4" x2="270.3" y2="273.7"/>
</g>
<g id="File_Dock">
	<path class="st8" d="M660.1,302.5c-0.2-10.9-9.2-19.7-20.2-19.7H384.1c-11.1,0-20.2,9-20.2,20.2v262.5h296.2V344.8"/>
	<path class="st9" d="M395.6,282.8h-11.5c-11.1,0-20.2,9-20.2,20.2v262.5h296.2V344.8"/>
	<line class="st9" x1="420.9" y1="282.8" x2="419.6" y2="282.8"/>
	<path class="st9" d="M660.1,302.5c-0.2-10.9-9.2-19.7-20.2-19.7H475.8"/>
	<path class="st10" d="M689.3,344.7c0-13.3-10.8-24.1-24.1-24.1H358.8c-13.3,0-24.1,10.8-24.1,24.1v314.4h354.6v-282"/>
	<path class="st11" d="M307.4,639.2v115.3h409.2V391.8c0-15.4-12.5-27.9-27.9-27.9H335.3c-15.4,0-27.9,12.5-27.9,27.9v182"/>
	<line class="st12" x1="364.7" y1="639.2" x2="373" y2="639.2"/>
	<g>
		<g>
			<line class="st13" x1="606.8" y1="434.1" x2="627.5" y2="434.1"/>
			<line class="st12" x1="517.1" y1="434.1" x2="582.8" y2="434.1"/>
			<line class="st13" x1="379.2" y1="434.1" x2="485.4" y2="434.1"/>
			<line class="st13" x1="613" y1="471.9" x2="627.5" y2="471.9"/>
			<line class="st12" x1="537" y1="471.9" x2="582.8" y2="471.9"/>
			<line class="st13" x1="485.4" y1="471.9" x2="510.6" y2="471.9"/>
			<line class="st12" x1="379.2" y1="471.9" x2="456.5" y2="471.9"/>
			<line class="st13" x1="563.7" y1="509.7" x2="627.5" y2="509.7"/>
			<line class="st12" x1="441.6" y1="509.7" x2="533.8" y2="509.7"/>
			<line class="st13" x1="379.2" y1="509.7" x2="409.5" y2="509.7"/>
			<line class="st12" x1="524.6" y1="547.5" x2="627.5" y2="547.5"/>
			<line class="st13" x1="471" y1="547.5" x2="487.7" y2="547.5"/>
			<line class="st12" x1="379.2" y1="547.5" x2="434.6" y2="547.5"/>
			<line class="st12" x1="379.2" y1="585.2" x2="506" y2="585.2"/>
		</g>
	</g>
</g>
<g id="Edit_File_1_">
	<g>
		<path class="st14" d="M765.4,733.5l-57.5,60l-64.1,0.3c-4,0-7.3-3.3-7.3-7.3V633c0-4,3.3-7.3,7.3-7.3H728l37.8,41.4l0.8,65.2"/>
	</g>
	<g>
		<path class="st15" d="M705.6,758.9h-28.5c-0.8,0-1.5-0.7-1.5-1.5s0.7-1.5,1.5-1.5h28.5c0.8,0,1.5,0.7,1.5,1.5
			S706.4,758.9,705.6,758.9z"/>
	</g>
	<g>
		<path class="st15" d="M669.4,758.9h-11.1c-0.8,0-1.5-0.7-1.5-1.5s0.7-1.5,1.5-1.5h11.1c0.8,0,1.5,0.7,1.5,1.5
			S670.2,758.9,669.4,758.9z"/>
	</g>
	<g>
		<path class="st15" d="M740.2,740.2h-28.2c-0.8,0-1.5-0.7-1.5-1.5s0.7-1.5,1.5-1.5h28.2c0.8,0,1.5,0.7,1.5,1.5
			S741,740.2,740.2,740.2z"/>
	</g>
	<g>
		<path class="st15" d="M700,740.2h-41.2c-0.8,0-1.5-0.7-1.5-1.5s0.7-1.5,1.5-1.5H700c0.8,0,1.5,0.7,1.5,1.5S700.9,740.2,700,740.2z
			"/>
	</g>
	<g>
		<path class="st15" d="M741.5,721.4h-9.9c-0.8,0-1.5-0.7-1.5-1.5s0.7-1.5,1.5-1.5h9.9c0.8,0,1.5,0.7,1.5,1.5
			S742.3,721.4,741.5,721.4z"/>
	</g>
	<g>
		<path class="st15" d="M719.7,721.4h-60.3c-0.8,0-1.5-0.7-1.5-1.5s0.7-1.5,1.5-1.5h60.3c0.8,0,1.5,0.7,1.5,1.5
			S720.5,721.4,719.7,721.4z"/>
	</g>
	<g>
		<path class="st15" d="M741.3,702.6h-38.9c-0.8,0-1.5-0.7-1.5-1.5s0.7-1.5,1.5-1.5h38.9c0.8,0,1.5,0.7,1.5,1.5
			S742.1,702.6,741.3,702.6z"/>
	</g>
	<g>
		<path class="st15" d="M689.9,702.6h-30c-0.8,0-1.5-0.7-1.5-1.5s0.7-1.5,1.5-1.5h30c0.8,0,1.5,0.7,1.5,1.5S690.8,702.6,689.9,702.6
			z"/>
	</g>
	<g>
		<path class="st15" d="M711,651.2h-50.5c-0.8,0-1.5-0.7-1.5-1.5s0.7-1.5,1.5-1.5H711c0.8,0,1.5,0.7,1.5,1.5S711.9,651.2,711,651.2z
			"/>
	</g>
	<g>
		<path class="st15" d="M679.8,664.5h-19.3c-0.8,0-1.5-0.7-1.5-1.5s0.7-1.5,1.5-1.5h19.3c0.8,0,1.5,0.7,1.5,1.5
			S680.6,664.5,679.8,664.5z"/>
	</g>
	<g>
		<path class="st8" d="M726.8,625.8v32.9c0,4.5,4,8.4,8.5,8.4h29.3"/>
	</g>
	<g>
		<path class="st16" d="M730.9,629.1V659c0,4.1,3.7,7.6,7.8,7.6h26.6"/>
	</g>
	<g>
		<path class="st16" d="M730.9,635.1V665c0,4.1,3.7,7.6,7.8,7.6h26.6v-6.1"/>
	</g>
	<g>
		<path class="st17" d="M764.6,668.6h-29.3c-5.4,0-10-4.6-10-9.9v-7.2c0-0.8,0.7-1.5,1.5-1.5s1.5,0.7,1.5,1.5v7.2
			c0,3.7,3.3,6.9,7,6.9h29.3c0.8,0,1.5,0.7,1.5,1.5S765.4,668.6,764.6,668.6z"/>
	</g>
	<g>
		<path class="st17" d="M726.8,645.1c-0.8,0-1.5-0.7-1.5-1.5v-17.8c0-0.8,0.7-1.5,1.5-1.5s1.5,0.7,1.5,1.5v17.8
			C728.3,644.4,727.6,645.1,726.8,645.1z"/>
	</g>
	<g>
		<g>
			<path class="st17" d="M635.3,666.4c-0.8,0-1.5-0.7-1.5-1.5v-1.7c0-0.8,0.7-1.5,1.5-1.5s1.5,0.7,1.5,1.5v1.7
				C636.8,665.8,636.1,666.4,635.3,666.4z"/>
		</g>
	</g>
	<g>
		<g>
			<path class="st17" d="M708.7,795.3h-66.1c-4.9,0-8.8-3.9-8.8-8.8V683.1c0-0.8,0.7-1.5,1.5-1.5s1.5,0.7,1.5,1.5v103.4
				c0,3.2,2.6,5.8,5.8,5.8h66.1c0.8,0,1.5,0.7,1.5,1.5S709.5,795.3,708.7,795.3z"/>
		</g>
	</g>
	<g>
		<path class="st17" d="M765.3,728.5c-0.8,0-1.5-0.7-1.5-1.5l-0.7-59.3l-37-40.5h-83.5c-3.2,0-5.8,2.6-5.8,5.8v21.8
			c0,0.8-0.7,1.5-1.5,1.5s-1.5-0.7-1.5-1.5V633c0-4.9,3.9-8.8,8.8-8.8h84.2c0.4,0,0.8,0.2,1.1,0.5l37.8,41.4c0.2,0.3,0.4,0.6,0.4,1
			l0.7,59.9C766.8,727.8,766.1,728.4,765.3,728.5C765.3,728.5,765.3,728.5,765.3,728.5z"/>
	</g>
	<g>
		<path class="st18" d="M676.2,733.5"/>
	</g>
	<g>
		<path class="st19" d="M707.7,809.4c-1,0-2-0.4-2.8-1.2c-1.2-1.2-1.5-2.8-0.9-4.3l5.7-14.5c0.7-1.8,1.7-3.3,3.1-4.7l53-53
			c1-1,2.2-1.5,3.6-1.5c1.4,0,2.6,0.5,3.6,1.5l8.3,8.3c1,1,1.5,2.2,1.5,3.6c0,1.4-0.5,2.6-1.5,3.6l-53,53c-1.3,1.3-2.9,2.4-4.7,3.1
			c0,0,0,0,0,0l-14.5,5.7C708.7,809.3,708.2,809.4,707.7,809.4z M769.4,733.6c-0.5,0-0.9,0.2-1.3,0.5l-53,53c-1,1-1.8,2.2-2.3,3.5
			l-5.7,14.5c-0.1,0.4,0,0.6,0.2,0.8c0.1,0.1,0.4,0.3,0.8,0.2l14.5-5.7c1.3-0.5,2.5-1.3,3.5-2.3l53-53c0.3-0.3,0.5-0.8,0.5-1.3
			c0-0.5-0.2-0.9-0.5-1.3l-8.3-8.3C770.3,733.8,769.9,733.6,769.4,733.6z M723,801.9L723,801.9L723,801.9z"/>
	</g>
	<g>
		<path class="st19" d="M722,792.7c-0.4,0-0.9-0.2-1.2-0.5c-0.6-0.6-0.6-1.7,0-2.4l47.8-47.8c0.6-0.6,1.7-0.6,2.4,0s0.6,1.7,0,2.4
			l-47.8,47.8C722.9,792.6,722.4,792.7,722,792.7z"/>
	</g>
</g>
<g id="Contacts">
	<path class="st8" d="M341,418v136.4c0,1.8-1.5,3.3-3.3,3.3H233.6c-2.5,0-4.6-2-4.6-4.6V419.2c0-2.5,2-4.6,4.6-4.6h104.1
		C339.5,414.7,341,416.2,341,418z"/>
	<path class="st20" d="M341,425.5v129.1c0,1.7-1.4,3.1-3.1,3.1h-97.8c-2.4,0-4.3-1.9-4.3-4.3V426.7c0-2.4,1.9-4.3,4.3-4.3h97.8
		C339.6,422.3,341,423.7,341,425.5z"/>
	<path class="st21" d="M249.3,422.3v135.4h-9.2c-2.4,0-4.3-1.9-4.3-4.3V426.7c0-2.4,1.9-4.3,4.3-4.3H249.3z"/>
	<path class="st22" d="M285.8,414.7h51.9c1.8,0,3.3,1.5,3.3,3.3v136.4c0,1.8-1.5,3.3-3.3,3.3H233.6c-2.5,0-4.6-2-4.6-4.6V419.2
		c0-2.5,2-4.6,4.6-4.6h23"/>
	<line class="st22" x1="266.6" y1="414.7" x2="267.3" y2="414.7"/>
	<line class="st22" x1="250.6" y1="536.4" x2="250.6" y2="537.2"/>
	<path class="st22" d="M250.6,557.7L250.6,557.7l-17,0c-2.5,0-4.6-2-4.6-4.6V419.2c0-2.5,2-4.6,4.6-4.6h17v110.2"/>
</g>
<g id="Charts">
	<g>
		<path class="st8" d="M281.6,519.4H279c-1.3,0-2.4-1.1-2.4-2.4v-31.2c0-1.3,1.1-2.4,2.4-2.4h2.6c1.3,0,2.4,1.1,2.4,2.4v31.2
			C284,518.4,282.9,519.4,281.6,519.4z"/>
		<path class="st8" d="M295.6,519.4H293c-1.3,0-2.4-1.1-2.4-2.4v-19.7c0-1.3,1.1-2.4,2.4-2.4h2.6c1.3,0,2.4,1.1,2.4,2.4v19.7
			C298,518.4,296.9,519.4,295.6,519.4z"/>
		<path class="st8" d="M309.7,519.4h-2.6c-1.3,0-2.4-1.1-2.4-2.4v-25c0-1.3,1.1-2.4,2.4-2.4h2.6c1.3,0,2.4,1.1,2.4,2.4v25
			C312,518.4,311,519.4,309.7,519.4z"/>
		<path class="st8" d="M323.7,519.4h-2.6c-1.3,0-2.4-1.1-2.4-2.4v-9.9c0-1.3,1.1-2.4,2.4-2.4h2.6c1.3,0,2.4,1.1,2.4,2.4v9.9
			C326,518.4,325,519.4,323.7,519.4z"/>
		<path class="st15" d="M282.1,519.4h-1.3c-1,0-1.9-0.8-1.9-1.9v-29.7c0-1,0.8-1.9,1.9-1.9h1.3c1,0,1.9,0.8,1.9,1.9v29.7
			C284,518.6,283.1,519.4,282.1,519.4z"/>
		<path class="st15" d="M296.2,519.4h-1.3c-1,0-1.8-0.8-1.8-1.8v-17.7c0-1,0.8-1.8,1.8-1.8h1.3c1,0,1.8,0.8,1.8,1.8v17.7
			C298,518.6,297.2,519.4,296.2,519.4z"/>
		<path class="st15" d="M310.2,519.4h-1.3c-1,0-1.8-0.8-1.8-1.8v-23.4c0-1,0.8-1.8,1.8-1.8h1.3c1,0,1.8,0.8,1.8,1.8v23.4
			C312,518.6,311.2,519.4,310.2,519.4z"/>
		<path class="st15" d="M324.3,519.4h-1.8c-1,0-1.8-0.8-1.8-1.8v-8.2c0-1,0.8-1.8,1.8-1.8h1.8c1,0,1.8,0.8,1.8,1.8v8.2
			C326,518.7,325.2,519.4,324.3,519.4z"/>
		<path class="st23" d="M276.7,485.9v-1.3c0-0.6,0.5-1,1-1h5.2c0.6,0,1,0.5,1,1v33.9c0,0.6-0.5,1-1,1h-5.2c-0.6,0-1-0.5-1-1v-24.7"
			/>
		<line class="st23" x1="276.7" y1="489" x2="276.7" y2="488.8"/>
		<path class="st23" d="M295.6,519.4H293c-1.3,0-2.4-1.1-2.4-2.4v-19.7c0-1.3,1.1-2.4,2.4-2.4h2.6c1.3,0,2.4,1.1,2.4,2.4v19.7
			C298,518.4,296.9,519.4,295.6,519.4z"/>
		<path class="st23" d="M309.7,519.4h-2.6c-1.3,0-2.4-1.1-2.4-2.4v-25c0-1.3,1.1-2.4,2.4-2.4h2.6c1.3,0,2.4,1.1,2.4,2.4v25
			C312,518.4,311,519.4,309.7,519.4z"/>
		<path class="st23" d="M323.7,519.4h-2.6c-1.3,0-2.4-1.1-2.4-2.4v-9.9c0-1.3,1.1-2.4,2.4-2.4h2.6c1.3,0,2.4,1.1,2.4,2.4v9.9
			C326,518.4,325,519.4,323.7,519.4z"/>
	</g>
	<polyline class="st24" points="279.2,470.4 294.8,486.7 308.6,476 322.4,491.7 	"/>
	<polyline class="st24" points="323,487.4 323,492.2 318.2,492.2 	"/>
	<g>
		<line class="st24" x1="305.3" y1="526.1" x2="263.3" y2="526"/>
		<line class="st24" x1="328.7" y1="526.2" x2="310" y2="526.1"/>
	</g>
	<g>
		<line class="st24" x1="266.8" y1="510.1" x2="266.7" y2="529.5"/>
		<line class="st24" x1="266.9" y1="478.7" x2="266.8" y2="506.2"/>
		<line class="st24" x1="266.9" y1="472.6" x2="266.9" y2="472.8"/>
	</g>
</g>
<g id="Email">
	<path class="st8" d="M263.2,728.7c-2.6,1.3-2.4,5.1,0.4,6l34.2,11.7l1,29.5c0.1,1.6,2.1,2.2,3,0.9l15.3-21.3l0,0
		c0.1,0.1,0.2,0.1,0.2,0.2l32,19.2c1.9,1.2,4.4,0.1,4.9-2.1l20.4-99.2L263.2,728.7z"/>
	<path class="st25" d="M374.6,673.7l-0.1,0.3l-0.3,1.5l-20,97.4c-0.5,2.2-3,3.3-4.9,2.1l-32-19.2c0,0-0.1,0-0.1-0.1
		c-0.1,0-0.1-0.1-0.1-0.1l0,0l-11.9,16.7c-0.9,1.3-3,0.7-3-0.9l-1-28.1l-0.1-1.5l-22.9-8.3c-2.8-0.9-3-4.7-0.4-6L374.6,673.7z"/>
	<path class="st21" d="M374.6,674.1l-0.3,1.5l-59,76l2,4.2c-0.1,0-0.1-0.1-0.1-0.1l0,0l-11.9,16.7c-0.9,1.3-3,0.7-3-0.9l-1-28.1
		L374.6,674.1z"/>
	<g>
		<path class="st26" d="M301.9,709.6l72.7-35.9l-20.4,99.2c-0.5,2.2-2.9,3.3-4.9,2.1l-32-19.2c-1.9-1.1-2.3-3.6-1-5.3l58.3-76.8"/>
		<line class="st26" x1="287.6" y1="716.7" x2="287.7" y2="716.7"/>
		<path class="st26" d="M312.5,762.1l-10.7,14.8c-0.9,1.3-3,0.7-3-0.9l-1-29.5l-34.2-11.7c-2.7-0.9-3-4.7-0.4-6l18.6-9.2"/>
		<line class="st26" x1="319.9" y1="725.5" x2="374.7" y2="673.7"/>
		<line class="st26" x1="301.9" y1="742.5" x2="313.5" y2="731.6"/>
		<line class="st27" x1="228.8" y1="779.7" x2="226.7" y2="781.4"/>
		<line class="st27" x1="253.4" y1="759.8" x2="237.6" y2="772.6"/>
		<line class="st27" x1="268.5" y1="747.6" x2="260.8" y2="753.8"/>
		<line class="st27" x1="262.6" y1="774.5" x2="257.2" y2="779.2"/>
		<line class="st27" x1="282" y1="757.7" x2="266.9" y2="770.8"/>
		<line class="st27" x1="319.4" y1="803.5" x2="314.8" y2="809"/>
		<line class="st27" x1="335.1" y1="784.8" x2="322.7" y2="799.6"/>
		<line class="st27" x1="327.2" y1="780.3" x2="320.9" y2="787.8"/>
	</g>
</g>
</svg>
