<svg xmlns="http://www.w3.org/2000/svg" viewBox="0 0 723.63 517.72"><defs><style>.cls-1{opacity:0.15;}.cls-2,.cls-6,.cls-7{fill:none;stroke-linecap:round;stroke-linejoin:round;}.cls-2,.cls-7{stroke:#474747;}.cls-2{stroke-width:6px;}.cls-3{fill:#fff;}.cls-4{fill:#e7eff1;}.cls-5{fill:#96c5ff;}.cls-6{stroke:#1676ee;}.cls-6,.cls-7{stroke-width:3px;}.cls-8{fill:#9acf8d;}.cls-9{fill:#c2e2ba;}.cls-10{fill:#d2dde1;}</style></defs><title>Asset 1</title><g id="Layer_2" data-name="Layer 2"><g id="Layer_1-2" data-name="Layer 1"><g class="cls-1"><path class="cls-2" d="M668.63,3V459.86c0,30.3-12.44,54.86-27.78,54.86H398.64c-15.35,0-27.79-24.56-27.79-54.86V101"/><line class="cls-2" x1="58.63" y1="514.72" x2="720.63" y2="514.72"/><line class="cls-2" x1="370.85" y1="220" x2="668.63" y2="220"/><line class="cls-2" x1="370.85" y1="432.86" x2="668.63" y2="432.86"/><rect class="cls-2" x="604.46" y="241.34" width="42.17" height="178.03" rx="10.92"/><rect class="cls-2" x="545.4" y="241.34" width="42.17" height="178.03" rx="10.92"/><rect class="cls-2" x="604.46" y="28.35" width="42.17" height="178.03" rx="10.92"/><rect class="cls-2" x="479.54" y="96.28" width="42.17" height="178.03" rx="10.92" transform="translate(315.33 685.92) rotate(-90)"/><rect class="cls-2" x="487.9" y="50.76" width="35.14" height="168.35" rx="10.92" transform="translate(370.53 640.4) rotate(-90)"/><rect class="cls-2" x="474.79" y="273" width="30.06" height="146.37" rx="7.53" transform="translate(170.88 -161.8) rotate(22.63)"/><polyline class="cls-2" points="3 226.72 82.35 226.72 82.35 265.4 3 265.4"/><line class="cls-2" x1="161.7" y1="265.4" x2="82.35" y2="265.4"/><line class="cls-2" x1="82.35" y1="226.72" x2="112.73" y2="226.72"/><rect class="cls-2" x="42.67" y="265.4" width="79.35" height="38.68"/><polyline class="cls-2" points="15.34 304.26 82.35 304.26 82.35 342.94 56.67 342.94"/><rect class="cls-2" x="82.35" y="304.26" width="79.35" height="38.68"/><rect class="cls-2" x="167.25" y="81.76" width="123.14" height="99.82"/><polyline class="cls-2" points="184.24 158.46 206.8 125.8 230.13 154.71"/><polyline class="cls-2" points="221.57 144.1 253.05 113.54 275.39 158.46"/><path class="cls-2" d="M213.35,133.92a11.83,11.83,0,0,1,21.4-2.36"/></g><g id="Secure_Files" data-name="Secure Files"><path class="cls-3" d="M464,99.76l57.12,228.81A14.44,14.44,0,0,1,510.37,346l-223.19,53a14.44,14.44,0,0,1-17.38-10.72l-70-295a14.44,14.44,0,0,1,10.72-17.38l161.84-38.4Z"/><path class="cls-4" d="M464.43,101.12l56.82,228.17a13.69,13.69,0,0,1-10.16,16.49L299.34,396a13.69,13.69,0,0,1-16.49-10.16l-67.5-284.52a13.69,13.69,0,0,1,10.16-16.49L386.78,46.59Z"/><path class="cls-3" d="M372.41,37.61l15,63.25c2.06,8.69,11.57,14.32,20.26,12.26L464,99.76"/><path class="cls-5" d="M381.84,42l13.64,57.48c1.87,7.9,10.51,13,18.41,11.14L465,98.51"/><path class="cls-5" d="M384.6,53.66l13.64,57.49c1.87,7.9,10.51,13,18.41,11.14l51.15-12.14L465,98.51"/><path class="cls-6" d="M384.13,87l3.29,13.85c2.06,8.69,11.57,14.32,20.26,12.26L464,99.76"/><line class="cls-6" x1="372.41" y1="37.61" x2="380.51" y2="71.75"/><path class="cls-7" d="M224.49,197.22l-24.68-104a14.44,14.44,0,0,1,10.72-17.38l161.84-38.4L464,99.76l57.12,228.81A14.44,14.44,0,0,1,510.37,346l-223.19,53a14.44,14.44,0,0,1-17.38-10.72L222.65,189.45"/><path class="cls-3" d="M506.87,190.17,420.4,409.58a14.43,14.43,0,0,1-18.81,7.92L189.18,330.91a14.43,14.43,0,0,1-7.92-18.82L295.7,31.35a14.44,14.44,0,0,1,18.82-7.92l154,62.8Z"/><path class="cls-4" d="M506.47,191.54,420.13,410.26a13.71,13.71,0,0,1-17.86,7.52L200.75,335.62a13.69,13.69,0,0,1-7.51-17.85L303.62,47a13.7,13.7,0,0,1,17.86-7.51L475,102.05Z"/><path class="cls-3" d="M468.49,86.39,444,146.59c-3.38,8.27,1.09,18.37,9.36,21.74l53.56,21.84"/><path class="cls-5" d="M473.59,95.46l-22.3,54.71c-3.07,7.52,1,16.7,8.51,19.76l48.68,19.85"/><path class="cls-4" d="M469.07,106.54l-22.3,54.71c-3.07,7.52,1,16.7,8.51,19.76L504,200.86l4.52-11.08"/><path class="cls-7" d="M449.32,133.4,444,146.59c-3.38,8.27,1.09,18.37,9.36,21.74l53.56,21.84"/><line class="cls-7" x1="468.49" y1="86.39" x2="455.24" y2="118.88"/><line class="cls-6" x1="271.89" y1="89.77" x2="273.15" y2="86.69"/><path class="cls-7" d="M279.44,71.26,295.7,31.35a14.44,14.44,0,0,1,18.82-7.92l154,62.8,38.32,103.94L420.4,409.58a14.43,14.43,0,0,1-18.81,7.92L189.18,330.91a14.43,14.43,0,0,1-7.92-18.82l77.11-189.15"/><path class="cls-3" d="M484.8,367.27a14.43,14.43,0,0,1-14.45,14.43H241a14.43,14.43,0,0,1-14.43-14.43V64.09A14.43,14.43,0,0,1,241,49.66H407.3L482,131.44l1.61,137Z"/><line class="cls-7" x1="304.7" y1="290.78" x2="442.28" y2="290.78"/><line class="cls-7" x1="263.7" y1="290.78" x2="287.87" y2="290.78"/><line class="cls-7" x1="380.47" y1="253.7" x2="441.95" y2="253.7"/><line class="cls-7" x1="264.89" y1="253.7" x2="354.57" y2="253.7"/><line class="cls-7" x1="419.32" y1="216.61" x2="443.14" y2="216.61"/><line class="cls-7" x1="266.09" y1="216.61" x2="397.3" y2="216.61"/><line class="cls-7" x1="330.03" y1="331.46" x2="338.17" y2="331.46"/><line class="cls-7" x1="266.09" y1="331.46" x2="314.91" y2="331.46"/><line class="cls-7" x1="359.75" y1="179.53" x2="444.34" y2="179.53"/><line class="cls-7" x1="267.29" y1="179.53" x2="332.55" y2="179.53"/><line class="cls-7" x1="268.48" y1="94.59" x2="378.53" y2="94.59"/><line class="cls-7" x1="268.48" y1="120.91" x2="310.53" y2="120.91"/><path class="cls-3" d="M407.31,49.84v65c0,8.94,7.95,16.61,16.88,16.61H482"/><path class="cls-4" d="M415.46,56.31v59.08c0,8.12,7.22,15.09,15.34,15.09h52.57"/><path class="cls-4" d="M415.46,68.27v59.08c0,8.13,7.22,15.09,15.34,15.09h52.57v-12"/><path class="cls-7" d="M407.31,100.6v14.24c0,8.94,7.95,16.61,16.88,16.61H482"/><line class="cls-7" x1="407.31" y1="49.84" x2="407.31" y2="84.93"/><line class="cls-7" x1="226.53" y1="127.18" x2="226.53" y2="123.85"/><path class="cls-7" d="M226.53,107.19V64.1A14.44,14.44,0,0,1,241,49.66H407.31L482,131.45l2.76,235.81a14.43,14.43,0,0,1-14.44,14.44H241a14.44,14.44,0,0,1-14.44-14.44V163"/></g><g id="Medal"><polygon class="cls-3" points="453.41 350.64 449.33 362.79 449.33 362.8 425.42 434.08 425.42 434.09 423.11 440.95 411.09 476.76 408.98 483.07 405.13 476.65 390.39 452.08 389.24 450.16 360.47 461.75 353.64 464.51 363.26 435.86 365.59 428.9 398.07 332.09 403.38 333.87 453.41 350.64"/><polygon class="cls-3" points="506.1 491.07 475.26 478.65 470.51 476.73 454.55 503.33 450.76 509.64 428.37 442.87 425.42 434.08 406.34 377.21 449.33 362.8 449.33 362.79 455.99 360.56 461.67 358.65 462.27 360.44 505.17 488.32 506.1 491.07"/><polygon class="cls-8" points="459.31 350.64 455.99 360.56 455.24 362.79 455.24 362.8 430.15 430.58 429.93 431.18 426.98 432.16 425.42 434.08 425.42 434.09 423.11 440.95 411.09 476.76 395.14 450.16 390.39 452.08 389.24 450.16 360.47 461.75 373.69 422.36 403.38 333.87 403.98 332.09 459.31 350.64"/><polygon class="cls-8" points="505.17 488.32 476.41 476.73 475.26 478.65 470.51 476.73 454.55 503.33 433.53 440.67 431.32 434.08 430.15 430.58 428.37 425.28 412.24 377.21 448.59 365.02 455.24 362.8 455.24 362.79 462.27 360.44 481.97 419.17 505.17 488.32"/><path class="cls-9" d="M482,419.17a82.27,82.27,0,0,1-48.44,21.5c-1.9.18-3.84.28-5.79.32h0l-2.31-6.9L423.11,441a82.15,82.15,0,0,1-49.42-18.59l29.69-88.49.6-1.78,55.33,18.55L456,360.56l-.75,2.23,7-2.36Z"/><polyline class="cls-7" points="395.4 460.43 389.24 450.17 353.65 464.51 368.26 420.95"/><line class="cls-7" x1="399.17" y1="466.71" x2="398.49" y2="465.59"/><polyline class="cls-7" points="405.13 476.65 408.98 483.07 411.09 476.76 423.11 440.95 425.42 434.09 425.42 434.08 449.33 362.8 449.33 362.79 453.41 350.64 403.38 333.87 398.07 332.09 371.68 410.78"/><polyline class="cls-7" points="434.5 461.16 427.74 440.99 427.73 440.99 425.42 434.09 425.42 434.08 406.34 377.21 449.33 362.8 449.33 362.79 455.99 360.56 461.67 358.65 462.27 360.43 481.97 419.17 506.1 491.07 470.51 476.73 450.76 509.64 440.28 478.41"/><line class="cls-7" x1="436.49" y1="467.09" x2="436.6" y2="467.4"/><circle class="cls-3" cx="426" cy="352.47" r="79.69"/><path class="cls-9" d="M504.71,357.88a74.23,74.23,0,1,1-2.81-20.29A74.28,74.28,0,0,1,504.71,357.88Z"/><path class="cls-10" d="M502.89,337.59a89.06,89.06,0,0,1-129.43,66.75,74.29,74.29,0,1,1,129.43-66.75Z"/><circle class="cls-7" cx="426" cy="352.47" r="79.69"/><path class="cls-7" d="M360,344.85l.09-.78"/><path class="cls-7" d="M490.6,367.92a66.43,66.43,0,0,1-64.6,51c-1,0-2.05,0-3.07-.07"/><path class="cls-7" d="M492.19,357.9l-.09,1"/><path class="cls-7" d="M406.23,289.05a66.17,66.17,0,0,1,19.77-3,65.44,65.44,0,0,1,8,.48"/><path class="cls-7" d="M361.17,338a66.53,66.53,0,0,1,38.76-46.62"/><path class="cls-3" d="M464.46,342.65l-.46.43-16,15.58a2.34,2.34,0,0,0-.68,2.1l3.87,22.6a2.37,2.37,0,0,1-3.44,2.5l-20.3-10.68a2.44,2.44,0,0,0-2.2,0L406,385.33l-1,.53a2.37,2.37,0,0,1-3.43-2.5l3.87-22.6a1.22,1.22,0,0,0,0-.33,2.36,2.36,0,0,0-.69-1.77l-13.22-12.88-3.21-3.13a2.37,2.37,0,0,1,1.31-4l22.7-3.3a2.34,2.34,0,0,0,1.78-1.29l10.16-20.58a2.37,2.37,0,0,1,4.25,0l1.78,3.61,8.36,17a2.34,2.34,0,0,0,1.79,1.29l.38.06,22.32,3.24A2.37,2.37,0,0,1,464.46,342.65Z"/><path class="cls-8" d="M451.23,383.36a2.37,2.37,0,0,1-3.44,2.5l-20.3-10.68a2.44,2.44,0,0,0-2.2,0L406,385.33l3.37-19.65a2.4,2.4,0,0,0-.68-2.1l-3.24-3.15-13.19-12.86a2.36,2.36,0,0,1,1.32-4l22.7-3.3a2.38,2.38,0,0,0,1.78-1.29l10.15-20.58a2.38,2.38,0,0,1,4.25,0l8.38,17,1.77,3.57a2.34,2.34,0,0,0,1.79,1.29L464,343.08l-16,15.58a2.34,2.34,0,0,0-.68,2.1Z"/><path class="cls-7" d="M406,385.33l-1,.53a2.37,2.37,0,0,1-3.44-2.5l3.87-22.6a2.34,2.34,0,0,0-.68-2.1l-16.42-16a2.37,2.37,0,0,1,1.31-4l2.63-.38"/><path class="cls-7" d="M453.71,353.13,448,358.66a2.4,2.4,0,0,0-.68,2.1l3.88,22.6a2.37,2.37,0,0,1-3.44,2.5l-20.3-10.67a2.32,2.32,0,0,0-2.2,0l-11.17,5.87"/><line class="cls-7" x1="459.58" y1="347.4" x2="459.05" y2="347.92"/><path class="cls-7" d="M412.65,335.24a2.32,2.32,0,0,0,1.46-1.23l10.15-20.56a2.37,2.37,0,0,1,4.25,0L438.66,334a2.39,2.39,0,0,0,1.79,1.3l22.69,3.3a2.37,2.37,0,0,1,1.32,4l-.77.75"/><line class="cls-7" x1="400" y1="337.1" x2="402.77" y2="336.7"/></g></g></g></svg>