<?xml version="1.0" encoding="utf-8"?>
<!-- Generator: Adobe Illustrator 23.0.3, SVG Export Plug-In . SVG Version: 6.00 Build 0)  -->
<svg version="1.1" id="Layer_1" xmlns="http://www.w3.org/2000/svg" xmlns:xlink="http://www.w3.org/1999/xlink" x="0px" y="0px"
	 viewBox="0 0 1000 1000" style="enable-background:new 0 0 1000 1000;" xml:space="preserve">
<style type="text/css">
	.st0{opacity:0.1;}
	.st1{fill:none;stroke:#474748;stroke-width:6;stroke-linecap:round;stroke-linejoin:round;stroke-miterlimit:10;}
	.st2{fill:#FFFFFF;}
	.st3{opacity:0.4;fill:#D1D1D1;}
	.st4{fill:#D1D1D1;}
	.st5{fill:none;stroke:#1C2B54;stroke-width:3;stroke-linecap:round;stroke-linejoin:round;stroke-miterlimit:10;}
	.st6{fill:#FFFFFF;stroke:#1C2B54;stroke-width:3;stroke-linecap:round;stroke-linejoin:round;stroke-miterlimit:10;}
	.st7{fill:#47BA8A;}
	.st8{fill:#F5BE46;}
	.st9{opacity:0.26;fill:#9A473D;enable-background:new    ;}
	
		.st10{opacity:0.15;fill:none;stroke:#474748;stroke-width:6;stroke-linecap:round;stroke-linejoin:round;stroke-miterlimit:10;enable-background:new    ;}
</style>
<g>
	<g id="XMLID_218_" class="st0">
		<polyline id="XMLID_241_" class="st1" points="152.2,383.3 231.6,383.3 231.6,422 152.2,422 		"/>
		<line id="XMLID_240_" class="st1" x1="310.9" y1="422" x2="231.6" y2="422"/>
		<line id="XMLID_239_" class="st1" x1="231.6" y1="383.3" x2="262" y2="383.3"/>
		<rect id="XMLID_238_" x="191.9" y="422" class="st1" width="79.3" height="38.7"/>
		<polyline id="XMLID_237_" class="st1" points="164.6,460.9 231.6,460.9 231.6,499.6 205.9,499.6 		"/>
		<rect id="XMLID_236_" x="231.6" y="460.9" class="st1" width="79.3" height="38.7"/>
		<polyline id="XMLID_235_" class="st1" points="575.2,523.4 654.6,523.4 654.6,562 575.2,562 		"/>
		<line id="XMLID_234_" class="st1" x1="733.9" y1="562" x2="654.6" y2="562"/>
		<line id="XMLID_233_" class="st1" x1="654.6" y1="523.4" x2="685" y2="523.4"/>
		<rect id="XMLID_232_" x="614.9" y="562" class="st1" width="79.3" height="38.7"/>
		<polyline id="XMLID_231_" class="st1" points="587.6,600.9 654.6,600.9 654.6,639.6 628.9,639.6 		"/>
		<polyline id="XMLID_230_" class="st1" points="705.7,639.6 654.6,639.6 654.6,600.9 720.7,600.9 		"/>
		<rect id="XMLID_229_" x="316.5" y="238.4" class="st1" width="123.1" height="99.8"/>
		<polyline id="XMLID_228_" class="st1" points="333.5,315.1 356,282.4 379.4,311.3 		"/>
		<polyline id="XMLID_227_" class="st1" points="370.8,300.7 402.3,270.2 424.6,315.1 		"/>
		<path id="XMLID_226_" class="st1" d="M362.6,290.5c1.6-4.7,6-8.1,11.2-8.1c4.3,0,8.1,2.3,10.2,5.8"/>
		<path id="XMLID_225_" class="st1" d="M759.7,405.6H584.6c-6.5,0-11.7-5.2-11.7-11.7l0,0c0-6.5,5.2-11.7,11.7-11.7h175.1
			c6.5,0,11.7,5.2,11.7,11.7l0,0C771.4,400.4,766.2,405.6,759.7,405.6z"/>
		<polygon id="XMLID_224_" class="st1" points="699.5,382.2 648.2,382.2 637.6,316.7 710.2,316.7 		"/>
		<rect id="XMLID_223_" x="627.9" y="297.7" class="st1" width="92.3" height="19"/>
		<g id="XMLID_221_">
			<path id="XMLID_222_" class="st1" d="M685.8,297.7c-6.3,0-12.6,0-18.9,0c-5.2-18.1-9.7-37.1-9.1-55.7
				c0.7-8.9,10.3-16.4,18.6-16.4l0,0c8.3,0,17.9,7.5,18.6,16.4C695.4,260.6,690.9,279.6,685.8,297.7z"/>
		</g>
		<path id="XMLID_220_" class="st1" d="M695.4,239.8l13.1-21.7c2.5-4.2,8.2-5.1,11.9-1.9l0,0c3.7,3.2,3.6,8.9-0.2,12l-24.6,20.2"/>
		<path id="XMLID_219_" class="st1" d="M708.7,217.9l-6.2-19.4c-1-3,1-6.1,4.1-6.5l0,0c3.1-0.4,5.8,2,5.8,5.1l-0.5,15.7"/>
	</g>
	<g id="ID">
		<path class="st2" d="M754.5,688v105.1c0,4.1-3.3,7.4-7.4,7.4H592.6c-4.1,0-7.3-3.4-7.3-7.4V688c0-4.1,3.3-7.4,7.4-7.4h154.4
			c3.2,0,5.9,2,6.9,4.8C754.4,686.2,754.5,687.1,754.5,688z"/>
		<path class="st3" d="M686.5,685.4l-42.3,115.1h-55c-0.3-0.8-0.5-1.7-0.5-2.6V692.8c0-4.1,3.3-7.4,7.4-7.4H686.5z"/>
		<polygon class="st4" points="745.7,685.4 703.4,800.5 676,800.5 718.3,685.4 		"/>
		<path class="st3" d="M751.1,713.5v79.7c0,4.1-3.3,7.4-7.4,7.4h-24.6L751.1,713.5z"/>
		<path class="st5" d="M754.5,760.2v32.9c0,4.1-3.3,7.4-7.4,7.4H592.7c-4.1,0-7.4-3.3-7.4-7.4V688c0-4.1,3.3-7.4,7.4-7.4h13.5"/>
		<line class="st5" x1="754.5" y1="741.2" x2="754.5" y2="744.2"/>
		<path class="st5" d="M644.1,680.6h103c4.1,0,7.4,3.3,7.4,7.4v45.4"/>
		<line class="st5" x1="620.6" y1="680.6" x2="621.9" y2="680.6"/>
		<path class="st2" d="M623.8,706.7h118.1c2.2,0,4,1.8,4,4v76.9c0,2.2-1.8,4-4,4H597.9c-2.2,0-4-1.8-4-4v-76.9c0-2.2,1.8-4,4-4H614"
			/>
		<path class="st3" d="M602.3,711.1h74.8l-29.6,80.6h-49.2v-76.5C598.3,712.9,600.1,711.1,602.3,711.1z"/>
		<polygon class="st4" points="736.2,711.1 706.6,791.6 679.2,791.6 708.8,711.1 		"/>
		<path class="st3" d="M746,727.4v60.2c0,2.2-1.8,4-4,4h-19.6L746,727.4z"/>
		<path class="st5" d="M703.2,791.6H597.9c-2.2,0-4-1.8-4-4v-76.9c0-2.2,1.8-4,4-4h7.8"/>
		<path class="st5" d="M624.3,706.7h117.7c2.2,0,4,1.8,4,4v76.9c0,2.2-1.8,4-4,4h-11.7"/>
		<path class="st5" d="M620,726.1c0.9-0.6,1.8-1.2,2.8-1.8"/>
		<path class="st5" d="M640.7,779.1c-1.2,0.2-2.5,0.2-3.7,0.2c-16.2,0-29.3-13.1-29.3-29.3c0-6.5,2.1-12.5,5.7-17.4"/>
		<path class="st5" d="M629.6,721.6c2.3-0.6,4.8-0.9,7.3-0.9c16.2,0,29.3,13.1,29.3,29.3c0,10.4-5.4,19.5-13.6,24.7"/>
		<line class="st5" x1="677.5" y1="728.6" x2="732.4" y2="728.6"/>
		<line class="st5" x1="716.2" y1="742.3" x2="732.4" y2="742.3"/>
		<line class="st5" x1="677.5" y1="742.3" x2="708.1" y2="742.3"/>
		<line class="st5" x1="701.5" y1="756" x2="732.4" y2="756"/>
		<line class="st5" x1="677.5" y1="756" x2="693.5" y2="756"/>
		<line class="st5" x1="677.5" y1="769.7" x2="709.2" y2="769.7"/>
		<path class="st6" d="M692.1,697.7h-44.4c-0.4,0-0.7-0.3-0.7-0.7v-6.1c0-0.4,0.3-0.7,0.7-0.7h44.4c0.4,0,0.7,0.3,0.7,0.7v6.1
			C692.9,697.4,692.5,697.7,692.1,697.7z"/>
		<path class="st2" d="M659.3,672v-17.7c0-2.2,1.8-4,4-4h13.3c2.2,0,4,1.8,4,4v37.8h-21.2v-11.5"/>
		<path class="st7" d="M680.7,654.4v37.7h-17.1v-33.7c0-2.2,1.8-4,4-4H680.7z"/>
		<path class="st5" d="M659.3,672v-17.7c0-2.2,1.8-4,4-4h13.3c2.2,0,4,1.8,4,4v37.8h-21.2v-11.5"/>
		<path class="st5" d="M667.3,656.7c0.8-0.4,1.7-0.6,2.6-0.6c3.5,0,6.3,2.8,6.3,6.3c0,3.5-2.8,6.3-6.3,6.3c-3.5,0-6.3-2.8-6.3-6.3"
			/>
		<path class="st2" d="M628.5,746c1.5,2.8,4.4,4.6,7.7,4.6c4.8,0,8.7-3.9,8.7-8.7c0-4.8-3.9-8.7-8.7-8.7c-4.8,0-8.7,3.9-8.7,8.7
			C627.5,743.4,627.9,744.8,628.5,746"/>
		<circle class="st8" cx="637.6" cy="743.3" r="7.3"/>
		<path class="st2" d="M645.9,751.9c4,3,6.9,7,6.9,11.7c0,1.5-1.5,1.5-1.5,1.5h-10.8h-6.6h-10.8c0,0-1.5,0-1.5-1.5
			c0-6,4.8-10.9,10.5-14.1"/>
		<path class="st8" d="M635.1,751.8c-5.3,1.8-9,6.9-9,12c0,1.2,1.2,1.2,1.2,1.2h9.3h5.7h9.3c0,0,1.2,0,1.2-1.2c0-4-1.9-7.7-5.1-10.5
			c-1-0.9-2.1-1.7-3.4-2.2c-2.9-1.1-6.1-0.4-8.9,0.6C635.4,751.8,635.3,751.8,635.1,751.8z"/>
		<path class="st5" d="M632.2,749.6c1.2,0.6,2.6,1,4,1c4.8,0,8.7-3.9,8.7-8.7c0-4.8-3.9-8.7-8.7-8.7c-4.8,0-8.7,3.9-8.7,8.7
			c0,1,0.2,1.9,0.5,2.8"/>
		<path class="st5" d="M645.9,751.9c4,3,6.9,7,6.9,11.7c0,1.5-1.5,1.5-1.5,1.5h-10.8h-6.6h-10.8c0,0-1.5,0-1.5-1.5
			c0-6,4.8-10.9,10.5-14.1"/>
	</g>
	<g id="ID_2">
		<path class="st2" d="M317.2,799.2h224.5c15.4,0,27.9-12.5,27.9-27.9V437.2c0-15.4-12.5-27.9-27.9-27.9H317.2
			c-15.4,0-27.9,12.5-27.9,27.9v334.2C289.3,786.7,301.8,799.2,317.2,799.2z"/>
		<path class="st4" d="M332.4,799.2h211.9c13.9,0,25.2-11.3,25.2-25.2V455.3c0-13.9-11.3-25.2-25.2-25.2H332.4
			c-13.9,0-25.2,11.3-25.2,25.2V774C307.1,787.9,318.4,799.2,332.4,799.2z"/>
		<path class="st5" d="M543.2,799.2c14.7-0.6,26.4-12.7,26.4-27.6V436.9c0-15.2-12.4-27.6-27.6-27.6h-225
			c-15.2,0-27.6,12.4-27.6,27.6v34.2"/>
		<path class="st5" d="M289.3,535.8v235.8c0,15.2,12.4,27.6,27.6,27.6h179.6"/>
		<line class="st5" x1="289.3" y1="494.7" x2="289.3" y2="497.5"/>
		<path class="st2" d="M397.1,511.7c6.1,11.5,18.3,19.4,32.3,19.4c20.2,0,36.6-16.4,36.6-36.6c0-20.2-16.4-36.6-36.6-36.6
			s-36.6,16.4-36.6,36.6C392.9,500.8,394.4,506.6,397.1,511.7"/>
		<circle class="st8" cx="435.3" cy="500.5" r="30.7"/>
		<path class="st2" d="M470.1,536.7c16.8,12.7,29,29.5,29,49.2c0,6.1-6.1,6.1-6.1,6.1h-45.4H420h-45.4c0,0-6.1,0-6.1-6.1
			c0-25.2,20.1-45.7,44-59"/>
		<path class="st8" d="M425,536.4c-22.1,7.6-37.7,28.9-37.7,50.5c0,5.2,5.2,5.2,5.2,5.2h38.8h23.8h38.8c0,0,5.2,0,5.2-5.2
			c0-16.9-7.8-32.3-21.4-44.2c-4.3-3.7-8.6-7.1-14-9.2c-12-4.5-25.4-1.6-37.2,2.3C426,536,425.5,536.2,425,536.4z"/>
		<path class="st5" d="M412.5,527c5.1,2.6,10.8,4.1,16.9,4.1c20.2,0,36.6-16.4,36.6-36.6c0-20.2-16.4-36.6-36.6-36.6
			s-36.6,16.4-36.6,36.6c0,4.2,0.7,8.2,2,11.9"/>
		<path class="st5" d="M470.1,536.7c16.8,12.7,29,29.5,29,49.2c0,6.1-6.1,6.1-6.1,6.1h-45.4H420h-45.4c0,0-6.1,0-6.1-6.1
			c0-25.2,20.1-45.7,44-59"/>
		<line class="st5" x1="351.1" y1="641.2" x2="514.1" y2="641.2"/>
		<line class="st5" x1="351.1" y1="688.6" x2="514.1" y2="688.6"/>
		<line class="st5" x1="351.1" y1="736" x2="432.8" y2="736"/>
	</g>
	<g id="Partnership">
		<path class="st2" d="M324.9,380.9c-0.3,0-0.6,0-1,0"/>
		<path class="st2" d="M323.9,380.9c-0.6,0-1.4,0-2.3,0c-6.6,0-9.7,2.3-11.3,3.9l-1.7,1.7l-0.1-0.5l-1.2-1.2
			c-3.1-3.1-8.2-3.1-11.3,0l-0.3,0.3c-1.3,1.3-3.4,1.3-4.7,0l-6.9-6.9l-26.1,26.1l47.1,47.1l3.2-0.5l6.1,6.1c2.3,2.3,5.9,2.3,8.2,0
			s2.3-5.9,0-8.2l0.7,0.7c2.3,2.3,5.9,2.3,8.2,0l0.4-0.4c2.3-2.3,2.3-5.9,0-8.2l0.1,0.1c2.3,2.3,5.9,2.3,8.2,0l0.4-0.4
			c2.3-2.3,2.3-5.9,0-8.2l-3-3c2.3,2.3,5.9,2.3,8.2,0l0.4-0.4c2.3-2.3,2.3-5.9,0-8.2l-2.1-2.1l17.2-17.2l-20.9-20.9h-5.6"/>
		<path class="st8" d="M346.9,422.1c2.1,2.2,0.5,6.4-1.6,8.6l-0.4,0.4c-2.2,2.1-5.6,2.1-7.8,0l2.9,2.9c2.1,2.1,2.1,5.6,0,7.8
			l-0.4,0.4c-2.1,2.1-5.6,2.1-7.8,0c2,2.2,2,5.5-0.1,7.6l-0.4,0.4c-2.1,2.1-5.6,2.1-7.8,0l-0.6-0.6c2.1,2.1,2.1,5.6,0,7.8
			c-2.1,2.1-5.6,2.1-7.8,0l-5.8-5.8l-3.1,0.4l-44.7-44.7l24.8-24.8l6.5,6.5c1.2,1.2,3.2,1.2,4.4,0l0.3-0.3c3-3,7.8-3,10.7,0l1.2,1.2
			l0.1,0.4l1.6-1.6c1.5-1.6,4.5-3.7,10.7-3.7c5,0,5,0,5,0h12.8l19.8,19.8l-14.6,15.5L346.9,422.1z"/>
		<path class="st9" d="M343.4,418.8l-20.5-20.5l0,0c1.6-1.6,4.1-1.6,5.7,0l17.6,17.6L343.4,418.8z"/>
		<path class="st9" d="M314.9,397l-10,10l0.4,0.4c1.2,1.2,3.2,1.2,4.4,0l10.3-10.3L320,397C318.6,395.6,316.3,395.6,314.9,397z"/>
		<path class="st7" d="M291.7,370.4l-36.4,36.4L242.6,394c-1.4-1.4-1.4-3.8,0-5.2l31.2-31.2c1.4-1.4,3.8-1.4,5.2,0L291.7,370.4z"/>
		<path class="st7" d="M331.2,371.2l36.5,36.5l12.9-12.9c1.4-1.4,1.4-3.6,0-4.9L349,358.3c-1.4-1.4-3.6-1.4-4.9,0L331.2,371.2z"/>
		<line class="st5" x1="330.9" y1="380.9" x2="340.3" y2="380.9"/>
		<path class="st5" d="M325.6,380.9c0.3,0,0.5,0,0.6,0"/>
		<path class="st5" d="M330,422.1l7.5,7.5c2.3,2.3,5.9,2.3,8.2,0l0.4-0.4c2.3-2.3,2.3-5.9,0-8.2l-22.4-22.4c-2.8-2.8-7.2-2.8-10,0
			l-3.6,3.6l-1.4,1.4c-4.8,4.7-12.5,4.7-17.2,0v0l18.7-18.7c1.4-1.4,3.9-3.3,8.7-3.8"/>
		<g>
			<path class="st9" d="M288.1,423.7l-6.8,6.8c-2.2,2.2-5.8,2.2-7.9,0l-0.5-0.5c-2.2-2.2-2.2-5.8,0-7.9l6.8-6.8
				c2.2-2.2,5.8-2.2,7.9,0l0.5,0.5C290.3,417.9,290.3,421.5,288.1,423.7z"/>
			<path class="st9" d="M299.8,428.9L285.7,443c-2.2,2.2-5.7,2.2-7.9,0l-0.5-0.5c-2.2-2.2-2.2-5.7,0-7.9l14.1-14.1
				c2.2-2.2,5.7-2.2,7.9,0l0.5,0.5C302,423.2,302,426.7,299.8,428.9z"/>
			<path class="st9" d="M307.2,434.9c0.3,1.8-0.2,3.7-1.6,5.1l-9,9c-2.2,2.2-5.8,2.2-8,0l-0.4-0.4c-2.2-2.2-2.2-5.8,0-8l9-9
				c2.2-2.2,5.8-2.2,8,0l0.4,0.4C306.5,432.8,307,433.9,307.2,434.9"/>
			<path class="st9" d="M312,450.6l-1.7,1.7l-0.9-0.9l-3.1,0.4l-6.2-6.2l3.5-3.5c2.2-2.2,5.9-2.2,8.1,0l0.3,0.3
				C314.2,444.7,314.2,448.3,312,450.6z"/>
		</g>
		<path class="st5" d="M330.6,422.7l9.9,9.9c2.3,2.3,2.3,5.9,0,8.2l-0.4,0.4c-2.3,2.3-5.9,2.3-8.2,0l-6.9-6.9"/>
		<path class="st5" d="M323.5,432.7l8.3,8.3c2.3,2.3,2.3,5.9,0,8.2l-0.4,0.4c-2.3,2.3-5.9,2.3-8.2,0l-6.5-6.5"/>
		<path class="st5" d="M319,445.4l3.6,3.6c2.3,2.3,2.3,5.9,0,8.2h0c-2.3,2.3-5.9,2.3-8.2,0l-6.1-6.1"/>
		<g>
			<path class="st2" d="M284,424.5l-6.8,6.8c-2.2,2.2-5.8,2.2-7.9,0l-0.5-0.5c-2.2-2.2-2.2-5.8,0-7.9l6.8-6.8c2.2-2.2,5.8-2.2,7.9,0
				l0.5,0.5C286.2,418.8,286.2,422.3,284,424.5z"/>
			<path class="st2" d="M295.7,429.8l-14.1,14.1c-2.2,2.2-5.7,2.2-7.9,0l-0.5-0.5c-2.2-2.2-2.2-5.7,0-7.9l14.1-14.1
				c2.2-2.2,5.7-2.2,7.9,0l0.5,0.5C297.9,424,297.9,427.6,295.7,429.8z"/>
			<path class="st2" d="M303.1,435.7c0.3,1.8-0.2,3.7-1.6,5.1l-9,9c-2.2,2.2-5.8,2.2-8,0l-0.4-0.4c-2.2-2.2-2.2-5.8,0-8l9-9
				c2.2-2.2,5.8-2.2,8,0l0.4,0.4C302.4,433.7,302.9,434.7,303.1,435.7"/>
			<path class="st2" d="M307.9,451.4l-4.1,4.1c-2.2,2.2-5.9,2.2-8.1,0l-0.3-0.3c-2.2-2.2-2.2-5.9,0-8.1l4.1-4.1
				c2.2-2.2,5.9-2.2,8.1,0l0.3,0.3C310.2,445.5,310.2,449.2,307.9,451.4z"/>
		</g>
		<g>
			<path class="st8" d="M283,425.6l-6.8,6.8c-1.6,1.6-4.2,1.6-5.9,0l-0.4-0.4c-1.6-1.6-1.6-4.2,0-5.9l6.8-6.8c1.6-1.6,4.2-1.6,5.9,0
				l0.4,0.4C284.6,421.3,284.6,423.9,283,425.6z"/>
			<path class="st8" d="M294.3,431.1l-13.8,13.8c-1.6,1.6-4.2,1.6-5.8,0l-0.3-0.3c-1.6-1.6-1.6-4.2,0-5.8l13.8-13.8
				c1.6-1.6,4.2-1.6,5.8,0l0.3,0.3C295.9,426.9,295.9,429.5,294.3,431.1z"/>
			<path class="st8" d="M301,441.4l-9.3,9.3c-1.7,1.7-4.5,1.7-6.2,0l-0.3-0.3c-1.7-1.7-1.7-4.5,0-6.2l9.3-9.3c1.7-1.7,4.5-1.7,6.2,0
				l0.3,0.3C302.7,436.9,302.7,439.7,301,441.4z"/>
			<path class="st8" d="M307.3,452l-4.8,4.8c-1.5,1.5-4,1.5-5.5,0l-0.4-0.4c-1.5-1.5-1.5-4,0-5.5l4.8-4.8c1.5-1.5,4-1.5,5.5,0
				l0.4,0.4C308.8,448,308.8,450.5,307.3,452z"/>
		</g>
		<g>
			<path class="st5" d="M276.4,415.4c2.2-1.5,5.2-1.3,7.2,0.6l0.5,0.5c2.2,2.2,2.2,5.8,0,7.9l-6.8,6.8c-2.2,2.2-5.8,2.2-7.9,0
				l-0.5-0.5c-2.2-2.2-2.2-5.8,0-7.9l3.9-3.9"/>
			<path class="st5" d="M275.2,445c-0.6-0.3-1.1-0.6-1.5-1.1l-0.5-0.5c-2.2-2.2-2.2-5.7,0-7.9l14.1-14.1c2.2-2.2,5.7-2.2,7.9,0
				l0.5,0.5c2.2,2.2,2.2,5.7,0,7.9l-7.7,7.7"/>
			<path class="st5" d="M302.7,434.4c1,2.1,0.6,4.7-1.1,6.4l-9,9c-2.2,2.2-5.8,2.2-8,0l-0.4-0.4c-2.2-2.2-2.2-5.8,0-8l9-9
				c1.6-1.6,3.9-2,5.9-1.3"/>
			<path class="st5" d="M307.9,451.4l-4.1,4.1c-2.2,2.2-5.9,2.2-8.1,0l-0.3-0.3c-2.2-2.2-2.2-5.9,0-8.1l4.1-4.1
				c2.2-2.2,5.9-2.2,8.1,0l0.3,0.3C310.2,445.5,310.2,449.2,307.9,451.4z"/>
		</g>
		<path class="st5" d="M308.5,386l-1.2-1.2c-3.1-3.1-8.2-3.1-11.3,0l-0.3,0.3c-1.3,1.3-3.4,1.3-4.7,0l-6.9-6.9"/>
		<line class="st5" x1="260.7" y1="407.1" x2="257.9" y2="404.4"/>
		<line class="st5" x1="264.8" y1="411.2" x2="264.4" y2="410.9"/>
		<line class="st5" x1="272.6" y1="419.1" x2="268.1" y2="414.5"/>
		<line class="st5" x1="344" y1="418.9" x2="361.2" y2="401.7"/>
		<line class="st5" x1="247.2" y1="405" x2="237.1" y2="394.9"/>
		<polyline class="st5" points="290.7,371.6 252.3,410.1 250.5,408.3 		"/>
		<circle class="st5" cx="250.9" cy="395.8" r="3.3"/>
		<polyline class="st5" points="331.1,371.6 369.5,410.1 384.7,394.9 		"/>
		<circle class="st5" cx="370.8" cy="395.8" r="3.3"/>
		<line class="st5" x1="313" y1="339.5" x2="313" y2="337.2"/>
		<line class="st5" x1="313" y1="361" x2="313" y2="346.3"/>
		<line class="st5" x1="333.2" y1="350.5" x2="341.6" y2="337.2"/>
		<line class="st5" x1="326.6" y1="361" x2="329.5" y2="356.4"/>
		<line class="st5" x1="299.4" y1="361" x2="290.9" y2="347.4"/>
	</g>
	<line id="XMLID_242_" class="st10" x1="185.8" y1="808.1" x2="847.8" y2="808.1"/>
</g>
</svg>
