<svg xmlns="http://www.w3.org/2000/svg" width="431" height="421.801" viewBox="0 0 431 421.801"><defs><style>.a{fill:#baf4ee;}.b{fill:#00c8b7;}.c{fill:#7a4c08;}.d{fill:#fff;}.e{fill:#e6e8e8;}.f{fill:#82ebe3;}.g{fill:#d9dbdb;}.h{fill:#ffb031;}.i{fill:#ff9433;}.j{fill:#4caf50;}</style></defs><g transform="translate(-746.805 -165.704)"><g transform="translate(739 165.704)"><g transform="translate(3.892)"><g transform="translate(3.912)"><circle class="a" cx="149.129" cy="149.129" r="149.129" transform="translate(0 210.901) rotate(-45)"/></g><g transform="translate(0 19.566)"><g transform="matrix(-0.966, -0.259, 0.259, -0.966, 396.215, 290.276)"><path class="b" d="M203.456,164.714c-.345-2-.783-4-1.3-5.933l3-.8c.541,2.027,1,4.115,1.361,6.207Z" transform="translate(-143.419 -157.978)"/><path class="b" d="M201.433,223.449a25.671,25.671,0,0,1-12.475-4.163l1.718-2.587a22.582,22.582,0,0,0,10.964,3.651Zm12.9-2.534-1.37-2.786a31.267,31.267,0,0,0,9.292-7.318l2.312,2.074A34.241,34.241,0,0,1,214.338,220.915Zm-34.025-11.548a25.614,25.614,0,0,1-2.678-11.287c0-.314.007-.63.019-.944l.038-.673,3.1.228-.031.565c-.01.28-.017.553-.017.824a22.467,22.467,0,0,0,2.357,9.912Zm120.19-.709-.014-3.107c4.046-.019,8.209-.184,12.375-.491l.228,3.1C308.856,208.471,304.621,208.638,300.5,208.657Zm-12.6-.407-1.983-.153c-3.818-.319-7.28-.747-10.578-1.32l.527-3.061c3.21.556,6.583.975,10.307,1.286l1.943.146Zm37.7-1.413-.419-3.078c4-.544,8.113-1.224,12.241-2.019l.587,3.049C333.835,205.6,329.66,206.286,325.607,206.837ZM263,203.7a60.165,60.165,0,0,1-10.176-4.508c-.486-.273-.973-.558-1.452-.848l1.6-2.661c.453.273.908.541,1.37.8A57.077,57.077,0,0,0,264,200.757Zm-31-1.236-2.695-1.547a69.759,69.759,0,0,0,5.124-11.079l2.922,1.054A73.145,73.145,0,0,1,232,202.46Zm118.3-.345-.731-3.018c3.885-.944,7.929-2.015,12.015-3.184l.855,2.987C358.3,200.082,354.223,201.162,350.294,202.115Zm24.139-6.88-.958-2.956q5.922-1.919,11.785-4.008l1.04,2.93Q380.4,193.3,374.433,195.236ZM241,191.142a85.982,85.982,0,0,0-9.249-6.084l-1.04-.551,1.423-2.762c.371.189.74.388,1.107.587a89.969,89.969,0,0,1,9.589,6.3Zm-55.856-4.671-2.173-2.221c2.736-2.678,6.475-4.685,11.433-6.135l1.044,2.93C190.882,182.382,187.473,184.188,185.142,186.471Zm34.221-6.065a49.352,49.352,0,0,0-10.765-1.191l-1.26.014-.077-3.1a52.551,52.551,0,0,1,12.782,1.25Zm21.267-1.83-3.059-.544a72.12,72.12,0,0,0,1.1-12.164l3.107.014A75.13,75.13,0,0,1,240.63,178.576Z" transform="translate(-177.635 -146.968)"/><path class="b" d="M270.352,177.611l-1.1-2.9q2.9-1.107,5.792-2.24l1.128,2.9Q273.269,176.5,270.352,177.611Z" transform="translate(-49.797 -137.758)"/></g><g transform="translate(101.641 87.198)"><path class="c" d="M420.819,256.067,312.594,319.888,204.371,256.067a.619.619,0,0,1,.017-.175c.089-.4,6.063-5.392,15.173-12.794.086-.069.158-.139.247-.211,29.883-24.263,92.787-73.951,92.787-73.951s62.906,49.688,92.789,73.951c9.251,7.507,15.331,12.581,15.419,13A.619.619,0,0,1,420.819,256.067Z" transform="translate(-204.371 -116.081)"/><g transform="translate(17.829)"><path class="d" d="M346.717,146.871H229.95a18.137,18.137,0,0,0-18.136,18.136v176.55A18.135,18.135,0,0,0,229.95,359.69H376.262A18.135,18.135,0,0,0,394.4,341.556v-147Z" transform="translate(-211.814 -146.871)"/><path class="e" d="M268.131,176.418a18.133,18.133,0,0,0,18.136,18.133h29.545l-47.681-47.681Z" transform="translate(-133.228 -146.871)"/><rect class="f" width="53.205" height="53.205" rx="2.697" transform="translate(27.621 29.843)"/><path class="g" d="M325.239,187.713H228.576a5.206,5.206,0,0,0-5.205,5.205h0a5.206,5.206,0,0,0,5.205,5.205h96.662a5.206,5.206,0,0,0,5.205-5.205h0A5.206,5.206,0,0,0,325.239,187.713Z" transform="translate(-195.687 -89.879)"/><path class="g" d="M325.239,198.537H228.576a5.206,5.206,0,0,0-5.205,5.205h0a5.206,5.206,0,0,0,5.205,5.205h96.662a5.206,5.206,0,0,0,5.205-5.205h0A5.206,5.206,0,0,0,325.239,198.537Z" transform="translate(-195.687 -74.775)"/><path class="g" d="M281.34,209.037H228.576a5.206,5.206,0,0,0-5.205,5.205h0a5.206,5.206,0,0,0,5.205,5.205H281.34a5.206,5.206,0,0,0,5.205-5.205h0A5.206,5.206,0,0,0,281.34,209.037Z" transform="translate(-195.687 -60.123)"/></g><g transform="translate(0.012 139.983)"><path class="h" d="M420.824,205.309V309.136a13.222,13.222,0,0,1-13.189,13.187H217.529a13.191,13.191,0,0,1-13.153-13.187V205.309L312.6,269.118Z" transform="translate(-204.376 -205.309)"/><path class="i" d="M415.046,293.015,345.39,223.358l-34.911,20.584-34.923-20.591-69.661,69.661a13.07,13.07,0,0,0,9.515,4.134H405.515A13.122,13.122,0,0,0,415.046,293.015Z" transform="translate(-202.256 -180.133)"/></g></g></g></g><g transform="translate(0 9.518)"><path class="a" d="M193.854,218.877a10.436,10.436,0,1,0,10.434,10.437A10.435,10.435,0,0,0,193.854,218.877Zm0,14.66a4.224,4.224,0,1,1,4.223-4.223A4.224,4.224,0,0,1,193.854,233.537Z" transform="translate(-128.077 50.853)"/><path class="a" d="M310.6,236.507a10.436,10.436,0,1,0,10.434,10.435A10.434,10.434,0,0,0,310.6,236.507Zm0,14.66a4.224,4.224,0,1,1,4.223-4.225A4.226,4.226,0,0,1,310.6,251.167Z" transform="translate(34.833 75.454)"/><path class="a" d="M344.818,168.839a7.991,7.991,0,1,0,7.991,7.991A7.99,7.99,0,0,0,344.818,168.839Zm0,11.225a3.234,3.234,0,1,1,3.234-3.234A3.234,3.234,0,0,1,344.818,180.064Z" transform="translate(85.997 -18.971)"/><path class="a" d="M173.782,197.656a8.882,8.882,0,1,0,8.885,8.882A8.882,8.882,0,0,0,173.782,197.656Z" transform="translate(-153.916 21.24)"/><path class="a" d="M321.147,209.931a6.46,6.46,0,1,0,6.46,6.46A6.461,6.461,0,0,0,321.147,209.931Z" transform="translate(55.099 38.369)"/><path class="a" d="M253.18,259.374a6.881,6.881,0,1,0,6.88,6.882A6.881,6.881,0,0,0,253.18,259.374Z" transform="translate(-40.332 107.363)"/><circle class="a" cx="4.597" cy="4.597" r="4.597" transform="translate(55.383 123.907)"/><circle class="a" cx="5.004" cy="5.004" r="5.004" transform="translate(10.456 151.094)"/><path class="a" d="M325.886,233.257l2.664-2.661a2.373,2.373,0,0,0-3.356-3.356l-2.661,2.661-2.661-2.661a2.373,2.373,0,1,0-3.356,3.356l2.661,2.661-2.661,2.661a2.373,2.373,0,1,0,3.356,3.356l2.661-2.661,2.661,2.661a2.373,2.373,0,0,0,3.356-3.356Z" transform="translate(56.682 61.557)"/></g></g><circle class="j" cx="63.565" cy="63.565" r="63.565" transform="translate(987.436 451.435)"/><path class="d" d="M71.819,8.584A7.375,7.375,0,0,1,69.9,13.489C56.223,30.442,42.6,47.434,28.869,64.345c-4.164,5.124-10.044,4.795-13.775-.655C10.561,57.067,6.12,50.38,1.706,43.677-1.17,39.317-.322,34.314,3.591,31.8c4.024-2.582,8.586-1.378,11.62,3.093,1.98,2.911,4.024,5.786,5.843,8.794,1.22,2.016,1.99,2.376,3.652.289,10.2-12.832,20.518-25.569,30.8-38.334A38.113,38.113,0,0,1,58.3,2.391,7.707,7.707,0,0,1,67.116.713,7.931,7.931,0,0,1,71.819,8.584Z" transform="translate(1022.178 474.718) rotate(11)"/></g></svg>