<svg xmlns="http://www.w3.org/2000/svg" xmlns:xlink="http://www.w3.org/1999/xlink" width="415.135" height="389.808" viewBox="0 0 415.135 389.808"><defs><style>.a,.b{fill:none;stroke-miterlimit:10;}.a{stroke:#69f0ae;stroke-width:9px;}.b{stroke:#00ff82;stroke-width:4px;stroke-dasharray:15 10;}.c{fill:url(#a);}.d{fill:#f6b9ad;}.e{fill:url(#b);}.f{fill:url(#c);}.g{fill:#fff;}.h{fill:#688cff;}.i{fill:#dbdbdb;}.j{fill:url(#d);}.k{fill:url(#e);}.l{fill:#ff8976;}.m{fill:url(#f);}.n{fill:url(#g);}.o{fill:#6c63ff;}.aa,.p{fill:#1f4ee5;}.p,.r{opacity:0.2;}.q{fill:#f5f5f5;}.s{fill:url(#h);}.t{fill:#00ff82;}.u{fill:url(#i);}.v{fill:url(#j);}.w{fill:url(#k);}.x{fill:url(#l);}.y{fill:url(#m);}.z{fill:#02269b;}</style><linearGradient id="a" x1="0.5" y1="1" x2="0.5" gradientUnits="objectBoundingBox"><stop offset="0" stop-color="gray" stop-opacity="0.251"/><stop offset="0.54" stop-color="gray" stop-opacity="0.122"/><stop offset="1" stop-color="gray" stop-opacity="0.102"/></linearGradient><linearGradient id="b" x1="0.5" y1="1" x2="0.5" y2="0" xlink:href="#a"/><linearGradient id="c" x1="1.115" y1="1.124" x2="1.115" y2="0.124" xlink:href="#a"/><linearGradient id="d" x1="0.5" y1="1" x2="0.5" y2="0" xlink:href="#a"/><linearGradient id="e" x1="1.17" y1="2.05" x2="1.17" y2="1.05" xlink:href="#a"/><linearGradient id="f" x1="0.5" y1="1" x2="0.5" gradientUnits="objectBoundingBox"><stop offset="0" stop-opacity="0.122"/><stop offset="0.55" stop-opacity="0.09"/><stop offset="1" stop-opacity="0.02"/></linearGradient><linearGradient id="g" x1="0.5" y1="1" x2="0.5" y2="0" xlink:href="#a"/><linearGradient id="h" x1="2.85" y1="1.97" x2="2.85" y2="0.969" xlink:href="#f"/><linearGradient id="i" x1="0.5" y1="1" x2="0.5" y2="0" xlink:href="#a"/><linearGradient id="j" x1="0.5" y1="1" x2="0.5" y2="0" xlink:href="#a"/><linearGradient id="k" x1="0.5" y1="1" x2="0.5" y2="0" xlink:href="#a"/><linearGradient id="l" x1="0.5" y1="1" x2="0.5" y2="0" xlink:href="#f"/><linearGradient id="m" x1="2.688" y1="2.908" x2="2.688" y2="1.864" xlink:href="#a"/></defs><g transform="translate(-2.498)"><path class="a" d="M221.139,518.233s-.351-1.032-.919-2.953" transform="translate(-206.747 -286.681)"/><path class="b" d="M210.151,337.765C197.6,289.449,158.479,66.771,550.667,205.784" transform="translate(-198.34 -115.154)"/><path class="a" d="M882.35,250l2.917,1.032" transform="translate(-527.086 -158.339)"/><path class="c" d="M596.3,543.389a41.921,41.921,0,0,0-83.108-7.815L384.35,532.079l1.414,22.135S367.393,596.6,463.948,607.9v42.845H575.571V579.507A41.9,41.9,0,0,0,596.3,543.389Z" transform="translate(-286.153 -279.993)"/><path class="d" d="M394.373,585.59s-17.592,40.594,74.875,51.424v41.048h106.9V569.351L393,564.39Z" transform="translate(-290.338 -310.441)"/><path class="e" d="M411.38,213.636h0a19.709,19.709,0,0,1-27.1,6.158l-57.4-37.822a19.708,19.708,0,0,1-6.158-27.1h0a19.709,19.709,0,0,1,27.08-6.158l57.4,37.822A19.709,19.709,0,0,1,411.38,213.636Z" transform="translate(-253.919 -107.888)"/><path class="d" d="M411.389,214.1h0a18.32,18.32,0,0,1-25.191,5.725l-53.37-35.158a18.32,18.32,0,0,1-5.725-25.191h0a18.32,18.32,0,0,1,25.191-5.725l53.359,35.163A18.32,18.32,0,0,1,411.389,214.1Z" transform="translate(-257.107 -110.424)"/><circle class="d" cx="40.145" cy="40.145" r="40.145" transform="translate(225.368 224.634)"/><rect class="f" width="166.433" height="300.407" rx="12.25" transform="translate(98.176)"/><rect class="g" width="161.932" height="292.293" rx="13.64" transform="translate(100.427 4.062)"/><path class="h" d="M514.125,94.49a13.127,13.127,0,0,1-12.941,11.165H445.259A13.127,13.127,0,0,1,432.323,94.49h-29.63a6.148,6.148,0,0,0-6.153,6.148V365.964a6.148,6.148,0,0,0,6.148,6.153H544.2a6.148,6.148,0,0,0,6.153-6.148V100.643A6.148,6.148,0,0,0,544.2,94.49Z" transform="translate(-292.051 -83.103)"/><rect class="i" width="36.087" height="2.256" rx="1.128" transform="translate(163.579 14.887)"/><circle class="i" cx="1.352" cy="1.352" r="1.352" transform="translate(205.979 14.438)"/><path class="j" d="M712.216,465.457h0c-11.651,2.695-19.646-4.9-22.341-16.549l-26.77-99.4a21.8,21.8,0,0,1,16.286-26.073h0a21.8,21.8,0,0,1,26.073,16.286L727.31,441.67C730,453.336,723.862,462.762,712.216,465.457Z" transform="translate(-420.749 -193.601)"/><rect class="d" width="36.537" height="145.883" rx="18.268" transform="translate(242 138.985) rotate(-13.01)"/><rect class="k" width="152.795" height="35.618" transform="translate(152.697 354.19)"/><rect class="l" width="144.536" height="27.875" transform="translate(156.827 358.32)"/><path class="m" d="M545.158,231.133l-11.842-8.915,5.162-6.711-8.615-6.762-5.384,6.824L512.3,206.407a2.679,2.679,0,0,0-3.216,0l-32.278,24.029a5.723,5.723,0,0,0-2.38,4.919h-.036l-.083,37.022h0v1.647a4.037,4.037,0,0,0,4.026,4.047h1.59l30.605.067,32.2.072a4.037,4.037,0,0,0,4.047-4.026l.088-38.6h.067C546.934,232.873,546.382,232.166,545.158,231.133Z" transform="translate(-329.676 -136.989)"/><path class="n" d="M546.739,239.136c0-2.467-.516-3.1-1.621-4.052l-29.976-22.542a2.447,2.447,0,0,0-2.937,0l-29.449,21.928a5.193,5.193,0,0,0-2.168,4.486h-.031l-.077,33.78h0v1.5a3.686,3.686,0,0,0,3.675,3.691h1.451l27.926.062,29.377.067a3.686,3.686,0,0,0,3.691-3.675l.077-35.22Z" transform="translate(-332.661 -139.979)"/><path class="o" d="M0,0H64.953V35.736A2.158,2.158,0,0,1,62.8,37.894H2.4a2.38,2.38,0,0,1-2.38-2.38V0Z" transform="translate(148.438 99.112) rotate(0.13)"/><path class="p" d="M0,0H64.953V35.736A2.158,2.158,0,0,1,62.8,37.894H2.4a2.38,2.38,0,0,1-2.38-2.38V0Z" transform="translate(148.438 99.112) rotate(0.13)"/><path class="q" d="M481.622,264.41l-.072,32.825a5.043,5.043,0,0,0,5.033,5.054l54.867.124" transform="translate(-333.179 -165.31)"/><path class="g" d="M551.3,264.69l-.072,32.846a5.043,5.043,0,0,1-5.054,5.033l-54.867-.124" transform="translate(-337.901 -165.446)"/><path class="o" d="M512.833,214.211,483.926,235.53a5.033,5.033,0,0,0-2.132,4.362l64.984.206c0-2.4-.516-3.03-1.59-3.939L515.74,214.221A2.421,2.421,0,0,0,512.833,214.211Z" transform="translate(-333.294 -140.792)"/><path class="r" d="M512.833,214.211,483.926,235.53a5.033,5.033,0,0,0-2.132,4.362l64.984.206c0-2.4-.516-3.03-1.59-3.939L515.74,214.221A2.421,2.421,0,0,0,512.833,214.211Z" transform="translate(-333.294 -140.792)"/><path class="s" d="M354.819,150.823l-7.862-6.163-19,24.065-10.21-7.918-6.4,8.13,14.861,11.351h0l3.686,2.958Z" transform="translate(-148.453 -69.987)"/><path class="t" d="M355.122,151.191,348,145.73l-18.877,24.618-10.484-8.037-5.467,7.124,14.046,10.758h0l3.6,2.7Z" transform="translate(-149.333 -70.504)"/><path class="u" d="M395.828,324.468h0a19.564,19.564,0,0,1-26.9,6.112l-48.781-31.762a19.564,19.564,0,0,1-6.112-26.9h0a19.564,19.564,0,0,1,26.9-6.112l48.781,31.762A19.564,19.564,0,0,1,395.828,324.468Z" transform="translate(-250.694 -164.544)"/><path class="d" d="M395.848,324.893h0a18.32,18.32,0,0,1-25.191,5.725l-45.689-29.749a18.32,18.32,0,0,1-5.725-25.19h0a18.32,18.32,0,0,1,25.19-5.725L390.123,299.7A18.32,18.32,0,0,1,395.848,324.893Z" transform="translate(-253.304 -166.642)"/><path class="v" d="M386.339,432.641h0a19.471,19.471,0,0,1-26.775,6.086l-38.5-24.907a19.471,19.471,0,0,1-6.086-26.775h0a19.471,19.471,0,0,1,26.775-6.086l38.493,24.912A19.471,19.471,0,0,1,386.339,432.641Z" transform="translate(-251.156 -220.261)"/><path class="w" d="M381.048,541.582h0a19.647,19.647,0,0,1-27.018,6.143l-23.843-17.4a19.646,19.646,0,0,1-6.143-27.018h0a19.647,19.647,0,0,1,27.018-6.122l23.843,17.391A19.647,19.647,0,0,1,381.048,541.582Z" transform="translate(-255.529 -276.477)"/><path class="d" d="M381.122,542.063h0a18.32,18.32,0,0,1-25.19,5.725L333.7,531.569a18.32,18.32,0,0,1-5.725-25.191h0a18.32,18.32,0,0,1,25.19-5.725L375.4,516.873A18.32,18.32,0,0,1,381.122,542.063Z" transform="translate(-257.528 -278.255)"/><rect class="x" width="105.305" height="31.488" transform="translate(128.74 167.027)"/><rect class="t" width="98.078" height="22.713" transform="translate(132.354 170.124)"/><path class="y" d="M71.1,48.245l2.8.437-.437-.413H73.7l-.366-.125L22.57,0,10.248,19.443,0,37.178l4.75.741L2.644,47.527Z" transform="matrix(0.996, -0.087, 0.087, 0.996, 339.767, 73.328)"/><path class="z" d="M9.359,3.377,0,19.607,68.631,30.783,24.427,0Z" transform="matrix(0.996, -0.087, 0.087, 0.996, 344.262, 90.079)"/><path class="aa" d="M11.27,0l48,45.187L0,17.782Z" transform="matrix(0.996, -0.087, 0.087, 0.996, 352.33, 74.914)"/><path class="aa" d="M0,20.6l65.917,1.256L4.383,0Z" transform="matrix(0.996, -0.087, 0.087, 0.996, 347.525, 98.374)"/><path class="d" d="M386.366,433.043h0a18.32,18.32,0,0,1-25.19,5.725l-36.217-23.435a18.32,18.32,0,0,1-5.725-25.19h0a18.32,18.32,0,0,1,25.191-5.75l36.217,23.435A18.32,18.32,0,0,1,386.366,433.043Z" transform="translate(-253.3 -222.01)"/></g></svg>