<svg xmlns="http://www.w3.org/2000/svg" width="13.797" height="16" viewBox="0 0 13.797 16"><defs><style>.a{opacity:0.5;}.b{fill:#fff;}</style></defs><g class="a" transform="translate(0)"><g transform="translate(0)"><path class="b" d="M185.286,126.411v-1.024a1.491,1.491,0,0,1,.2.088.63.63,0,0,0,.291.091.535.535,0,0,0,.49-.541c0-.412-.528-.6-.978-.667v-.033a.445.445,0,0,0-.451-.425.439.439,0,0,0-.451.425v.055a1.327,1.327,0,0,0-1.171,1.372,1.455,1.455,0,0,0,1.171,1.43v1.311a.884.884,0,0,1-.414-.274.523.523,0,0,0-.377-.208.542.542,0,0,0-.5.541c0,.412.533.872,1.286.976v.072a.439.439,0,0,0,.451.425.444.444,0,0,0,.451-.425v-.124a1.452,1.452,0,0,0,1.094-1.509A1.565,1.565,0,0,0,185.286,126.411Zm-.889-.354a.362.362,0,0,1-.173-.343.3.3,0,0,1,.173-.3Zm.869,2.3v-.723a.628.628,0,0,1,.1.372A.556.556,0,0,1,185.267,128.354Z" transform="translate(-174.711 -118.335)"/><path class="b" d="M35.792,0H23.45a.727.727,0,0,0-.727.727V15.273a.727.727,0,0,0,1.242.514l1.543-1.543,1.543,1.543a.727.727,0,0,0,1.029,0l1.543-1.543,1.543,1.543a.727.727,0,0,0,1.028,0l1.543-1.543,1.543,1.543a.727.727,0,0,0,1.242-.514V.727A.727.727,0,0,0,35.792,0Zm-.727,13.517h0L34.25,12.7a.727.727,0,0,0-1.029,0l-1.543,1.543L30.136,12.7a.727.727,0,0,0-1.028,0l-1.543,1.543L26.022,12.7a.727.727,0,0,0-1.029,0l-.815.815V1.455H35.065Z" transform="translate(-22.723)"/><path class="b" d="M83.569,71.129h7.59c.467,0,.846-.253.846-.564S91.626,70,91.159,70h-7.59c-.467,0-.846.253-.846.564S83.1,71.129,83.569,71.129Z" transform="translate(-80.466 -66.53)"/><path class="b" d="M83.287,131.129H85.34a.564.564,0,1,0,0-1.129H83.287a.564.564,0,1,0,0,1.129Z" transform="translate(-79.538 -123.556)"/><path class="b" d="M83.287,191.129H85.34a.564.564,0,1,0,0-1.129H83.287a.564.564,0,1,0,0,1.129Z" transform="translate(-79.538 -180.581)"/></g></g></svg>