<svg xmlns="http://www.w3.org/2000/svg" width="13.856" height="13.857" viewBox="0 0 13.856 13.857"><defs><style>.a{opacity:0.5;}.b{fill:#fff;}</style></defs><g class="a" transform="translate(0 0.624)"><path class="b" d="M13.549,12.044,10.692,9.188a5.7,5.7,0,0,0,1.033-3.323,5.759,5.759,0,0,0-.462-2.278A5.741,5.741,0,0,0,8.14.465a5.843,5.843,0,0,0-4.555,0A5.741,5.741,0,0,0,.462,3.588a5.843,5.843,0,0,0,0,4.555,5.743,5.743,0,0,0,3.123,3.123,5.761,5.761,0,0,0,2.278.462A5.7,5.7,0,0,0,9.185,10.7l2.856,2.848a.989.989,0,0,0,.749.316,1.066,1.066,0,0,0,.758-1.815ZM8.5,8.5A3.593,3.593,0,0,1,5.863,9.6,3.593,3.593,0,0,1,3.227,8.5a3.592,3.592,0,0,1-1.1-2.636,3.593,3.593,0,0,1,1.1-2.636,3.592,3.592,0,0,1,2.636-1.1A3.594,3.594,0,0,1,8.5,3.23a3.592,3.592,0,0,1,1.1,2.636A3.593,3.593,0,0,1,8.5,8.5Z" transform="translate(0 -0.627)"/></g></svg>