<svg xmlns="http://www.w3.org/2000/svg" width="14.651" height="16.745" viewBox="0 0 14.651 16.745"><defs><style>.a{opacity:0.5;}.b{fill:#e4e4e4;}</style></defs><g class="a" transform="translate(-32)"><g transform="translate(35.14)"><path class="b" d="M136.024,3.14h-.88a3.238,3.238,0,0,0-.126-.3l.622-.622a.349.349,0,0,0,0-.493l-.987-.987a.349.349,0,0,0-.493,0l-.622.622a3.228,3.228,0,0,0-.3-.126V.349A.349.349,0,0,0,132.884,0h-1.4a.349.349,0,0,0-.349.349v.88a3.231,3.231,0,0,0-.3.126l-.622-.622a.349.349,0,0,0-.493,0l-.987.987a.349.349,0,0,0,0,.493l.622.622a3.226,3.226,0,0,0-.126.3h-.88a.349.349,0,0,0-.349.349v1.4a.349.349,0,0,0,.349.349h.88a3.231,3.231,0,0,0,.126.3l-.622.622a.349.349,0,0,0,0,.493l.987.987a.349.349,0,0,0,.493,0l.622-.622a3.228,3.228,0,0,0,.3.126v.88a.349.349,0,0,0,.349.349h1.4a.349.349,0,0,0,.349-.349V7.144a3.234,3.234,0,0,0,.3-.126l.622.622a.349.349,0,0,0,.493,0l.987-.987a.349.349,0,0,0,0-.493l-.622-.622a3.226,3.226,0,0,0,.126-.3h.88a.349.349,0,0,0,.349-.349v-1.4A.349.349,0,0,0,136.024,3.14Zm-.349,1.4h-.789a.349.349,0,0,0-.338.262,2.442,2.442,0,0,1-.26.628.349.349,0,0,0,.054.424l.558.558-.493.493-.558-.558a.349.349,0,0,0-.424-.054,2.442,2.442,0,0,1-.628.26.349.349,0,0,0-.262.338v.789h-.7V6.887a.349.349,0,0,0-.262-.338,2.441,2.441,0,0,1-.628-.26.349.349,0,0,0-.424.054l-.558.558-.493-.493.558-.558a.349.349,0,0,0,.054-.424,2.442,2.442,0,0,1-.26-.628.349.349,0,0,0-.338-.262H128.7v-.7h.789a.349.349,0,0,0,.338-.262,2.442,2.442,0,0,1,.26-.628.349.349,0,0,0-.054-.424l-.558-.558.493-.494.558.558a.349.349,0,0,0,.424.054,2.442,2.442,0,0,1,.628-.26.349.349,0,0,0,.262-.338V.7h.7v.789a.349.349,0,0,0,.261.338,2.442,2.442,0,0,1,.628.26.349.349,0,0,0,.424-.054l.558-.558.494.493-.558.558a.349.349,0,0,0-.054.424,2.442,2.442,0,0,1,.26.628.349.349,0,0,0,.338.262h.789Z" transform="translate(-128)"/></g><g transform="translate(37.931 2.791)"><path class="b" d="M214.728,85.333a1.4,1.4,0,1,0,1.4,1.4A1.4,1.4,0,0,0,214.728,85.333Zm0,2.093a.7.7,0,1,1,.7-.7A.7.7,0,0,1,214.728,87.426Z" transform="translate(-213.333 -85.333)"/></g><g transform="translate(33.395 6.977)"><path class="b" d="M78.156,215.078v.688c0,1.161-.626,2.1-1.4,2.1s-1.4-.942-1.4-2.1v-.638a1.488,1.488,0,0,1,1.4-1.1v-.7a2.182,2.182,0,0,0-2.083,1.66.349.349,0,0,0-.01.085v.688c0,1.571.92,2.8,2.093,2.8s2.093-1.23,2.093-2.8v-.688Z" transform="translate(-74.667 -213.334)"/></g><g transform="translate(35.837 11.512)"><path class="b" d="M150.712,352.7a.671.671,0,0,1-.084,0,.657.657,0,0,1-.613-.7h-.7q0,.04,0,.08a1.356,1.356,0,0,0,1.4,1.315,1.047,1.047,0,0,1,1.047,1.047v2.791h.7v-2.791A1.746,1.746,0,0,0,150.712,352.7Z" transform="translate(-149.316 -352)"/></g><g transform="translate(32 11.512)"><path class="b" d="M35.14,352h-.7a.657.657,0,0,1-.7.7A1.746,1.746,0,0,0,32,354.442v2.791h.7v-2.791a1.047,1.047,0,0,1,1.047-1.047h.08A1.356,1.356,0,0,0,35.14,352Z" transform="translate(-32 -352)"/></g><g transform="translate(33.396 14.303)"><rect class="b" width="0.698" height="2.442"/></g><g transform="translate(36.884 14.303)"><rect class="b" width="0.698" height="2.442"/></g><g transform="translate(41.07 6.977)"><path class="b" d="M313.509,214.994a2.182,2.182,0,0,0-2.083-1.66v.7a1.488,1.488,0,0,1,1.4,1.1v.639c0,1.161-.626,2.1-1.4,2.1s-1.4-.942-1.4-2.1v-.688h-.7v.688c0,1.571.92,2.8,2.093,2.8s2.093-1.23,2.093-2.8v-.688A.347.347,0,0,0,313.509,214.994Z" transform="translate(-309.333 -213.334)"/></g><g transform="translate(43.512 11.512)"><path class="b" d="M385.378,352.7a.67.67,0,0,1-.084,0,.657.657,0,0,1-.613-.7h-.7q0,.04,0,.08a1.356,1.356,0,0,0,1.4,1.315,1.047,1.047,0,0,1,1.047,1.047v2.791h.7v-2.791A1.746,1.746,0,0,0,385.378,352.7Z" transform="translate(-383.982 -352)"/></g><g transform="translate(39.675 11.512)"><path class="b" d="M269.808,352h-.7a.657.657,0,0,1-.7.7,1.746,1.746,0,0,0-1.744,1.744v2.791h.7v-2.791a1.047,1.047,0,0,1,1.047-1.047h.08A1.356,1.356,0,0,0,269.808,352Z" transform="translate(-266.668 -352)"/></g><g transform="translate(41.07 14.303)"><rect class="b" width="0.698" height="2.442"/></g><g transform="translate(44.559 14.303)"><rect class="b" width="0.698" height="2.442"/></g><g transform="translate(38.977 9.07)"><rect class="b" width="0.698" height="0.698"/></g><g transform="translate(38.977 10.466)"><rect class="b" width="0.698" height="0.698"/></g><g transform="translate(38.977 11.861)"><rect class="b" width="0.698" height="0.698"/></g></g></svg>