<svg xmlns="http://www.w3.org/2000/svg" width="18" height="18" viewBox="0 0 18 18"><defs><style>.a{opacity:0.5;}.b{fill:#e4e4e4;}</style></defs><g class="a"><g transform="translate(0 11.501)"><path class="b" d="M16.106,330.011a1.623,1.623,0,0,0,.293-.931v-.32a1.633,1.633,0,1,0-3.266,0v.32a1.623,1.623,0,0,0,.293.931,1.952,1.952,0,0,0-1.543.836,1.952,1.952,0,0,0-1.543-.836,1.623,1.623,0,0,0,.293-.931v-.32a1.633,1.633,0,1,0-3.266,0v.32a1.623,1.623,0,0,0,.293.931,1.952,1.952,0,0,0-1.543.836,1.952,1.952,0,0,0-1.543-.836,1.623,1.623,0,0,0,.293-.931v-.32a1.633,1.633,0,1,0-3.266,0v.32a1.623,1.623,0,0,0,.293.931A1.955,1.955,0,0,0,0,331.963v1.312a.352.352,0,0,0,.352.352h17.3a.352.352,0,0,0,.352-.352v-1.312A1.955,1.955,0,0,0,16.106,330.011ZM2.3,328.76a.93.93,0,1,1,1.859,0v.32a.93.93,0,0,1-1.859,0Zm3.461,4.164H.7v-.96a1.251,1.251,0,0,1,1.25-1.25h.93v1.4a.352.352,0,1,0,.7,0v-1.4h.93a1.251,1.251,0,0,1,1.25,1.25Zm2.3-4.164a.93.93,0,1,1,1.859,0v.32a.93.93,0,0,1-1.859,0Zm3.461,4.164H6.469v-.96a1.251,1.251,0,0,1,1.25-1.25h.934v1.4a.352.352,0,0,0,.7,0v-1.4h.925a1.251,1.251,0,0,1,1.25,1.25Zm2.3-4.164a.93.93,0,1,1,1.859,0v.32a.93.93,0,0,1-1.859,0Zm3.461,4.164H12.234v-.96a1.251,1.251,0,0,1,1.25-1.25h.939v1.4a.352.352,0,0,0,.7,0v-1.4h.921a1.251,1.251,0,0,1,1.25,1.25Z" transform="translate(0 -327.127)"/></g><g transform="translate(8.648 6.715)"><path class="b" d="M246.6,191.1a.351.351,0,1,0,.1.249A.354.354,0,0,0,246.6,191.1Z" transform="translate(-246 -191)"/></g><g transform="translate(2.883)"><path class="b" d="M89.825,4.642H89.68a2.084,2.084,0,0,0,.53-1.39V2.093a2.093,2.093,0,1,0-4.186,0V3.252a2.084,2.084,0,0,0,.53,1.39h-.145a2.6,2.6,0,0,0-2.6,2.6V8.3a.352.352,0,0,0,.352.352h3.606v.844H82.352A.352.352,0,0,0,82,9.844v.811a.352.352,0,0,0,.7,0V10.2h5.063v.459a.352.352,0,0,0,.7,0V10.2h1.2a.352.352,0,0,0,0-.7h-1.2V8.648h3.606a.352.352,0,0,0,.352-.352V7.243A2.6,2.6,0,0,0,89.825,4.642ZM88.117.7a1.392,1.392,0,0,1,1.375,1.186l-.62-.364a.352.352,0,0,0-.448.077,1.558,1.558,0,0,1-1.2.559h-.5V2.093h0A1.391,1.391,0,0,1,88.117.7Zm-1.39,2.161h.5a2.259,2.259,0,0,0,1.527-.592l.752.442v.538a1.39,1.39,0,1,1-2.78,0Zm5,5.082H84.511v-.7a1.9,1.9,0,0,1,1.9-1.9h1.356V5.73a.352.352,0,0,0,.7,0V5.345h1.356a1.9,1.9,0,0,1,1.9,1.9Z" transform="translate(-82)"/></g><g transform="translate(11.464 9.492)"><path class="b" d="M326.68,270.1a.351.351,0,1,0,.1.249A.354.354,0,0,0,326.68,270.1Z" transform="translate(-326.08 -270)"/></g><g transform="translate(12.606 9.492)"><path class="b" d="M360.744,270h-1.817a.352.352,0,1,0,0,.7h1.465v.459a.352.352,0,0,0,.7,0v-.811A.352.352,0,0,0,360.744,270Z" transform="translate(-358.576 -270)"/></g></g></svg>