<svg xmlns="http://www.w3.org/2000/svg" width="14.422" height="11.977" viewBox="0 0 14.422 11.977"><defs><style>.a{opacity:0.5;}.b{fill:#e4e4e4;}</style></defs><g class="a" transform="translate(0.001 -19.723)"><g transform="translate(5.124 20.443)"><path class="b" d="M83.618,33.2h7.438a.93.93,0,0,0,0-1.859H83.618a.93.93,0,0,0,0,1.859Z" transform="translate(-82.688 -31.344)"/></g><g transform="translate(5.124 24.782)"><path class="b" d="M91.055,101.344H83.618a.93.93,0,0,0,0,1.859h7.438a.93.93,0,0,0,0-1.859Z" transform="translate(-82.688 -101.344)"/></g><g transform="translate(5.124 29.12)"><path class="b" d="M91.055,171.344H83.618a.93.93,0,0,0,0,1.859h7.438a.93.93,0,0,0,0-1.859Z" transform="translate(-82.688 -171.344)"/></g><g transform="translate(-0.001 24.062)"><path class="b" d="M3.023,90.633l-.619-.09-.277-.561a.465.465,0,0,0-.834,0l-.277.561-.619.09a.465.465,0,0,0-.258.793l.448.437-.106.617a.465.465,0,0,0,.674.49l.554-.291.554.291a.464.464,0,0,0,.216.053h0a.465.465,0,0,0,.451-.578l-.1-.582.448-.437a.465.465,0,0,0-.257-.793Z" transform="translate(0.001 -89.723)"/></g><g transform="translate(-0.001 19.723)"><path class="b" d="M3.023,20.633l-.619-.09-.277-.561a.465.465,0,0,0-.834,0l-.277.561-.619.09a.465.465,0,0,0-.258.793l.448.437-.106.617a.465.465,0,0,0,.674.49l.554-.291.554.291a.464.464,0,0,0,.216.053h0a.465.465,0,0,0,.451-.578l-.1-.582.448-.437a.465.465,0,0,0-.257-.793Z" transform="translate(0.001 -19.723)"/></g><g transform="translate(-0.001 28.4)"><path class="b" d="M3.023,160.633l-.619-.09-.277-.561a.465.465,0,0,0-.834,0l-.277.561-.619.09a.465.465,0,0,0-.258.793l.448.437-.106.617a.465.465,0,0,0,.674.49l.554-.291.554.291a.464.464,0,0,0,.216.053h0a.465.465,0,0,0,.451-.578l-.1-.582.448-.437a.465.465,0,0,0-.257-.793Z" transform="translate(0.001 -159.723)"/></g></g></svg>