<svg xmlns="http://www.w3.org/2000/svg" width="28.547" height="47.126" viewBox="0 0 28.547 47.126"><defs><style>.a{fill:#fff;}</style></defs><g transform="translate(-43 -44)"><g transform="translate(43 44)"><path class="a" d="M172.581,94.243c-.011-.133-.022-.256-.022-.389,0-3.148,2.959-5.707,6.608-5.707s6.608,2.559,6.608,5.707c0,.133-.011.256-.022.389h2.27c.011-.133.011-.256.011-.389,0-4.228-3.972-7.654-8.867-7.654s-8.867,3.427-8.867,7.654c0,.133,0,.256.011.389Z" transform="translate(-164.882 -80.86)"/><path class="a" d="M230.126,166.7v5.763h-1.135V166.7H227v7.665h5.118V166.7Z" transform="translate(-215.274 -152.404)"/><g transform="translate(5.396 14.273)"><path class="a" d="M172.425,166.5H170.1v14.173l2.314-3.827h.011V168.77h5.963V166.5Z" transform="translate(-170.1 -166.5)"/><path class="a" d="M261.274,176.857h.011l2.314,3.86V166.5h-8.3v2.27h5.974Z" transform="translate(-245.821 -166.5)"/></g><path class="a" d="M150.625,259.054l-2.025-2.715v-2.192l6.9-11.448h8.967l6.7,11.648v1.658l-1.925,3.048v-3.972l-5.93-10.2h-6.686l-5.863,10.2Z" transform="translate(-145.596 -219.949)"/><g transform="translate(9.178 31.773)"><path class="a" d="M209.2,360.216l-5.1-9.045V347.5l5.1,8.822,5.118-8.488v4.405Z" transform="translate(-204.1 -344.863)"/><path class="a" d="M211.7,325.814l4.361,7.654L220.6,326l-1.257-2.2-3.282,5.774L212.8,323.8Z" transform="translate(-210.855 -323.8)"/></g><path class="a" d="M187.081,269.6h-5.462L176,278.956v5.752l1.9,2.614.089-7.765,4.628-8.043h3.349l4.839,8.021v7.876l1.658-2.77v-6.13Z" transform="translate(-169.948 -243.857)"/><path class="a" d="M148.211,51.194V72.41l1.913-3.037V51.194h.022c0-7.176-6.386-12.994-14.273-12.994-7.865,0-14.24,5.8-14.273,12.95V69.762l1.936,2.659V51.183c.022-6.2,5.54-11.214,12.349-11.214S148.211,45,148.211,51.194Z" transform="translate(-121.6 -38.2)"/><path class="a" d="M168.829,71.623c-.2-5.4-5.318-9.723-11.615-9.723s-11.4,4.328-11.615,9.723h0v.156h0v20.5l2.125-3.56V71.735c.133-4.439,4.328-8,9.49-8s9.378,3.582,9.49,8.032h0l-.011,16.988,2.125,3.571.011-20.7Z" transform="translate(-142.93 -59.263)"/></g></g></svg>