<svg xmlns="http://www.w3.org/2000/svg" width="175" height="74.287" viewBox="0 0 175 74.287"><defs><style>.a{fill:#1b4fe8;}.b{fill:#2e4895;font-size:36px;font-family:SegoeUI-Bold, Segoe UI;font-weight:700;}.c{fill:#333;font-size:15px;font-family:SegoeUI-Italic, Segoe UI;font-style:italic;}</style></defs><g transform="translate(-43 -44)"><g transform="translate(-78.6 5.8)"><path class="a" d="M173.9,98.879c-.018-.21-.035-.4-.035-.614,0-4.963,4.665-9,10.417-9s10.417,4.034,10.417,9c0,.21-.018.4-.035.614h3.578c.018-.21.018-.4.018-.614,0-6.664-6.261-12.065-13.977-12.065S170.3,91.6,170.3,98.265c0,.21,0,.4.018.614Z" transform="translate(-40.159 -39.582)"/><path class="a" d="M231.928,166.7v9.084h-1.789V166.7H227v12.083h8.067V166.7Z" transform="translate(-86.916 -105.965)"/><g transform="translate(130.105 60.7)"><path class="a" d="M173.765,166.5H170.1v22.342l3.648-6.033h.018V170.078h9.4V166.5Z" transform="translate(-170.1 -166.5)"/><path class="a" d="M264.717,182.827h.018l3.648,6.085V166.5H255.3v3.578h9.417Z" transform="translate(-240.358 -166.5)"/></g><path class="a" d="M151.792,268.479,148.6,264.2v-3.455L159.473,242.7h14.135l10.557,18.361v2.613l-3.034,4.805v-6.261l-9.347-16.081h-10.54L152,262.219Z" transform="translate(-22.265 -168.637)"/><g transform="translate(136.068 88.286)"><path class="a" d="M212.132,367.545,204.1,353.287V347.5l8.032,13.907,8.067-13.381v6.945Z" transform="translate(-204.1 -343.344)"/><path class="a" d="M211.7,326.974l6.875,12.065,7.155-11.767-1.982-3.472-5.173,9.1-5.138-9.1Z" transform="translate(-210.367 -323.8)"/></g><path class="a" d="M193.467,269.6h-8.611L176,284.349v9.067l3,4.121.14-12.241,7.3-12.679h5.279l7.629,12.644v12.416l2.613-4.367v-9.663Z" transform="translate(-44.86 -190.819)"/><path class="a" d="M163.549,58.683V92.126l3.016-4.788V58.683h.035c0-11.311-10.066-20.483-22.5-20.483-12.4,0-22.447,9.137-22.5,20.413V87.953l3.051,4.191V58.666c.035-9.768,8.733-17.677,19.466-17.677S163.549,48.915,163.549,58.683Z"/><path class="a" d="M182.217,77.227C181.9,68.722,173.835,61.9,163.909,61.9c-9.908,0-17.975,6.822-18.309,15.327h0v.246h0v32.321l3.35-5.612V77.4c.21-7,6.822-12.609,14.959-12.609,8.155,0,14.784,5.647,14.959,12.662h0l-.018,26.779,3.35,5.629.018-32.636Z" transform="translate(-19.791 -19.544)"/></g><text class="b" transform="translate(152 84)"><tspan x="-43.611" y="0">ZEUS</tspan></text><text class="c" transform="translate(163 105)"><tspan x="-53.965" y="0">A Fidelis Product</tspan></text></g></svg>