<svg xmlns="http://www.w3.org/2000/svg" xmlns:xlink="http://www.w3.org/1999/xlink" width="1920" height="946.909" viewBox="0 0 1920 946.909"><defs><style>.a{fill:url(#a);}.b{fill:none;}.c{clip-path:url(#b);}.d{fill:url(#c);}.e{fill:url(#d);}.f{fill:url(#e);}.g{fill:url(#f);}.h{fill:url(#g);}.i{fill:url(#h);}.j{fill:url(#i);}.k{fill:url(#j);}.l{fill:url(#k);}.m{fill:url(#l);}.n{fill:url(#m);}.o{fill:url(#n);}.p{fill:url(#o);}.q{fill:url(#p);}.r{fill:url(#q);}.s{fill:url(#r);}.t{fill:url(#s);}.u{fill:url(#t);}.v{opacity:0.2;}.w{fill:url(#u);}.x{fill:url(#v);}.y{fill:url(#w);}.z{fill:url(#x);}.aa{fill:url(#y);}.ab{fill:url(#z);}.ac{fill:url(#aa);}.ad{fill:url(#ab);}.ae{fill:url(#ac);}.af{fill:url(#ad);}.ag{fill:url(#ae);}.ah{fill:url(#af);}.ai{fill:url(#ag);}.aj{fill:url(#ah);}.ak{fill:url(#ai);}.al{fill:url(#aj);}.am{fill:url(#ak);}.an{fill:url(#al);}.ao{fill:url(#am);}.ap{fill:url(#an);}.aq{fill:url(#ao);}.ar{fill:url(#ap);}.as{fill:url(#aq);}.at{fill:url(#ar);}.au{fill:url(#as);}.av{fill:url(#at);}.aw{fill:url(#au);}.ax{fill:url(#av);}.ay{fill:url(#aw);}.az{fill:url(#ax);}.ba{fill:url(#ay);}.bb{fill:url(#az);}.bc{fill:url(#ba);}.bd{fill:url(#bc);}.be{fill:url(#be);}.bf{fill:url(#bf);}.bg{fill:url(#bg);}.bh{fill:url(#bh);}.bi{fill:url(#bi);}.bj{fill:url(#bj);}.bk{fill:url(#bk);}.bl{fill:url(#bl);}.bm{fill:url(#bm);}.bn{fill:url(#bn);}.bo{fill:url(#bo);}.bp{fill:url(#bp);}.bq{fill:url(#bq);}.br{fill:url(#br);}.bs{fill:url(#bs);}.bt{fill:url(#bt);}.bu{fill:url(#bu);}.bv{fill:url(#bv);}.bw{fill:url(#bw);}.bx{fill:url(#bx);}.by{fill:url(#by);}.bz{fill:url(#bz);}.ca{fill:url(#ca);}.cb{fill:url(#cb);}.cc{fill:url(#cc);}.cd{fill:url(#cd);}.ce{fill:url(#ce);}.cf{fill:url(#cf);}.cg{fill:url(#cg);}.ch{fill:url(#ch);}.ci{fill:url(#ci);}.cj{fill:url(#cj);}.ck{fill:url(#ck);}.cl{fill:url(#cl);}.cm{fill:url(#cm);}.cn{fill:url(#cn);}.co{fill:url(#co);}.cp{fill:url(#cp);}.cq{fill:url(#cq);}.cr{fill:url(#cr);}.cs{fill:url(#cs);}.ct{opacity:0.7;}.cu{clip-path:url(#ct);}.cv{fill:url(#cu);}.cw{fill:#fff;}.cx{opacity:0.6;fill:url(#cv);}.cy{opacity:0.5;fill:url(#cw);}.cz{fill:#ffecd1;}</style><linearGradient id="a" x1="0.287" y1="-0.052" x2="0.782" y2="1.23" gradientUnits="objectBoundingBox"><stop offset="0" stop-color="#fff"/><stop offset="1" stop-color="#f0f7fc"/></linearGradient><clipPath id="b"><rect class="a" width="1302" height="946.909"/></clipPath><linearGradient id="c" x1="16.877" y1="7.82" x2="1.275" y2="0.925" gradientUnits="objectBoundingBox"><stop offset="0" stop-color="#52bbe8"/><stop offset="0.196" stop-color="#68c3ea"/><stop offset="0.604" stop-color="#a2d8f1"/><stop offset="1" stop-color="#e1eff8"/></linearGradient><linearGradient id="d" x1="4.396" y1="5.709" x2="0.545" y2="0.56" xlink:href="#c"/><linearGradient id="e" x1="4.105" y1="5.321" x2="0.254" y2="0.171" xlink:href="#c"/><linearGradient id="f" x1="5.348" y1="5.352" x2="0.132" y2="0.202" xlink:href="#c"/><linearGradient id="g" x1="3.862" y1="4.996" x2="0.011" y2="-0.154" xlink:href="#c"/><linearGradient id="h" x1="3.572" y1="4.607" x2="-0.279" y2="-0.542" xlink:href="#c"/><linearGradient id="i" x1="13.73" y1="6.43" x2="-1.872" y2="-0.466" xlink:href="#c"/><linearGradient id="j" x1="3.619" y1="4.671" x2="-0.232" y2="-0.479" xlink:href="#c"/><linearGradient id="k" x1="3.329" y1="4.282" x2="-0.523" y2="-0.867" xlink:href="#c"/><linearGradient id="l" x1="13.689" y1="35.854" x2="-5.171" y2="-14.583" xlink:href="#c"/><linearGradient id="m" x1="4.396" y1="4.423" x2="-0.82" y2="-0.909" xlink:href="#c"/><linearGradient id="n" x1="3.085" y1="4.097" x2="-0.766" y2="-1.235" xlink:href="#c"/><linearGradient id="o" x1="2.795" y1="3.695" x2="-1.056" y2="-1.637" xlink:href="#c"/><linearGradient id="p" x1="13.689" y1="35.854" x2="-5.171" y2="-14.583" xlink:href="#c"/><linearGradient id="q" x1="3.217" y1="15.533" x2="-0.993" y2="-6.988" xlink:href="#c"/><linearGradient id="r" x1="2.9" y1="13.834" x2="-1.311" y2="-8.686" xlink:href="#c"/><linearGradient id="s" x1="2.582" y1="12.136" x2="-1.628" y2="-10.385" xlink:href="#c"/><linearGradient id="t" x1="2.264" y1="10.437" x2="-1.946" y2="-12.083" xlink:href="#c"/><linearGradient id="u" x1="76.138" y1="16.008" x2="5.549" y2="1.535" xlink:href="#c"/><linearGradient id="v" x1="4.623" y1="8.381" x2="-0.461" y2="-1.562" xlink:href="#c"/><linearGradient id="w" x1="4.329" y1="7.806" x2="-0.755" y2="-2.137" xlink:href="#c"/><linearGradient id="x" x1="4.035" y1="7.23" x2="-1.049" y2="-2.713" xlink:href="#c"/><linearGradient id="y" x1="4.341" y1="6.821" x2="-1.897" y2="-3.122" xlink:href="#c"/><linearGradient id="z" x1="3.806" y1="4.921" x2="-1.278" y2="-1.878" xlink:href="#c"/><linearGradient id="aa" x1="3.512" y1="4.527" x2="-1.572" y2="-2.271" xlink:href="#c"/><linearGradient id="ab" x1="9.514" y1="5.082" x2="-6.509" y2="-3.236" xlink:href="#c"/><linearGradient id="ac" x1="3.266" y1="4.198" x2="-1.819" y2="-2.601" xlink:href="#c"/><linearGradient id="ad" x1="3.595" y1="3.827" x2="-2.642" y2="-2.971" xlink:href="#c"/><linearGradient id="ae" x1="7.808" y1="6.176" x2="-1.114" y2="-0.622" xlink:href="#c"/><linearGradient id="af" x1="2.725" y1="3.475" x2="-2.359" y2="-3.323" xlink:href="#c"/><linearGradient id="ag" x1="7.034" y1="3.795" x2="-8.988" y2="-4.523" xlink:href="#c"/><linearGradient id="ah" x1="54.532" y1="9.629" x2="-16.057" y2="-2.256" xlink:href="#c"/><linearGradient id="ai" x1="4.244" y1="5.506" x2="-0.84" y2="-1.292" xlink:href="#c"/><linearGradient id="aj" x1="3.95" y1="5.113" x2="-1.134" y2="-1.685" xlink:href="#c"/><linearGradient id="ak" x1="3.656" y1="4.719" x2="-1.429" y2="-2.079" xlink:href="#c"/><linearGradient id="al" x1="6.427" y1="5.124" x2="-2.495" y2="-1.675" xlink:href="#c"/><linearGradient id="am" x1="3.704" y1="4.784" x2="-1.381" y2="-2.015" xlink:href="#c"/><linearGradient id="an" x1="3.409" y1="4.39" x2="-1.675" y2="-2.408" xlink:href="#c"/><linearGradient id="ao" x1="43.607" y1="7.789" x2="-26.982" y2="-4.096" xlink:href="#c"/><linearGradient id="ap" x1="3.457" y1="4.454" x2="-1.627" y2="-2.344" xlink:href="#c"/><linearGradient id="aq" x1="3.163" y1="4.061" x2="-1.921" y2="-2.738" xlink:href="#c"/><linearGradient id="ar" x1="2.869" y1="3.667" x2="-2.216" y2="-3.131" xlink:href="#c"/><linearGradient id="as" x1="1.692" y1="2.094" x2="-3.393" y2="-4.705" xlink:href="#c"/><linearGradient id="at" x1="1.664" y1="1.723" x2="-4.573" y2="-5.075" xlink:href="#c"/><linearGradient id="au" x1="5.474" y1="9.938" x2="-3.448" y2="-7.232" xlink:href="#c"/><linearGradient id="av" x1="3.01" y1="9.292" x2="-2.074" y2="-7.878" xlink:href="#c"/><linearGradient id="aw" x1="2.716" y1="8.298" x2="-2.369" y2="-8.872" xlink:href="#c"/><linearGradient id="ax" x1="2.421" y1="7.305" x2="-2.663" y2="-9.866" xlink:href="#c"/><linearGradient id="ay" x1="1.245" y1="3.33" x2="-3.84" y2="-13.84" xlink:href="#c"/><linearGradient id="az" x1="2.369" y1="3.103" x2="-13.654" y2="-19.216" xlink:href="#c"/><linearGradient id="ba" x1="66.793" y1="9.533" x2="-1.307" y2="0.28" xlink:href="#c"/><linearGradient id="bc" x1="6.405" y1="4.94" x2="-0.623" y2="-0.21" xlink:href="#c"/><linearGradient id="be" x1="53.057" y1="7.666" x2="-15.042" y2="-1.586" xlink:href="#c"/><linearGradient id="bf" x1="3.329" y1="4.282" x2="-0.523" y2="-0.867" xlink:href="#c"/><linearGradient id="bg" x1="4.987" y1="3.901" x2="-2.04" y2="-1.248" xlink:href="#c"/><linearGradient id="bh" x1="2.795" y1="3.569" x2="-1.056" y2="-1.581" xlink:href="#c"/><linearGradient id="bi" x1="39.974" y1="6.834" x2="-28.126" y2="-4.138" xlink:href="#c"/><linearGradient id="bj" x1="2.567" y1="4.681" x2="-1.284" y2="-2.771" xlink:href="#c"/><linearGradient id="bk" x1="2.277" y1="4.119" x2="-1.574" y2="-3.333" xlink:href="#c"/><linearGradient id="bl" x1="1.986" y1="3.557" x2="-1.865" y2="-3.895" xlink:href="#c"/><linearGradient id="bm" x1="1.696" y1="2.995" x2="-2.155" y2="-4.457" xlink:href="#c"/><linearGradient id="bn" x1="47.894" y1="73.677" x2="2.717" y2="3.923" xlink:href="#c"/><linearGradient id="bo" x1="65.947" y1="101.55" x2="-12.005" y2="-18.808" xlink:href="#c"/><linearGradient id="bp" x1="36.313" y1="55.796" x2="-3.732" y2="-6.035" xlink:href="#c"/><linearGradient id="bq" x1="37.643" y1="57.849" x2="-9.493" y2="-14.93" xlink:href="#c"/><linearGradient id="br" x1="72.968" y1="112.35" x2="-26.287" y2="-40.844" xlink:href="#c"/><linearGradient id="bs" x1="35.134" y1="53.975" x2="-16.146" y2="-25.201" xlink:href="#c"/><linearGradient id="bt" x1="36.188" y1="55.613" x2="-16.9" y2="-26.37" xlink:href="#c"/><linearGradient id="bu" x1="28.511" y1="43.749" x2="-16.85" y2="-26.288" xlink:href="#c"/><linearGradient id="bv" x1="45.561" y1="70.09" x2="-15.37" y2="-24.008" xlink:href="#c"/><linearGradient id="bw" x1="70.79" y1="109.028" x2="-18.058" y2="-28.153" xlink:href="#c"/><linearGradient id="bx" x1="80.054" y1="123.331" x2="-28.439" y2="-44.182" xlink:href="#c"/><linearGradient id="by" x1="40.923" y1="62.927" x2="-23.553" y2="-36.647" xlink:href="#c"/><linearGradient id="bz" x1="31.008" y1="47.612" x2="-13.747" y2="-21.5" xlink:href="#c"/><linearGradient id="ca" x1="23.977" y1="36.748" x2="-17.507" y2="-27.302" xlink:href="#c"/><linearGradient id="cb" x1="46.635" y1="71.732" x2="-20.734" y2="-32.285" xlink:href="#c"/><linearGradient id="cc" x1="26.566" y1="40.746" x2="-14.598" y2="-22.811" xlink:href="#c"/><linearGradient id="cd" x1="25.086" y1="38.461" x2="-14.327" y2="-22.393" xlink:href="#c"/><linearGradient id="ce" x1="61.482" y1="94.62" x2="-45.678" y2="-70.772" xlink:href="#c"/><linearGradient id="cf" x1="25.222" y1="38.671" x2="-28.202" y2="-43.815" xlink:href="#c"/><linearGradient id="cg" x1="18.584" y1="28.425" x2="-16.362" y2="-25.538" xlink:href="#c"/><linearGradient id="ch" x1="22.174" y1="32.028" x2="-11.933" y2="-17.517" xlink:href="#c"/><linearGradient id="ci" x1="39.901" y1="61.335" x2="-34.434" y2="-53.438" xlink:href="#c"/><linearGradient id="cj" x1="20.328" y1="31.115" x2="-17.303" y2="-26.988" xlink:href="#c"/><linearGradient id="ck" x1="31.241" y1="47.964" x2="-21.898" y2="-34.083" xlink:href="#c"/><linearGradient id="cl" x1="27.36" y1="41.965" x2="-19.324" y2="-30.103" xlink:href="#c"/><linearGradient id="cm" x1="21.751" y1="33.312" x2="-19.067" y2="-29.712" xlink:href="#c"/><linearGradient id="cn" x1="22.009" y1="33.715" x2="-29.906" y2="-46.455" xlink:href="#c"/><linearGradient id="co" x1="20.718" y1="31.717" x2="-28.455" y2="-44.206" xlink:href="#c"/><linearGradient id="cp" x1="58.46" y1="89.958" x2="-40.654" y2="-63.019" xlink:href="#c"/><linearGradient id="cq" x1="19.097" y1="29.214" x2="-20.289" y2="-31.598" xlink:href="#c"/><linearGradient id="cr" x1="41.768" y1="64.218" x2="-46.217" y2="-71.631" xlink:href="#c"/><linearGradient id="cs" x1="24.22" y1="37.124" x2="-42.328" y2="-65.626" xlink:href="#c"/><clipPath id="ct"><rect class="b" width="486.589" height="486.589"/></clipPath><linearGradient id="cu" x1="0.447" y1="0.964" x2="0.447" y2="0.253" gradientUnits="objectBoundingBox"><stop offset="0.011" stop-color="#ffecd1"/><stop offset="0.527" stop-color="#adc7cc"/><stop offset="1" stop-color="#64a5c8"/></linearGradient><linearGradient id="cv" x1="0.146" y1="0.854" x2="0.854" y2="0.146" gradientUnits="objectBoundingBox"><stop offset="0.011" stop-color="#ffecd1"/><stop offset="0.104" stop-color="#fbead0" stop-opacity="0.976"/><stop offset="0.227" stop-color="#f1e5d0" stop-opacity="0.91"/><stop offset="0.368" stop-color="#e0ddcf" stop-opacity="0.804"/><stop offset="0.521" stop-color="#c8d3cd" stop-opacity="0.651"/><stop offset="0.685" stop-color="#aac5cc" stop-opacity="0.455"/><stop offset="0.855" stop-color="#86b4ca" stop-opacity="0.224"/><stop offset="1" stop-color="#64a5c8" stop-opacity="0"/></linearGradient><linearGradient id="cw" x1="0.146" y1="0.854" x2="0.854" y2="0.146" xlink:href="#cu"/></defs><g transform="translate(0 -132.091)"><g transform="translate(-39.64 108.988)"><g transform="translate(39.64 23.103)"><g class="c"><g transform="translate(-66.237 286.792)"><g transform="translate(0 28.329)"><path class="d" d="M19.494,118.946v3.82l44.539,25.715V256.571L19.494,282.287v3.82l47.848-27.625V146.572Z" transform="translate(-19.494 -118.946)"/></g><g transform="translate(44.538)"><path class="e" d="M129.957,334.149,33.04,278.193V166.286l96.917-55.956,96.917,55.956V278.193ZM36.351,276.286l93.606,54.043,93.609-54.043V168.193L129.957,114.15,36.351,168.193Z" transform="translate(-33.04 -110.33)"/></g><g transform="translate(235.064)"><path class="f" d="M187.9,334.149,90.988,278.193V166.286L187.9,110.33l96.913,55.956V278.193ZM94.3,276.286,187.9,330.329l93.606-54.043V168.193L187.9,114.15,94.3,168.193Z" transform="translate(-90.988 -110.33)"/></g><g transform="translate(0 164.999)"><path class="g" d="M65.688,160.514l-46.194,26.67V191l46.194-26.671,93.607,54.044V326.467L65.688,380.511,19.494,353.84v3.82l46.194,26.671L162.6,328.377V216.468Z" transform="translate(-19.494 -160.514)"/></g><g transform="translate(139.801 164.999)"><path class="h" d="M158.931,384.33,62.014,328.377V216.467l96.917-55.953,96.917,55.953v111.91ZM65.322,326.466l93.609,54.046,93.606-54.046V218.377l-93.606-54.043L65.322,218.377Z" transform="translate(-62.014 -160.514)"/></g><g transform="translate(330.324 164.999)"><path class="i" d="M216.878,384.33l-96.917-55.953V216.467l96.917-55.953,96.917,55.953v111.91Zm-93.606-57.863,93.606,54.046,93.609-54.046V218.377l-93.609-54.043-93.606,54.043Z" transform="translate(-119.961 -160.514)"/></g><g transform="translate(0 358.325)"><path class="j" d="M19.494,219.314v3.82l44.539,25.715V356.939L19.494,382.654v3.82l47.848-27.626V246.939Z" transform="translate(-19.494 -219.314)"/></g><g transform="translate(44.538 329.998)"><path class="k" d="M129.957,434.514,33.04,378.561V266.651L129.957,210.7l96.917,55.953v111.91ZM36.351,376.65l93.606,54.043,93.609-54.043V268.561l-93.609-54.043L36.351,268.561Z" transform="translate(-33.04 -210.698)"/></g><g transform="translate(235.064 329.998)"><path class="l" d="M187.9,434.514,90.988,378.561V266.651L187.9,210.7l96.913,55.953v111.91ZM94.3,376.65,187.9,430.693l93.606-54.043V268.561L187.9,214.519,94.3,268.561Z" transform="translate(-90.988 -210.698)"/></g><g transform="translate(0 494.995)"><path class="m" d="M19.494,323.5l32.964,19.032h6.615L19.494,319.681Z" transform="translate(-19.494 -126.355)"/><path class="n" d="M65.688,260.882,19.494,287.552v3.82L65.688,264.7l93.607,54.044V426.834L72.3,477.059h6.616L162.6,428.744V316.835Z" transform="translate(-19.494 -260.882)"/></g><g transform="translate(139.801 494.995)"><path class="o" d="M152.316,477.059,65.323,426.834V318.745L158.931,264.7l93.607,54.044V426.834l-86.992,50.225h6.616l83.686-48.315V316.835l-96.916-55.954L62.014,316.835V428.744L145.7,477.059Z" transform="translate(-62.014 -260.882)"/></g><g transform="translate(330.325 494.995)"><path class="p" d="M210.264,477.059l-86.993-50.225V318.745L216.878,264.7l93.607,54.044V426.834l-86.992,50.225h6.616l83.686-48.315V316.835l-96.916-55.954-96.917,55.954V428.744l83.687,48.315Z" transform="translate(-119.961 -260.882)"/></g><g transform="translate(0 688.322)"><path class="q" d="M19.494,319.681v3.82l32.963,19.032h6.617Z" transform="translate(-19.494 -319.681)"/></g><g transform="translate(52.807 659.993)"><path class="r" d="M42.172,362.245l82.032-47.36,82.031,47.36h6.617L124.2,311.065l-88.649,51.18Z" transform="translate(-35.555 -311.065)"/></g><g transform="translate(243.331 659.993)"><path class="s" d="M100.12,362.245l82.032-47.36,82.031,47.36H270.8l-88.648-51.18L93.5,362.245Z" transform="translate(-93.502 -311.065)"/></g><g transform="translate(433.855 659.993)"><path class="t" d="M158.067,362.245l82.032-47.36,82.031,47.36h6.617L240.1,311.065l-88.649,51.18Z" transform="translate(-151.45 -311.065)"/></g><g transform="translate(624.378 659.993)"><path class="u" d="M216.014,362.245l82.032-47.36,82.031,47.36h6.617l-88.648-51.18L209.4,362.245Z" transform="translate(-209.397 -311.065)"/></g></g><g class="v" transform="translate(-66.237 -114.16)"><path class="w" d="M31.626-11.618v89.3l-12.132,7v.9l12.713-7.34.194-.112V-11.618Z" transform="translate(-19.494 11.618)"/><g transform="translate(725.847)"><path class="x" d="M418.688-11.618v89.3L329.86,128.966,241.033,77.682v-89.3h-.775V78.13l89.408,51.62.194.112,89.408-51.619.194-.112V-11.618Z" transform="translate(-240.258 11.618)"/></g><g transform="translate(904.276)"><path class="y" d="M472.957-11.618v89.3L384.13,128.966,295.3,77.682v-89.3h-.775V78.13l89.408,51.62.194.112,89.409-51.619.193-.112V-11.618Z" transform="translate(-294.527 11.618)"/></g><g transform="translate(1082.706)"><path class="z" d="M527.225-11.618v89.3L438.4,128.966,349.571,77.682v-89.3H348.8V78.13l89.409,51.62.193.112,89.409-51.619L528,78.13V-11.618Z" transform="translate(-348.796 11.618)"/></g><g transform="translate(1261.135)"><path class="aa" d="M403.84,77.682v-89.3h-.775V78.13l89.405,51.62.193.112,56.479-32.607v-.9l-56.479,32.607Z" transform="translate(-403.065 11.618)"/></g><g transform="translate(993.492 89.077)"><path class="ab" d="M411.263,222.4l-.194-.112-89.407-51.62V67.205l.191-.112,89.411-51.62.194.112,89.407,51.62V170.668l-.194.112Zm-88.829-52.179,88.829,51.284,88.825-51.284V67.653L411.263,16.368,322.435,67.653Z" transform="translate(-321.662 -15.474)"/></g><g transform="translate(1171.919 89.077)"><path class="ac" d="M465.535,222.4l-.194-.112-89.411-51.62V67.205l.194-.112,89.411-51.62.194.112,89.4,51.62V170.668l-.194.112Zm-88.829-52.179,88.829,51.284,88.822-51.284V67.653L465.535,16.368,376.706,67.653Z" transform="translate(-375.93 -15.474)"/></g><g transform="translate(1350.347 107.977)"><path class="ad" d="M487.064,189.453,430.973,157.07V54.5l56.091-32.383v-.9L430.392,53.941l-.193.112V157.518l56.865,32.831Z" transform="translate(-430.198 -21.222)"/></g><g transform="translate(1082.705 243.601)"><path class="ae" d="M438.4,269.4l-.194-.112L348.8,217.666V114.2l.194-.112L438.4,62.472l.194.112L528,114.2V217.666l-.191.115Zm-88.825-52.179L438.4,268.5l88.829-51.284V114.651L438.4,63.366l-88.825,51.284Z" transform="translate(-348.796 -62.472)"/></g><g transform="translate(1261.135 243.601)"><path class="af" d="M549.142,235.9,492.664,268.5,403.84,217.22V114.651l88.824-51.283,56.479,32.607V95.08l-56.284-32.5-.194-.112-89.4,51.619-.194.112V217.668l89.405,51.619.193.112,56.479-32.608Z" transform="translate(-403.065 -62.472)"/></g><g transform="translate(0 398.124)"><path class="ag" d="M32.207,109.582l-.194-.112L19.494,116.7v.9l12.52-7.228,88.824,51.284V264.218L32.013,315.5l-12.52-7.228v.9l12.326,7.116.193.112,89.405-51.619.194-.112V161.2Z" transform="translate(-19.494 -109.47)"/></g><g transform="translate(1171.919 398.124)"><path class="ah" d="M465.535,316.4l-.194-.115L375.93,264.668V161.2l.194-.112,89.411-51.62.194.112,89.4,51.62V264.668l-.194.112Zm-88.829-52.182L465.535,315.5l88.822-51.284V161.649l-88.822-51.281-88.829,51.281Z" transform="translate(-375.93 -109.47)"/></g><g transform="translate(1350.347 417.025)"><path class="ai" d="M487.064,283.45l-56.091-32.383V148.5l56.091-32.384v-.9l-56.672,32.719-.193.112V251.514l56.865,32.831Z" transform="translate(-430.198 -115.219)"/></g><g transform="translate(0 596.928)"><path class="aj" d="M19.494,169.936v.9l12.132,7V280.4l-12.132,7v.9l12.713-7.34.194-.112V177.388Z" transform="translate(-19.494 -169.936)"/></g><g transform="translate(12.133 552.648)"><path class="ak" d="M112.782,363.4l-.194-.112-89.4-51.62V208.2l.194-.112,89.4-51.62.194.112,89.407,51.62V311.666l-.194.112ZM23.957,311.215,112.782,362.5l88.829-51.284V208.647l-88.829-51.281L23.957,208.647Z" transform="translate(-23.184 -156.468)"/></g><g transform="translate(190.559 552.648)"><path class="al" d="M167.053,363.4l-.194-.112-89.407-51.62V208.2l.194-.112,89.407-51.62.194.112,89.407,51.62V311.666l-.194.112ZM78.225,311.215,167.053,362.5l88.829-51.284V208.647l-88.829-51.281L78.225,208.647Z" transform="translate(-77.452 -156.468)"/></g><g transform="translate(368.989 552.648)"><path class="am" d="M221.322,363.4l-.194-.112-89.407-51.62V208.2l.194-.112,89.407-51.62.194.112,89.407,51.62V311.666l-.194.112Zm-88.829-52.182L221.322,362.5l88.825-51.284V208.647l-88.825-51.281-88.829,51.281Z" transform="translate(-131.721 -156.468)"/></g><g transform="translate(0 707.172)"><path class="an" d="M32.207,203.578l-.194-.112-12.52,7.228v.9l12.52-7.228,88.824,51.283V358.214L32.013,409.5l-12.52-7.228v.9l12.326,7.116.193.112,89.405-51.62.194-.112V255.2Z" transform="translate(-19.494 -203.466)"/></g><g transform="translate(101.343 707.172)"><path class="ao" d="M139.922,410.4l-.194-.112-89.411-51.62V255.2l.194-.112,89.411-51.62.191.112,89.411,51.62V358.664l-.194.112ZM51.093,358.213,139.922,409.5l88.825-51.284V255.645l-88.825-51.281L51.093,255.645Z" transform="translate(-50.317 -203.466)"/></g><g transform="translate(279.773 707.172)"><path class="ap" d="M194.187,410.4l-.191-.112-89.411-51.62V255.2l.194-.112,89.407-51.62.194.112,89.411,51.62V358.664l-.194.112Zm-88.825-52.182L194.187,409.5l88.829-51.284V255.645l-88.829-51.281-88.825,51.281Z" transform="translate(-104.586 -203.466)"/></g><g transform="translate(0 905.976)"><path class="aq" d="M19.494,263.932v.9l12.132,7V374.4l-12.132,7v.9l12.713-7.34.194-.112V271.384Z" transform="translate(-19.494 -263.932)"/></g><g transform="translate(12.133 861.695)"><path class="ar" d="M112.782,457.393l-.194-.112-89.4-51.62V302.2l.194-.112,89.4-51.62.194.112,89.407,51.62V405.662l-.194.112ZM23.957,405.215,112.782,456.5l88.829-51.281V302.646l-88.829-51.284L23.957,302.646Z" transform="translate(-23.184 -250.464)"/></g><g transform="translate(190.559 861.695)"><path class="as" d="M167.053,457.393l-.194-.112-89.407-51.62V302.2l.194-.112,89.407-51.62.194.112,89.407,51.62V405.662l-.194.112ZM78.225,405.215,167.053,456.5l88.829-51.281V302.646l-88.829-51.284L78.225,302.646Z" transform="translate(-77.452 -250.464)"/></g><g transform="translate(368.989 861.695)"><path class="at" d="M221.322,457.393l-.194-.112-89.407-51.62V302.2l.194-.112,89.407-51.62.194.112,89.407,51.62V405.662l-.194.112Zm-88.829-52.179L221.322,456.5l88.825-51.281V302.646l-88.825-51.284-88.829,51.284Z" transform="translate(-131.721 -250.464)"/></g><g transform="translate(1082.705 861.695)"><path class="au" d="M438.4,457.393l-.194-.112L348.8,405.662V302.2l.194-.112,89.407-51.62.194.112L528,302.2V405.662l-.191.112Zm-88.825-52.179L438.4,456.5l88.829-51.281V302.646L438.4,251.362l-88.825,51.284Z" transform="translate(-348.796 -250.464)"/></g><g transform="translate(1261.135 861.697)"><path class="av" d="M549.142,423.889,492.664,456.5,403.84,405.212V302.644l88.824-51.283,56.479,32.607v-.9l-56.284-32.5-.194-.112-89.4,51.62-.194.112V405.66l89.405,51.619.193.112,56.479-32.608Z" transform="translate(-403.065 -250.464)"/></g><g transform="translate(0 1016.22)"><path class="aw" d="M32.207,297.574l-.194-.112-12.52,7.228v.9l12.52-7.228,88.824,51.284v29.752h.775v-30.2Z" transform="translate(-19.494 -297.462)"/></g><g transform="translate(101.344 1016.22)"><path class="ax" d="M51.092,379.394V349.642l88.827-51.284,88.827,51.284v29.752h.775v-30.2l-89.409-51.62-.194-.112-89.409,51.62-.193.112v30.2Z" transform="translate(-50.317 -297.462)"/></g><g transform="translate(279.773 1016.22)"><path class="ay" d="M105.361,379.394V349.642l88.827-51.284,88.827,51.284v29.752h.775v-30.2l-89.409-51.62-.193-.112-89.409,51.62-.194.112v30.2Z" transform="translate(-104.586 -297.462)"/></g><g transform="translate(458.203 1016.22)"><path class="az" d="M159.63,379.394V349.642l88.827-51.284,88.827,51.284v29.752h.775v-30.2l-89.409-51.62-.193-.112-89.409,51.62-.193.112v30.2Z" transform="translate(-158.855 -297.462)"/></g><g transform="translate(1171.92 1016.22)"><path class="ba" d="M376.706,379.394V349.642l88.827-51.284,88.824,51.284v29.752h.775v-30.2l-89.405-51.62-.194-.112-89.408,51.62-.194.112v30.2Z" transform="translate(-375.93 -297.462)"/></g><g transform="translate(1350.347 1035.121)"><path class="bb" d="M487.064,303.211,430.392,335.93l-.193.112v30.2h.775V336.49l56.091-32.383Z" transform="translate(-430.198 -303.211)"/></g><g transform="translate(0 103.82)"><g transform="translate(0 60.57)"><path class="bc" d="M19.494,38.38v4.663l9.34,5.393V180.363l-9.34,5.393v4.663l13.379-7.724V46.1Z" transform="translate(-19.494 -38.38)"/></g><g transform="translate(9.341)"><path class="f" d="M140.626,293.138l-118.291-68.3V88.254l118.291-68.3,118.288,68.3V224.842ZM26.373,222.511l114.254,65.965,114.25-65.965V90.585L140.626,24.62,26.373,90.585Z" transform="translate(-22.335 -19.958)"/></g><g transform="translate(0 201.388)"><path class="bd" d="M30.854,81.21l-11.36,6.559V92.43l11.36-6.559,114.252,65.963V283.762L30.854,349.725l-11.36-6.559v4.662l11.36,6.559,118.29-68.294V149.5Z" transform="translate(-19.494 -81.21)"/></g><g transform="translate(125.61 201.389)"><path class="i" d="M175.989,354.387,57.7,286.091V149.5L175.989,81.21,294.281,149.5V286.091ZM61.739,283.76l114.251,65.965L290.24,283.76V151.834L175.989,85.872,61.739,151.834Z" transform="translate(-57.698 -81.21)"/></g><g transform="translate(0 463.344)"><path class="be" d="M19.494,160.883v4.663l9.34,5.393V302.866l-9.34,5.393v4.663L32.873,305.2V168.607Z" transform="translate(-19.494 -160.883)"/></g><g transform="translate(9.341 402.775)"><path class="bf" d="M140.626,415.638,22.335,347.345V210.754l118.291-68.293,118.288,68.293V347.345ZM26.373,345.014l114.254,65.961,114.25-65.961V213.085l-114.25-65.961L26.373,213.085Z" transform="translate(-22.335 -142.461)"/></g><g transform="translate(0 604.162)"><path class="bg" d="M30.854,203.712l-11.36,6.559v4.662l11.36-6.559,114.252,65.963V406.265L30.854,472.228l-11.36-6.559v4.662l11.36,6.559L149.144,408.6V272.006Z" transform="translate(-19.494 -203.712)"/></g><g transform="translate(125.61 604.161)"><path class="bh" d="M175.989,476.889,57.7,408.6V272.008l118.291-68.3,118.291,68.3V408.6ZM61.739,406.265,175.989,472.23,290.24,406.265V274.339L175.989,208.374,61.739,274.339Z" transform="translate(-57.698 -203.712)"/></g><g transform="translate(0 866.118)"><path class="bi" d="M19.494,283.386v4.663l9.34,5.392V411.6h4.039V291.11Z" transform="translate(-19.494 -283.386)"/></g><g transform="translate(9.34 805.549)"><path class="bj" d="M26.374,453.747V335.588l114.251-65.963,114.252,65.963V453.747h4.039V333.257L140.625,264.964,22.335,333.257V453.747Z" transform="translate(-22.335 -264.964)"/></g><g transform="translate(241.883 805.549)"><path class="bk" d="M97.1,453.747V335.588l114.252-65.963L325.6,335.588V453.747h4.038V333.257l-118.29-68.294L93.062,333.257V453.747Z" transform="translate(-93.062 -264.964)"/></g><g transform="translate(474.425 805.549)"><path class="bl" d="M167.827,453.747V335.588L282.08,269.626l114.251,65.963V453.747h4.039V333.257L282.08,264.964,163.789,333.257V453.747Z" transform="translate(-163.789 -264.964)"/></g><g transform="translate(706.967 805.549)"><path class="bm" d="M238.555,453.747V335.588l114.251-65.963,114.251,65.963V453.747h4.04V333.257L352.807,264.964,234.516,333.257V453.747Z" transform="translate(-234.516 -264.964)"/></g></g><g transform="translate(0 79.44)"><path class="bn" d="M30.318,32.711A10.084,10.084,0,1,0,20.234,22.627,10.083,10.083,0,0,0,30.318,32.711Z" transform="translate(-17.801 -12.543)"/><path class="bo" d="M48.658,129.338A5.844,5.844,0,1,0,54.5,123.5,5.846,5.846,0,0,0,48.658,129.338Z" transform="translate(47.23 241.302)"/><path class="bp" d="M31.217,128.9a11.376,11.376,0,1,0-11.376-11.376A11.376,11.376,0,0,0,31.217,128.9Z" transform="translate(-18.7 201.609)"/><path class="bq" d="M57.162,172.994a9.665,9.665,0,1,0-9.666-9.666A9.665,9.665,0,0,0,57.162,172.994Z" transform="translate(44.571 310.327)"/><path class="br" d="M112.488,159.8a4.59,4.59,0,1,0-4.59,4.593A4.59,4.59,0,0,0,112.488,159.8Z" transform="translate(172.262 313.857)"/><circle class="bs" cx="8.884" cy="8.884" r="8.884" transform="translate(360.492 516.281)"/><path class="bt" d="M173.526,162.573a8.581,8.581,0,1,0-8.581,8.581A8.581,8.581,0,0,0,173.526,162.573Z" transform="translate(293.646 311.082)"/><circle class="bu" cx="10.043" cy="10.043" r="10.043" transform="translate(537.762 515.121)"/><path class="bv" d="M21.027,208.806a7.477,7.477,0,1,0,7.477-7.477A7.476,7.476,0,0,0,21.027,208.806Z" transform="translate(-15.987 419.377)"/><path class="bw" d="M32,175.837a5.127,5.127,0,1,0-5.129,5.129A5.129,5.129,0,0,0,32,175.837Z" transform="translate(-14.351 349.326)"/><circle class="bx" cx="4.199" cy="4.199" r="4.199" transform="translate(186.748 520.966)"/><path class="by" d="M102.555,224.186a7.066,7.066,0,1,0,7.066-7.066A7.066,7.066,0,0,0,102.555,224.186Z" transform="translate(170.54 455.504)"/><path class="bz" d="M84.653,200.507a10.178,10.178,0,1,0,10.179,10.179A10.179,10.179,0,0,0,84.653,200.507Z" transform="translate(106.294 417.496)"/><circle class="ca" cx="10.982" cy="10.982" r="10.982" transform="translate(536.823 617.199)"/><circle class="cb" cx="6.762" cy="6.762" r="6.762" transform="translate(94.97 672.926)"/><path class="cc" d="M58.137,269.369A11.067,11.067,0,1,0,47.07,258.3,11.067,11.067,0,0,0,58.137,269.369Z" transform="translate(43.597 524.404)"/><circle class="cd" cx="11.559" cy="11.559" r="11.559" transform="translate(357.817 616.622)"/><path class="ce" d="M157.68,222.229a4.251,4.251,0,1,0,4.251-4.255A4.252,4.252,0,0,0,157.68,222.229Z" transform="translate(296.659 457.461)"/><circle class="cf" cx="8.527" cy="8.527" r="8.527" transform="translate(539.277 825.685)"/><path class="cg" d="M168.044,246.636a13.035,13.035,0,1,0,13.036,13.036A13.036,13.036,0,0,0,168.044,246.636Z" transform="translate(290.546 523.034)"/><path class="ch" d="M32.011,261.949a14.133,14.133,0,0,0-12.517,7.634v13.125a14.17,14.17,0,1,0,12.517-20.76Z" transform="translate(-19.494 558.068)"/><path class="ci" d="M54.7,323.658a6.129,6.129,0,1,0-6.129-6.129A6.13,6.13,0,0,0,54.7,323.658Z" transform="translate(47.033 671.208)"/><path class="cj" d="M85.994,318.129a12.106,12.106,0,1,0-12.106-12.106A12.106,12.106,0,0,0,85.994,318.129Z" transform="translate(104.953 631.207)"/><path class="ck" d="M83.537,263.659a8.573,8.573,0,1,0,8.572,8.575A8.576,8.576,0,0,0,83.537,263.659Z" transform="translate(107.41 561.98)"/><path class="cl" d="M111.494,267.152a9.76,9.76,0,1,0-9.758-9.758A9.757,9.757,0,0,0,111.494,267.152Z" transform="translate(168.666 525.312)"/><path class="cm" d="M150.765,274.034a11.161,11.161,0,1,0-11.159,11.159A11.16,11.16,0,0,0,150.765,274.034Z" transform="translate(229.77 560.18)"/><path class="cn" d="M165.079,328.143a8.774,8.774,0,1,0-8.775-8.772A8.773,8.773,0,0,0,165.079,328.143Z" transform="translate(293.511 669.366)"/><circle class="co" cx="9.265" cy="9.265" r="9.265" transform="translate(538.54 927.964)"/><path class="cp" d="M26.5,296.2a4.6,4.6,0,1,0,4.6,4.6A4.6,4.6,0,0,0,26.5,296.2Z" transform="translate(-13.982 636.43)"/><path class="cq" d="M112.753,309.747a11.567,11.567,0,1,0,11.567,11.567A11.566,11.566,0,0,0,112.753,309.747Z" transform="translate(167.407 667.424)"/><circle class="cr" cx="5.178" cy="5.178" r="5.178" transform="translate(364.198 932.051)"/><circle class="cs" cx="6.846" cy="6.846" r="6.846" transform="translate(630.174 981.891)"/></g></g></g></g></g><g class="ct" transform="translate(1920 1079) rotate(180)"><g class="cu"><path class="cv" d="M169.085-156.2C231.131-156.78,317.59-110.062,348-55.993c21.9,38.935,2.649,56.338-10.922,92.052C302,128.39,437.694,97.787,459.948,142.15c21.389,42.64-23.106,105.815-22.667,150.394.236,23.891,13.89,42.748-3.95,62.838-42.708,48.093-87.4,59.844-144.832,28.854-43-23.206-70.1-68.138-122.931-50.511-71.909,24-133.8,22.139-208.682.774-67.865-19.36-159.515-60.019-148.009-146.677C-175.4,69.422-20.6-154.416,169.085-156.2Z" transform="translate(5.153 4.19)"/><path class="cw" d="M446.188,306.956c-1.84-9.42-1.239-19.23.135-28.663,2.8-19.224,9.386-37.684,14.248-56.43,4.087-15.761,7.68-33.024,3.062-49.068-5-17.38-20.481-26.783-36.424-32.856-22.3-8.5-46.573-12.567-66.665-26.134C339.8,99.8,331.932,77.353,333.846,53.1c1.791-22.7,11.866-46.276,29.875-60.721.09-.072-.031-.229-.125-.161-16.348,12-25.436,32.1-29.161,51.554-3.621,18.916-1.908,40.676,10.337,56.3,14.373,18.342,36.347,26.153,57.816,32.953,19.892,6.3,44.089,11.847,55.775,30.91,9.309,15.185,6.312,34.6,2.567,50.99-4.324,18.922-10.935,37.245-14.693,56.31a113.949,113.949,0,0,0-2.373,26.5c.369,9.3,3.21,17.437,6.418,26.066,7.346,19.748,12.135,41.787,6.656,62.607-6.011,22.839-24.878,36.52-45.063,46.394-.391.191-.11.869.3.706,18.974-7.59,35.969-21.079,43.823-40.351,7.364-18.074,4.866-38.554-.268-56.841C452.945,326.406,448.165,317.068,446.188,306.956Z" transform="translate(-8.925 0.209)"/><path class="cw" d="M399.865,400.415c-25.613,11.3-53.41,15.039-80.062,6.854-24.577-7.549-43.054-25.508-60.125-45.273-14.916-17.27-29.934-34.669-51.19-42.179-23.84-8.421-50.458-5.916-74.817-.962-31.822,6.472-62.5,18.646-94.778,22.537-15.37,1.851-31.513,2-46.183-3.7-15.47-6.012-25.6-19.595-29.743-36.758a.161.161,0,1,0-.312.074c3.7,15.762,12.207,28.5,25.742,35.533,13.866,7.209,30.379,7.679,45.482,6.373,35.7-3.082,69.515-17.2,104.639-23.876,25.479-4.843,53.556-6.2,77.652,5.1,21.4,10.034,36.2,31.752,52.173,49.307,16.659,18.314,36.6,32.019,60.033,37.24,23.964,5.335,49.392,1.1,71.817-9.558A.4.4,0,0,0,399.865,400.415Z" transform="translate(1.002 -8.068)"/></g><g transform="translate(47.74 1.761)"><g transform="translate(0 0)"><circle class="cx" cx="90.67" cy="90.67" r="90.67" transform="translate(0 170.405) rotate(-70.001)"/><circle class="cy" cx="30.101" cy="30.101" r="30.101" transform="translate(308.036 78.135) rotate(-76.894)"/><path class="cz" d="M225.208,374.129a18.066,18.066,0,1,1-18.065-18.064A18.065,18.065,0,0,1,225.208,374.129Z" transform="translate(-52.812 -11.311)"/></g></g></g></g></svg>