<?xml version="1.0" encoding="utf-8"?>
<!-- Generator: Adobe Illustrator 23.0.3, SVG Export Plug-In . SVG Version: 6.00 Build 0)  -->
<svg version="1.1" id="Layer_1" xmlns="http://www.w3.org/2000/svg" xmlns:xlink="http://www.w3.org/1999/xlink" x="0px" y="0px"
	 viewBox="0 0 1000 1000" style="enable-background:new 0 0 1000 1000;" xml:space="preserve">
<style type="text/css">
	.st0{opacity:0.15;}
	.st1{opacity:0.5;fill:none;stroke:#474747;stroke-width:6;stroke-linecap:round;stroke-linejoin:round;stroke-miterlimit:10;}
	.st2{fill:none;stroke:#474747;stroke-width:6;stroke-linecap:round;stroke-linejoin:round;stroke-miterlimit:10;}
	.st3{fill:#D2DCE0;}
	.st4{fill:#EAEAEA;}
	.st5{fill:none;stroke:#474747;stroke-width:3;stroke-linecap:round;stroke-linejoin:round;stroke-miterlimit:10;}
	.st6{fill:#FFFFFF;}
	.st7{fill:#E6EEEF;}
	
		.st8{fill:none;stroke:#474747;stroke-width:3;stroke-linecap:round;stroke-linejoin:round;stroke-miterlimit:10;stroke-dasharray:1,7;}
	.st9{fill:#FFFFFF;stroke:#91C2FF;stroke-width:3;stroke-linecap:round;stroke-linejoin:round;stroke-miterlimit:10;}
	.st10{fill:#FFFFFF;stroke:#D2DCE0;stroke-width:3;stroke-miterlimit:10;}
	.st11{fill:#F5BE46;}
	.st12{fill:#474747;}
	.st13{fill:none;stroke:#1676EE;stroke-width:3;stroke-linecap:round;stroke-linejoin:round;stroke-miterlimit:10;}
	.st14{fill:none;stroke:url(#SVGID_1_);stroke-width:3;stroke-linecap:round;stroke-linejoin:round;stroke-miterlimit:10;}
	.st15{clip-path:url(#SVGID_3_);}
	.st16{fill:none;stroke:#91C2FF;stroke-width:3;stroke-linecap:round;stroke-linejoin:round;stroke-miterlimit:10;}
	.st17{fill:none;stroke:#D2DCE0;stroke-width:3;stroke-linecap:round;stroke-miterlimit:10;}
	.st18{fill:#96C5FF;}
	.st19{opacity:0.1;}
	.st20{fill:none;stroke:#1B3242;stroke-width:10;stroke-linecap:round;stroke-linejoin:round;stroke-miterlimit:10;}
	.st21{fill:none;stroke:#1B3242;stroke-width:6;stroke-linecap:round;stroke-linejoin:round;stroke-miterlimit:10;}
	.st22{fill:#1B3242;}
	.st23{fill:none;stroke:#1B3242;stroke-width:4;stroke-linecap:round;stroke-linejoin:round;stroke-miterlimit:10;}
</style>
<g id="XMLID_11_" class="st0">
	<polyline id="XMLID_57_" class="st1" points="112.8,364.6 192.2,364.6 192.2,403.3 112.8,403.3 	"/>
	<line id="XMLID_59_" class="st1" x1="271.5" y1="403.3" x2="192.2" y2="403.3"/>
	<line id="XMLID_38_" class="st1" x1="192.2" y1="364.6" x2="222.6" y2="364.6"/>
	<rect id="XMLID_42_" x="152.5" y="403.3" class="st1" width="79.3" height="38.7"/>
	<polyline id="XMLID_52_" class="st1" points="125.2,442.2 192.2,442.2 192.2,480.9 166.5,480.9 	"/>
	<rect id="XMLID_54_" x="192.2" y="442.2" class="st1" width="79.3" height="38.7"/>
	<line id="XMLID_73_" class="st2" x1="84.6" y1="709.6" x2="915.4" y2="709.6"/>
</g>
<g id="Sync">
	<g>
		<path class="st3" d="M506,416c0,26.2-21.9,47.5-48.8,47.5l-32,0.6l-3.1,0l-72.7,1.3l-16.7,0.3l-55.5,0.6
			c-23.7,0-39.7-16.3-43.2-38.1c-0.5-2.9-0.7-6-0.7-9.2c0-26.7,20-49.5,48.8-47.9c7.7-25.5,38.3-36.3,62.8-24.3
			c11.6-24.9,40.9-44.1,70.8-44.1c29.3,0,53.6,16.9,64.9,41.2c2.9,6.2,4.9,12.8,6,19.8c0.1,0.4,0.1,0.8,0.2,1.2
			c0.5,3.1,0.7,6.3,0.7,9.6c0,0.2,0,0.5,0,0.7c0,0.7,0,0.3,0.1,0.1c0,0,0,0.2,0,0.4c4.9,3.8,9,9.1,12.1,15.1
			c3.7,7.3,5.9,15.8,6.1,23.9C506,415.1,506,415.5,506,416z"/>
		<path class="st4" d="M500.7,400c0,26.2-21.9,47.5-48.8,47.5l-32,0.6l-3.1,0l-72.6,1.3l-16.7,0.3l-55.4,0.6
			c-17.4,0-30.7-8.8-37.9-22.2c-0.5-2.9-0.7-6-0.7-9.2c0-26.7,20-49.5,48.8-47.9c7.7-25.5,38.3-36.3,62.8-24.3
			c11.6-24.9,40.9-44.1,70.8-44.1c29.3,0,53.6,16.9,64.9,41.2c1,5,2.7,3.1,2.7,8.3c0,0.8,1.6,5,1.6,4.8c0,0,0,1.4,0,1.6
			c2.1,1.7,0.2,3.5,1.8,5.1c0.3,2.8,0.8,5.6,0.8,10.7c4.7,3.8,8.6,8.5,11.6,13.8c0.2,0.9,0.4,1.7,0.5,2.6
			C500.4,393.9,500.7,397,500.7,400z"/>
		<line class="st5" x1="314.3" y1="465.9" x2="316.7" y2="465.9"/>
		<path class="st5" d="M367.2,308.5c-10.7,7.7-19.4,18.1-24.9,30.3c-6.1-3.1-13-4.7-20.3-4.7c-20.5,0-38.8,13.6-44.3,32.3
			c-1-0.1,1,0,0,0c-27.7,0-52.1,22.4-52.1,50.1c0,27.7,22.5,50.2,50.2,50.2l23.8-0.4"/>
		<path class="st5" d="M377.1,302.5c-0.2,0.1-0.5,0.2-0.7,0.3"/>
		<path class="st5" d="M394.6,296.2c5.4-1.2,11-1.8,16.7-1.8c39.7,0,72.3,30.5,75.6,69.4c0,0.4,0.1,0.7,0.1,1.1
			c0.1,1.8,0.2,3.6,0.2,5.4c0,1.2-0.1,2.4-0.2,3.7c0.2,0.2,0.5,0.4,0.7,0.6c4.7,3.8,8.6,8.5,11.6,13.8c4.2,7.3,6.7,15.9,6.7,24.9
			c0,0.5,0,1,0,1.5c-0.8,27-22.9,48.6-50.1,48.6l-126.4,2.3"/>
		<path class="st5" d="M277.7,366.4c8,0.5,16.7,3.8,23.2,7.5"/>
		<path class="st5" d="M342.3,338.8c3.8,1.6,7.6,4.2,10.4,6.6"/>
	</g>
	<g>
		<g>
			<path class="st6" d="M834,684.1v8.1c0,7.4-6.3,13.4-14,13.4H537.8c-7.7,0-14-6-14-13.4v-8.1h127.6c1.1,3,4,5.2,7.5,5.2h39.9
				c3.5,0,6.5-2.2,7.5-5.2H834z"/>
			<path class="st6" d="M818.1,684.1H539.7V500.4c0-1.5,1.2-2.8,2.8-2.8h272.9c1.5,0,2.8,1.2,2.8,2.8V684.1z"/>
			<path class="st7" d="M818.1,514.5v169.6H546.6V510.7c0-4.1,3.3-7.4,7.4-7.4h252.9C813.1,503.3,818.1,508.3,818.1,514.5z"/>
			<polyline class="st6" points="748.8,684.8 552.8,684.8 552.8,512.3 804.1,512.3 804.1,684.8 777.8,684.8 			"/>
			<polyline class="st5" points="641.9,684.1 539.7,684.1 539.7,662.5 			"/>
			<path class="st5" d="M539.7,627V509.2c0-6.4,5.2-11.5,11.5-11.5h255.4c6.4,0,11.5,5.2,11.5,11.5v174.9h-73.8"/>
			<line class="st5" x1="539.7" y1="640.3" x2="539.7" y2="637.8"/>
			<line class="st5" x1="804.1" y1="570.6" x2="804.1" y2="684.1"/>
			<path class="st7" d="M834,690.5v5.7c0,5.2-6.1,9.4-13.6,9.4H545.1c-7.5,0-13.6-4.2-13.6-9.4v-5.7h116.9c1,2.1,3.9,3.6,7.3,3.6
				h46.5c3.4,0,6.3-1.5,7.3-3.6H834z"/>
			<line class="st6" x1="552.8" y1="512.3" x2="804.1" y2="512.3"/>
			<polyline class="st5" points="636.1,684.1 552.8,684.1 552.8,512.3 804.1,512.3 804.1,552 			"/>
			<line class="st5" x1="728.7" y1="684.1" x2="727.2" y2="684.1"/>
			<line class="st5" x1="804.1" y1="684.1" x2="738.9" y2="684.1"/>
			<path class="st5" d="M804.1,684.1H834v8.1c0,7.4-6.3,13.4-14,13.4H537.8c-7.7,0-14-6-14-13.4v-8.1h127.6c1.1,3,4,5.2,7.5,5.2
				h39.9c2.5,0,4.7-1.1,6.2-2.9"/>
		</g>
	</g>
	<path class="st8" d="M713,475c-20.8-81.3-73.7-136.1-194.7-122.9"/>
	<path class="st8" d="M363.9,479.3c-1.9,87.4,37.1,135.2,149.6,129"/>
	<circle class="st9" cx="683.5" cy="403.3" r="15.1"/>
	<circle class="st10" cx="370.8" cy="534.1" r="15.1"/>
</g>
<g id="Paper_Clip">
	<g>
		<path class="st6" d="M419.6,553c0-2.8-0.2-5.6,0-8.4c0.3-4.3,2.1-7.8,5.1-10.9c12.9-13.5,25.7-27.1,38.5-40.7
			c3.7-4,7.5-7.9,11.2-11.9c0.4-0.4,0.8-0.9,1.3-1.2c1.2-0.7,2.4-0.5,3.4,0.5c1,1,1.1,2.3,0.4,3.5c-0.3,0.6-0.8,1.1-1.3,1.6
			c-16.4,17.3-32.8,34.7-49.2,51.9c-2.6,2.7-3.9,5.9-3.8,9.7c0.1,4,0,7.9,0,11.9c0,3.4,1.8,5.4,5,5.4c3.8,0,7.6,0,11.4,0
			c3.6,0,6.6-1.3,9.2-4.1c18.1-19.2,36.2-38.3,54.3-57.5c3.7-3.9,3.7-7.5,0-11.4c-1.8-1.9-3.6-3.8-5.4-5.6c-2.7-2.6-6.2-2.6-8.8,0.2
			c-13.7,14.4-27.4,28.8-41,43.3c-0.6,0.6-1.1,1.6-1.2,2.5c-0.2,2.4-0.2,4.8-0.1,7.2c0,0.4,0.8,1.1,1.2,1.1c2.2,0.1,3.7,0.2,5.8-0.1
			c1.1-0.1,2.3-0.9,3.1-1.7c13.1-13.8,26.1-27.6,39.2-41.4c0.4-0.5,0.9-1,1.4-1.3c1.2-0.8,2.8-0.5,3.6,0.5c0.9,1.2,1,2.5,0.1,3.7
			c-0.3,0.5-0.7,0.8-1.1,1.2c-13.1,13.8-26.2,27.6-39.2,41.4c-2.2,2.3-4.7,3.6-7.7,3.7c-2.3,0-3.9,0.1-6.2-0.1
			c-3.5-0.3-5.8-2.9-6-6.6c-0.1-2.6-0.1-5.1,0-7.7c0.1-2.6,1.1-4.9,2.9-6.7c13.6-14.4,27.2-28.8,40.9-43.2
			c5.1-5.3,12.6-5.1,17.6,0.3c1.7,1.8,3.4,3.6,5.2,5.5c5.5,5.9,5.6,13.4,0,19.3c-12.7,13.4-25.4,26.8-38.1,40.2
			c-5.5,5.8-11.1,11.5-16.5,17.5c-3.6,3.9-7.9,5.8-13,5.9c-3.9,0.1-7.8,0.1-11.8,0c-6.3-0.1-10.5-4.7-10.6-11.5c0-2.1,0-4.1,0-6.2
			C419.5,553,419.6,553,419.6,553z"/>
	</g>
	<g>
		<path class="st11" d="M509.4,507.1c-12.7,13.4-25.4,26.8-38.1,40.2c-1,1-1.9,2-2.9,3c-4.6,4.8-9.1,9.5-13.6,14.4
			c-3.6,3.9-7.9,5.8-13,5.9c-3.9,0-7.8,0.1-11.8,0c-0.9,0-1.7-0.1-2.4-0.3c-3.7-0.8-6.3-3.3-7.5-6.9v-3.9h0.1c0-3.4-0.2-6.8,0-10.2
			c0.4-5.2,2.6-9.5,6.2-13.2c1.9-2,3.9-4.1,5.8-6.1c13.7-14.4,27.4-28.9,41.1-43.4c1.9-2,3.9-4.1,5.8-6.1c0,0,0,0,0,0
			c1,1,1,2.3,0.4,3.5c-0.3,0.6-0.9,1.1-1.3,1.6c-14.8,15.7-29.6,31.3-44.5,47c-1.6,1.7-3.1,3.3-4.7,5c-2.6,2.7-3.9,5.9-3.8,9.7
			c0.1,4,0,7.9,0,11.9c0,2,0.7,3.6,1.9,4.5c0.8,0.6,1.8,0.9,3.1,0.9c3.8,0,7.6,0,11.4,0c3.6,0,6.6-1.4,9.2-4.1c2.8-3,5.7-6,8.5-9
			c15.2-16.2,30.5-32.3,45.8-48.4c0.8-0.9,1.4-1.7,1.9-2.5c0,0,0,0,0,0c1.6-3,1-5.8-1.9-8.9c-1.8-1.9-3.6-3.8-5.4-5.6c0,0,0,0-0.1,0
			c-2.7-2.6-6.2-2.5-8.8,0.2c-13.7,14.4-27.4,28.8-41,43.3c-0.1,0.1-0.3,0.3-0.4,0.5c-0.4,0.6-0.7,1.3-0.8,2
			c-0.2,2.1-0.2,4.2-0.1,6.3c0,0.3,0,0.6,0,0.9c0,0.4,0.8,1.1,1.2,1.1c1.3,0.1,2.4,0.1,3.6,0.1c2.3,3.8,7,0.4,7,0.4l42.3-44.8
			c0.1,0.1,0.2,0.2,0.3,0.3c0.9,1.2,1,2.4,0.1,3.7c-0.3,0.5-0.7,0.8-1.1,1.2c-13.1,13.8-26.1,27.6-39.2,41.4
			c-0.5,0.6-1.1,1.1-1.7,1.5c-1.8,1.4-3.7,2.1-6,2.1c-2.2,0-3.7,0.1-5.9-0.1c-0.1,0-0.2,0-0.3,0c-2.4-0.2-3,0-4-2
			c-0.1-5-0.1-7.9,0.3-10.8c0.7-5.4,2.2-6,5.3-9c2.4-2.4,32.3-33.8,44.2-46.3c0.8,0,1.6,0,2.5,0.1c2.3,0.4,4.6,1.5,6.6,3.4
			c0.2,0.2,0.4,0.4,0.6,0.6c1.7,1.8,3.4,3.6,5.2,5.5c1.9,2,3.1,4.1,3.7,6.3C514.3,498.5,513.1,503.2,509.4,507.1z"/>
	</g>
	<g>
		<path class="st12" d="M435.3,571.7c-1.7,0-3.5,0-5.3-0.1c-4.6-0.1-8.6-2.7-10.4-6.7c-1.2-2.7-1.2-4.6-1.1-12.7c0-1.4,0-2.9,0-4.7
			c0-3.5,0-8.8,5.4-14.5c5.5-5.8,11-11.5,16.4-17.3c0.4-0.4,1-0.4,1.4,0c0.4,0.4,0.4,1,0,1.4c-5.5,5.8-11,11.6-16.5,17.3
			c-4.9,5.1-4.9,9.8-4.9,13.1c0,1.8,0,3.4,0,4.7c-0.1,7.7-0.1,9.5,0.9,11.8c1.5,3.4,4.7,5.4,8.6,5.5c4,0.1,8,0,11.7,0
			c4.9-0.1,8.9-1.9,12.3-5.6c3.8-4.1,7.7-8.3,11.5-12.2c1.7-1.7,3.3-3.5,5-5.2l10.9-11.5c9.1-9.5,18.1-19.1,27.1-28.7
			c5.1-5.4,5.1-12.5,0-17.9c-0.7-0.7-1.3-1.4-2-2.1c-1.1-1.1-2.1-2.2-3.2-3.4c-2.3-2.5-5.2-3.8-8.2-3.8c0,0,0,0-0.1,0
			c-2.9,0-5.7,1.3-7.9,3.6c-9.5,10-19.1,20.2-28.4,30c-4.2,4.4-8.3,8.8-12.5,13.2c-1.7,1.7-2.5,3.8-2.6,6.1c-0.1,2.3-0.1,5,0,7.6
			c0.2,3.2,2.2,5.4,5.1,5.7c1.8,0.2,3.1,0.1,4.8,0.1c0.4,0,0.8,0,1.3,0c2.6,0,4.9-1.1,7-3.4c9.4-9.9,18.9-20,28.1-29.7
			c3.7-3.9,7.4-7.8,11.1-11.7l0.1-0.1c0.3-0.3,0.6-0.6,0.8-1c0.6-0.9,0.6-1.7-0.1-2.5c-0.5-0.7-1.5-0.8-2.3-0.3
			c-0.4,0.3-0.8,0.7-1.2,1.1l-9.6,10.1c-8.2,8.6-16.3,17.2-24.5,25.8c-0.4,0.4-1,0.4-1.4,0c-0.4-0.4-0.4-1,0-1.4
			c8.2-8.6,16.3-17.2,24.5-25.8l9.5-10.1c0.5-0.5,1-1.1,1.6-1.5c1.6-1.1,3.8-0.7,4.9,0.7c1.2,1.5,1.3,3.2,0.2,4.9
			c-0.3,0.5-0.7,0.9-1,1.3l-0.1,0.1c-3.7,3.9-7.4,7.8-11.1,11.7c-9.2,9.7-18.8,19.8-28.1,29.7c-2.5,2.7-5.3,4-8.4,4
			c-0.5,0-0.9,0-1.3,0c-1.7,0-3.1,0-5-0.1c-3.9-0.3-6.7-3.4-6.9-7.5c-0.1-2.7-0.1-5.4,0-7.8c0.1-2.8,1.1-5.3,3.1-7.4
			c4.2-4.4,8.3-8.8,12.5-13.2c9.3-9.8,18.9-20,28.4-30c2.6-2.7,5.9-4.2,9.4-4.2c3.6,0,7,1.6,9.7,4.5c1,1.1,2.1,2.2,3.2,3.3
			c0.7,0.7,1.3,1.4,2,2.1c5.9,6.3,5.9,14.4,0,20.7c-9,9.6-18.1,19.1-27.1,28.7L472.1,548c-1.7,1.7-3.3,3.5-5,5.2
			c-3.8,4-7.7,8.1-11.5,12.2c-3.8,4.1-8.3,6.1-13.7,6.2C439.7,571.6,437.5,571.7,435.3,571.7z"/>
	</g>
	<g>
		<path class="st12" d="M452.9,541.4c-0.9,0-1.7,0-2.6-0.1l-0.5,0c-1,0-2.1-1.2-2.1-2.1c-0.1-2.9-0.1-5.2,0.1-7.3
			c0.1-1,0.6-2.2,1.4-3.1c13.4-14.2,27.2-28.7,41-43.3c2.6-2.7,6.2-3.2,9.2-1.1c0.4,0.3,0.6,0.9,0.2,1.4s-0.9,0.6-1.4,0.2
			c-2.2-1.5-4.7-1.2-6.6,0.8c-13.8,14.6-27.6,29.1-41,43.3c-0.5,0.5-0.9,1.3-0.9,1.9c-0.2,2-0.2,4.2-0.1,7c0.1,0.1,0.2,0.2,0.3,0.3
			l0.5,0c1.9,0.1,3.2,0.2,5.1-0.1c0.8-0.1,1.8-0.7,2.5-1.4l1-1.1c0.4-0.4,1-0.4,1.4,0c0.4,0.4,0.4,1,0,1.4l-1,1.1
			c-0.8,0.9-2.2,1.8-3.7,2C454.7,541.3,453.8,541.4,452.9,541.4z M449.9,539.3L449.9,539.3L449.9,539.3z M449.8,539.3L449.8,539.3
			C449.8,539.3,449.8,539.3,449.8,539.3z M449.5,538.9L449.5,538.9L449.5,538.9z"/>
	</g>
	<g>
		<path class="st12" d="M468.2,543.1c-0.2,0-0.5-0.1-0.7-0.3c-0.4-0.4-0.4-1,0-1.4c7.5-7.9,15-15.9,22.5-23.8
			c4.8-5.1,9.6-10.1,14.4-15.2c3.3-3.5,3.3-6.5,0-10.1c-0.4-0.4-0.8-0.9-1.2-1.3l-0.6-0.6c-0.4-0.4-0.4-1,0-1.4c0.4-0.4,1-0.4,1.4,0
			l0.6,0.6c0.4,0.4,0.8,0.9,1.2,1.3c4.1,4.3,4.1,8.5,0,12.8c-4.8,5.1-9.6,10.1-14.4,15.2c-7.5,7.9-15,15.9-22.5,23.8
			C468.7,543,468.5,543.1,468.2,543.1z"/>
	</g>
	<g>
		<path class="st12" d="M455.3,556.7c-0.2,0-0.5-0.1-0.7-0.3c-0.4-0.4-0.4-1,0-1.4l0.4-0.4c0.4-0.4,1-0.4,1.4,0c0.4,0.4,0.4,1,0,1.4
			l-0.4,0.4C455.8,556.6,455.6,556.7,455.3,556.7z"/>
	</g>
	<g>
		<path class="st12" d="M441.8,565.6c0,0-0.1,0-0.1,0c-2,0-4,0-6,0c-1.8,0-3.6,0-5.4,0c-3.7,0-5.9-2.4-6-6.4c0-1.5,0-3,0-4.5
			c0-2.4,0-4.9,0-7.4c-0.1-4,1.3-7.4,4.1-10.4c13.2-13.8,26.5-27.9,39.4-41.6l9.9-10.5c0.4-0.5,0.8-0.9,1.1-1.4
			c0.5-0.9,0.4-1.7-0.2-2.4c-0.6-0.7-1.3-0.8-2.2-0.3c-0.4,0.2-0.8,0.6-1.1,1c-2.9,3-5.7,6-8.6,9.1l-7.7,8.1c-0.4,0.4-1,0.4-1.4,0
			s-0.4-1,0-1.4l7.7-8.1c2.9-3,5.7-6,8.6-9.1c0.4-0.4,0.9-1,1.6-1.3c1.6-0.9,3.3-0.6,4.6,0.7c1.2,1.3,1.4,3,0.5,4.7
			c-0.4,0.7-0.9,1.3-1.4,1.8l-9.9,10.4c-12.9,13.6-26.2,27.7-39.4,41.6c-2.5,2.6-3.6,5.5-3.6,9c0,2.5,0,5,0,7.4c0,1.5,0,3,0,4.5
			c0,2,0.7,4.4,4,4.4c1.8,0,3.6,0,5.4,0c2,0,4,0,6.1,0c3.3,0,6-1.2,8.5-3.8l1.3-1.3c0.4-0.4,1-0.4,1.4,0c0.4,0.4,0.4,1,0,1.4
			l-1.3,1.3C448.7,564.2,445.5,565.6,441.8,565.6z"/>
	</g>
	<g>
		<path class="st12" d="M447,511.2c-0.2,0-0.5-0.1-0.7-0.3c-0.4-0.4-0.4-1,0-1.4l3.9-4.1c0.4-0.4,1-0.4,1.4,0c0.4,0.4,0.4,1,0,1.4
			l-3.9,4.1C447.5,511.1,447.3,511.2,447,511.2z"/>
	</g>
</g>
<g id="Folder">
	<g>
		<path class="st6" d="M692.7,431.8h-96.9c-4.1,0-7.4-3.3-7.4-7.4v-60.8c0-4.1,3.3-7.4,7.4-7.4h96.9c4.1,0,7.4,3.3,7.4,7.4v60.8
			C700.1,428.5,696.8,431.8,692.7,431.8z"/>
		<path class="st11" d="M693.1,431.8h-93.8c-3.9,0-7-3.2-7-7v-56.6c0-3.9,3.2-7,7-7h93.8c3.9,0,7,3.2,7,7v56.6
			C700.1,428.7,697,431.8,693.1,431.8z"/>
		<path class="st5" d="M588.4,379.2v-16.2c0-3.8,3.1-6.9,6.9-6.9h25.1"/>
		<path class="st13" d="M700.1,395.3v29.6c0,3.8-3.1,6.9-6.9,6.9h-97.9c-3.8,0-6.9-3.1-6.9-6.9v-32.2"/>
		<linearGradient id="SVGID_1_" gradientUnits="userSpaceOnUse" x1="635.5595" y1="371.6232" x2="701.6311" y2="371.6232">
			<stop  offset="0" style="stop-color:#FFFFFF"/>
			<stop  offset="1" style="stop-color:#000000"/>
		</linearGradient>
		<path class="st14" d="M637.1,356.1h56.1c3.8,0,6.9,3.1,6.9,6.9v24"/>
		<line class="st13" x1="627.9" y1="356.1" x2="628.2" y2="356.1"/>
		<path class="st6" d="M704.8,370.6h-40.1c-3.9,0-7.7,1.3-10.7,3.8l-10.5,8.6c-3,2.5-6.8,3.8-10.7,3.8h-45.6c-5.1,0-9,4.5-8.2,9.6
			l8.3,44.5c0.6,4.2,4.2,7.2,8.4,7.2h97.2c4.2,0,7.7-3,8.4-7.1l11.7-60.7C713.8,375.2,709.9,370.6,704.8,370.6z"/>
		<path class="st11" d="M707.6,411.2l5.4-26.8c0.8-4.8-3-9.1-8-9.1h-39.1c-3.8,0-7.5,1.3-10.4,3.6l-10.3,8.1
			c-2.9,2.3-6.6,3.6-10.4,3.6h-44.5c-5,0-8.8,4.2-8,9l8.1,41.8c0.6,3.9,4.1,6.8,8.2,6.8h94.8c4.1,0,7.5-2.8,8.2-6.7L707.6,411.2"/>
		<line class="st5" x1="703" y1="431.8" x2="703.3" y2="430.6"/>
		<path class="st5" d="M707,411.3l6-31.1c0.8-5.1-3.1-9.7-8.2-9.7h-40.1c-3.9,0-7.7,1.3-10.7,3.8l-10.5,8.6c-3,2.5-6.8,3.8-10.7,3.8
			h-45.6c-5.1,0-9,4.5-8.2,9.6l8.3,44.5c0.6,4.2,4.2,7.2,8.4,7.2h97.2c4.2,0,7.7-3,8.4-7.1l0.5-2.5"/>
	</g>
	<g>
		<defs>
			<path id="SVGID_2_" d="M704.8,369.5h-40.1c-3.9,0-7.7,1.3-10.7,3.8l-10.5,8.6c-3,2.5-6.8,3.8-10.7,3.8h-45.6
				c-5.1,0-9,4.5-8.2,9.6l14.3-78.3c0.6,4.2,4.2-0.8,8.4-0.8h97.2c4.2,0,7.7,5,8.4,0.9l5.6,62.1
				C713.8,374.1,709.9,369.5,704.8,369.5z"/>
		</defs>
		<clipPath id="SVGID_3_">
			<use xlink:href="#SVGID_2_"  style="overflow:visible;"/>
		</clipPath>
		<g class="st15">
			<path class="st6" d="M690.4,387.1l-41.5,41.5h-42.2c-2.8,0-5-2.3-5-5v-99.7c0-2.8,2.3-5,5-5h58l26.1,28.5l0.5,38.9"/>
			<line class="st16" x1="629.7" y1="403.6" x2="649.3" y2="403.6"/>
			<line class="st16" x1="616.7" y1="403.6" x2="624.3" y2="403.6"/>
			<line class="st16" x1="653.6" y1="390.7" x2="673.1" y2="390.7"/>
			<line class="st16" x1="617.1" y1="390.7" x2="645.4" y2="390.7"/>
			<line class="st16" x1="667.2" y1="377.7" x2="674" y2="377.7"/>
			<line class="st17" x1="617.4" y1="377.7" x2="658.9" y2="377.7"/>
			<line class="st17" x1="647.1" y1="364.8" x2="673.8" y2="364.8"/>
			<line class="st17" x1="617.8" y1="364.8" x2="638.5" y2="364.8"/>
			<line class="st17" x1="618.2" y1="335.4" x2="653" y2="335.4"/>
			<line class="st17" x1="618.2" y1="344.6" x2="631.5" y2="344.6"/>
			<path class="st6" d="M663.8,319v22.7c0,3.1,2.8,5.8,5.9,5.8h20.2"/>
			<path class="st18" d="M666.7,321.2v20.6c0,2.8,2.5,5.3,5.3,5.3h18.3"/>
			<path class="st3" d="M666.7,325.4V346c0,2.8,2.5,5.3,5.3,5.3h18.3v-4.2"/>
			<path class="st5" d="M663.8,336.7v5c0,3.1,2.8,5.8,5.9,5.8h20.2"/>
			<line class="st5" x1="663.8" y1="319" x2="663.8" y2="331.2"/>
			<line class="st5" x1="600.8" y1="345.9" x2="600.8" y2="344.8"/>
			<path class="st5" d="M600.8,352.4v71.2c0,2.8,2.3,5,5,5h0.8h50.9"/>
			<path class="st5" d="M690.4,382.6l-0.5-35.2l-26.1-28.5h-57.2h-0.8c-2.8,0-5,2.3-5,5v15"/>
			<path class="st16" d="M629,387.1"/>
		</g>
	</g>
</g>
<g id="XMLID_190_" class="st19">
	<circle id="XMLID_189_" class="st20" cx="798.7" cy="301.1" r="57.3"/>
	<line id="XMLID_188_" class="st21" x1="798.7" y1="249.6" x2="798.7" y2="255.2"/>
	<line id="XMLID_187_" class="st21" x1="798.7" y1="347" x2="798.7" y2="352.7"/>
	<line id="XMLID_186_" class="st21" x1="850.2" y1="301.1" x2="844.6" y2="301.1"/>
	<line id="XMLID_185_" class="st21" x1="752.8" y1="301.1" x2="747.2" y2="301.1"/>
	<circle id="XMLID_182_" class="st22" cx="798.7" cy="301.1" r="4.6"/>
	<line id="XMLID_183_" class="st23" x1="798.7" y1="301.1" x2="823.4" y2="270.5"/>
	<line id="XMLID_184_" class="st21" x1="783.1" y1="285.8" x2="798.7" y2="301.1"/>
</g>
</svg>
