<?xml version="1.0" encoding="utf-8"?>
<!-- Generator: Adobe Illustrator 23.0.3, SVG Export Plug-In . SVG Version: 6.00 Build 0)  -->
<svg version="1.1" id="Layer_1" xmlns="http://www.w3.org/2000/svg" xmlns:xlink="http://www.w3.org/1999/xlink" x="0px" y="0px"
	 viewBox="0 0 1000 1000" style="enable-background:new 0 0 1000 1000;" xml:space="preserve">
<style type="text/css">
	.st0{opacity:0.15;}
	.st1{opacity:0.5;fill:none;stroke:#474747;stroke-width:6;stroke-linecap:round;stroke-linejoin:round;stroke-miterlimit:10;}
	.st2{fill:none;stroke:#474747;stroke-width:6;stroke-linecap:round;stroke-linejoin:round;stroke-miterlimit:10;}
	.st3{fill:#FDFDFD;}
	.st4{fill:#696053;}
	.st5{fill:#FFFFFF;}
	.st6{fill:#A4D9F7;}
	.st7{fill:#606060;}
	.st8{fill:#C1C1C1;}
	.st9{fill:#FAFFFF;}
	.st10{fill:#E1FBFF;}
	.st11{fill:#1676EE;}
	.st12{fill:#EEFDFF;}
	.st13{clip-path:url(#SVGID_2_);}
	.st14{clip-path:url(#SVGID_4_);}
</style>
<g id="XMLID_11_" class="st0">
	<polyline id="XMLID_57_" class="st1" points="112.8,364.6 192.2,364.6 192.2,403.3 112.8,403.3 	"/>
	<line id="XMLID_59_" class="st1" x1="271.5" y1="403.3" x2="192.2" y2="403.3"/>
	<line id="XMLID_38_" class="st1" x1="192.2" y1="364.6" x2="222.6" y2="364.6"/>
	<rect id="XMLID_42_" x="152.5" y="403.3" class="st1" width="79.3" height="38.7"/>
	<polyline id="XMLID_52_" class="st1" points="125.2,442.2 192.2,442.2 192.2,480.9 166.5,480.9 	"/>
	<rect id="XMLID_54_" x="192.2" y="442.2" class="st1" width="79.3" height="38.7"/>
	<line id="XMLID_73_" class="st2" x1="84.6" y1="709.6" x2="915.4" y2="709.6"/>
</g>
<g id="Shopping_Bag">
	<g>
		<polygon class="st3" points="765.3,538.5 717.2,536.5 706.9,536.6 702.4,561 809.6,561.6 803.2,536.6 		"/>
	</g>
	<g>
		<path class="st4" d="M809.6,563.7C809.6,563.7,809.6,563.7,809.6,563.7L702.4,563c-0.6,0-1.2-0.3-1.6-0.7
			c-0.4-0.5-0.5-1.1-0.4-1.7l4.5-24.4c0.2-1,1-1.7,2-1.7l10.3-0.1l48.1,2l37.8-1.9c1,0,1.9,0.6,2.1,1.5l3.6,14.2
			c0.3,1.1-0.4,2.2-1.5,2.5c-1.1,0.3-2.2-0.4-2.5-1.5l-3.2-12.6l-36.2,1.8c-0.1,0-0.1,0-0.2,0l-48.1-2l-8.5,0.1l-3.7,20.3l102.1,0.6
			c-0.1-1,0.5-2,1.5-2.2c1.1-0.3,2.2,0.4,2.5,1.5l0.6,2.3c0.2,0.6,0,1.3-0.4,1.8C810.8,563.4,810.2,563.7,809.6,563.7z"/>
	</g>
	<g>
		<path class="st5" d="M828.6,704.7H681.5c-4,0-7.1-3.3-6.9-7.3l6.4-126.6c0.1-2.7,2.3-4.8,5-4.8h138.7c2.7,0,4.9,2.1,5,4.8
			l5.9,126.6C835.7,701.4,832.6,704.7,828.6,704.7z"/>
	</g>
	<g>
		<path class="st3" d="M835.6,697.7c0.2,3.8-2.9,7-6.8,7H685.1c-3.9,0-7-3.2-6.8-7l0.9-16.4l5.4-105.7c0.1-2.6,2.3-4.6,4.9-4.6H825
			c2.6,0,4.8,2,4.9,4.6l4.9,105.7L835.6,697.7z"/>
	</g>
	<g>
		<path class="st6" d="M835.6,697.7c0.2,3.8-2.9,7-6.8,7H685.1c-3.9,0-7-3.2-6.8-7l0.4-11.6c0.3-4.8,4.3-8.6,9.1-8.6h146.9
			L835.6,697.7z"/>
	</g>
	<g>
		<path class="st4" d="M828.6,706.8H681.5c-2.5,0-4.8-1-6.5-2.8c-1.7-1.8-2.6-4.2-2.5-6.7l3-59.1c0.1-1.1,1-2,2.2-2
			c1.1,0.1,2,1,2,2.2l-3,59.1c-0.1,1.3,0.4,2.6,1.3,3.6c0.9,1,2.2,1.5,3.5,1.5h147.2c1.3,0,2.6-0.5,3.5-1.5c0.9-1,1.4-2.2,1.3-3.6
			L827.6,571c-0.1-1.6-1.4-2.8-2.9-2.8H686c-1.6,0-2.9,1.2-2.9,2.8l-0.9,18.4c-0.1,1.1-1,2-2.2,2c-1.1-0.1-2-1-2-2.2l0.9-18.4
			c0.2-3.8,3.3-6.7,7.1-6.7h138.7c3.8,0,6.9,3,7.1,6.7l5.9,126.6c0.1,2.5-0.8,4.8-2.5,6.6C833.4,705.8,831.1,706.8,828.6,706.8z"/>
	</g>
	<g>
		<path class="st4" d="M678,631.3c0,0-0.1,0-0.1,0c-1.1-0.1-2-1-1.9-2.2l0.1-1.3c0.1-1.1,1-2,2.2-1.9c1.1,0.1,2,1,1.9,2.2l-0.1,1.3
			C680,630.4,679.1,631.3,678,631.3z"/>
	</g>
	<g>
		<polygon class="st5" points="803.2,536.6 706.9,536.6 718.4,551.7 685.1,566.1 825,566.1 791,551.7 		"/>
	</g>
	<g>
		<path class="st6" d="M800.1,540.5h-80.7c-1.8,0-3,2-2,3.6l4.7,7.4c0.7,1.1,0.2,2.6-1,3.1l-26.3,11.3l130.2,0.2l-32.5-14.2
			L800.1,540.5z"/>
	</g>
	<g>
		<path class="st4" d="M825,568.2H685.1c-1,0-1.8-0.7-2-1.6c-0.2-1,0.3-1.9,1.2-2.3l30.9-13.4l-9.9-13c-0.5-0.6-0.6-1.5-0.2-2.2
			c0.3-0.7,1.1-1.1,1.8-1.1h96.3c0.8,0,1.5,0.5,1.9,1.2c0.3,0.7,0.2,1.6-0.3,2.2l-10.5,13l31.5,13.4c0.9,0.4,1.4,1.3,1.2,2.3
			C826.8,567.5,826,568.2,825,568.2z M695,564.1h119.8l-24.7-10.5c-0.6-0.3-1-0.8-1.2-1.4c-0.2-0.6,0-1.3,0.4-1.8l9.5-11.7h-87.8
			l9,11.8c0.4,0.5,0.5,1.2,0.4,1.8c-0.2,0.6-0.6,1.1-1.2,1.4L695,564.1z"/>
	</g>
	<g>
		<circle class="st7" cx="716.8" cy="595.3" r="8.7"/>
		<path class="st8" d="M716.8,606c-5.9,0-10.7-4.8-10.7-10.7s4.8-10.7,10.7-10.7s10.7,4.8,10.7,10.7S722.8,606,716.8,606z
			 M716.8,588.7c-3.6,0-6.6,3-6.6,6.6s3,6.6,6.6,6.6s6.6-3,6.6-6.6S720.5,588.7,716.8,588.7z"/>
	</g>
	<g>
		<circle class="st7" cx="789.4" cy="595.3" r="8.7"/>
		<path class="st8" d="M789.4,606c-5.9,0-10.7-4.8-10.7-10.7s4.8-10.7,10.7-10.7c5.9,0,10.7,4.8,10.7,10.7S795.3,606,789.4,606z
			 M789.4,588.7c-3.6,0-6.6,3-6.6,6.6s3,6.6,6.6,6.6c3.6,0,6.6-3,6.6-6.6S793,588.7,789.4,588.7z"/>
	</g>
	<g>
		<path class="st5" d="M754.4,653.1c-16,0-27.9-4.6-35.3-13.6c-8.2-9.9-10.4-24.7-6.7-44c0.4-2.3,2.6-3.7,4.9-3.3
			c2.3,0.4,3.7,2.6,3.3,4.9c-3.2,16.8-1.6,29.3,4.9,37.1c5.8,7,15.5,10.5,28.8,10.5c11.7,0,20.9-3.7,26.6-10.8
			c6.6-8.4,8.3-21,4.6-36.7c-0.5-2.2,0.9-4.5,3.1-5c2.2-0.5,4.5,0.9,5,3.1c4.2,18.2,2,33.3-6.2,43.7
			C780.2,648.2,768.8,653.1,754.4,653.1z"/>
	</g>
	<g>
		<path class="st4" d="M754.4,655.1c-16.6,0-29-4.8-36.9-14.3c-8.6-10.4-11-25.8-7.1-45.7c0.3-1.6,1.3-3,2.6-4c1.4-0.9,3-1.3,4.7-1
			c1.6,0.3,3,1.2,4,2.6c0.9,1.4,1.3,3,1,4.7c-3.1,16.1-1.6,28.1,4.5,35.4c0.2,0.2,0.4,0.5,0.6,0.7c0.8,0.8,0.7,2.1-0.2,2.9
			c-0.8,0.8-2.1,0.7-2.9-0.2c-0.2-0.3-0.5-0.6-0.7-0.8c-6.9-8.4-8.7-21.4-5.4-38.8c0.1-0.6,0-1.1-0.3-1.6c-0.3-0.5-0.8-0.8-1.3-0.9
			c-0.6-0.1-1.1,0-1.6,0.3c-0.5,0.3-0.8,0.8-0.9,1.3c-3.6,18.7-1.5,32.9,6.2,42.3c7,8.5,18.3,12.8,33.7,12.8c2.2,0,4.3-0.1,6.3-0.3
			c1.1-0.1,2.1,0.7,2.3,1.8c0.1,1.1-0.7,2.1-1.8,2.3C759,655,756.7,655.1,754.4,655.1z"/>
	</g>
	<g>
		<path class="st4" d="M772,652.2c-0.8,0-1.6-0.5-1.9-1.3c-0.4-1.1,0.1-2.3,1.2-2.6c6-2.2,10.9-5.7,14.6-10.4
			c7.9-9.9,9.9-24.4,5.9-42c-0.1-0.5-0.5-1-0.9-1.3c-0.5-0.3-1-0.4-1.6-0.3c-0.6,0.1-1,0.5-1.3,0.9c-0.3,0.5-0.4,1-0.3,1.6
			c3.8,16.3,2,29.6-5,38.4c-6,7.6-15.8,11.6-28.2,11.6c-5.1,0-9.8-0.5-13.9-1.5c-1.1-0.3-1.8-1.4-1.5-2.5c0.3-1.1,1.4-1.8,2.5-1.5
			c3.8,0.9,8.1,1.4,12.9,1.4c11.1,0,19.7-3.5,25-10.1c6.2-7.8,7.7-19.9,4.3-34.9c-0.8-3.3,1.3-6.7,4.7-7.5c1.6-0.4,3.3-0.1,4.7,0.8
			c1.4,0.9,2.4,2.3,2.8,3.9c4.3,18.8,2,34.6-6.6,45.5c-4.2,5.3-9.7,9.2-16.4,11.7C772.5,652.2,772.2,652.2,772,652.2z"/>
	</g>
	<g>
		<path class="st4" d="M733,642.3c-0.3,0-0.7-0.1-1-0.2c-1.1-0.6-2.2-1.3-3.1-1.9c-0.9-0.7-1.1-1.9-0.5-2.9c0.7-0.9,1.9-1.1,2.9-0.5
			c0.8,0.6,1.7,1.2,2.7,1.7c1,0.5,1.4,1.8,0.8,2.8C734.5,641.9,733.8,642.3,733,642.3z"/>
	</g>
</g>
<g id="Products_in_Basket">
	<g>
		<g>
			<g>
				<path class="st5" d="M643.7,299.1V583c0,10.1-8.1,18.2-18.2,18.2H341.7c-10.1,0-18.2-8.1-18.2-18.2V299.1
					c0-10.1,8.1-18.2,18.2-18.2h283.8C635.6,280.9,643.7,289.1,643.7,299.1z"/>
			</g>
			<g>
				<path class="st9" d="M643.7,309.2v274.4c0,9.7-7.7,17.6-17.3,17.6h-269c-4.5,0-8.5-1.7-11.6-4.6c-3.5-3.2-5.7-7.9-5.7-13V309.2
					c0-9.7,7.7-17.6,17.3-17.6h269C636,291.6,643.7,299.5,643.7,309.2z"/>
			</g>
			<g>
				<path class="st4" d="M625.5,604.3H341.7c-11.8,0-21.3-9.6-21.3-21.3V299.1c0-11.8,9.6-21.3,21.3-21.3h23.6c0,0,0,0,0,0l0,0
					h260.3c11.8,0,21.3,9.6,21.3,21.3V583C646.9,594.7,637.3,604.3,625.5,604.3z M341.7,284.1c-8.3,0-15.1,6.8-15.1,15.1V583
					c0,8.3,6.8,15.1,15.1,15.1h283.8c8.3,0,15.1-6.8,15.1-15.1V299.1c0-8.3-6.8-15.1-15.1-15.1H365.3l0,0c0,0,0,0,0,0H341.7z"/>
			</g>
			<g>
				<polyline class="st10" points="446.2,292.7 521.7,292.7 521.7,369.4 500.2,387.7 469.8,369.4 445.5,387.7 				"/>
			</g>
			<g>
				<path class="st4" d="M445.5,390.8c-0.5,0-1-0.1-1.4-0.3c-1.1-0.5-1.7-1.6-1.7-2.8v-88.2c0-1.7,1.4-3.1,3.1-3.1s3.1,1.4,3.1,3.1
					v81.9l19.3-14.5c1-0.8,2.4-0.8,3.5-0.2l28.4,17.1l18.7-15.9v-83.9h-72.4c-1.7,0-3.1-1.4-3.1-3.1c0-1.7,1.4-3.1,3.1-3.1h75.6
					c1.7,0,3.1,1.4,3.1,3.1v88.4c0,0.9-0.4,1.8-1.1,2.4l-21.6,18.3c-1,0.9-2.5,1-3.6,0.3L470,373.2l-22.6,17
					C446.8,390.6,446.2,390.8,445.5,390.8z"/>
			</g>
			<g>
				<g>
					<path class="st11" d="M641,575.2h-75c-1.7,0-3.1-1.4-3.1-3.1s1.4-3.1,3.1-3.1h75c1.7,0,3.1,1.4,3.1,3.1S642.7,575.2,641,575.2z
						"/>
				</g>
				<g>
					<path class="st11" d="M545.1,575.2h-1c-1.7,0-3.1-1.4-3.1-3.1s1.4-3.1,3.1-3.1h1c1.7,0,3.1,1.4,3.1,3.1
						S546.8,575.2,545.1,575.2z"/>
				</g>
			</g>
			<g>
				<path class="st11" d="M412,517c-0.8,0-1.6-0.3-2.2-0.9l-16.1-16.1l-16.1,16.1c-1.2,1.2-3.2,1.2-4.4,0c-1.2-1.2-1.2-3.2,0-4.4
					l18.3-18.3c1.2-1.2,3.3-1.2,4.4,0l18.3,18.3c1.2,1.2,1.2,3.2,0,4.4C413.6,516.7,412.8,517,412,517z"/>
			</g>
			<g>
				<path class="st11" d="M393.6,536.8c-1.7,0-3.1-1.4-3.1-3.1v-35.5c0-1.7,1.4-3.1,3.1-3.1s3.1,1.4,3.1,3.1v35.5
					C396.7,535.4,395.3,536.8,393.6,536.8z"/>
			</g>
			<g>
				<path class="st11" d="M429,517c-0.8,0-1.6-0.3-2.2-0.9c-1.2-1.2-1.2-3.2,0-4.4l18.3-18.3c1.2-1.2,3.3-1.2,4.4,0l18.3,18.3
					c1.2,1.2,1.2,3.2,0,4.4s-3.2,1.2-4.4,0l-16.1-16.1l-16.1,16.1C430.6,516.7,429.8,517,429,517z"/>
			</g>
			<g>
				<path class="st11" d="M447.4,536.8c-1.7,0-3.1-1.4-3.1-3.1v-35.5c0-1.7,1.4-3.1,3.1-3.1s3.1,1.4,3.1,3.1v35.5
					C450.5,535.4,449.1,536.8,447.4,536.8z"/>
			</g>
			<g>
				<path class="st11" d="M465.9,553.8h-90.7c-1.7,0-3.1-1.4-3.1-3.1s1.4-3.1,3.1-3.1h90.7c1.7,0,3.1,1.4,3.1,3.1
					S467.6,553.8,465.9,553.8z"/>
			</g>
		</g>
	</g>
	<g>
		<g>
			<path class="st5" d="M674.6,513.1L642.4,680c-2.3,14.6-14.9,25.4-29.7,25.4H354c-14.8,0-27.4-10.8-29.7-25.4l-32.2-166.8"/>
		</g>
		<g>
			<path class="st9" d="M674.6,513.1l-3,15.7L642.4,680c-2.3,14.6-14.9,25.4-29.7,25.4H354c-14.8,0-27.4-10.8-29.7-25.4l-29.2-151.2
				l-3-15.7H674.6z"/>
		</g>
		<g>
			<polygon class="st6" points="674.6,513.1 670,535.4 297.2,535.7 292,513.1 			"/>
		</g>
		<g>
			<path class="st5" d="M438.9,443.8h246.4c12.5,0,22.6,10.1,22.6,22.6v24.3c0,12.5-10.1,22.6-22.6,22.6h-10.6"/>
		</g>
		<g>
			<line class="st5" x1="397.4" y1="443.8" x2="410.9" y2="443.8"/>
		</g>
		<g>
			<path class="st5" d="M292.1,513.1h-10.6c-12.5,0-22.6-10.1-22.6-22.6v-24.3c0-12.5,10.1-22.6,22.6-22.6h116"/>
		</g>
		<g>
			<path class="st12" d="M291.1,513.1h-10.7c-12.5,0-22.6-10-22.6-22.2V467c0-12.3,10.1-22.2,22.6-22.2h404.7
				c12.5,0,22.6,10,22.6,22.2v23.9c0,12.3-10.1,22.2-22.6,22.2h-10.7"/>
		</g>
		<g>
			<path class="st4" d="M685.3,515.5h-10.6c-1.3,0-2.4-1.1-2.4-2.4c0-1.3,1.1-2.4,2.4-2.4h10.6c11.1,0,20.2-9.1,20.2-20.2v-24.3
				c0-11.1-9.1-20.2-20.2-20.2H422c-1.3,0-2.4-1.1-2.4-2.4s1.1-2.4,2.4-2.4h263.3c13.7,0,24.9,11.2,24.9,24.9v24.3
				C710.2,504.3,699,515.5,685.3,515.5z"/>
		</g>
		<g>
			<path class="st4" d="M292.1,515.5h-10.6c-13.7,0-24.9-11.2-24.9-24.9v-24.3c0-13.7,11.2-24.9,24.9-24.9h140.3
				c1.3,0,2.4,1.1,2.4,2.4s-1.1,2.4-2.4,2.4H281.4c-11.1,0-20.2,9.1-20.2,20.2v24.3c0,11.1,9.1,20.2,20.2,20.2h10.6
				c1.3,0,2.4,1.1,2.4,2.4C294.4,514.4,293.4,515.5,292.1,515.5z"/>
		</g>
		<g>
			<path class="st4" d="M315.8,638.5c-1.1,0-2.1-0.8-2.3-1.9l-23.8-123c-0.2-1.3,0.6-2.5,1.9-2.8c1.3-0.2,2.5,0.6,2.8,1.9l23.8,123
				c0.2,1.3-0.6,2.5-1.9,2.8C316.1,638.5,316,638.5,315.8,638.5z"/>
		</g>
		<g>
			<path class="st4" d="M612.7,707.7H354c-16.1,0-29.5-11.5-32-27.4l-1.5-8c-0.2-1.3,0.6-2.5,1.9-2.8c1.3-0.2,2.5,0.6,2.8,1.9l1.6,8
				c2.1,13.6,13.7,23.5,27.4,23.5h258.7c13.7,0,25.2-9.8,27.4-23.4l32.2-166.9c0.2-1.3,1.5-2.1,2.8-1.9c1.3,0.2,2.1,1.5,1.9,2.8
				l-32.2,166.8C642.2,696.2,628.8,707.7,612.7,707.7z"/>
		</g>
		<g>
			<g>
				<path class="st4" d="M384.6,662.1c-1.1,0-2.1-0.8-2.3-1.9l-19.9-101c-0.3-1.3,0.6-2.5,1.9-2.8c1.3-0.3,2.5,0.6,2.8,1.9l19.9,101
					c0.3,1.3-0.6,2.5-1.9,2.8C384.9,662.1,384.7,662.1,384.6,662.1z"/>
			</g>
			<g>
				<path class="st4" d="M433.9,662.1c-1.2,0-2.2-0.9-2.3-2l-3.2-22.9c-0.2-1.3,0.7-2.5,2-2.7c1.3-0.2,2.5,0.7,2.7,2l3.2,22.9
					c0.2,1.3-0.7,2.5-2,2.7C434.2,662.1,434.1,662.1,433.9,662.1z"/>
			</g>
			<g>
				<path class="st4" d="M427.7,617.9c-1.2,0-2.2-0.9-2.3-2l-8-56.8c-0.2-1.3,0.7-2.5,2-2.7c1.3-0.2,2.5,0.7,2.7,2l8,56.8
					c0.2,1.3-0.7,2.5-2,2.7C428,617.9,427.8,617.9,427.7,617.9z"/>
			</g>
			<g>
				<path class="st4" d="M483.3,662.1c-1.3,0-2.4-1.1-2.4-2.4v-101c0-1.3,1.1-2.4,2.4-2.4s2.4,1.1,2.4,2.4v101
					C485.7,661,484.6,662.1,483.3,662.1z"/>
			</g>
			<g>
				<path class="st4" d="M532.7,662.1c-0.1,0-0.2,0-0.3,0c-1.3-0.2-2.2-1.4-2-2.7l8.6-60.8c0.2-1.3,1.4-2.2,2.7-2
					c1.3,0.2,2.2,1.4,2,2.7l-8.6,60.8C534.9,661.2,533.9,662.1,532.7,662.1z"/>
			</g>
			<g>
				<path class="st4" d="M543.9,582.9c-0.1,0-0.2,0-0.3,0c-1.3-0.2-2.2-1.4-2-2.7l3.1-21.7c0.2-1.3,1.4-2.2,2.7-2
					c1.3,0.2,2.2,1.4,2,2.7l-3.1,21.7C546,582,545,582.9,543.9,582.9z"/>
			</g>
			<g>
				<path class="st4" d="M582.1,662.1c-0.2,0-0.3,0-0.5,0c-1.3-0.3-2.1-1.5-1.9-2.8l0.9-4.6c0.3-1.3,1.5-2.1,2.8-1.9
					c1.3,0.3,2.1,1.5,1.9,2.8l-0.9,4.6C584.2,661.3,583.2,662.1,582.1,662.1z"/>
			</g>
			<g>
				<path class="st4" d="M587.6,634.2c-0.2,0-0.3,0-0.5,0c-1.3-0.3-2.1-1.5-1.9-2.8l14.4-73c0.3-1.3,1.5-2.1,2.8-1.9
					c1.3,0.3,2.1,1.5,1.9,2.8l-14.4,73C589.7,633.4,588.7,634.2,587.6,634.2z"/>
			</g>
		</g>
		<g>
			<path class="st4" d="M640.2,515.5H326.5c-1.3,0-2.4-1.1-2.4-2.4c0-1.3,1.1-2.4,2.4-2.4h313.7c1.3,0,2.4,1.1,2.4,2.4
				C642.5,514.4,641.5,515.5,640.2,515.5z"/>
		</g>
	</g>
	<g>
		<defs>
			<rect id="SVGID_1_" x="275.8" y="305.8" width="251.5" height="133.1"/>
		</defs>
		<clipPath id="SVGID_2_">
			<use xlink:href="#SVGID_1_"  style="overflow:visible;"/>
		</clipPath>
		<g class="st13">
			<g>
				<g>
					<path class="st5" d="M518.2,369.1v23.7c0,4.8-3.9,8.7-8.7,8.7H308.4c-4.8,0-8.7-3.9-8.7-8.7v-23.7c0-4.8,3.9-8.7,8.7-8.7h201.2
						C514.4,360.4,518.2,364.3,518.2,369.1z"/>
				</g>
				<g>
					<path class="st10" d="M518.2,372.4v24.2c0,2.7-2.5,4.8-5.6,4.8H314.2c-3.1,0-5.6-2.1-5.6-4.8v-24.2c0-2.7,2.5-4.8,5.6-4.8
						h198.4C515.7,367.6,518.2,369.7,518.2,372.4z"/>
				</g>
				<g>
					<path class="st5" d="M504.9,401.4v129.7c0,7.4-6,13.4-13.4,13.4H326.4c-7.4,0-13.4-6-13.4-13.4V401.4H504.9z"/>
				</g>
				<g>
					<path class="st10" d="M504.9,401.4v134c0,5-3.8,9-8.5,9H333.4c-4.7,0-8.5-4-8.5-9v-134H504.9z"/>
				</g>
				<g>
					<rect x="392.2" y="360.3" class="st5" width="32.5" height="183.4"/>
				</g>
				<g>
					<rect x="324.9" y="401.4" class="st6" width="180" height="11.4"/>
				</g>
				<g>
					<path class="st4" d="M491.5,547H326.4c-8.8,0-15.9-7.1-15.9-15.9V480c0-1.4,1.1-2.5,2.5-2.5c1.4,0,2.5,1.1,2.5,2.5v51.1
						c0,6,4.9,10.9,10.9,10.9h165.1c6,0,10.9-4.9,10.9-10.9V403.9h-5.5c-1.4,0-2.5-1.1-2.5-2.5s1.1-2.5,2.5-2.5h8
						c1.4,0,2.5,1.1,2.5,2.5v129.7C507.4,539.9,500.3,547,491.5,547z"/>
				</g>
				<g>
					<path class="st4" d="M313,475.7c-1.4,0-2.5-1.1-2.5-2.5v-71.8c0-1.4,1.1-2.5,2.5-2.5h160.3c1.4,0,2.5,1.1,2.5,2.5
						s-1.1,2.5-2.5,2.5H315.5v69.3C315.5,474.6,314.4,475.7,313,475.7z"/>
				</g>
				<g>
					<path class="st4" d="M473.9,403.9H308.4c-6.2,0-11.2-5-11.2-11.2v-23.7c0-6.2,5-11.2,11.2-11.2c1.4,0,2.5,1.1,2.5,2.5
						c0,1.4-1.1,2.5-2.5,2.5c-3.4,0-6.2,2.8-6.2,6.2v23.7c0,3.4,2.8,6.2,6.2,6.2h165.6c1.4,0,2.5,1.1,2.5,2.5
						S475.3,403.9,473.9,403.9z"/>
				</g>
				<g>
					<path class="st4" d="M509.6,403.9h-15.7c-1.4,0-2.5-1.1-2.5-2.5s1.1-2.5,2.5-2.5h15.7c3.4,0,6.2-2.8,6.2-6.2v-23.7
						c0-3.4-2.8-6.2-6.2-6.2H325.7c-1.4,0-2.5-1.1-2.5-2.5c0-1.4,1.1-2.5,2.5-2.5h183.8c6.2,0,11.2,5,11.2,11.2v23.7
						C520.7,398.9,515.7,403.9,509.6,403.9z"/>
				</g>
				<g>
					<path class="st4" d="M392.9,387.3c-1.4,0-2.5-1.1-2.5-2.5v-24.4c0-1.4,1.1-2.5,2.5-2.5c1.4,0,2.5,1.1,2.5,2.5v24.4
						C395.4,386.2,394.3,387.3,392.9,387.3z"/>
				</g>
				<g>
					<path class="st4" d="M392.9,547c-1.4,0-2.5-1.1-2.5-2.5V401.4c0-1.4,1.1-2.5,2.5-2.5c1.4,0,2.5,1.1,2.5,2.5v143.1
						C395.4,545.9,394.3,547,392.9,547z"/>
				</g>
				<g>
					<path class="st11" d="M425.1,547c-1.4,0-2.5-1.1-2.5-2.5v-66.8c0-1.4,1.1-2.5,2.5-2.5c1.4,0,2.5,1.1,2.5,2.5v66.8
						C427.6,545.9,426.4,547,425.1,547z"/>
				</g>
				<g>
					<path class="st4" d="M425.1,475.7c-1.4,0-2.5-1.1-2.5-2.5V360.4c0-1.4,1.1-2.5,2.5-2.5c1.4,0,2.5,1.1,2.5,2.5v112.8
						C427.6,474.6,426.4,475.7,425.1,475.7z"/>
				</g>
			</g>
			<g>
				<path class="st5" d="M410.1,359.6h-40.3c-4,0-7.3-3.3-7.3-7.3v-33c0-4,3.3-7.3,7.3-7.3h33c4,0,7.3,3.3,7.3,7.3V359.6z"/>
				<path class="st4" d="M410.1,362.1H374c-7.7,0-13.9-6.2-13.9-13.9v-24.8c0-7.7,6.2-13.9,13.9-13.9h24.8c7.7,0,13.9,6.2,13.9,13.9
					v36.2C412.6,361,411.5,362.1,410.1,362.1z M374,314.6c-4.9,0-8.9,4-8.9,8.9v24.8c0,4.9,4,8.9,8.9,8.9h33.7v-33.7
					c0-4.9-4-8.9-8.9-8.9H374z"/>
			</g>
			<g>
				<path class="st5" d="M410.5,359.6h33.7c3.4,0,6.1-2.7,6.1-6.1v-27.6c0-3.4-2.7-6.1-6.1-6.1h-27.6c-3.4,0-6.1,2.7-6.1,6.1V359.6z
					"/>
				<path class="st4" d="M440.7,362.1h-30.2c-1.4,0-2.5-1.1-2.5-2.5v-30.2c0-6.6,5.4-12,12-12h20.7c6.6,0,12,5.4,12,12v20.7
					C452.7,356.7,447.3,362.1,440.7,362.1z M413,357.1h27.7c3.9,0,7-3.1,7-7v-20.7c0-3.9-3.2-7-7-7H420c-3.9,0-7,3.1-7,7V357.1z"/>
			</g>
		</g>
	</g>
	<g>
		<defs>
			<rect id="SVGID_3_" x="415.3" y="272.3" width="265.7" height="166.2"/>
		</defs>
		<clipPath id="SVGID_4_">
			<use xlink:href="#SVGID_3_"  style="overflow:visible;"/>
		</clipPath>
		<g class="st14">
			<g>
				<g>
					<g>
						<path class="st5" d="M656.6,402.7v12.5c0,2.5-2,4.6-4.6,4.6H546.1c-2.5,0-4.6-2-4.6-4.6v-12.5c0-2.5,2-4.6,4.6-4.6H652
							C654.5,398.1,656.6,400.2,656.6,402.7z"/>
					</g>
					<g>
						<path class="st10" d="M656.6,401.3v15.4c0,1.7-1.4,3.1-3,3.1h-108c-1.7,0-3-1.4-3-3.1v-15.4c0-1.7,1.4-3.1,3-3.1h108
							C655.2,398.2,656.6,399.6,656.6,401.3z"/>
					</g>
					<g>
						<path class="st5" d="M649.6,419.8v68.3c0,3.9-3.2,7.1-7.1,7.1h-86.9c-3.9,0-7.1-3.2-7.1-7.1v-68.3H649.6z"/>
					</g>
					<g>
						<path class="st10" d="M649.6,419.8v70.6c0,2.6-2.1,4.8-4.7,4.8H554c-2.6,0-4.7-2.1-4.7-4.8v-70.6H649.6z"/>
					</g>
					<g>
						<rect x="590.2" y="398.1" class="st5" width="17.1" height="96.6"/>
					</g>
					<g>
						<path class="st4" d="M642.5,497.6h-86.9c-5.3,0-9.6-4.3-9.6-9.6v-26.9c0-1.4,1.1-2.5,2.5-2.5s2.5,1.1,2.5,2.5v26.9
							c0,2.5,2,4.5,4.5,4.5h86.9c2.5,0,4.5-2,4.5-4.5v-65.8h-1.7c-1.4,0-2.5-1.1-2.5-2.5c0-1.4,1.1-2.5,2.5-2.5h4.2
							c1.4,0,2.5,1.1,2.5,2.5v68.3C652.1,493.3,647.8,497.6,642.5,497.6z"/>
					</g>
					<g>
						<path class="st4" d="M548.5,464.9c-1.4,0-2.5-1.1-2.5-2.5v-42.7c0-1.4,1.1-2.5,2.5-2.5H620c1.4,0,2.5,1.1,2.5,2.5
							c0,1.4-1.1,2.5-2.5,2.5H551v40.2C551,463.8,549.9,464.9,548.5,464.9z"/>
					</g>
					<g>
						<path class="st4" d="M617.5,422.3h-71.4c-3.9,0-7.1-3.2-7.1-7.1v-12.5c0-3.9,3.2-7.1,7.1-7.1h11.2c1.4,0,2.5,1.1,2.5,2.5
							s-1.1,2.5-2.5,2.5h-11.2c-1.1,0-2.1,0.9-2.1,2.1v12.5c0,1.1,0.9,2.1,2.1,2.1h71.4c1.4,0,2.5,1.1,2.5,2.5
							C620,421.1,618.9,422.3,617.5,422.3z"/>
					</g>
					<g>
						<path class="st4" d="M652,422.3h-8.3c-1.4,0-2.5-1.1-2.5-2.5c0-1.4,1.1-2.5,2.5-2.5h8.3c1.1,0,2.1-0.9,2.1-2.1v-12.5
							c0-1.1-0.9-2.1-2.1-2.1h-96.8c-1.4,0-2.5-1.1-2.5-2.5s1.1-2.5,2.5-2.5H652c3.9,0,7.1,3.2,7.1,7.1v12.5
							C659.1,419.1,655.9,422.3,652,422.3z"/>
					</g>
					<g>
						<path class="st4" d="M590.6,422.3c-1.4,0-2.5-1.1-2.5-2.5v-21.6c0-1.4,1.1-2.5,2.5-2.5s2.5,1.1,2.5,2.5v21.6
							C593.1,421.1,592,422.3,590.6,422.3z"/>
					</g>
					<g>
						<path class="st4" d="M590.6,497.6c-1.4,0-2.5-1.1-2.5-2.5v-75.3c0-1.4,1.1-2.5,2.5-2.5s2.5,1.1,2.5,2.5v75.3
							C593.1,496.5,592,497.6,590.6,497.6z"/>
					</g>
					<g>
						<path class="st11" d="M607.5,497.6c-1.4,0-2.5-1.1-2.5-2.5v-35.2c0-1.4,1.1-2.5,2.5-2.5s2.5,1.1,2.5,2.5v35.2
							C610,496.5,608.9,497.6,607.5,497.6z"/>
					</g>
					<g>
						<path class="st4" d="M607.5,465.5c-1.4,0-2.5-1.1-2.5-2.5v-64.9c0-1.4,1.1-2.5,2.5-2.5s2.5,1.1,2.5,2.5V463
							C610,464.4,608.9,465.5,607.5,465.5z"/>
					</g>
				</g>
				<g>
					<path class="st4" d="M599.6,400.3h-19c-4.7,0-8.5-3.8-8.5-8.5v-13c0-4.7,3.8-8.5,8.5-8.5h13c4.7,0,8.5,3.8,8.5,8.5v19
						C602.2,399.1,601,400.3,599.6,400.3z M580.6,375.2c-1.9,0-3.5,1.6-3.5,3.5v13c0,1.9,1.6,3.5,3.5,3.5h16.5v-16.5
						c0-1.9-1.6-3.5-3.5-3.5H580.6z"/>
				</g>
				<g>
					<path class="st4" d="M615.7,400.3h-15.9c-1.4,0-2.5-1.1-2.5-2.5v-15.9c0-4.2,3.4-7.5,7.5-7.5h10.9c4.2,0,7.5,3.4,7.5,7.5v10.9
						C623.3,396.9,619.9,400.3,615.7,400.3z M602.3,395.2h13.4c1.4,0,2.5-1.1,2.5-2.5v-10.9c0-1.4-1.1-2.5-2.5-2.5h-10.9
						c-1.4,0-2.5,1.1-2.5,2.5V395.2z"/>
				</g>
			</g>
		</g>
	</g>
</g>
<g>
	<path class="st6" d="M845.1,652.9h-2c-0.9,0-1.6-0.7-1.6-1.6s0.7-1.6,1.6-1.6h2c0.9,0,1.6,0.7,1.6,1.6S845.9,652.9,845.1,652.9z"/>
</g>
<g>
	<path class="st6" d="M881.1,652.9h-29.3c-0.9,0-1.6-0.7-1.6-1.6s0.7-1.6,1.6-1.6h29.3c0.9,0,1.6,0.7,1.6,1.6S882,652.9,881.1,652.9
		z"/>
</g>
<g>
	<path class="st6" d="M861.5,666.9h-10.8c-0.9,0-1.6-0.7-1.6-1.6s0.7-1.6,1.6-1.6h10.8c0.9,0,1.6,0.7,1.6,1.6
		S862.4,666.9,861.5,666.9z"/>
</g>
<g>
	<path class="st6" d="M878.3,680.3H861c-0.9,0-1.6-0.7-1.6-1.6s0.7-1.6,1.6-1.6h17.3c0.9,0,1.6,0.7,1.6,1.6S879.2,680.3,878.3,680.3
		z"/>
</g>
<g>
	<path class="st6" d="M814,472.5c-3.9,0-7-3.2-7-7c0-3.9,3.2-7,7-7c3.9,0,7,3.2,7,7C821,469.3,817.8,472.5,814,472.5z M814,464.6
		c-0.5,0-0.8,0.4-0.8,0.8c0,0.5,0.4,0.8,0.8,0.8c0.5,0,0.8-0.4,0.8-0.8C814.8,465,814.4,464.6,814,464.6z"/>
	<path class="st6" d="M784,496.6c-3.9,0-7-3.2-7-7s3.2-7,7-7s7,3.2,7,7S787.9,496.6,784,496.6z M784,488.7c-0.5,0-0.8,0.4-0.8,0.8
		s0.4,0.8,0.8,0.8s0.8-0.4,0.8-0.8S784.5,488.7,784,488.7z"/>
	<path class="st6" d="M777.3,458.4c-0.1,0-0.1,0-0.2,0c-1.7-0.1-3-1.5-2.9-3.3c0.1-1.8,0.9-3.3,2.2-4.4c1.4-1.2,3.3-1.7,5.3-1.5
		l1.2,0.1c0.4,0.1,0.6-0.1,0.7-0.1c0,0,0.1-0.3-0.1-0.7l-0.5-1.1c-1-2.4-0.8-4.9,0.6-6.8c1.4-1.9,3.8-2.9,6.4-2.6l1.2,0.1
		c0.4,0.1,0.6-0.1,0.7-0.1c0,0,0.1-0.3-0.1-0.7l-0.5-1.1c-1-2.4-0.8-4.9,0.6-6.8c1.4-1.9,3.8-2.9,6.4-2.6c1.7,0.2,2.9,1.7,2.7,3.4
		c-0.2,1.7-1.7,2.9-3.4,2.8c-0.4,0-0.6,0.1-0.7,0.1c0,0-0.1,0.3,0.1,0.7l0.5,1.1c1,2.4,0.8,4.9-0.6,6.8s-3.8,2.8-6.3,2.6l-1.2-0.1
		c-0.4,0-0.6,0.1-0.7,0.1c0,0-0.1,0.3,0.1,0.7l0.5,1.1c1,2.4,0.8,4.9-0.6,6.8c-1.4,1.9-3.8,2.8-6.3,2.6l-1.2-0.1
		c-0.4,0-0.6,0.1-0.7,0.1C780.3,457.1,778.9,458.4,777.3,458.4z"/>
	<path class="st6" d="M742,526.8c-1.6,0-3-1.3-3.1-2.9c-0.1-1.7,1.2-3.2,2.9-3.3c0.3,0,0.5-0.1,0.5-0.1c0,0-0.1-0.1-0.2-0.4l-0.6-1
		c-1.4-2.1-1.6-4.6-0.6-6.6c1-2,3.1-3.4,5.6-3.5l1.1-0.1c0.3,0,0.5-0.1,0.5-0.1c-0.1,0-0.1-0.2-0.2-0.4l-0.6-1
		c-1.4-2.1-1.6-4.6-0.6-6.6c1-2,3.1-3.4,5.6-3.5l1.1-0.1c0.3,0,0.5-0.1,0.5-0.1c-0.2-1.7,1-3.2,2.7-3.4c1.7-0.2,3.2,1.1,3.4,2.8
		c0.2,1.7-0.3,3.3-1.4,4.6c-1.2,1.4-2.9,2.2-4.9,2.3l-1.2,0.1c-0.3,0-0.4,0.1-0.5,0.1c0,0,0.1,0.2,0.2,0.4l0.6,1
		c1.4,2.1,1.6,4.6,0.6,6.6c-1,2-3.1,3.4-5.6,3.5l-1.1,0.1c-0.3,0-0.5,0.1-0.5,0.1c0,0,0.1,0.2,0.2,0.4l0.6,1
		c1.4,2.1,1.6,4.6,0.6,6.6c-1,2-3.1,3.4-5.6,3.5C742.1,526.8,742.1,526.8,742,526.8z"/>
	<path class="st6" d="M804.8,518.7c-1.2,0-2.4-0.3-3.6-1c-1.5-0.9-2-2.8-1.1-4.2c0.9-1.5,2.8-2,4.2-1.1c0.3,0.1,0.4,0.2,0.5,0.2
		c0,0,0-0.2,0-0.5l0-1.1c0-2.5,1.2-4.7,3.2-5.8c2-1.1,4.5-1.1,6.6,0.2l1,0.6c0.3,0.1,0.4,0.2,0.5,0.2c0,0,0-0.2,0-0.5l0-1.1
		c0-2.5,1.2-4.7,3.2-5.8c2-1.1,4.5-1.1,6.6,0.2l1,0.6c0.3,0.2,0.4,0.2,0.5,0.2c0.8-1.5,2.6-2.1,4.2-1.3c1.5,0.8,2.1,2.7,1.3,4.2
		c-0.8,1.5-2.1,2.6-3.7,3.1c-1.7,0.5-3.6,0.2-5.3-0.7l-1-0.6c-0.3-0.1-0.4-0.2-0.5-0.2c0,0,0,0.2,0,0.5l0,1.1c0,2.5-1.2,4.7-3.2,5.8
		c-2,1.1-4.5,1.1-6.6-0.2l-1-0.6c-0.3-0.1-0.4-0.2-0.5-0.2c0,0,0,0.2,0,0.5l0,1.1c0,2.5-1.2,4.7-3.2,5.8
		C806.9,518.4,805.9,518.7,804.8,518.7z"/>
</g>
</svg>
