<svg xmlns="http://www.w3.org/2000/svg" viewBox="0 0 788.85 687.47"><defs><style>.cls-1{isolation:isolate;}.cls-2,.cls-3,.cls-7,.cls-8,.cls-9{fill:none;}.cls-2{stroke:#cecece;}.cls-2,.cls-3,.cls-8,.cls-9{stroke-linecap:round;stroke-linejoin:round;}.cls-2,.cls-3{stroke-width:6px;}.cls-3,.cls-8,.cls-9{stroke:#00354c;}.cls-4{fill:#d1d1d1;}.cls-5{fill:#01d392;}.cls-6{fill:#f7bf46;}.cls-7{stroke:#f7bf46;stroke-miterlimit:10;opacity:0.68;mix-blend-mode:multiply;}.cls-8{stroke-width:3px;}.cls-9{stroke-width:4px;}.cls-10{fill:#fff;}.cls-11{fill:#00354c;}.cls-12{fill:#f6f6f4;}</style></defs><title>dog</title><g class="cls-1"><g id="Layer_1" data-name="Layer 1"><g id="_Group_" data-name="&lt;Group&gt;"><path id="_Path_" data-name="&lt;Path&gt;" class="cls-2" d="M345.57,401.57l139,114.19a18.74,18.74,0,0,0,23.79,0h0a18.74,18.74,0,0,0,0-28.94l-150-123.22a20.14,20.14,0,0,0-25.58,0L182.83,486.82a18.73,18.73,0,0,0,0,28.94h0a18.72,18.72,0,0,0,23.78,0Z"/><polygon id="_Path_2" data-name="&lt;Path&gt;" class="cls-2" points="345.57 401.57 231.36 495.42 241.24 684.47 449.91 684.47 459.78 495.42 345.57 401.57"/><path id="_Path_3" data-name="&lt;Path&gt;" class="cls-2" d="M345.57,523.27h0c-40.66,0-72.61,27.34-71.38,60L278,684.47H413.16L417,583.3C418.18,550.61,386.24,523.27,345.57,523.27Z"/><path id="_Path_4" data-name="&lt;Path&gt;" class="cls-2" d="M324.81,490.12a8.83,8.83,0,0,0,11.43,4.6,25.34,25.34,0,0,1,18.66,0,8.83,8.83,0,0,0,11.43-4.6,16.75,16.75,0,0,0,1.41-6.72c0-10.56-9.93-19.12-22.17-19.12s-22.16,8.56-22.16,19.12A16.74,16.74,0,0,0,324.81,490.12Z"/><ellipse id="_Path_5" data-name="&lt;Path&gt;" class="cls-2" cx="318.93" cy="455.73" rx="7.78" ry="6.61" transform="translate(-213.33 294.16) rotate(-38.13)"/><ellipse id="_Path_6" data-name="&lt;Path&gt;" class="cls-2" cx="345.57" cy="446.71" rx="10.21" ry="6.93"/><ellipse id="_Path_7" data-name="&lt;Path&gt;" class="cls-2" cx="369.83" cy="458.43" rx="6.61" ry="7.78" transform="translate(-219.13 466.29) rotate(-51.87)"/></g><line id="_Path_8" data-name="&lt;Path&gt;" class="cls-3" x1="78.35" y1="684.32" x2="89.85" y2="684.32"/><path id="_Path_9" data-name="&lt;Path&gt;" class="cls-4" d="M385,525.94c2.89-17.42,9.77-37.35,18-54.09-11.36,18.56-21.65,45.09-25.36,67.47-5.67,34.1-3.84,65.43,4.88,85.32l5.22-18.83C380.93,585.9,379.85,557.08,385,525.94Z"/><g id="_Group_2" data-name="&lt;Group&gt;"><path id="_Path_10" data-name="&lt;Path&gt;" class="cls-5" d="M145.25,354.32c-28.6-2-29.6,31-24.6,53,2,12-11,19-16.89,28.16a43.59,43.59,0,0,0-6,14.67c-3.29,15.91,6,29.43,7.58,43.94a32.33,32.33,0,0,1-.63,11.12,63.27,63.27,0,0,1-5.06,12.11c-16,18-42,39-24,63a76.67,76.67,0,0,0,10.8,11.21c31.2,26.79,78.2,24.79,114.2,7.79,13-7,26-17,29-32,2-16-5-31-15.66-41.57a81.15,81.15,0,0,0-10.33-9.67,32.49,32.49,0,0,1-5-11.47c-1.93-9.25,1-17.84,3.76-26.52a89.3,89.3,0,0,0,3.45-13.2c3.75-22.57-18.25-36.57-30.25-52.57-5-7-3-16-1-24a28,28,0,0,0-28.94-34"/><path id="_Path_11" data-name="&lt;Path&gt;" class="cls-3" d="M149.75,449c-4.55,21.68-5.58,43-4.95,64.33.15,5.33,13.85,94,5.13,132.83-.18,5.64-.18,8.86-.18,8.86"/><line id="_Path_12" data-name="&lt;Path&gt;" class="cls-3" x1="164.65" y1="532.85" x2="149.77" y2="554.35"/><path id="_Path_13" data-name="&lt;Path&gt;" class="cls-6" d="M173.67,687.32h-46a1.25,1.25,0,0,1-1.21-1l-11.77-49.85h72l-11.78,49.85A1.24,1.24,0,0,1,173.67,687.32Z"/><line id="_Path_14" data-name="&lt;Path&gt;" class="cls-7" x1="121.87" y1="664.1" x2="179.42" y2="664.1"/><line id="_Path_15" data-name="&lt;Path&gt;" class="cls-7" x1="122.72" y1="667.68" x2="178.58" y2="667.68"/></g><line id="_Path_16" data-name="&lt;Path&gt;" class="cls-3" x1="393.26" y1="673.08" x2="393.26" y2="684.08"/><ellipse id="_Path_17" data-name="&lt;Path&gt;" class="cls-5" cx="80.2" cy="489.3" rx="10.65" ry="17.45"/><rect id="_Rectangle_" data-name="&lt;Rectangle&gt;" class="cls-5" x="679.21" y="570.33" width="14" height="14" transform="translate(609.22 -316.13) rotate(45)"/><rect id="_Rectangle_2" data-name="&lt;Rectangle&gt;" class="cls-5" x="614.99" y="283.08" width="9" height="9" transform="translate(384.8 -353.81) rotate(45)"/><g id="_Group_3" data-name="&lt;Group&gt;"><g id="_Group_4" data-name="&lt;Group&gt;"><line id="_Path_18" data-name="&lt;Path&gt;" class="cls-8" x1="116.96" y1="156.36" x2="116.96" y2="170.67"/><line id="_Path_19" data-name="&lt;Path&gt;" class="cls-8" x1="116.96" y1="188.83" x2="116.96" y2="203.14"/></g><g id="_Group_5" data-name="&lt;Group&gt;"><line id="_Path_20" data-name="&lt;Path&gt;" class="cls-8" x1="96.7" y1="168.06" x2="109.1" y2="175.21"/><line id="_Path_21" data-name="&lt;Path&gt;" class="cls-8" x1="124.82" y1="184.29" x2="137.21" y2="191.44"/></g><g id="_Group_6" data-name="&lt;Group&gt;"><line id="_Path_22" data-name="&lt;Path&gt;" class="cls-8" x1="96.7" y1="191.44" x2="109.1" y2="184.29"/><line id="_Path_23" data-name="&lt;Path&gt;" class="cls-8" x1="124.82" y1="175.21" x2="137.21" y2="168.06"/></g></g><g id="_Group_7" data-name="&lt;Group&gt;"><line id="_Path_24" data-name="&lt;Path&gt;" class="cls-8" x1="742.99" y1="217.49" x2="742.99" y2="227.42"/><line id="_Path_25" data-name="&lt;Path&gt;" class="cls-8" x1="742.99" y1="240.02" x2="742.99" y2="249.95"/></g><g id="_Group_8" data-name="&lt;Group&gt;"><line id="_Path_26" data-name="&lt;Path&gt;" class="cls-8" x1="728.93" y1="225.6" x2="737.54" y2="230.57"/><line id="_Path_27" data-name="&lt;Path&gt;" class="cls-8" x1="748.45" y1="236.87" x2="757.05" y2="241.84"/></g><g id="_Group_9" data-name="&lt;Group&gt;"><line id="_Path_28" data-name="&lt;Path&gt;" class="cls-8" x1="728.93" y1="241.84" x2="737.54" y2="236.87"/><line id="_Path_29" data-name="&lt;Path&gt;" class="cls-8" x1="748.45" y1="230.57" x2="757.05" y2="225.6"/></g><circle id="_Path_30" data-name="&lt;Path&gt;" class="cls-6" cx="666.4" cy="364.86" r="15.13"/><g id="_Group_10" data-name="&lt;Group&gt;"><g id="_Group_11" data-name="&lt;Group&gt;"><line id="_Path_31" data-name="&lt;Path&gt;" class="cls-8" x1="666.4" y1="342.91" x2="666.4" y2="355.02"/><line id="_Path_32" data-name="&lt;Path&gt;" class="cls-8" x1="666.4" y1="374.7" x2="666.4" y2="386.82"/></g><g id="_Group_12" data-name="&lt;Group&gt;"><line id="_Path_33" data-name="&lt;Path&gt;" class="cls-8" x1="647.38" y1="353.88" x2="657.88" y2="359.94"/><line id="_Path_34" data-name="&lt;Path&gt;" class="cls-8" x1="674.92" y1="369.78" x2="685.41" y2="375.84"/></g><g id="_Group_13" data-name="&lt;Group&gt;"><line id="_Path_35" data-name="&lt;Path&gt;" class="cls-8" x1="647.38" y1="376.5" x2="657.88" y2="369.78"/><line id="_Path_36" data-name="&lt;Path&gt;" class="cls-8" x1="674.92" y1="359.94" x2="685.41" y2="353.88"/></g></g><line id="_Path_37" data-name="&lt;Path&gt;" class="cls-9" x1="440.35" y1="41" x2="440.35" y2="55.67"/><line id="_Path_38" data-name="&lt;Path&gt;" class="cls-9" x1="447.69" y1="48.34" x2="433.02" y2="48.34"/><line id="_Path_39" data-name="&lt;Path&gt;" class="cls-9" x1="779.52" y1="555.22" x2="779.52" y2="569.89"/><line id="_Path_40" data-name="&lt;Path&gt;" class="cls-9" x1="786.85" y1="562.55" x2="772.19" y2="562.55"/><line id="_Path_41" data-name="&lt;Path&gt;" class="cls-9" x1="265.02" y1="296.11" x2="265.02" y2="305.11"/><line id="_Path_42" data-name="&lt;Path&gt;" class="cls-9" x1="269.52" y1="300.61" x2="260.52" y2="300.61"/><rect id="_Rectangle_3" data-name="&lt;Rectangle&gt;" class="cls-6" x="218.2" y="368.48" width="10.03" height="10.03" transform="translate(329.48 -48.44) rotate(45)"/><line id="_Path_43" data-name="&lt;Path&gt;" class="cls-9" x1="2" y1="331.33" x2="28.32" y2="331.33"/><line id="_Path_44" data-name="&lt;Path&gt;" class="cls-9" x1="37.32" y1="331.33" x2="47.45" y2="331.33"/><line id="_Path_45" data-name="&lt;Path&gt;" class="cls-9" x1="16.63" y1="344.08" x2="45.88" y2="344.08"/><line id="_Path_46" data-name="&lt;Path&gt;" class="cls-9" x1="574.04" y1="455.19" x2="600.36" y2="455.19"/><line id="_Path_47" data-name="&lt;Path&gt;" class="cls-9" x1="609.36" y1="455.19" x2="619.49" y2="455.19"/><line id="_Path_48" data-name="&lt;Path&gt;" class="cls-9" x1="588.66" y1="465.95" x2="617.92" y2="465.95"/><line id="_Path_49" data-name="&lt;Path&gt;" class="cls-3" x1="654.85" y1="684.32" x2="696.11" y2="684.32"/><line id="_Path_50" data-name="&lt;Path&gt;" class="cls-3" x1="110.85" y1="684.32" x2="193.52" y2="684.32"/><circle id="_Path_51" data-name="&lt;Path&gt;" class="cls-6" cx="590.32" cy="92.75" r="51.75"/><circle id="_Path_52" data-name="&lt;Path&gt;" class="cls-6" cx="642.07" cy="51.75" r="51.75"/><circle id="_Path_53" data-name="&lt;Path&gt;" class="cls-6" cx="713.79" cy="70.31" r="47.22"/><circle id="_Path_54" data-name="&lt;Path&gt;" class="cls-6" cx="642.07" cy="122.07" r="51.53"/><circle id="_Path_55" data-name="&lt;Path&gt;" class="cls-6" cx="696.85" cy="122.07" r="34.29"/><path id="_Path_56" data-name="&lt;Path&gt;" class="cls-6" d="M588.66,227.72c0,7.83-2,12.49-9.78,12.49s-14.17-3-14.17-10.81,4.15-14.77,12-14.77S588.66,219.9,588.66,227.72Z"/><path id="_Path_57" data-name="&lt;Path&gt;" class="cls-6" d="M616.78,188.83c0,11.75-2.94,18.76-14.69,18.76s-21.28-4.49-21.28-16.24a21.27,21.27,0,0,1,21.28-21.28C613.84,170.07,616.78,177.08,616.78,188.83Z"/><path id="_Path_58" data-name="&lt;Path&gt;" class="cls-10" d="M606.89,540.29q.32,4,.32,8.09c0,55.93-45,101.27-100.5,101.27-46.62,0-85.83-32-97.18-75.38,4.09,52.14,47.38,93.18,100.18,93.18,55.51,0,100.5-45.34,100.5-101.27A102.23,102.23,0,0,0,606.89,540.29Z"/><path id="_Path_59" data-name="&lt;Path&gt;" class="cls-3" d="M606.89,540.29q.32,4,.32,8.09c0,55.93-45,101.27-100.5,101.27-46.62,0-85.83-32-97.18-75.38,4.09,52.14,47.38,93.18,100.18,93.18,55.51,0,100.5-45.34,100.5-101.27A102.23,102.23,0,0,0,606.89,540.29Z"/><path id="_Path_60" data-name="&lt;Path&gt;" class="cls-10" d="M431.18,449.34c-17-7.56-46.59,48.38-53.49,90-5.67,34.1-3.84,65.43,4.88,85.32Z"/><path id="_Path_61" data-name="&lt;Path&gt;" class="cls-3" d="M431.18,449.34c-17-7.56-46.59,48.38-53.49,90-5.67,34.1-3.84,65.43,4.88,85.32Z"/><path id="_Path_62" data-name="&lt;Path&gt;" class="cls-10" d="M483.56,449.34c17-7.56,46.59,48.38,53.5,90,5.66,34.1,3.83,65.43-4.89,85.32Z"/><path id="_Path_63" data-name="&lt;Path&gt;" class="cls-4" d="M529.72,525.94c-2.89-17.42-9.77-37.35-18-54.09,11.36,18.56,21.65,45.09,25.37,67.47,5.66,34.1,3.83,65.43-4.89,85.32L527,605.81C533.81,585.9,534.9,557.08,529.72,525.94Z"/><path id="_Path_64" data-name="&lt;Path&gt;" class="cls-3" d="M483.56,449.34c17-7.56,46.59,48.38,53.5,90,5.66,34.1,3.83,65.43-4.89,85.32Z"/><path id="_Path_65" data-name="&lt;Path&gt;" class="cls-10" d="M535.15,632.1c-1.08-16.64-44.3-196.78-56-205.78H436.27c-11.75,9-55,189.14-56,205.78-1.33,20.66-8.13,52.22,31.19,52.22H504C543.28,684.32,536.48,652.76,535.15,632.1Z"/><path id="_Path_66" data-name="&lt;Path&gt;" class="cls-4" d="M385,606.62S382,633,396.69,642.75c11.6,7.66,21.78,10.77,40.93,14.31,10.25,1.9,21.48,2.69,21.48,2.69l1.25,23.71-81.4.62s-1.4-33.33.59-43.33S382.53,614.16,385,606.62Z"/><path id="_Path_67" data-name="&lt;Path&gt;" class="cls-4" d="M531.21,606.62s3.07,26.39-11.66,36.13c-11.6,7.66-21.78,10.77-40.93,14.31-10.25,1.9-21.48,2.69-21.48,2.69l-1.25,23.71,81.4.62s1.4-33.33-.59-43.33S533.71,614.16,531.21,606.62Z"/><path id="_Path_68" data-name="&lt;Path&gt;" class="cls-6" d="M493.5,462.63a27.36,27.36,0,0,0-7-1.06c-12.15,0-21.94,6.47-21.94,21.52s21.94,33,34.09,33a18.42,18.42,0,0,0,9.2-2.49C502.94,495.09,498,477.29,493.5,462.63Z"/><path id="_Path_69" data-name="&lt;Path&gt;" class="cls-6" d="M401,592.18c13.52,0,24.48-13.28,24.48-29.66,0-15.74-10.12-28.61-22.89-29.6-5,19.6-9.69,39.05-13.47,55.53A21.08,21.08,0,0,0,401,592.18Z"/><path id="_Path_70" data-name="&lt;Path&gt;" class="cls-4" d="M433.24,430.63s7.11,5.7,23.45,5.7c13.16,0,24.81-5.7,24.81-5.7l-1-3.92-46.5,0Z"/><path id="_Path_71" data-name="&lt;Path&gt;" class="cls-3" d="M535.15,632.1c-1.08-16.64-44.3-196.78-56-205.78H436.27c-11.75,9-55,189.14-56,205.78-1.33,20.66-8.13,52.22,31.19,52.22H504C543.28,684.32,536.48,652.76,535.15,632.1Z"/><path id="_Path_72" data-name="&lt;Path&gt;" class="cls-10" d="M532.81,354.32c-1.93-19.53-11.46-68.77-22.26-103.32-17.25-55.14-37.4-69.51-49.08-70.95-1.24-.15-3.78-.24-3.78-.24s-2.54,0-3.78.19c-11.69,1.44-31.83,15.73-49.08,70.87-10.81,34.55-20.34,83.92-22.26,103.45-4.34,44,16.81,68.29,44.16,71.76,7.82,1,23.22,1,31,1s23.14,0,31-1C516,422.61,537.15,398.28,532.81,354.32Z"/><ellipse id="_Path_73" data-name="&lt;Path&gt;" class="cls-4" cx="457.69" cy="379.73" rx="18.92" ry="14.85"/><path id="_Path_74" data-name="&lt;Path&gt;" class="cls-4" d="M440.35,185.58s-9,33.9-27.83,43.7c4.77-10.81,11.3-23.7,11.3-23.7S435,187.08,440.35,185.58Z"/><path id="_Path_75" data-name="&lt;Path&gt;" class="cls-4" d="M461.47,180.05s24.38,42,44.74,58.09c0,0-4.61-29.81-9.11-38.81S470.59,177.27,461.47,180.05Z"/><path id="_Path_76" data-name="&lt;Path&gt;" class="cls-6" d="M409.66,341.44c39.33-16.94,62.79-50.23,52.4-74.35-7.28-16.9-29.26-24.8-55.3-22.2-.64,1.94-1.29,3.93-1.93,6-10,32-18.91,76.67-21.71,98.62A121.33,121.33,0,0,0,409.66,341.44Z"/><path id="_Path_77" data-name="&lt;Path&gt;" class="cls-3" d="M514,387.15c-11.15,16.26-35.66,27.35-61.81,27.35-24.16,0-38.72-14.24-47.25-31.85"/><ellipse id="_Path_78" data-name="&lt;Path&gt;" class="cls-11" cx="457.69" cy="377.12" rx="23.66" ry="12.24"/><path id="_Path_79" data-name="&lt;Path&gt;" class="cls-10" d="M587.74,678c-15.21-14.31-44.37-21.36-72.94-19.21-24.44,1.83-42.5,10.1-49.62,21.08a3,3,0,0,0,2.62,4.44l115.45,0C587.88,684.32,590.55,680.64,587.74,678Z"/><path id="_Path_80" data-name="&lt;Path&gt;" class="cls-4" d="M586.93,677.75a3.07,3.07,0,0,1-1.1.21H470.38a7.09,7.09,0,0,1-3.51-.86c-.33.29-.66.58-1,.88-2.82,2.65-.15,6.33,4.48,6.33l115.45,0a3,3,0,0,0,2.62-4.44A24.91,24.91,0,0,0,586.93,677.75Z"/><path id="_Path_81" data-name="&lt;Path&gt;" class="cls-3" d="M587.74,678c-15.21-14.31-44.37-21.36-72.94-19.21-24.44,1.83-42.5,10.1-49.62,21.08a3,3,0,0,0,2.62,4.44l115.45,0C587.88,684.32,590.55,680.64,587.74,678Z"/><line id="_Path_82" data-name="&lt;Path&gt;" class="cls-3" x1="525.26" y1="673.08" x2="525.26" y2="684.08"/><path id="_Path_83" data-name="&lt;Path&gt;" class="cls-10" d="M330.9,678c15.2-14.31,44.37-21.36,72.93-19.21,24.44,1.83,42.5,10.1,49.62,21.08a3,3,0,0,1-2.62,4.44l-115.45,0C330.75,684.32,328.08,680.64,330.9,678Z"/><path id="_Path_84" data-name="&lt;Path&gt;" class="cls-4" d="M451.93,677.75a3.07,3.07,0,0,1-1.1.21H335.38a7.09,7.09,0,0,1-3.51-.86c-.33.29-.66.58-1,.88-2.82,2.65-.15,6.33,4.48,6.33l115.45,0a3,3,0,0,0,2.62-4.44A24.91,24.91,0,0,0,451.93,677.75Z"/><path id="_Path_85" data-name="&lt;Path&gt;" class="cls-3" d="M330.9,678c15.2-14.31,44.37-21.36,72.93-19.21,24.44,1.83,42.5,10.1,49.62,21.08a3,3,0,0,1-2.62,4.44l-115.45,0C330.75,684.32,328.08,680.64,330.9,678Z"/><path id="_Path_86" data-name="&lt;Path&gt;" class="cls-3" d="M532.81,354.32c-1.93-19.53-11.46-68.77-22.26-103.32-17.25-55.14-37.4-69.51-49.08-70.95-1.24-.15-3.78-.24-3.78-.24s-2.54,0-3.78.19c-11.69,1.44-31.83,15.73-49.08,70.87-10.81,34.55-20.34,83.92-22.26,103.45-4.34,44,16.81,68.29,44.16,71.76,7.82,1,23.22,1,31,1s23.14,0,31-1C516,422.61,537.15,398.28,532.81,354.32Z"/><path id="_Path_87" data-name="&lt;Path&gt;" class="cls-10" d="M459.65,179.56s34.87-7.42,44.51-2.93c9.9,4.6,27.83,39.66,20.42,53.4C513.24,251.07,480.05,175.11,459.65,179.56Z"/><path id="_Path_88" data-name="&lt;Path&gt;" class="cls-3" d="M459.65,179.56s34.87-7.42,44.51-2.93c9.9,4.6,27.83,39.66,20.42,53.4C513.24,251.07,480.05,175.11,459.65,179.56Z"/><path id="_Path_89" data-name="&lt;Path&gt;" class="cls-10" d="M394.11,185.89l48.33-1.39s-44.8,48.16-65.47,58.57S377.42,185.76,394.11,185.89Z"/><path id="_Path_90" data-name="&lt;Path&gt;" class="cls-3" d="M394.11,185.89l48.33-1.39s-44.8,48.16-65.47,58.57S377.42,185.76,394.11,185.89Z"/><ellipse id="_Path_91" data-name="&lt;Path&gt;" class="cls-11" cx="438.53" cy="287.58" rx="5.04" ry="6.5"/><ellipse id="_Path_92" data-name="&lt;Path&gt;" class="cls-11" cx="480.78" cy="287.58" rx="5.04" ry="6.5"/><line id="_Path_93" data-name="&lt;Path&gt;" class="cls-3" x1="282.19" y1="684.32" x2="628.85" y2="684.32"/><path id="_Path_94" data-name="&lt;Path&gt;" class="cls-6" d="M558,247.06c0,5.58-1.4,8.92-7,8.92s-10.12-2.14-10.12-7.73a10.12,10.12,0,0,1,10.12-10.11C556.64,238.14,558,241.47,558,247.06Z"/><path id="_Path_95" data-name="&lt;Path&gt;" class="cls-12" d="M694.69,88.12a9.23,9.23,0,0,0,2.11-7c-.46-4.24-6.2-6.32-8.61-6.75-3.19-.57-9.86,2.32-9.86,7.79v0A2.34,2.34,0,0,1,676,84.6H630.56a2.31,2.31,0,0,1-2.3-2.35,9,9,0,0,0-.81-3.76c-1.33-3-4.57-3.4-7.46-3.73-5-.58-10.26,1.95-10.26,7.43a9.22,9.22,0,0,0,2.16,5.93,3,3,0,0,1,0,3.83,9.22,9.22,0,0,0-2.1,7c.46,4.24,4.46,6,8.26,6.4,5,.55,10.21-2,10.21-7.44v0a2.33,2.33,0,0,1,2.3-2.39H676a2.31,2.31,0,0,1,2.3,2.34,9,9,0,0,0,.82,3.79c1.34,3,6,3.74,7.82,4.07,3.19.58,9.88-2.31,9.88-7.79A9.16,9.16,0,0,0,694.69,92,3,3,0,0,1,694.69,88.12Z"/></g></g></svg>