<?xml version="1.0" encoding="utf-8"?>
<!-- Generator: Adobe Illustrator 23.0.3, SVG Export Plug-In . SVG Version: 6.00 Build 0)  -->
<svg version="1.1" id="Layer_1" xmlns="http://www.w3.org/2000/svg" xmlns:xlink="http://www.w3.org/1999/xlink" x="0px" y="0px"
	 viewBox="0 0 1000 1000" style="enable-background:new 0 0 1000 1000;" xml:space="preserve">
<style type="text/css">
	.st0{opacity:0.25;}
	.st1{opacity:0.55;}
	.st2{fill:none;stroke:#474747;stroke-width:6;stroke-linecap:round;stroke-linejoin:round;stroke-miterlimit:10;}
	.st3{fill:none;stroke:#333333;stroke-width:10;stroke-linecap:round;stroke-linejoin:round;stroke-miterlimit:10;}
	.st4{fill:none;stroke:#333333;stroke-width:6;stroke-linecap:round;stroke-linejoin:round;stroke-miterlimit:10;}
	.st5{fill:none;stroke:#333333;stroke-width:8;stroke-linecap:round;stroke-linejoin:round;stroke-miterlimit:10;}
	.st6{fill:none;stroke:#333333;stroke-width:5;stroke-linecap:round;stroke-linejoin:round;stroke-miterlimit:10;}
	.st7{fill:#333333;}
	.st8{fill:none;stroke:#333333;stroke-width:4;stroke-linecap:round;stroke-linejoin:round;stroke-miterlimit:10;}
	.st9{fill:#FFFFFF;}
	.st10{fill:#47BA8A;}
	.st11{fill:none;stroke:#474747;stroke-width:3;stroke-linecap:round;stroke-linejoin:round;stroke-miterlimit:10;}
	.st12{fill:#E6EEEF;}
	.st13{fill:#F5BE46;}
	.st14{fill:#F5BE46;stroke:#474747;stroke-width:3;stroke-linecap:round;stroke-linejoin:round;stroke-miterlimit:10;}
	.st15{fill:none;stroke:#47BA8A;stroke-width:4;stroke-linecap:round;stroke-miterlimit:10;}
</style>
<g class="st0">
	<g id="XMLID_278_" class="st1">
		<polyline id="XMLID_285_" class="st2" points="152.9,527.6 152.9,565 78.1,565 		"/>
		<polyline id="XMLID_284_" class="st2" points="227.6,565 152.9,565 152.9,527.6 		"/>
		<rect id="XMLID_283_" x="115.4" y="565" class="st2" width="74.8" height="37.3"/>
		<polyline id="XMLID_282_" class="st2" points="174,639.8 152.9,639.8 152.9,602.4 227.6,602.4 		"/>
		<polyline id="XMLID_281_" class="st2" points="78.1,602.4 152.9,602.4 152.9,639.8 92.2,639.8 		"/>
		<polyline id="XMLID_280_" class="st2" points="52.6,565 115.4,565 115.4,602.4 78.1,602.4 		"/>
		<polyline id="XMLID_279_" class="st2" points="244.1,602.4 190.2,602.4 190.2,565 216.1,565 		"/>
	</g>
	<g id="XMLID_245_" class="st1">
		<path id="XMLID_244_" class="st3" d="M829.5,272.7l-52.3-52.3c-7.6-7.6-7.6-20,0-27.6l52.3-52.3c7.6-7.6,20-7.6,27.6,0l52.3,52.3
			c7.6,7.6,7.6,20,0,27.6l-52.3,52.3C849.5,280.3,837.1,280.3,829.5,272.7z"/>
		<line id="XMLID_237_" class="st4" x1="843.2" y1="154.2" x2="843.2" y2="144.7"/>
		<line id="XMLID_236_" class="st4" x1="843.2" y1="268.6" x2="843.2" y2="259.1"/>
		<line id="XMLID_234_" class="st4" x1="895.7" y1="206.7" x2="905.2" y2="206.7"/>
		<line id="XMLID_233_" class="st4" x1="781.3" y1="206.7" x2="790.8" y2="206.7"/>
		<line id="XMLID_232_" class="st5" x1="843.2" y1="206.7" x2="828" y2="192.5"/>
		<line id="XMLID_231_" class="st6" x1="866" y1="176.6" x2="843.2" y2="208.4"/>
		<circle id="XMLID_226_" class="st7" cx="844.5" cy="206.7" r="7.4"/>
	</g>
	<g id="XMLID_225_" class="st1">
		<rect id="XMLID_224_" x="273.3" y="143.4" class="st3" width="118.5" height="117.9"/>
		<rect id="XMLID_223_" x="418.3" y="194.4" class="st3" width="89.5" height="117.9"/>
		<line id="XMLID_162_" class="st8" x1="296.5" y1="205.4" x2="328.2" y2="173.7"/>
		<line id="XMLID_30_" class="st8" x1="325" y1="202.4" x2="353.6" y2="173.7"/>
		<line id="XMLID_29_" class="st8" x1="302.8" y1="224.6" x2="314.4" y2="212.9"/>
		<line id="XMLID_24_" class="st8" x1="444.9" y1="249.4" x2="466.6" y2="227.7"/>
		<line id="XMLID_18_" class="st8" x1="477.3" y1="244.1" x2="485.6" y2="235.7"/>
		<line id="XMLID_17_" class="st8" x1="441.4" y1="280" x2="468" y2="253.3"/>
	</g>
</g>
<g id="Share">
	<circle class="st9" cx="753.7" cy="527.8" r="35.2"/>
	<circle class="st10" cx="759.5" cy="533.7" r="29.4"/>
	<circle class="st11" cx="753.7" cy="527.8" r="35.2"/>
	<circle class="st9" cx="701.2" cy="372.4" r="35.2"/>
	<circle class="st9" cx="696.6" cy="671.6" r="35.2"/>
	<circle class="st9" cx="260.3" cy="527.8" r="35.2"/>
	<circle class="st9" cx="312.8" cy="372.4" r="35.2"/>
	<circle class="st9" cx="317.4" cy="671.6" r="35.2"/>
	<circle class="st10" cx="707.3" cy="378.5" r="29.1"/>
	<circle class="st10" cx="702.1" cy="677" r="29.8"/>
	<circle class="st10" cx="265.6" cy="533.1" r="29.9"/>
	<circle class="st10" cx="318.8" cy="378.5" r="29.1"/>
	<circle class="st10" cx="322.8" cy="677" r="29.8"/>
	<g>
		<path class="st9" d="M590,607.6c-46.5,46.5-122,46.5-168.5,0c-46.5-46.5-46.5-122,0-168.5c46.5-46.5,122-46.5,168.5,0
			C636.5,485.6,636.5,561.1,590,607.6z"/>
		<path class="st9" d="M591.9,609c-43.9,43.9-115,43.9-158.9,0c-43.9-43.9-43.9-115,0-158.9c43.9-43.9,115-43.9,158.9,0
			C635.8,494,635.8,565.2,591.9,609z"/>
		<path class="st11" d="M507.6,404.2c29.9,0.5,59.6,12.1,82.4,34.9c46.5,46.5,46.5,122,0,168.5c-14.4,14.4-31.6,24.4-49.9,29.9
			 M456.4,414.8c4.3-2,8.8-3.7,13.3-5.1 M479.5,639.6c-21.3-4.8-41.5-15.4-58-32c-46.5-46.5-46.5-122,0-168.5
			c1.7-1.7,3.3-3.2,5.1-4.8"/>
		<g>
			<path class="st9" d="M469.8,503.3c6.2,11.6,18.4,19.5,32.5,19.5c20.3,0,36.8-16.5,36.8-36.8s-16.5-36.8-36.8-36.8
				c-20.3,0-36.8,16.5-36.8,36.8C465.5,492.3,467.1,498.1,469.8,503.3"/>
			<circle class="st12" cx="508.2" cy="492" r="30.8"/>
			<path class="st9" d="M543.2,528.4c16.9,12.8,29.2,29.7,29.2,49.5c0,6.1-6.1,6.1-6.1,6.1h-45.6h-27.9h-45.6c0,0-6.1,0-6.1-6.1
				c0-25.4,20.2-45.9,44.3-59.3"/>
			<path class="st12" d="M497.8,528c-22.3,7.7-37.9,29-37.9,50.8c0,5.2,5.2,5.2,5.2,5.2h39h23.9h39c0,0,5.2,0,5.2-5.2
				c0-17-7.8-32.5-21.5-44.4c-4.3-3.8-8.7-7.2-14.1-9.2c-12-4.5-25.6-1.6-37.4,2.3C498.9,527.7,498.4,527.8,497.8,528z"/>
			<path class="st11" d="M485.3,518.6c5.1,2.7,10.9,4.2,17,4.2c20.3,0,36.8-16.5,36.8-36.8s-16.5-36.8-36.8-36.8
				c-20.3,0-36.8,16.5-36.8,36.8c0,4.2,0.7,8.2,2,12"/>
			<path class="st11" d="M543.2,528.4c16.9,12.8,29.2,29.7,29.2,49.5c0,6.1-6.1,6.1-6.1,6.1h-45.6h-27.9h-45.6c0,0-6.1,0-6.1-6.1
				c0-25.4,20.2-45.9,44.3-59.3"/>
		</g>
	</g>
	<line class="st11" x1="701.7" y1="527.8" x2="658.3" y2="527.8"/>
	<circle class="st11" cx="701.2" cy="372.4" r="35.2"/>
	<line class="st11" x1="664.5" y1="409.2" x2="633.8" y2="439.8"/>
	<path class="st11" d="M689.9,637c-6.7,1.3-13,4.5-18.2,9.7c-13.8,13.8-13.8,36.1,0,49.8c13.8,13.8,36.1,13.8,49.8,0
		s13.8-36.1,0-49.8c-2.1-2.1-4.3-3.8-6.7-5.3"/>
	<line class="st11" x1="659.9" y1="634.8" x2="629.2" y2="604.2"/>
	<circle class="st11" cx="260.3" cy="527.8" r="35.2"/>
	<line class="st11" x1="312.3" y1="527.8" x2="355.7" y2="527.8"/>
	<path class="st11" d="M340.5,394.1c10.9-13.8,9.9-33.9-2.8-46.7c-7.7-7.7-18.1-11.1-28.2-10.2"/>
	<path class="st11" d="M286.3,349.2c-12.1,13.8-11.6,34.9,1.6,48.1c7.3,7.3,17.1,10.7,26.7,10.3"/>
	<line class="st11" x1="349.5" y1="409.2" x2="380.2" y2="439.8"/>
	<path class="st11" d="M344.3,694.3c-0.6,0.7-1.3,1.5-2,2.2c-13.8,13.8-36.1,13.8-49.8,0c-13.8-13.8-13.8-36.1,0-49.8
		c13.8-13.8,36.1-13.8,49.8,0c6,6,9.4,13.6,10.1,21.3"/>
	<line class="st11" x1="354.1" y1="634.8" x2="384.8" y2="604.2"/>
</g>
<g>
	<path class="st13" d="M524.9,624.1c7.1,7.1,7.1,18.7,0,25.8l-5.7,5.7c-7.1,7.1-18.7,7.1-25.8,0l-14.1-14.1
		c-7.1-7.1-7.1-18.7,0-25.8l5.7-5.7c7.1-7.1,18.7-7.1,25.8,0L524.9,624.1z M507.4,622.3l-4.5-4.5c-2.8-2.8-7.3-2.8-10.1,0l-5.7,5.7
		c-2.8,2.8-2.8,7.3,0,10.1l14.1,14.1c2.8,2.8,7.3,2.8,10.1,0l5.7-5.7c2.8-2.8,2.8-7.3,0-10.1l-3.2-3.2"/>
	<path class="st13" d="M570.1,669.3c7.1,7.1,7.1,18.7,0,25.8l-5.7,5.7c-7.1,7.1-18.7,7.1-25.8,0l-14-14c-7.1-7.1-7.1-18.7,0-25.8
		l5.7-5.7c7.1-7.1,18.7-7.1,25.8,0L570.1,669.3z M545.6,692.2l0.8,0.8c2.8,2.8,7.3,2.8,10.1,0l5.7-5.7c2.8-2.8,2.8-7.3,0-10.1
		l-14-14c-2.8-2.8-7.3-2.8-10.1,0l-5.7,5.7c-2.8,2.8-2.8,7.3,0,10.1l3.3,3.3"/>
	<path class="st11" d="M512.5,611.7l12.4,12.4c7.1,7.1,7.1,18.7,0,25.8l-5.7,5.7c-7.1,7.1-18.7,7.1-25.8,0l-14.1-14.1
		c-7.1-7.1-7.1-18.7,0-25.8l5.7-5.7c0.6-0.6,1.3-1.2,2-1.8 M498.9,604.7c2,0.1,4,0.6,5.8,1.3 M507.4,622.3l-4.5-4.5
		c-2.8-2.8-7.3-2.8-10.1,0l-5.7,5.7c-2.8,2.8-2.8,7.3,0,10.1l14.1,14.1c2.8,2.8,7.3,2.8,10.1,0l5.7-5.7c2.8-2.8,2.8-7.3,0-10.1
		l-3.2-3.2"/>
	<path class="st11" d="M570.1,669.3c7.1,7.1,7.1,18.7,0,25.8l-5.7,5.7c-7.1,7.1-18.7,7.1-25.8,0l-14-14c-7.1-7.1-7.1-18.7,0-25.8
		l5.7-5.7c7.1-7.1,18.7-7.1,25.8,0L570.1,669.3z M545.6,692.2l0.8,0.8c2.8,2.8,7.3,2.8,10.1,0l5.7-5.7c2.8-2.8,2.8-7.3,0-10.1
		l-14-14c-2.8-2.8-7.3-2.8-10.1,0l-5.7,5.7c-2.8,2.8-2.8,7.3,0,10.1l3.3,3.3"/>
	<path class="st14" d="M526,648.7l16.3,16.3c2.3,2.3,2.3,6,0,8.4l0,0c-2.3,2.3-6,2.3-8.4,0l-25.7-25.7c-2.3-2.3-2.3-6,0-8.4v0
		c2.3-2.3,6-2.3,8.4,0l1.5,1.5"/>
</g>
<g>
	<line class="st15" x1="582.6" y1="666.4" x2="593.2" y2="652.6"/>
	<line class="st15" x1="581.5" y1="696.2" x2="595.3" y2="706.8"/>
	<line class="st15" x1="587" y1="681.9" x2="604.2" y2="679.7"/>
</g>
</svg>
