<?xml version="1.0" encoding="utf-8"?>
<!-- Generator: Adobe Illustrator 23.0.3, SVG Export Plug-In . SVG Version: 6.00 Build 0)  -->
<svg version="1.1" id="Layer_1" xmlns="http://www.w3.org/2000/svg" xmlns:xlink="http://www.w3.org/1999/xlink" x="0px" y="0px"
	 viewBox="0 0 1000 1000" style="enable-background:new 0 0 1000 1000;" xml:space="preserve">
<style type="text/css">
	.st0{display:none;}
	.st1{display:inline;}
	.st2{fill:none;stroke:#E5E5E5;stroke-width:4;stroke-linecap:round;stroke-linejoin:round;stroke-miterlimit:10;}
	.st3{display:inline;fill:none;stroke:#E5E5E5;stroke-width:4;stroke-linecap:round;stroke-linejoin:round;stroke-miterlimit:10;}
	.st4{clip-path:url(#SVGID_2_);}
	.st5{clip-path:url(#SVGID_4_);}
	.st6{opacity:0.15;clip-path:url(#SVGID_6_);}
	
		.st7{clip-path:url(#SVGID_8_);fill:none;stroke:#474748;stroke-width:6;stroke-linecap:round;stroke-linejoin:round;stroke-miterlimit:10;}
	.st8{clip-path:url(#SVGID_6_);fill:#FFFFFF;}
	.st9{clip-path:url(#SVGID_6_);fill:#E7EFF0;}
	.st10{clip-path:url(#SVGID_6_);fill:#9DC2E7;}
	
		.st11{clip-path:url(#SVGID_6_);fill:none;stroke:#4172B8;stroke-width:3;stroke-linecap:round;stroke-linejoin:round;stroke-miterlimit:10;}
	
		.st12{clip-path:url(#SVGID_6_);fill:none;stroke:#474748;stroke-width:3;stroke-linecap:round;stroke-linejoin:round;stroke-miterlimit:10;}
	.st13{clip-path:url(#SVGID_6_);fill:#9ACF8C;}
	.st14{clip-path:url(#SVGID_6_);fill:#C3E2BB;}
	.st15{clip-path:url(#SVGID_6_);fill:#D2DDE1;}
	.st16{clip-path:url(#SVGID_10_);}
	.st17{clip-path:url(#SVGID_12_);}
	.st18{opacity:0.15;clip-path:url(#SVGID_14_);}
	
		.st19{clip-path:url(#SVGID_16_);fill:none;stroke:#474748;stroke-width:6;stroke-linecap:round;stroke-linejoin:round;stroke-miterlimit:10;}
	
		.st20{clip-path:url(#SVGID_12_);fill:none;stroke:#98BFE6;stroke-width:3;stroke-linecap:round;stroke-linejoin:round;stroke-miterlimit:10;}
	.st21{clip-path:url(#SVGID_12_);fill:#FFFFFF;}
	.st22{clip-path:url(#SVGID_12_);fill:#D2DDE1;}
	.st23{clip-path:url(#SVGID_18_);fill:#E7EFF0;}
	
		.st24{clip-path:url(#SVGID_18_);fill:none;stroke:#474748;stroke-width:3;stroke-linecap:round;stroke-linejoin:round;stroke-miterlimit:10;}
	.st25{clip-path:url(#SVGID_18_);fill:#FFFFFF;}
	.st26{clip-path:url(#SVGID_18_);fill:#D2DDE1;}
	
		.st27{clip-path:url(#SVGID_18_);fill:none;stroke:#4172B8;stroke-width:3;stroke-linecap:round;stroke-linejoin:round;stroke-miterlimit:10;}
	
		.st28{clip-path:url(#SVGID_18_);fill:none;stroke:#FFFFFF;stroke-width:3;stroke-linecap:round;stroke-linejoin:round;stroke-miterlimit:10;}
	.st29{clip-path:url(#SVGID_18_);fill:#F6BF47;}
	.st30{clip-path:url(#SVGID_18_);fill:#48BB8B;}
	.st31{clip-path:url(#SVGID_18_);fill:#DEEBF8;}
	.st32{fill:#FDB740;}
	.st33{opacity:0.88;fill:#FFF3C1;enable-background:new    ;}
	.st34{fill:#F29F25;}
	.st35{fill:none;stroke:#484848;stroke-width:6;stroke-linecap:round;stroke-linejoin:round;stroke-miterlimit:10;}
</style>
<g>
	<g>
		<defs>
			<rect id="SVGID_9_" width="1000" height="1000"/>
		</defs>
		<clipPath id="SVGID_2_">
			<use xlink:href="#SVGID_9_"  style="overflow:visible;"/>
		</clipPath>
		<g class="st4">
			<defs>
				<rect id="SVGID_11_" width="1000" height="1000"/>
			</defs>
			<clipPath id="SVGID_4_">
				<use xlink:href="#SVGID_11_"  style="overflow:visible;"/>
			</clipPath>
			<g class="st5">
				<defs>
					<rect id="SVGID_13_" width="1000" height="1000"/>
				</defs>
				<clipPath id="SVGID_6_">
					<use xlink:href="#SVGID_13_"  style="overflow:visible;"/>
				</clipPath>
				<g class="st6">
					<g>
						<defs>
							<rect id="SVGID_15_" x="138.2" y="241.1" width="723.6" height="517.7"/>
						</defs>
						<clipPath id="SVGID_8_">
							<use xlink:href="#SVGID_15_"  style="overflow:visible;"/>
						</clipPath>
						<path class="st7" d="M806.8,244.1V701c0,30.3-12.4,54.9-27.8,54.9H536.8c-15.3,0-27.8-24.6-27.8-54.9V342.1"/>
						<line class="st7" x1="196.8" y1="755.9" x2="858.8" y2="755.9"/>
						<line class="st7" x1="509" y1="461.1" x2="806.8" y2="461.1"/>
						<line class="st7" x1="509" y1="674" x2="806.8" y2="674"/>
						<path class="st7" d="M773.9,660.5h-20.3c-6,0-10.9-4.9-10.9-10.9V493.4c0-6,4.9-10.9,10.9-10.9h20.3c6,0,10.9,4.9,10.9,10.9
							v156.2C784.8,655.6,779.9,660.5,773.9,660.5z"/>
						<path class="st7" d="M714.8,660.5h-20.3c-6,0-10.9-4.9-10.9-10.9V493.4c0-6,4.9-10.9,10.9-10.9h20.3c6,0,10.9,4.9,10.9,10.9
							v156.2C725.8,655.6,720.9,660.5,714.8,660.5z"/>
						<path class="st7" d="M773.9,447.5h-20.3c-6,0-10.9-4.9-10.9-10.9V280.4c0-6,4.9-10.9,10.9-10.9h20.3c6,0,10.9,4.9,10.9,10.9
							v156.2C784.8,442.6,779.9,447.5,773.9,447.5z"/>
						<path class="st7" d="M727.8,416.3v20.3c0,6-4.9,10.9-10.9,10.9H560.7c-6,0-10.9-4.9-10.9-10.9v-20.3c0-6,4.9-10.9,10.9-10.9
							h156.2C722.9,405.3,727.8,410.2,727.8,416.3z"/>
						<path class="st7" d="M727.8,369.4v13.3c0,6-4.9,10.9-10.9,10.9H570.4c-6,0-10.9-4.9-10.9-10.9v-13.3c0-6,4.9-10.9,10.9-10.9
							h146.5C722.9,358.5,727.8,363.4,727.8,369.4z"/>
						<path class="st7" d="M606.8,657.8l-13.8-5.8c-3.8-1.6-5.7-6-4.1-9.8l50.5-121.2c1.6-3.8,6-5.7,9.8-4.1l13.8,5.8
							c3.8,1.6,5.7,6,4.1,9.8l-50.5,121.2C615,657.5,610.6,659.4,606.8,657.8z"/>
						<polyline class="st7" points="141.2,467.9 220.5,467.9 220.5,506.5 141.2,506.5 						"/>
						<line class="st7" x1="299.9" y1="506.5" x2="220.5" y2="506.5"/>
						<line class="st7" x1="220.5" y1="467.9" x2="250.9" y2="467.9"/>
						<rect x="180.9" y="506.5" class="st7" width="79.4" height="38.7"/>
						<polyline class="st7" points="153.5,545.4 220.5,545.4 220.5,584.1 194.9,584.1 						"/>
						<rect x="220.5" y="545.4" class="st7" width="79.4" height="38.7"/>
						<rect x="305.4" y="322.9" class="st7" width="123.1" height="99.8"/>
						<polyline class="st7" points="322.4,399.6 345,366.9 368.3,395.8 						"/>
						<polyline class="st7" points="359.8,385.2 391.2,354.7 413.6,399.6 						"/>
						<path class="st7" d="M351.5,375.1c1.6-4.7,6-8.1,11.2-8.1c4.3,0,8.1,2.3,10.2,5.8"/>
					</g>
				</g>
			</g>
			
				<line style="clip-path:url(#SVGID_4_);fill:none;stroke:#98BFE6;stroke-width:3;stroke-linecap:round;stroke-linejoin:round;stroke-miterlimit:10;" x1="337.4" y1="739.2" x2="334.7" y2="739.2"/>
			
				<line style="clip-path:url(#SVGID_4_);fill:none;stroke:#98BFE6;stroke-width:3;stroke-linecap:round;stroke-linejoin:round;stroke-miterlimit:10;" x1="371.3" y1="739.2" x2="348.3" y2="739.2"/>
			
				<line style="clip-path:url(#SVGID_4_);fill:none;stroke:#98BFE6;stroke-width:3;stroke-linecap:round;stroke-linejoin:round;stroke-miterlimit:10;" x1="385.6" y1="739.2" x2="383" y2="739.2"/>
			
				<line style="clip-path:url(#SVGID_4_);fill:none;stroke:#98BFE6;stroke-width:3;stroke-linecap:round;stroke-linejoin:round;stroke-miterlimit:10;" x1="605.2" y1="739.2" x2="400.2" y2="739.2"/>
			
				<line style="clip-path:url(#SVGID_4_);fill:none;stroke:#98BFE6;stroke-width:3;stroke-linecap:round;stroke-linejoin:round;stroke-miterlimit:10;" x1="668.5" y1="739.2" x2="616.8" y2="739.2"/>
			
				<line style="clip-path:url(#SVGID_4_);fill:none;stroke:#98BFE6;stroke-width:3;stroke-linecap:round;stroke-linejoin:round;stroke-miterlimit:10;" x1="683.4" y1="739.2" x2="679.2" y2="739.2"/>
			<rect x="371.7" y="532.3" style="clip-path:url(#SVGID_4_);fill:#FFFFFF;" width="274" height="207.4"/>
			<rect x="371.7" y="532.3" style="clip-path:url(#SVGID_4_);fill:#D2DDE1;" width="274" height="207.4"/>
			<g class="st5">
				<defs>
					<rect id="SVGID_17_" width="1000" height="1000"/>
				</defs>
				<clipPath id="SVGID_10_">
					<use xlink:href="#SVGID_17_"  style="overflow:visible;"/>
				</clipPath>
				<path style="clip-path:url(#SVGID_10_);fill:#E7EFF0;" d="M645.7,532.3v64.1c-5.1,4.2-11.6,6.7-18.6,6.7
					c-16.3,0-29.5-15.1-29.5-31.8c0.1,0.7,0-0.3,0-0.3s0,0.3,0,0.5c0,0,0-0.1,0-0.2c0,16.6-13.3,31.8-29.7,31.8
					s-29.6-13.5-29.6-30.1c0,16.6-13.3,30.1-29.6,30.1c-15,0-27.1-12.7-29-27.6c-0.2-1.3-0.3-2.7-0.3-4.1c0,0.1,0,0.1,0,0.2
					c0-0.1,0-0.5,0-0.5c0,0,0,0.5,0,0.5c0,0,0-0.1,0-0.3c0,16.6-13.6,31.8-29.9,31.8c-16.3,0-29.6-13.5-29.6-30.1
					c0,0.6,0,1.3-0.1,1.9c-1,15.8-13.8,28.2-29.5,28.2c-7,0-13.5-2.5-18.6-6.7v-64.1H645.7z"/>
				
					<polyline style="clip-path:url(#SVGID_10_);fill:none;stroke:#474748;stroke-width:3;stroke-linecap:round;stroke-linejoin:round;stroke-miterlimit:10;" points="
					371.7,606.8 371.7,532.3 645.7,532.3 645.7,739.7 371.7,739.7 371.7,652.3 				"/>
				
					<line style="clip-path:url(#SVGID_10_);fill:none;stroke:#474748;stroke-width:3;stroke-linecap:round;stroke-linejoin:round;stroke-miterlimit:10;" x1="371.7" y1="634.5" x2="371.7" y2="632.5"/>
				<path style="clip-path:url(#SVGID_10_);fill:#FFFFFF;" d="M656.7,553.4h-0.1c0.1,0.9,0.1,1.8,0.1,2.7
					c0,16.6-13.3,30.1-29.6,30.1s-29.5-15.1-29.5-31.8c0.1,0.7,0-0.3,0-0.3c0,0,0,0.3,0,0.5c0,0,0-0.1,0-0.2
					c0,16.6-13.3,31.8-29.7,31.8s-29.6-13.5-29.6-30.1c0,16.6-13.3,30.1-29.6,30.1c-15,0-27.1-12.7-29-27.6
					c-0.2-1.3-0.3-2.7-0.3-4.1c0,0.1,0,0.1,0,0.2c0-0.1,0-0.5,0-0.5c0,0,0,0.5,0,0.5c0,0,0-0.1,0-0.3c0,16.6-13.6,31.8-29.9,31.8
					c-16.3,0-29.6-13.5-29.6-30.1c0,0.6,0,1.3-0.1,1.9c-1,15.8-13.8,28.2-29.5,28.2c-16.3,0-29.6-13.5-29.6-30.1
					c0-0.9,0-1.8,0.1-2.7h-0.1v-37.6l32.9-38.4h230.1l32.9,38.4V553.4z"/>
				<path style="clip-path:url(#SVGID_10_);fill:#D2DDE1;" d="M479.4,515.8l0.3,42.8c-0.2-1.3-0.3-2.7-0.3-4.1
					c0,16.6-13.6,31.8-29.9,31.8c-16.3,0-29.6-13.5-29.6-30.1c0,0.7,0,1.3-0.1,1.9l0.3-41l18.8-33.5l4-6h48.6L479.4,515.8z"/>
				<path style="clip-path:url(#SVGID_10_);fill:#D2DDE1;" d="M538,515.8l-0.2,42.8c0.2-1.3,0.2-2.7,0.2-4.1
					c0,16.6,12.3,31.8,27,31.8c14.8,0,26.8-13.5,26.8-30.1c0,0.7,0,1.3,0.1,1.9l-0.3-41l-17-33.5l-3.6-6H527L538,515.8z"/>
				
					<path style="clip-path:url(#SVGID_10_);fill:none;stroke:#474748;stroke-width:3;stroke-linecap:round;stroke-linejoin:round;stroke-miterlimit:10;" d="
					M656.7,553.4h-0.1c0.1,0.9,0.1,1.8,0.1,2.7c0,16.6-13.3,30.1-29.6,30.1s-29.5-15.1-29.5-31.8c0.1,0.7,0-0.3,0-0.3
					c0,0,0,0.3,0,0.5c0,0,0-0.1,0-0.2c0,16.6-13.3,31.8-29.7,31.8s-29.6-13.5-29.6-30.1c0,16.6-13.3,30.1-29.6,30.1
					c-15,0-27.1-12.7-29-27.6c-0.2-1.3-0.3-2.7-0.3-4.1c0,0.1,0,0.1,0,0.2c0-0.1,0-0.5,0-0.5c0,0,0,0.5,0,0.5c0,0,0-0.1,0-0.3
					c0,16.6-13.6,31.8-29.9,31.8c-16.3,0-29.6-13.5-29.6-30.1c0,0.6,0,1.3-0.1,1.9c-1,15.8-13.8,28.2-29.5,28.2
					c-16.3,0-29.6-13.5-29.6-30.1c0-0.9,0-1.8,0.1-2.7h-0.1v-37.6l32.9-38.4h230.1l32.9,38.4V553.4z"/>
				
					<polyline style="clip-path:url(#SVGID_10_);fill:none;stroke:#474748;stroke-width:3;stroke-linecap:round;stroke-linejoin:round;stroke-miterlimit:10;" points="
					419.9,553.4 419.9,515.8 442.9,477.5 				"/>
				<polyline style="clip-path:url(#SVGID_10_);fill:#FFFFFF;" points="479.4,554.5 479.4,515.8 492.3,477.5 				"/>
				
					<polyline style="clip-path:url(#SVGID_10_);fill:none;stroke:#474748;stroke-width:3;stroke-linecap:round;stroke-linejoin:round;stroke-miterlimit:10;" points="
					479.4,554.5 479.4,515.8 492.3,477.5 				"/>
				
					<polyline style="clip-path:url(#SVGID_10_);fill:none;stroke:#474748;stroke-width:3;stroke-linecap:round;stroke-linejoin:round;stroke-miterlimit:10;" points="
					597.6,554.5 597.6,515.8 577.5,477.5 				"/>
				<polyline style="clip-path:url(#SVGID_10_);fill:#FFFFFF;" points="538.1,553.4 538.1,515.8 528.2,477.5 				"/>
				
					<polyline style="clip-path:url(#SVGID_10_);fill:none;stroke:#474748;stroke-width:3;stroke-linecap:round;stroke-linejoin:round;stroke-miterlimit:10;" points="
					538.1,553.4 538.1,515.8 528.2,477.5 				"/>
				
					<line style="clip-path:url(#SVGID_10_);fill:none;stroke:#474748;stroke-width:3;stroke-linecap:round;stroke-linejoin:round;stroke-miterlimit:10;" x1="554.9" y1="515.8" x2="656.7" y2="515.8"/>
				
					<line style="clip-path:url(#SVGID_10_);fill:none;stroke:#474748;stroke-width:3;stroke-linecap:round;stroke-linejoin:round;stroke-miterlimit:10;" x1="399.7" y1="515.8" x2="538.1" y2="515.8"/>
				
					<line style="clip-path:url(#SVGID_10_);fill:none;stroke:#4172B8;stroke-width:3;stroke-linecap:round;stroke-linejoin:round;stroke-miterlimit:10;" x1="387.1" y1="515.8" x2="389" y2="515.8"/>
				
					<line style="clip-path:url(#SVGID_10_);fill:none;stroke:#4172B8;stroke-width:3;stroke-linecap:round;stroke-linejoin:round;stroke-miterlimit:10;" x1="360.7" y1="515.8" x2="370.2" y2="515.8"/>
				<path style="clip-path:url(#SVGID_10_);fill:#E7EFF0;" d="M399.1,708v-97.3c0-1.4,1.1-2.5,2.5-2.5h88.1c1.4,0,2.5,1.1,2.5,2.5
					v129h-93.2"/>
				
					<path style="clip-path:url(#SVGID_10_);fill:none;stroke:#474748;stroke-width:3;stroke-linecap:round;stroke-linejoin:round;stroke-miterlimit:10;" d="
					M399.1,708v-97.3c0-1.4,1.1-2.5,2.5-2.5h88.1c1.4,0,2.5,1.1,2.5,2.5v129h-93.2"/>
				<path style="clip-path:url(#SVGID_10_);fill:#FFFFFF;" d="M611.8,684.9h-85.7c-0.5,0-1-0.4-1-1v-74.8c0-0.5,0.4-1,1-1h85.7
					c0.5,0,1,0.4,1,1v74.8C612.8,684.5,612.4,684.9,611.8,684.9"/>
				
					<path style="clip-path:url(#SVGID_10_);fill:none;stroke:#474748;stroke-width:3;stroke-linecap:round;stroke-linejoin:round;stroke-miterlimit:10;" d="
					M611.8,684.9h-85.7c-0.5,0-1-0.4-1-1v-74.8c0-0.5,0.4-1,1-1h85.7c0.5,0,1,0.4,1,1v74.8C612.8,684.5,612.4,684.9,611.8,684.9z"/>
				<line style="clip-path:url(#SVGID_10_);fill:#FFFFFF;" x1="563.5" y1="630.1" x2="590.9" y2="657.5"/>
				
					<line style="clip-path:url(#SVGID_10_);fill:none;stroke:#474748;stroke-width:3;stroke-linecap:round;stroke-linejoin:round;stroke-miterlimit:10;" x1="563.5" y1="630.1" x2="590.9" y2="657.5"/>
				<line style="clip-path:url(#SVGID_10_);fill:#FFFFFF;" x1="585.4" y1="624.6" x2="596.4" y2="635.6"/>
				
					<line style="clip-path:url(#SVGID_10_);fill:none;stroke:#474748;stroke-width:3;stroke-linecap:round;stroke-linejoin:round;stroke-miterlimit:10;" x1="585.4" y1="624.6" x2="596.4" y2="635.6"/>
				<rect x="412.5" y="623" style="clip-path:url(#SVGID_10_);fill:#FFFFFF;" width="65.8" height="103.5"/>
				
					<rect x="412.5" y="623" style="clip-path:url(#SVGID_10_);fill:none;stroke:#474748;stroke-width:3;stroke-linecap:round;stroke-linejoin:round;stroke-miterlimit:10;" width="65.8" height="103.5"/>
				<line style="clip-path:url(#SVGID_10_);fill:#FFFFFF;" x1="431.2" y1="646.9" x2="458.6" y2="674.3"/>
				
					<line style="clip-path:url(#SVGID_10_);fill:none;stroke:#474748;stroke-width:3;stroke-linecap:round;stroke-linejoin:round;stroke-miterlimit:10;" x1="431.2" y1="646.9" x2="458.6" y2="674.3"/>
				<line style="clip-path:url(#SVGID_10_);fill:#FFFFFF;" x1="453.1" y1="641.5" x2="464.1" y2="652.4"/>
				
					<line style="clip-path:url(#SVGID_10_);fill:none;stroke:#474748;stroke-width:3;stroke-linecap:round;stroke-linejoin:round;stroke-miterlimit:10;" x1="453.1" y1="641.5" x2="464.1" y2="652.4"/>
				<path style="clip-path:url(#SVGID_10_);fill:#FFFFFF;" d="M286.7,471.7c-23,11.1-23.6,13-28.4,7.2c-6.8-8.1-13.5-16.2-20.2-24.3
					c-3.4-4.2-3.2-6.9,1-10.4c14.4-12,28.8-24,43.1-36.1c2.6-2.2,5.4-3.3,8.8-3.2c33.7,0.4,35.6-2.3,36.6,7.6
					c1.2,11.4,10.3,19.3,21.8,19c10.4-0.2,18.9-8.6,19.8-19.5c0.4-5.2,2-6.9,7.2-7c10.4-0.1,20.9-0.2,31.3,0.1c2,0,4.4,1,6,2.3
					c14.9,12.2,29.6,24.6,44.3,36.9c4,3.4,4.2,6.2,0.9,10.2c-6.8,8.2-13.6,16.4-20.5,24.6c-4.6,5.5-5.5,3.6-28.4-7.5
					c0,42.2,0,71.5,0,103.7c0,7.5-1.6,9.1-9.3,9.1c-35,0-70,0-105,0c-7.4,0-9-1.6-9-8.9C286.7,543,286.7,513.5,286.7,471.7"/>
				<path style="clip-path:url(#SVGID_10_);fill:#E7EFF0;" d="M413.1,412.4c-1.5-1.2-3.8-2.2-5.7-2.2c-9.9-0.2-16.2-0.2-26.1-0.1
					c-4.9,0.1-6.5,1.7-6.9,6.6c-0.8,10.4-12.5,20.6-25.2,20.6c-11.5,0-25.1-7.9-26.2-18.7c-0.6-5.7-2.3-7.1-8.1-7.1
					c-9-0.1-13.7,0-22.7-0.1c-3.3,0-5.9,1-8.4,3.1c-13.6,11.5-23,20-36.7,31.4c-4,3.3-4.2,5.9-0.9,9.9c6.4,7.7,11.4,15.4,17.8,23.1
					c1.3,1.5,2.4,2.5,3.6,2.9c0.3-0.1,0.7-0.3,1-0.5c6.1-2.9,16.5-5.9,23.2-9.2v99.1c0,7.3,1.6,8.9,8.9,8.9H401
					c7.6,0,9.2-1.5,9.2-9.1v-98.9c2.2,1.1,4.4,2.1,6.6,3.2v-1.9c1.8,0.9,3.4,2.4,4.8,4.2c9.9,4.8,12.5,7.2,16.9,1.9
					c22.3-26.8,22-26.1,22.5-28.2C446.5,439.4,425.5,422.5,413.1,412.4"/>
				<path style="clip-path:url(#SVGID_10_);fill:#D2DDE1;" d="M410.2,549v22.1c0,7.5-1.6,9.1-9.2,9.1H300.7c-7.4,0-8.9-1.6-8.9-8.9
					v-14.5c0-4.3,3.5-7.7,7.7-7.7H410.2z"/>
				
					<path style="clip-path:url(#SVGID_10_);fill:none;stroke:#474748;stroke-width:3;stroke-linecap:round;stroke-linejoin:round;stroke-miterlimit:10;" d="
					M286.7,523v-46.5v-4.8c-6.8,3.3-12.9,6.3-19,9.2c-4.3,2.1-6.4,1.6-9.4-2c-6.8-8.1-13.5-16.2-20.2-24.3c-3.4-4.2-3.2-6.9,1-10.4
					c14.4-12,28.8-24,43.1-36.1c2.6-2.2,5.4-3.3,8.8-3.2c0.7,0,1.5,0,2.2,0 M286.7,557v-18.4 M314.5,404.9c1.6,0,3.2,0,4.8,0
					c6.1,0.1,7.7,1.5,8.3,7.5c1.2,11.4,10.3,19.3,21.8,19c10.4-0.2,18.9-8.6,19.8-19.5c0.4-5.2,2-6.9,7.2-7
					c10.4-0.1,20.9-0.2,31.3,0.1c2,0,4.4,1,6,2.3c14.9,12.2,29.6,24.6,44.3,36.9c4,3.4,4.2,6.2,0.9,10.2
					c-6.8,8.2-13.6,16.4-20.5,24.6c-2.7,3.3-5,3.8-8.8,2c-6.4-3-12.7-6.1-19.6-9.5v5c0,32.9,0,65.8,0,98.7c0,7.5-1.6,9.1-9.3,9.1
					c-35,0-70,0-105,0c-7.4,0-9-1.6-9-8.9v-5 M300.9,404.9h0.5"/>
				
					<line style="clip-path:url(#SVGID_10_);fill:none;stroke:#FFFFFF;stroke-width:3;stroke-linecap:round;stroke-linejoin:round;stroke-miterlimit:10;" x1="395.8" y1="464.4" x2="398.2" y2="464.4"/>
				
					<line style="clip-path:url(#SVGID_10_);fill:none;stroke:#FFFFFF;stroke-width:3;stroke-linecap:round;stroke-linejoin:round;stroke-miterlimit:10;" x1="365.2" y1="464.4" x2="389.3" y2="464.4"/>
				
					<line style="clip-path:url(#SVGID_10_);fill:none;stroke:#474748;stroke-width:3;stroke-linecap:round;stroke-linejoin:round;stroke-miterlimit:10;" x1="395.8" y1="461.6" x2="398.2" y2="461.6"/>
				
					<line style="clip-path:url(#SVGID_10_);fill:none;stroke:#474748;stroke-width:3;stroke-linecap:round;stroke-linejoin:round;stroke-miterlimit:10;" x1="365.2" y1="461.6" x2="389.3" y2="461.6"/>
				
					<line style="clip-path:url(#SVGID_10_);fill:none;stroke:#474748;stroke-width:3;stroke-linecap:round;stroke-linejoin:round;stroke-miterlimit:10;" x1="444.9" y1="452.7" x2="447.6" y2="449.4"/>
				
					<line style="clip-path:url(#SVGID_10_);fill:none;stroke:#474748;stroke-width:3;stroke-linecap:round;stroke-linejoin:round;stroke-miterlimit:10;" x1="424.4" y1="478.5" x2="440.1" y2="458.7"/>
				
					<line style="clip-path:url(#SVGID_10_);fill:none;stroke:#474748;stroke-width:3;stroke-linecap:round;stroke-linejoin:round;stroke-miterlimit:10;" x1="272.2" y1="478.4" x2="253.4" y2="452.5"/>
				<path style="clip-path:url(#SVGID_10_);fill:#FFFFFF;" d="M371.1,554.3c-6.5-0.8-2.7-4.2-10.4,45.7c-1.1,7-1.8,13.9-1.6,21
					c0,1.3,0.2,3.3,1.8,3.5c20.9,2.1,34.2,1.2,67.2,1c16.5-0.1,33.1,0.1,49.4-3.1c0.1,0,4.1-0.6,4.1-0.6c3.3-0.6,7.1-1.6,7.1-4
					c0.1-8.1-2-15.5-11.9-18.6c-25.9-7.9-33.7,5.9-68.7-37.2c-2.5-3-3.7-6.1-6.6-9c-3.3-3.2-8.9,1.9-16.2,2.1
					C380.9,555.4,375.7,554.8,371.1,554.3"/>
				<path style="clip-path:url(#SVGID_10_);fill:#F6BF47;" d="M475,600.9c-5.4-1.7-11.1-2.8-16.7-3.1c-0.3,0-0.5,0-0.8,0h0
					c-19.5-0.9-31.8-12.5-47.8-32.3c-2.3-2.9-3.7-6-6.3-8.5c-2.2-2.1-5.3-0.5-9.3,0.8c-1.8,0.6-3.9,1.1-6.1,1.2
					c-4.6,0.1-10-0.5-14.6-1.1c-2.3-0.3-2.8-0.1-3.2,2.2c0,0-4.1,31.5-5.7,41.5c-0.5,3.4-0.9,6.7-1.2,10.1
					c40.1,3.5,80.7,2,120.5-4.7C482,604.3,479.3,602.1,475,600.9"/>
				<path style="clip-path:url(#SVGID_10_);fill:#FFFFFF;" d="M457.8,592.9c-0.1,0-0.2-0.1-0.4-0.1c0.1,0,0.3-0.1,0.4-0.1
					c0-0.1,0-0.2,0-0.4l0.9,0.9C458.5,593.2,458.1,593.1,457.8,592.9"/>
				<path style="clip-path:url(#SVGID_10_);fill:#FFFFFF;" d="M483.8,607c-7,2.6-14.3,4.2-21.8,4.9c-1,0.1-2.1,0.1-2.9-0.5
					c-0.7-0.6-0.9-1.6-1-2.6c-0.5-3.6-0.7-7.3-0.6-11c5.9,0.3,11.9,1.4,17.5,3.1C479.3,602.2,482,604.3,483.8,607"/>
				
					<path style="clip-path:url(#SVGID_10_);fill:none;stroke:#474748;stroke-width:3;stroke-linecap:round;stroke-linejoin:round;stroke-miterlimit:10;" d="
					M379,555.1c2.2,0.2,4.4,0.2,6.4,0.2c7.3-0.2,12.9-5.3,16.2-2.1c2.8,2.7,4.2,6,6.6,9c16.9,20.7,29.7,33,50.2,33.9
					c6.2,0.3,12.5,1.5,18.5,3.3c10,3.1,12.1,10.5,11.9,18.6c-0.1,3.5-8.9,4.2-11.2,4.6c-16.3,3.2-32.9,3-49.4,3.1
					c-32.6,0.2-46.7,1.1-67.2-1c-1.6-0.2-1.8-2.2-1.8-3.5c-0.2-7.1,0.5-14,1.6-21c1.6-10.5,5.9-43.5,5.9-43.6
					c0.4-2.3,0.9-2.5,3.2-2.3 M373.2,554.5C373.2,554.5,373.2,554.5,373.2,554.5"/>
				
					<path style="clip-path:url(#SVGID_10_);fill:none;stroke:#474748;stroke-width:3;stroke-linecap:round;stroke-linejoin:round;stroke-miterlimit:10;" d="
					M406.9,560.7c-1.9,1.4-3.7,2.9-5.6,4.3"/>
				
					<path style="clip-path:url(#SVGID_10_);fill:none;stroke:#474748;stroke-width:3;stroke-linecap:round;stroke-linejoin:round;stroke-miterlimit:10;" d="
					M412.9,568.8c-1.7,1.8-3.5,3.5-5.5,5"/>
				
					<path style="clip-path:url(#SVGID_10_);fill:none;stroke:#474748;stroke-width:3;stroke-linecap:round;stroke-linejoin:round;stroke-miterlimit:10;" d="
					M418.9,575.4c-1.9,2-3.8,3.9-5.7,5.9"/>
				
					<path style="clip-path:url(#SVGID_10_);fill:none;stroke:#474748;stroke-width:3;stroke-linecap:round;stroke-linejoin:round;stroke-miterlimit:10;" d="
					M419.3,587.7c1.8-2.3,3.8-4.4,6.1-6.2"/>
				
					<path style="clip-path:url(#SVGID_10_);fill:none;stroke:#474748;stroke-width:3;stroke-linecap:round;stroke-linejoin:round;stroke-miterlimit:10;" d="
					M431.8,586.7c-1.4,2.5-2.7,5-4.1,7.6"/>
				
					<path style="clip-path:url(#SVGID_10_);fill:none;stroke:#474748;stroke-width:3;stroke-linecap:round;stroke-linejoin:round;stroke-miterlimit:10;" d="
					M437.6,590.3c-0.4,2.8-0.9,5.7-1.3,8.5"/>
				
					<path style="clip-path:url(#SVGID_10_);fill:none;stroke:#474748;stroke-width:3;stroke-linecap:round;stroke-linejoin:round;stroke-miterlimit:10;" d="
					M446.7,594.1c-0.3,2.4-0.7,4.8-1.2,7.2"/>
				
					<path style="clip-path:url(#SVGID_10_);fill:none;stroke:#474748;stroke-width:3;stroke-linecap:round;stroke-linejoin:round;stroke-miterlimit:10;" d="
					M392.2,558c4.4,5.4,7.6,12.1,11.4,18c11.2,17.2,33.2,30.6,54.3,31.6"/>
				
					<path style="clip-path:url(#SVGID_10_);fill:none;stroke:#474748;stroke-width:3;stroke-linecap:round;stroke-linejoin:round;stroke-miterlimit:10;" d="
					M484,606.7c0.7-0.2,1.4-0.4,2.1-0.6"/>
				
					<path style="clip-path:url(#SVGID_10_);fill:none;stroke:#474748;stroke-width:3;stroke-linecap:round;stroke-linejoin:round;stroke-miterlimit:10;" d="
					M478.5,608.1c0.1,0,0.1,0,0.2,0"/>
				
					<path style="clip-path:url(#SVGID_10_);fill:none;stroke:#474748;stroke-width:3;stroke-linecap:round;stroke-linejoin:round;stroke-miterlimit:10;" d="
					M420.7,612.8c12.6,0.1,25.4-0.1,37.9-1.4c5.5-0.6,10.9-1.4,16.2-2.5"/>
				
					<path style="clip-path:url(#SVGID_10_);fill:none;stroke:#474748;stroke-width:3;stroke-linecap:round;stroke-linejoin:round;stroke-miterlimit:10;" d="
					M377.6,612.2c11.1,0.2,22.2,0.3,33.3,0.5"/>
				
					<path style="clip-path:url(#SVGID_10_);fill:none;stroke:#474748;stroke-width:3;stroke-linecap:round;stroke-linejoin:round;stroke-miterlimit:10;" d="
					M363.6,612c0.6,0,1.3,0,1.9,0l2.5,0"/>
				
					<path style="clip-path:url(#SVGID_10_);fill:none;stroke:#474748;stroke-width:3;stroke-linecap:round;stroke-linejoin:round;stroke-miterlimit:10;" d="
					M458.6,611.4c-0.1-0.7-0.2-1.3-0.3-2c-0.1-0.6-0.2-1.2-0.3-1.8c0,0,0,0,0,0c-0.6-3.9-1-7.8-0.3-11.6"/>
				
					<path style="clip-path:url(#SVGID_10_);fill:none;stroke:#474748;stroke-width:3;stroke-linecap:round;stroke-linejoin:round;stroke-miterlimit:10;" d="
					M448.5,615.8c-0.1-1.1-0.3-2.2-0.4-3.3"/>
				
					<path style="clip-path:url(#SVGID_10_);fill:none;stroke:#474748;stroke-width:3;stroke-linecap:round;stroke-linejoin:round;stroke-miterlimit:10;" d="
					M449.9,625.2c-0.5-1.7-0.7-3.4-0.9-5.1"/>
				<path style="clip-path:url(#SVGID_10_);fill:#FFFFFF;" d="M393.8,576.7c0,6-4.9,10.8-10.8,10.8c-6,0-10.8-4.8-10.8-10.8
					s4.9-10.8,10.8-10.8C388.9,565.9,393.8,570.8,393.8,576.7"/>
				<path style="clip-path:url(#SVGID_10_);fill:#48BB8B;" d="M393.8,577.8c0,5.4-4.4,9.8-9.8,9.8c-5.4,0-9.8-4.4-9.8-9.8
					s4.4-9.8,9.8-9.8C389.4,568,393.8,572.4,393.8,577.8"/>
				
					<path style="clip-path:url(#SVGID_10_);fill:none;stroke:#474748;stroke-width:3;stroke-linecap:round;stroke-linejoin:round;stroke-miterlimit:10;" d="
					M376.5,568c0.1,0,0.1-0.1,0.2-0.1"/>
				
					<path style="clip-path:url(#SVGID_10_);fill:none;stroke:#474748;stroke-width:3;stroke-linecap:round;stroke-linejoin:round;stroke-miterlimit:10;" d="
					M381.8,566c0.4,0,0.7-0.1,1.1-0.1c6,0,10.8,4.9,10.8,10.8c0,6-4.9,10.8-10.8,10.8s-10.8-4.8-10.8-10.8c0-1.9,0.5-3.8,1.4-5.3"/>
				<path style="clip-path:url(#SVGID_10_);fill:#FFFFFF;" d="M387.5,576.7c0,2.5-2,4.5-4.5,4.5c-2.5,0-4.5-2-4.5-4.5s2-4.5,4.5-4.5
					C385.5,572.2,387.5,574.2,387.5,576.7"/>
				<path style="clip-path:url(#SVGID_10_);fill:#E7EFF0;" d="M387.5,577.7c0,2-1.6,3.6-3.6,3.6c-2,0-3.6-1.6-3.6-3.6
					c0-2,1.6-3.6,3.6-3.6C385.9,574.1,387.5,575.7,387.5,577.7"/>
				
					<path style="clip-path:url(#SVGID_10_);fill:none;stroke:#474748;stroke-width:3;stroke-linecap:round;stroke-linejoin:round;stroke-miterlimit:10;" d="
					M386.6,574.1c0.5,0.7,0.9,1.7,0.9,2.7c0,2.5-2,4.5-4.5,4.5c-2.5,0-4.5-2-4.5-4.5c0-2,1.3-3.7,3-4.3"/>
				<path style="clip-path:url(#SVGID_10_);fill:#FFFFFF;" d="M713.4,732.5c-2,0-3.8-1.4-4.3-3.6l-24.1-104.7h-8.7
					c-2.4,0-4.4-2.1-4.4-4.7c0-2.6,2-4.7,4.4-4.7h12.1c2,0,3.8,1.5,4.3,3.6l23.8,103.8l70.8-17.5c2.4-0.6,4.7,1,5.3,3.5
					c0.5,2.5-0.9,5-3.3,5.6l-75,18.5C714.1,732.5,713.8,732.5,713.4,732.5"/>
				<path style="clip-path:url(#SVGID_10_);fill:#E7EFF0;" d="M713.4,732.5c-2,0-3.8-1.4-4.3-3.6l-24.1-104.7h-8.7
					c-2.4,0-3.3-0.9-3.3-1.8c0-2,1.4-2.9,3.8-2.9h11.7c2,0,3.8,1.5,4.3,3.6l23.8,102.6l70.8-17.5c2.4-0.6,4.7-0.2,5.3,2.3
					c0.5,2.5-0.9,2.7-3.3,3.3l-75,18.5C714.1,732.5,713.8,732.5,713.4,732.5"/>
				
					<path style="clip-path:url(#SVGID_10_);fill:none;stroke:#474748;stroke-width:3;stroke-linecap:round;stroke-linejoin:round;stroke-miterlimit:10;" d="
					M679.4,624.2h-3c-2.4,0-4.4-2.1-4.4-4.7c0-2.6,2-4.7,4.4-4.7h12.1c2,0,3.8,1.5,4.3,3.6l6.8,29.7"/>
				
					<path style="clip-path:url(#SVGID_10_);fill:none;stroke:#474748;stroke-width:3;stroke-linecap:round;stroke-linejoin:round;stroke-miterlimit:10;" d="
					M711.2,698.3l5.5,23.9l70.8-17.5c2.4-0.6,4.7,1,5.3,3.5c0.5,2.5-0.9,5-3.3,5.6l-75,18.5c-0.3,0.1-0.7,0.1-1,0.1
					c-2,0-3.8-1.4-4.3-3.6l-24.1-104.7"/>
				
					<line style="clip-path:url(#SVGID_10_);fill:none;stroke:#474748;stroke-width:3;stroke-linecap:round;stroke-linejoin:round;stroke-miterlimit:10;" x1="701.9" y1="658" x2="707.5" y2="682.2"/>
				<path style="clip-path:url(#SVGID_10_);fill:#48BB8B;" d="M728.7,719c1.3,2.6,2,5.5,2,8.6c0,10.3-7.7,18.6-17.2,18.6
					c-9.5,0-17.2-8.3-17.2-18.6c0-10.3,7.7-18.6,17.2-18.6c3.8,0,7.4,1.4,10.2,3.6"/>
				
					<path style="clip-path:url(#SVGID_10_);fill:none;stroke:#474748;stroke-width:3;stroke-linecap:round;stroke-linejoin:round;stroke-miterlimit:10;" d="
					M728.7,719c1.3,2.6,2,5.5,2,8.6c0,10.3-7.7,18.6-17.2,18.6c-9.5,0-17.2-8.3-17.2-18.6c0-10.3,7.7-18.6,17.2-18.6
					c3.8,0,7.4,1.4,10.2,3.6"/>
				<path style="clip-path:url(#SVGID_10_);fill:#DEEBF8;" d="M723.1,727.6c0,5.7-4.3,10.3-9.6,10.3c-5.3,0-9.6-4.6-9.6-10.3
					c0-5.7,4.3-10.3,9.6-10.3C718.7,717.4,723.1,722,723.1,727.6"/>
				
					<path style="clip-path:url(#SVGID_10_);fill:none;stroke:#4172B8;stroke-width:3;stroke-linecap:round;stroke-linejoin:round;stroke-miterlimit:10;" d="
					M723.1,727.6c0,5.7-4.3,10.3-9.6,10.3c-5.3,0-9.6-4.6-9.6-10.3c0-5.7,4.3-10.3,9.6-10.3C718.7,717.4,723.1,722,723.1,727.6z"/>
				
					<path style="clip-path:url(#SVGID_10_);fill:none;stroke:#474748;stroke-width:3;stroke-linecap:round;stroke-linejoin:round;stroke-miterlimit:10;" d="
					M723.1,727.6c0,5.7-4.3,10.3-9.6,10.3c-5.3,0-9.6-4.6-9.6-10.3c0-5.7,4.3-10.3,9.6-10.3C718.7,717.4,723.1,722,723.1,727.6z"/>
				
					<line style="clip-path:url(#SVGID_10_);fill:none;stroke:#474748;stroke-width:3;stroke-linecap:round;stroke-linejoin:round;stroke-miterlimit:10;" x1="640.6" y1="644.1" x2="635.3" y2="644.1"/>
				
					<line style="clip-path:url(#SVGID_10_);fill:none;stroke:#474748;stroke-width:3;stroke-linecap:round;stroke-linejoin:round;stroke-miterlimit:10;" x1="676.8" y1="644.1" x2="649.9" y2="644.1"/>
				
					<line style="clip-path:url(#SVGID_10_);fill:none;stroke:#474748;stroke-width:3;stroke-linecap:round;stroke-linejoin:round;stroke-miterlimit:10;" x1="678.4" y1="660.2" x2="655.1" y2="660.2"/>
				
					<line style="clip-path:url(#SVGID_10_);fill:none;stroke:#474748;stroke-width:3;stroke-linecap:round;stroke-linejoin:round;stroke-miterlimit:10;" x1="663.5" y1="675.7" x2="649" y2="675.7"/>
				
					<line style="clip-path:url(#SVGID_10_);fill:none;stroke:#474748;stroke-width:3;stroke-linecap:round;stroke-linejoin:round;stroke-miterlimit:10;" x1="681.6" y1="675.7" x2="671.2" y2="675.7"/>
				<path style="clip-path:url(#SVGID_10_);fill:#FFFFFF;" d="M778.3,695.7L731.1,707c-2.4,0.6-4.8-1-5.3-3.6l-10.6-50.3
					c-0.5-2.6,1-5.1,3.4-5.7l47.1-11.3c2.4-0.6,4.8,1,5.3,3.6l10.6,50.3C782.2,692.6,780.7,695.1,778.3,695.7"/>
				<path style="clip-path:url(#SVGID_10_);fill:#F6BF47;" d="M775.8,696.3l-45,10.8c-2.2,0.5-4.5-1-5-3.4l-9.6-45.6
					c-0.5-2.4,0.9-4.8,3.2-5.3l45-10.8c2.2-0.5,4.5,1,5,3.4L779,691C779.5,693.4,778,695.7,775.8,696.3"/>
				
					<path style="clip-path:url(#SVGID_10_);fill:none;stroke:#474748;stroke-width:3;stroke-linecap:round;stroke-linejoin:round;stroke-miterlimit:10;" d="
					M778.3,695.7L731.1,707c-2.4,0.6-4.8-1-5.3-3.6l-10.6-50.3c-0.5-2.6,1-5.1,3.4-5.7l47.1-11.3c2.4-0.6,4.8,1,5.3,3.6l10.6,50.3
					C782.2,692.6,780.7,695.1,778.3,695.7z"/>
				<polyline style="clip-path:url(#SVGID_10_);fill:#FFFFFF;" points="752.8,646.7 755.3,658.9 737.2,663.2 733.1,643.9 
					751.2,639.5 				"/>
				<polyline style="clip-path:url(#SVGID_10_);fill:#E7EFF0;" points="752.8,646.7 755.3,658.9 737.2,663.2 733.1,643.9 
					751.2,639.5 				"/>
				
					<polyline style="clip-path:url(#SVGID_10_);fill:none;stroke:#474748;stroke-width:3;stroke-linecap:round;stroke-linejoin:round;stroke-miterlimit:10;" points="
					752.8,646.7 755.3,658.9 737.2,663.2 733.1,643.9 751.2,639.5 				"/>
			</g>
		</g>
	</g>
</g>
</svg>
