<?xml version="1.0" encoding="utf-8"?>
<!-- Generator: Adobe Illustrator 23.0.3, SVG Export Plug-In . SVG Version: 6.00 Build 0)  -->
<svg version="1.1" id="Layer_1" xmlns="http://www.w3.org/2000/svg" xmlns:xlink="http://www.w3.org/1999/xlink" x="0px" y="0px"
	 viewBox="0 0 1000 1000" style="enable-background:new 0 0 1000 1000;" xml:space="preserve">
<style type="text/css">
	.st0{fill:none;stroke:#F2F2F2;stroke-width:6;stroke-linecap:round;stroke-miterlimit:10;}
	.st1{fill:#FFFFFF;}
	.st2{fill:#0072C7;}
	.st3{fill:#B3B3B3;}
	.st4{fill:#E3FDFF;}
	.st5{fill:#CCCCCC;}
	.st6{fill:#E6E6E6;}
	.st7{fill:#40D6E2;}
	.st8{fill:#5CECFF;stroke:#30292C;stroke-width:3;stroke-linecap:round;stroke-linejoin:round;stroke-miterlimit:10;}
	.st9{fill:none;stroke:#30292C;stroke-width:3;stroke-linecap:round;stroke-miterlimit:10;}
	.st10{fill:none;stroke:#30292C;stroke-width:3;stroke-linecap:round;stroke-linejoin:round;stroke-miterlimit:10;}
	.st11{fill:#5CECFF;}
	.st12{fill:#99C7FF;}
	.st13{fill:#F2F2F2;}
</style>
<g id="XMLID_262_">
	<polyline id="XMLID_269_" class="st0" points="769,145.9 769,176.9 707.1,176.9 	"/>
	<polyline id="XMLID_268_" class="st0" points="830.9,176.9 769,176.9 769,145.9 	"/>
	<rect id="XMLID_267_" x="738.1" y="176.9" class="st0" width="61.9" height="30.9"/>
	<polyline id="XMLID_266_" class="st0" points="786.6,238.7 769,238.7 769,207.8 830.9,207.8 	"/>
	<polyline id="XMLID_265_" class="st0" points="707.1,207.8 769,207.8 769,238.7 718.8,238.7 	"/>
	<polyline id="XMLID_264_" class="st0" points="686.1,176.9 738.1,176.9 738.1,207.8 707.1,207.8 	"/>
	<polyline id="XMLID_263_" class="st0" points="844.6,207.8 799.9,207.8 799.9,176.9 821.4,176.9 	"/>
</g>
<g id="XMLID_1_">
	<polyline id="XMLID_8_" class="st0" points="194.9,303.6 194.9,334.6 133,334.6 	"/>
	<polyline id="XMLID_7_" class="st0" points="256.8,334.6 194.9,334.6 194.9,303.6 	"/>
	<rect id="XMLID_6_" x="164" y="334.6" class="st0" width="61.9" height="30.9"/>
	<polyline id="XMLID_5_" class="st0" points="212.5,396.4 194.9,396.4 194.9,365.5 256.8,365.5 	"/>
	<polyline id="XMLID_4_" class="st0" points="133,365.5 194.9,365.5 194.9,396.4 144.7,396.4 	"/>
	<polyline id="XMLID_3_" class="st0" points="112,334.6 164,334.6 164,365.5 133,365.5 	"/>
	<polyline id="XMLID_2_" class="st0" points="270.5,365.5 225.8,365.5 225.8,334.6 247.3,334.6 	"/>
</g>
<g id="XMLID_9_">
	<polyline id="XMLID_16_" class="st0" points="824.5,415.7 824.5,446.7 762.6,446.7 	"/>
	<polyline id="XMLID_15_" class="st0" points="886.4,446.7 824.5,446.7 824.5,415.7 	"/>
	<rect id="XMLID_14_" x="793.6" y="446.7" class="st0" width="61.9" height="30.9"/>
	<polyline id="XMLID_13_" class="st0" points="842.1,508.5 824.5,508.5 824.5,477.6 886.4,477.6 	"/>
	<polyline id="XMLID_12_" class="st0" points="762.6,477.6 824.5,477.6 824.5,508.5 774.3,508.5 	"/>
	<polyline id="XMLID_11_" class="st0" points="741.6,446.7 793.6,446.7 793.6,477.6 762.6,477.6 	"/>
	<polyline id="XMLID_10_" class="st0" points="900.1,477.6 855.4,477.6 855.4,446.7 876.9,446.7 	"/>
</g>
<g id="To_Do">
	<g>
		<path class="st1" d="M350.8,252.3h272.1c6.7,0,12.2,5.5,12.2,12.2v411.3c0,6.7-5.5,12.2-12.2,12.2H310.9
			c-6.7,0-12.2-5.5-12.2-12.2V264.5c0-6.7,5.5-12.2,12.2-12.2h17.9"/>
	</g>
	<g>
		<line class="st1" x1="328.8" y1="252.3" x2="333.8" y2="252.3"/>
	</g>
	<g>
		<path class="st1" d="M631.3,688H316.7c-2.1,0-3.8-1.7-3.8-3.8V274.5c0-2.1,1.7-3.8,3.8-3.8h314.5c2.1,0,3.8,1.7,3.8,3.8v409.7
			C635,686.3,633.3,688,631.3,688z"/>
	</g>
	<g>
		<line class="st2" x1="640.6" y1="402.8" x2="640.6" y2="402.8"/>
	</g>
	<g>
		<path class="st3" d="M298.7,543.4c-1.2,0-2.2-1-2.2-2.2V264.5c0-8,6.5-14.4,14.4-14.4h7.2c1.2,0,2.2,1,2.2,2.2
			c0,1.2-1,2.2-2.2,2.2h-7.2c-5.5,0-10,4.5-10,10v276.7C300.9,542.4,299.9,543.4,298.7,543.4z"/>
	</g>
	<g>
		<path class="st3" d="M622.8,690.2H310.9c-8,0-14.4-6.5-14.4-14.4v-70.2c0-1.2,1-2.2,2.2-2.2c1.2,0,2.2,1,2.2,2.2v70.2
			c0,5.5,4.5,10,10,10h311.9c5.5,0,10-4.5,10-10V264.5c0-5.5-4.5-10-10-10H358.1c-1.2,0-2.2-1-2.2-2.2c0-1.2,1-2.2,2.2-2.2h264.7
			c8,0,14.4,6.5,14.4,14.4v411.3C637.3,683.8,630.8,690.2,622.8,690.2z"/>
	</g>
	<g>
		<path class="st3" d="M339.8,254.5h-0.9c-1.2,0-2.2-1-2.2-2.2c0-1.2,1-2.2,2.2-2.2h0.9c1.2,0,2.2,1,2.2,2.2
			C342,253.5,341,254.5,339.8,254.5z"/>
	</g>
	<g>
		<path class="st1" d="M611.3,668.7H334.8c-1.6,0-2.8-1.3-2.8-2.8V302.8c0-1.6,1.3-2.8,2.8-2.8h276.5c1.6,0,2.8,1.3,2.8,2.8v363.1
			C614.1,667.5,612.8,668.7,611.3,668.7z"/>
	</g>
	<g>
		<g>
			<path class="st1" d="M564.4,257.6c0,5.6-2.3,10.7-5.9,14.4c-3.7,3.7-8.8,6-14.4,6H389.6c-11.2,0-20.3-9.1-20.3-20.3
				c0-2.9,0.6-5.6,1.7-8.1c1-2.4,2.5-4.5,4.3-6.3c3.7-3.7,8.8-5.9,14.4-5.9h67.7c-0.4,1.1-0.7,2.3-0.7,3.6c0,5.6,4.6,10.2,10.2,10.2
				s10.2-4.6,10.2-10.2c0-1.2-0.2-2.4-0.7-3.6h67.7c8.4,0,15.5,5,18.6,12.2C563.8,252,564.4,254.7,564.4,257.6z"/>
		</g>
	</g>
	<g>
		<g>
			<path class="st4" d="M545.4,247.6c7.8,0,14.5,3.7,17.4,9.1c1,1.9,1.6,3.9,1.6,6.1c0,4.2-2.1,8-5.6,10.7
				c-3.5,2.7-8.2,4.4-13.5,4.4H400.8c-10.5,0-19-6.8-19-15.2c0-2.2,0.6-4.2,1.6-6.1c0.9-1.8,2.3-3.3,4-4.7c3.4-2.7,8.2-4.4,13.5-4.4
				H545.4z"/>
		</g>
	</g>
	<g>
		<g>
			<path class="st3" d="M394.9,280.2h-5.2c-12.4,0-22.5-10.1-22.5-22.5c0-3.2,0.6-6.2,1.9-9c1.1-2.5,2.7-4.9,4.7-6.9
				c4.2-4.2,9.9-6.6,15.9-6.6h41.6c1.2,0,2.2,1,2.2,2.2c0,1.2-1,2.2-2.2,2.2h-41.6c-4.8,0-9.4,1.9-12.8,5.3
				c-1.6,1.6-2.9,3.5-3.8,5.6c-1,2.3-1.5,4.7-1.5,7.3c0,10,8.1,18.1,18.1,18.1h5.2c1.2,0,2.2,1,2.2,2.2
				C397.1,279.2,396.1,280.2,394.9,280.2z"/>
		</g>
		<g>
			<path class="st3" d="M492.8,280.2h-76.6c-1.2,0-2.2-1-2.2-2.2c0-1.2,1-2.2,2.2-2.2h76.6c1.2,0,2.2,1,2.2,2.2
				C495.1,279.2,494.1,280.2,492.8,280.2z"/>
		</g>
		<g>
			<path class="st3" d="M546.6,280c-1.1,0-2.1-0.8-2.2-1.9c-0.2-1.2,0.7-2.3,1.9-2.5c4-0.5,7.7-2.3,10.6-5.2c3.4-3.4,5.3-8,5.3-12.8
				c0-2.5-0.5-5-1.5-7.2c-2.9-6.6-9.4-10.9-16.6-10.9h-64.9c0,0.4,0.1,0.9,0.1,1.3c0,6.8-5.6,12.4-12.4,12.4
				c-6.8,0-12.4-5.6-12.4-12.4c0-0.5,0-0.9,0.1-1.3h-2.5c-1.2,0-2.2-1-2.2-2.2c0-1.2,1-2.2,2.2-2.2h5.3c0.7,0,1.4,0.4,1.8,1
				c0.4,0.6,0.5,1.4,0.2,2c-0.3,0.8-0.5,1.8-0.5,2.7c0,4.4,3.6,8,8,8c4.4,0,8-3.6,8-8c0-1-0.2-1.9-0.5-2.7c-0.3-0.7-0.2-1.4,0.2-2
				c0.4-0.6,1.1-1,1.8-1h67.7c9,0,17.1,5.3,20.7,13.5c1.3,2.8,1.9,5.8,1.9,9c0,6-2.3,11.7-6.6,15.9c-3.5,3.5-8.2,5.8-13.2,6.4
				C546.8,280,546.7,280,546.6,280z"/>
		</g>
		<g>
			<path class="st1" d="M466.4,224.2c0.2,0,0.4,0,0.7,0c8.4,0,15.1,6.8,15.1,15.1c0,8.4-6.8,15.1-15.1,15.1
				c-8.4,0-15.1-6.8-15.1-15.1c0-2.9,0.8-5.6,2.2-7.9"/>
			<path class="st3" d="M467.1,256.7c-9.6,0-17.3-7.8-17.3-17.3c0-3.2,0.9-6.4,2.6-9.1c0.6-1,2-1.4,3-0.7c1,0.6,1.4,2,0.7,3
				c-1.3,2-1.9,4.4-1.9,6.8c0,7.1,5.8,12.9,12.9,12.9c7.1,0,12.9-5.8,12.9-12.9c0-7.1-5.8-12.9-12.9-12.9c-0.2,0-0.4,0-0.6,0
				c-1.2,0-2.3-0.9-2.3-2.1c-0.1-1.2,0.9-2.3,2.1-2.3c0.3,0,0.5,0,0.8,0c9.6,0,17.3,7.8,17.3,17.3
				C484.4,248.9,476.6,256.7,467.1,256.7z"/>
		</g>
	</g>
	<g>
		<g>
			<g>
				<path class="st5" d="M574.2,364.8H551c-1.2,0-2.2-1-2.2-2.2s1-2.2,2.2-2.2h23.2c1.2,0,2.2,1,2.2,2.2S575.4,364.8,574.2,364.8z"
					/>
			</g>
			<g>
				<path class="st6" d="M534.3,364.8h-51.7c-1.2,0-2.2-1-2.2-2.2s1-2.2,2.2-2.2h51.7c1.2,0,2.2,1,2.2,2.2S535.5,364.8,534.3,364.8z
					"/>
			</g>
			<g>
				<path class="st5" d="M464.6,364.8h-16.9c-1.2,0-2.2-1-2.2-2.2s1-2.2,2.2-2.2h16.9c1.2,0,2.2,1,2.2,2.2S465.8,364.8,464.6,364.8z
					"/>
			</g>
			<g>
				<path class="st6" d="M508.4,393.8h-9.4c-1.2,0-2.2-1-2.2-2.2c0-1.2,1-2.2,2.2-2.2h9.4c1.2,0,2.2,1,2.2,2.2
					C510.6,392.8,509.7,393.8,508.4,393.8z"/>
			</g>
			<g>
				<path class="st5" d="M478.7,393.8h-31c-1.2,0-2.2-1-2.2-2.2c0-1.2,1-2.2,2.2-2.2h31c1.2,0,2.2,1,2.2,2.2
					C480.9,392.8,479.9,393.8,478.7,393.8z"/>
			</g>
		</g>
		<g>
			<g>
				<g>
					<circle class="st4" cx="397.5" cy="381" r="25.5"/>
				</g>
			</g>
			<g>
				<g>
					<path class="st7" d="M375.4,350.7c-0.7,0-1.5-0.4-1.9-1.1c-0.6-1-0.3-2.4,0.7-3c0,0,0.1,0,0.1,0c1-0.6,2.4-0.3,3.1,0.7
						c0.6,1,0.3,2.4-0.7,3l-0.1,0.1C376.2,350.6,375.8,350.7,375.4,350.7z"/>
				</g>
				<g>
					<path class="st7" d="M391.7,408.7c-18.5,0-33.5-15-33.5-33.5c0-4,0.7-7.9,2.1-11.6c0.4-1.1,1.7-1.7,2.8-1.3
						c1.1,0.4,1.7,1.7,1.3,2.8c-1.2,3.2-1.8,6.6-1.8,10.1c0,16,13,29.1,29.1,29.1s29.1-13,29.1-29.1s-13-29.1-29.1-29.1
						c-1.4,0-2.9,0.1-4.3,0.3c-1.2,0.2-2.3-0.7-2.5-1.9c-0.2-1.2,0.7-2.3,1.9-2.5c1.6-0.2,3.3-0.4,5-0.4c18.5,0,33.5,15,33.5,33.5
						S410.1,408.7,391.7,408.7z"/>
				</g>
			</g>
			<g>
				<path class="st7" d="M386,386.2c-0.6,0-1.1-0.2-1.6-0.6l-9.5-9.5c-0.9-0.9-0.9-2.3,0-3.1c0.9-0.9,2.3-0.9,3.1,0l7.9,7.9
					l17.4-17.4c0.9-0.9,2.3-0.9,3.1,0c0.9,0.9,0.9,2.3,0,3.1l-18.9,18.9C387.1,386,386.6,386.2,386,386.2z"/>
			</g>
		</g>
	</g>
	<g>
		<g>
			<g>
				<path class="st6" d="M574.2,469.3H551c-1.2,0-2.2-1-2.2-2.2s1-2.2,2.2-2.2h23.2c1.2,0,2.2,1,2.2,2.2S575.4,469.3,574.2,469.3z"
					/>
			</g>
			<g>
				<path class="st5" d="M534.3,469.3h-51.7c-1.2,0-2.2-1-2.2-2.2s1-2.2,2.2-2.2h51.7c1.2,0,2.2,1,2.2,2.2S535.5,469.3,534.3,469.3z
					"/>
			</g>
			<g>
				<path class="st6" d="M464.6,469.3h-16.9c-1.2,0-2.2-1-2.2-2.2s1-2.2,2.2-2.2h16.9c1.2,0,2.2,1,2.2,2.2S465.8,469.3,464.6,469.3z
					"/>
			</g>
			<g>
				<path class="st6" d="M508.4,498.4h-9.4c-1.2,0-2.2-1-2.2-2.2c0-1.2,1-2.2,2.2-2.2h9.4c1.2,0,2.2,1,2.2,2.2
					C510.6,497.4,509.7,498.4,508.4,498.4z"/>
			</g>
			<g>
				<path class="st5" d="M478.7,498.4h-31c-1.2,0-2.2-1-2.2-2.2c0-1.2,1-2.2,2.2-2.2h31c1.2,0,2.2,1,2.2,2.2
					C480.9,497.4,479.9,498.4,478.7,498.4z"/>
			</g>
		</g>
		<g>
			<g>
				<g>
					<circle class="st4" cx="397.5" cy="485.6" r="25.5"/>
				</g>
			</g>
			<g>
				<g>
					<path class="st7" d="M375.5,455.3c-0.7,0-1.5-0.4-1.9-1c-0.6-1-0.4-2.4,0.7-3l0.2-0.1c1-0.6,2.4-0.3,3,0.8c0.6,1,0.3,2.4-0.8,3
						C376.3,455.2,375.9,455.3,375.5,455.3z"/>
				</g>
				<g>
					<path class="st7" d="M391.7,513.3c-18.5,0-33.5-15-33.5-33.5c0-4,0.7-7.9,2.1-11.6c0.4-1.1,1.7-1.7,2.8-1.3
						c1.1,0.4,1.7,1.7,1.3,2.8c-1.2,3.2-1.8,6.6-1.8,10.1c0,16,13,29.1,29.1,29.1s29.1-13,29.1-29.1s-13-29.1-29.1-29.1
						c-1.4,0-2.9,0.1-4.3,0.3c-1.2,0.2-2.3-0.7-2.5-1.9c-0.2-1.2,0.7-2.3,1.9-2.5c1.6-0.2,3.3-0.4,5-0.4c18.5,0,33.5,15,33.5,33.5
						S410.1,513.3,391.7,513.3z"/>
				</g>
			</g>
			<g>
				<path class="st7" d="M386,490.8c-0.6,0-1.1-0.2-1.6-0.6l-9.5-9.5c-0.9-0.9-0.9-2.3,0-3.1c0.9-0.9,2.3-0.9,3.1,0l7.9,7.9
					l17.4-17.4c0.9-0.9,2.3-0.9,3.1,0c0.9,0.9,0.9,2.3,0,3.1l-18.9,18.9C387.1,490.6,386.6,490.8,386,490.8z"/>
			</g>
		</g>
	</g>
	<g>
		<g>
			<g>
				<path class="st6" d="M574.2,573.9H551c-1.2,0-2.2-1-2.2-2.2c0-1.2,1-2.2,2.2-2.2h23.2c1.2,0,2.2,1,2.2,2.2
					C576.4,573,575.4,573.9,574.2,573.9z"/>
			</g>
			<g>
				<path class="st5" d="M534.3,573.9h-51.7c-1.2,0-2.2-1-2.2-2.2c0-1.2,1-2.2,2.2-2.2h51.7c1.2,0,2.2,1,2.2,2.2
					C536.5,573,535.5,573.9,534.3,573.9z"/>
			</g>
			<g>
				<path class="st6" d="M464.6,573.9h-16.9c-1.2,0-2.2-1-2.2-2.2c0-1.2,1-2.2,2.2-2.2h16.9c1.2,0,2.2,1,2.2,2.2
					C466.8,573,465.8,573.9,464.6,573.9z"/>
			</g>
			<g>
				<path class="st5" d="M508.4,603h-9.4c-1.2,0-2.2-1-2.2-2.2c0-1.2,1-2.2,2.2-2.2h9.4c1.2,0,2.2,1,2.2,2.2
					C510.6,602,509.7,603,508.4,603z"/>
			</g>
			<g>
				<path class="st5" d="M478.7,603h-31c-1.2,0-2.2-1-2.2-2.2c0-1.2,1-2.2,2.2-2.2h31c1.2,0,2.2,1,2.2,2.2
					C480.9,602,479.9,603,478.7,603z"/>
			</g>
		</g>
		<g>
			<g>
				<g>
					<circle class="st4" cx="397.5" cy="590.2" r="25.5"/>
				</g>
			</g>
			<g>
				<g>
					<path class="st7" d="M375.4,559.9c-0.7,0-1.5-0.4-1.9-1.1c-0.6-1-0.3-2.4,0.7-3c0,0,0.1,0,0.1,0c1-0.6,2.4-0.3,3.1,0.7
						c0.6,1,0.3,2.4-0.7,3l-0.1,0.1C376.2,559.8,375.8,559.9,375.4,559.9z"/>
				</g>
				<g>
					<path class="st7" d="M391.7,617.9c-18.5,0-33.5-15-33.5-33.5c0-4,0.7-7.9,2.1-11.6c0.4-1.1,1.7-1.7,2.8-1.3
						c1.1,0.4,1.7,1.7,1.3,2.8c-1.2,3.2-1.8,6.6-1.8,10.1c0,16,13,29.1,29.1,29.1s29.1-13,29.1-29.1c0-16-13-29.1-29.1-29.1
						c-1.4,0-2.9,0.1-4.3,0.3c-1.2,0.2-2.3-0.7-2.5-1.9c-0.2-1.2,0.7-2.3,1.9-2.5c1.6-0.2,3.3-0.4,5-0.4c18.5,0,33.5,15,33.5,33.5
						C425.1,602.9,410.1,617.9,391.7,617.9z"/>
				</g>
			</g>
			<g>
				<path class="st7" d="M386,595.4L386,595.4c-0.6,0-1.1-0.2-1.6-0.6l-9.5-9.5c-0.9-0.9-0.9-2.3,0-3.1c0.9-0.9,2.3-0.9,3.1,0
					l7.9,7.9l17.4-17.4c0.9-0.9,2.3-0.9,3.1,0c0.9,0.9,0.9,2.3,0,3.1l-18.9,18.9C387.2,595.1,386.6,595.4,386,595.4z"/>
			</g>
		</g>
	</g>
</g>
<g id="File_2">
	<path class="st8" d="M725.4,476.8h-52.1v-19.8h68.4c0.1,0,0.3,0,0.4,0c10.7,0.2,19.3,9,19.3,19.7h-22.6"/>
	<path class="st1" d="M728,461.9v128.2c0,10.9-8.8,19.8-19.8,19.8h-95.8V472c0.2-4,1.8-7.7,4.4-10.3c2.8-2.9,6.8-4.6,11.2-4.6h96.5
		C726.6,457.7,728,459.6,728,461.9z"/>
	<path class="st1" d="M743.4,457.1c-4,0.2-7.8,1.9-10.4,4.6c-0.3,0.3-0.5,0.6-0.8,0.9c-2.4,2.8-4.1,6.4-4.1,10.3h0v117.3
		c0,10.9-8.8,19.8-19.8,19.8h-95.8V472c0.2-4,1.8-7.7,4.4-10.3c2.9-2.9,6.8-4.6,11.2-4.6h96.5c0,0,0,0,0,0H743
		C743.1,457,743.3,457,743.4,457.1z"/>
	<path class="st1" d="M732.2,462.5c-2.4,2.8-4.1,6.4-4.1,10.3h0v1.3c-0.3,1.1-0.4,2.2-0.4,3.3h0v111.2c0,10.4-8.4,18.7-18.7,18.7
		H618V476.7c0.4-8.6,7.3-14.2,14.8-14.2h91.5c0,0,0,0,0,0H732.2z"/>
	<path class="st9" d="M655.8,457h67.4c0,0,0,0,0,0h18.4c0.1,0,0.3,0,0.4,0c-4,0.2-7.8,1.9-10.4,4.6c-2.9,2.9-4.9,6.8-4.9,11.2h0
		v94.9"/>
	<line class="st10" x1="642.2" y1="457" x2="642.6" y2="457"/>
	<path class="st9" d="M726.7,584v6.1c0,10.9-8.8,19.8-19.8,19.8h-95.8V472c0.2-4,1.8-7.7,4.4-10.3c2.9-2.9,6.8-4.6,11.2-4.6h6.9"/>
	<path class="st9" d="M611.1,595.3v14.5h95.8c10.9,0,19.8-8.8,19.8-19.8v-2.5"/>
	<path class="st1" d="M666.3,594.3h25.3c0,4.3,1.7,8.2,4.6,11c2.8,2.8,6.7,4.6,11,4.6H593c-4.3,0-8.2-1.7-11-4.6
		c-2.8-2.8-4.5-6.7-4.5-11h75.1C652.5,594.3,666.5,594.5,666.3,594.3z"/>
	<path class="st11" d="M666.3,594.3h25.3c0,4.3,1.7,8.2,4.6,11c2.8,2.8,6.7,4.6,11,4.6H593c-4.3,0-8.2-1.7-11-4.6
		c-2.8-2.8-4.5-6.7-4.5-11h75.1C652.5,594.3,666.5,594.5,666.3,594.3z"/>
	<path class="st9" d="M637.2,594.3h15.4c0,0,13.9,0.2,13.8,0h25.3c0,4.3,1.7,8.2,4.6,11c2.8,2.8,6.7,4.6,11,4.6H593
		c-4.3,0-8.2-1.7-11-4.6c-2.8-2.8-4.5-6.7-4.5-11h33.6"/>
	<line class="st9" x1="623.7" y1="594.3" x2="625.3" y2="594.3"/>
	<g>
		<line class="st9" x1="680.2" y1="482" x2="707.7" y2="482"/>
		<line class="st9" x1="631.4" y1="482" x2="667.3" y2="482"/>
		<line class="st9" x1="654.6" y1="499.9" x2="690.3" y2="499.9"/>
		<line class="st9" x1="631.4" y1="499.9" x2="643.1" y2="499.9"/>
		<line class="st9" x1="685.8" y1="517.8" x2="707.7" y2="517.8"/>
		<line class="st9" x1="631.4" y1="517.8" x2="675.3" y2="517.8"/>
		<line class="st9" x1="666.2" y1="535.7" x2="690.3" y2="535.7"/>
		<line class="st9" x1="631.4" y1="535.7" x2="655.7" y2="535.7"/>
		<line class="st9" x1="690.9" y1="553.6" x2="707.7" y2="553.6"/>
		<line class="st9" x1="651.7" y1="553.6" x2="680" y2="553.6"/>
		<line class="st9" x1="631.4" y1="553.6" x2="641.2" y2="553.6"/>
		<line class="st9" x1="673.6" y1="571.6" x2="690.3" y2="571.6"/>
		<line class="st9" x1="631.4" y1="571.6" x2="662.5" y2="571.6"/>
	</g>
</g>
<g>
	<path class="st1" d="M293,773.7l-4.4-10.6c-1.4-3.2-5.1-4.8-8.3-3.4l-12.5,5.2c-4,1.7-8-2.2-6.4-6.2l20.9-54.2l40.4,15.6
		l-20.7,53.5C300.5,777.7,294.7,777.8,293,773.7z"/>
	<path class="st1" d="M334.3,788.5l4.8-10.7c1.4-3.1,5-4.6,8.2-3.3l12.3,5c3.9,1.6,7.9-2.3,6.4-6.3l-32.2-83.3l-40.4,15.6l32,82.9
		C326.9,792.3,332.6,792.5,334.3,788.5z"/>
	<path class="st12" d="M293,773.7l-4.4-10.6c-1.4-3.2-5.1-4.8-8.3-3.4l-12.5,5.2c-4,1.7-8-2.2-6.4-6.2l20.9-54.2l40.4,15.6
		l-20.7,53.5C300.5,777.7,294.7,777.8,293,773.7z"/>
	<path class="st11" d="M334.3,788.5l4.8-10.7c1.4-3.1,5-4.6,8.2-3.3l12.3,5c3.9,1.6,7.9-2.3,6.4-6.3l-32.2-83.3l-40.4,15.6l32,82.9
		C326.9,792.3,332.6,792.5,334.3,788.5z"/>
	<path class="st11" d="M273,728.5l9.3-24.1l40.4,15.6l-20.7,53.5c-1.6,4.1-7.3,4.2-9,0.1l-4.4-10.6c-1.4-3.2-5.1-4.8-8.3-3.4
		l-12.5,5.2c-4,1.7-8-2.2-6.4-6.2l2.8-7.2"/>
	<line class="st10" x1="267.9" y1="741.7" x2="269.3" y2="738.1"/>
	<path class="st10" d="M314.7,760.6l10.7,27.7c1.6,4,7.2,4.2,9,0.2l4.8-10.7c1.4-3.1,5-4.6,8.2-3.3l12.3,5c3.9,1.6,7.9-2.3,6.4-6.3
		l-32.2-83.3l-40.4,15.6l3.4,8.9"/>
	<path class="st1" d="M358.2,694.7c-0.5,2.3-1.8,4.2-3.9,5.9c-1.4,1.1-2.7,2.2-4.1,3.3c-2.4,1.9-4,4.3-5,7.2
		c-0.6,1.6-1.2,3.2-1.9,4.8c-1.6,4.1-4.7,6.2-9.1,6.3c-1.7,0.1-3.4,0.2-5.1,0.3c-2.8,0.1-5.3,0.9-7.6,2.4c-2.1,1.4-4.2,2.7-6.4,3.9
		c-0.7,0.4-1.3,0.7-2,0.8c-2.2,0.6-4.3,0.3-6.5-0.8c-1.6-0.9-3.2-1.8-4.6-2.9c-1.9-1.4-3.9-2.4-6-2.9c-1.7-0.4-3.4-0.6-5.2-0.7h-0.2
		c-1.7,0-3.3-0.2-5-0.4c-3.1-0.4-5.4-2.1-6.7-5c-0.8-1.6-1.5-3.3-2-5.1c-1.2-3.8-3.5-6.8-6.7-9.2c-1.5-1.1-2.9-2.3-4.2-3.5
		c-2.5-2.4-3.2-5.3-2.4-8.6c0.3-1.5,0.7-3.1,1.2-4.5c1.3-3.8,1.3-7.5,0.1-11.3c-0.4-1.4-0.7-2.8-1.1-4.2c-1.1-4.3,0.2-7.8,3.6-10.5
		c1-0.8,2-1.7,3-2.4c3.2-2.2,5.3-5.2,6.5-8.9c0.6-1.8,1.4-3.6,2.2-5.3c1.5-3.2,4.3-4.7,7.8-5c2-0.2,4.1-0.3,6.1-0.3
		c3.5-0.1,6.4-1.6,9.2-3.6c1.1-0.7,2.2-1.5,3.3-2.1c3.7-2.4,7.4-2.4,11.2,0c1.5,1,3,2,4.6,3c2.7,1.8,5.6,2.6,8.8,2.7
		c2.3,0,4.6,0.3,6.8,0.6c2.8,0.4,4.8,2.1,6.1,4.6c0.6,1.2,1.2,2.3,1.5,3.6c1.3,5.2,4.4,8.9,8.7,12c1.3,0.9,2.5,2.1,3.5,3.3
		c1.5,1.6,2,3.3,1.9,6.5c-0.1,0.5-0.3,1.2-0.4,1.9c-0.2,1.1-0.6,2.4-1,3.7c-1,3-1.2,6-0.7,9.1c0.2,0.9,0.4,1.8,0.7,2.7
		c0.4,1.3,0.7,2.7,1,4.1C358.4,691.8,358.4,693.3,358.2,694.7z"/>
	<path class="st13" d="M358.2,694.7c-0.5,2.3-1.8,4.2-3.9,5.9c-1.4,1.1-2.7,2.2-4.1,3.3c-2.4,1.9-4,4.3-5,7.2
		c-0.6,1.6-1.2,3.2-1.9,4.8c-1.6,4.1-4.7,6.2-9.1,6.3c-1.7,0.1-3.4,0.2-5.1,0.3c-2.8,0.1-5.3,0.9-7.6,2.4c-2.1,1.4-4.2,2.7-6.4,3.9
		c-0.7,0.4-1.3,0.7-2,0.8c-0.6-0.2-1.1-0.4-1.7-0.7c-1.5-0.8-2.9-1.6-4.2-2.6c-3.1-2.3-6.5-3.3-10.3-3.3c-0.3,0-0.6,0-0.9,0
		c-1.2,0-2.4-0.2-3.6-0.3c-0.5-0.1-1.1-0.2-1.5-0.3c-2-0.7-3.6-2.1-4.6-4.2c-0.7-1.5-1.4-3-1.8-4.6c-1.1-3.5-3.2-6.1-6.1-8.3
		c-1.3-1-2.6-2-3.8-3.2c-2.2-2.1-2.9-4.8-2.2-7.8c0.3-1.4,0.6-2.8,1.1-4.1c1.2-3.4,1.2-6.8,0.1-10.3c-0.4-1.3-0.7-2.6-1-3.8
		c-1-3.9,0.1-7.1,3.3-9.5c0.9-0.7,1.8-1.5,2.8-2.2c2.9-2,4.8-4.7,5.9-8.1c0.5-1.6,1.2-3.3,2-4.8c1.4-2.9,3.9-4.2,7-4.5
		c1.8-0.2,3.7-0.2,5.5-0.3c3.2-0.1,5.8-1.5,8.3-3.2c1-0.7,2-1.3,3-2c3.4-2.1,6.7-2.1,10.1,0c1.4,0.9,2.8,1.8,4.1,2.7
		c2.4,1.6,5.1,2.4,8,2.5c2.1,0,4.1,0.2,6.2,0.6c2.5,0.4,4.4,1.9,5.5,4.2c0.5,1.1,1.1,2.1,1.4,3.2c1.2,4.7,4,8.1,7.9,10.9
		c1.2,0.8,2.2,1.9,3.2,3c0.6,0.7,1,1.4,1.3,2.2c-0.2,1.1-0.6,2.4-1,3.7c-1,3-1.2,6-0.7,9.1c-0.2,2.3,0.1,4.5,0.8,6.8
		c0.4,1.2,0.6,2.5,1,3.7C358.1,694.1,358.1,694.4,358.2,694.7z"/>
	<path class="st10" d="M279.2,642.8c1.4-2.4,3.5-3.7,6.2-4.2"/>
	<path class="st10" d="M343.8,714c-1.4,5.4-4.7,7.9-9.7,8.1c-1.7,0.1-3.4,0.2-5.1,0.3c-2.8,0.1-5.3,0.9-7.6,2.4
		c-2.1,1.4-4.2,2.7-6.4,3.9c-2.8,1.6-5.7,1.5-8.5,0c-1.6-0.9-3.2-1.8-4.6-2.9c-3.4-2.6-7.2-3.6-11.4-3.6c-1.7,0-3.3-0.2-5-0.4
		c-3.1-0.4-5.4-2.1-6.7-5c-0.8-1.6-1.5-3.3-2-5.1c-1.2-3.8-3.5-6.8-6.7-9.1c-1.5-1.1-2.9-2.3-4.2-3.5c-2.5-2.4-3.2-5.3-2.4-8.6
		c0.3-1.5,0.7-3.1,1.2-4.5c1.3-3.8,1.3-7.5,0.1-11.3c-0.4-1.4-0.8-2.8-1.1-4.2c-1.1-4.3,0.2-7.8,3.6-10.5c1-0.8,2-1.7,3-2.4
		c2.1-1.4,3.7-3.2,4.9-5.3"/>
	<path class="st10" d="M296.7,637.4c1.9-0.7,3.6-1.7,5.3-2.8c1.1-0.7,2.2-1.4,3.3-2.1c3.7-2.4,7.4-2.4,11.1,0c1.5,1,3,2,4.6,3
		c2.7,1.8,5.6,2.6,8.8,2.7c2.3,0,4.6,0.3,6.8,0.6c2.8,0.4,4.8,2.1,6.1,4.7c0.6,1.2,1.2,2.3,1.5,3.6c1.3,5.2,4.4,9,8.7,12
		c1.3,0.9,2.5,2.1,3.5,3.3c1.5,1.6,2,3.3,1.9,6.5c-0.3,1.2-0.7,3.5-1.4,5.6c-1.3,4-1.3,7.8,0,11.8c0.4,1.3,0.7,2.7,1,4.1
		c1.1,4.3-0.3,7.7-3.7,10.3c-1.7,1.4-3.4,2.8-5.2,4.1"/>
	<circle class="st1" cx="310.8" cy="680.3" r="24.4"/>
	<path class="st10" d="M289.2,668.8c0.2-0.3,0.4-0.7,0.6-1"/>
	<path class="st10" d="M333.2,670.6c1.3,3,2,6.2,2,9.7c0,13.5-10.9,24.4-24.4,24.4c-13.1,0-23.7-10.2-24.4-23.1"/>
	<path class="st10" d="M298.1,659.4c3.7-2.2,8-3.5,12.7-3.5c4.6,0,9,1.3,12.7,3.5"/>
</g>
</svg>
