<svg xmlns="http://www.w3.org/2000/svg" viewBox="0 0 902.9 614.27"><defs><style>.cls-1{isolation:isolate;}.cls-2{opacity:0.6;}.cls-3{opacity:0.15;}.cls-3,.cls-6{mix-blend-mode:multiply;}.cls-10,.cls-13,.cls-15,.cls-21,.cls-30,.cls-38,.cls-4,.cls-7,.cls-8{fill:none;stroke-linecap:round;stroke-linejoin:round;}.cls-4{stroke:#02283f;}.cls-10,.cls-13,.cls-15,.cls-4{stroke-width:4px;}.cls-5,.cls-6{fill:#ffbf73;}.cls-6{opacity:0.43;}.cls-7,.cls-8{stroke:#135677;}.cls-7{stroke-width:8px;}.cls-21,.cls-30,.cls-8{stroke-width:6px;}.cls-9{fill:#ffaa58;}.cls-10{stroke:#cce1ea;}.cls-11,.cls-33{fill:#403a46;}.cls-12{fill:#37333d;}.cls-12,.cls-33{opacity:0.75;}.cls-13,.cls-30{stroke:#36303e;}.cls-14{fill:#ededed;opacity:0.13;}.cls-15{stroke:#372f3c;}.cls-16{fill:#fcaf43;}.cls-17{fill:#fa932a;}.cls-18,.cls-22{fill:#3ba2dc;}.cls-19,.cls-28,.cls-37{fill:#36303e;}.cls-19{opacity:0.63;}.cls-20{fill:#385a78;}.cls-21{stroke:#385a78;}.cls-22{opacity:0.76;}.cls-23,.cls-26{fill:#fff;}.cls-23,.cls-24{opacity:0.35;}.cls-24,.cls-25,.cls-29,.cls-35{fill:#fde3be;}.cls-25{opacity:0.14;}.cls-26{opacity:0.08;}.cls-27{fill:#67646d;}.cls-28{opacity:0.74;}.cls-29{opacity:0.4;}.cls-31{fill:#9b989f;}.cls-32{fill:#8f8d91;}.cls-34{fill:#c71f2c;}.cls-35{opacity:0.27;}.cls-36{fill:#ad1e2f;}.cls-38{stroke:#fa932a;}.cls-38,.cls-44{stroke-width:5px;}.cls-39{fill:#ffb808;}.cls-40{fill:#47a942;}.cls-41{fill:#81c347;}.cls-42{fill:#5cb342;}.cls-43{fill:#cadb2a;}.cls-44,.cls-45,.cls-49{fill:#26863f;}.cls-44{stroke:#26863f;stroke-miterlimit:10;}.cls-46{fill:#f78f1e;}.cls-47{fill:#fdb813;}.cls-48{fill:#fef200;}.cls-49{opacity:0.28;}.cls-50{fill:#4f4f59;}</style></defs><title>shipping</title><g class="cls-1"><g id="Layer_1" data-name="Layer 1"><g class="cls-2"><g class="cls-3"><rect class="cls-4" x="44.64" y="237.99" width="152.53" height="371.6"/><line class="cls-4" x1="77.86" y1="607" x2="77.86" y2="238"/><line class="cls-4" x1="165.86" y1="607" x2="165.86" y2="238"/><line class="cls-4" x1="121.86" y1="607" x2="121.86" y2="238"/><line class="cls-4" x1="44.86" y1="277" x2="197.86" y2="277"/><line class="cls-4" x1="44.86" y1="296" x2="197.86" y2="296"/><line class="cls-4" x1="44.86" y1="343" x2="197.86" y2="343"/><line class="cls-4" x1="44.86" y1="364" x2="197.86" y2="364"/><line class="cls-4" x1="44.86" y1="413" x2="197.86" y2="413"/><line class="cls-4" x1="44.86" y1="434" x2="197.86" y2="434"/><line class="cls-4" x1="44.86" y1="485" x2="197.86" y2="485"/><line class="cls-4" x1="44.86" y1="505" x2="197.86" y2="505"/><line class="cls-4" x1="44.86" y1="548" x2="197.86" y2="548"/><line class="cls-4" x1="44.86" y1="567" x2="197.86" y2="567"/><rect class="cls-4" x="78.66" y="205.39" width="87.74" height="33.39"/><rect class="cls-4" x="99.07" y="172" width="46.92" height="33.39"/></g><g class="cls-3"><polyline class="cls-4" points="684.2 608.68 622.37 608.68 622.37 236.6 785.36 236.6 785.36 608.68 737.36 608.68"/><rect class="cls-4" x="643.42" y="270.73" width="19.7" height="34.6"/><rect class="cls-4" x="677.15" y="270.73" width="19.7" height="34.6"/><rect class="cls-4" x="710.88" y="270.73" width="19.7" height="34.6"/><rect class="cls-4" x="744.61" y="270.73" width="19.7" height="34.6"/><rect class="cls-4" x="643.42" y="322.73" width="19.7" height="34.6"/><rect class="cls-4" x="677.15" y="322.73" width="19.7" height="34.6"/><rect class="cls-4" x="710.88" y="322.73" width="19.7" height="34.6"/><rect class="cls-4" x="744.61" y="322.73" width="19.7" height="34.6"/><rect class="cls-4" x="643.42" y="421.7" width="19.7" height="29.64"/><rect class="cls-4" x="677.15" y="421.7" width="19.7" height="29.64"/><rect class="cls-4" x="710.88" y="421.7" width="19.7" height="29.64"/><rect class="cls-4" x="744.61" y="421.7" width="19.7" height="29.64"/><rect class="cls-4" x="643.42" y="527.13" width="19.7" height="29.64"/><rect class="cls-4" x="677.15" y="527.13" width="19.7" height="29.64"/><rect class="cls-4" x="710.88" y="527.13" width="19.7" height="29.64"/><rect class="cls-4" x="744.61" y="527.13" width="19.7" height="29.64"/><line class="cls-4" x1="642.86" y1="387" x2="763.86" y2="387"/><line class="cls-4" x1="642.86" y1="403" x2="763.86" y2="403"/><line class="cls-4" x1="642.86" y1="471" x2="763.86" y2="471"/><line class="cls-4" x1="642.86" y1="488" x2="763.86" y2="488"/><line class="cls-4" x1="642.86" y1="505" x2="763.86" y2="505"/><rect class="cls-4" x="653.27" y="201" width="110.6" height="35.6"/><rect class="cls-4" x="677.15" y="165.4" width="62.84" height="35.6"/><line class="cls-4" x1="706.86" y1="165" x2="706.86" y2="109"/></g><g class="cls-3"><rect class="cls-4" x="222.7" y="202.2" width="147.11" height="406.48"/><rect class="cls-4" x="242.27" y="232.43" width="17.27" height="288.61"/><rect class="cls-4" x="272.91" y="232.43" width="17.27" height="288.61"/><rect class="cls-4" x="303.56" y="232.43" width="17.27" height="288.61"/><rect class="cls-4" x="334.2" y="232.43" width="17.27" height="288.61"/><rect class="cls-4" x="303.56" y="161" width="47.92" height="41.2"/><line class="cls-4" x1="325.86" y1="161" x2="325.86" y2="125"/><rect class="cls-4" x="240.32" y="175.33" width="45.37" height="26.87"/></g></g><path class="cls-5" d="M145.71,297.47a23.51,23.51,0,0,0-29.69,0c-30,24.45-66.15,72.27-61.8,127.94a137,137,0,0,0,9.15,38.67,22.08,22.08,0,0,0,1.18,2.57c31.57,59.09,101.06,59.09,132.63,0a23.88,23.88,0,0,0,1.18-2.57,137.34,137.34,0,0,0,9.14-38.67C211.85,369.74,175.75,321.92,145.71,297.47Z"/><path class="cls-6" d="M170.57,475.74c-35,0-63.3-44.33-63.3-99,0-35.28,11.8-66.24,29.55-83.78a23.51,23.51,0,0,0-20.8,4.51c-30,24.45-66.15,72.27-61.8,127.94a137,137,0,0,0,9.15,38.67,22.08,22.08,0,0,0,1.18,2.57c31.57,59.09,101.06,59.09,132.63,0l0-.1C189.13,472.44,180.09,475.74,170.57,475.74Z"/><line class="cls-7" x1="130.86" y1="607" x2="130.86" y2="394"/><path class="cls-5" d="M33.86,609.93a56.93,56.93,0,0,1,113.86,0"/><path class="cls-6" d="M106.33,555.16a56.94,56.94,0,0,0-72.47,54.77H64.93A57,57,0,0,1,106.33,555.16Z"/><path class="cls-8" d="M151.71,364.48A15.54,15.54,0,0,0,148.58,379a15.48,15.48,0,0,0,15.54-19.86A15.51,15.51,0,0,0,151.71,364.48Z"/><path class="cls-8" d="M123.86,334.08A15.14,15.14,0,0,0,130.35,347a15.06,15.06,0,0,0-.33-24.53A15.1,15.1,0,0,0,123.86,334.08Z"/><path class="cls-8" d="M93.94,380.31a15.55,15.55,0,0,0,10.21,10.78,15.47,15.47,0,0,0-7.61-24A15.49,15.49,0,0,0,93.94,380.31Z"/><path class="cls-8" d="M28.08,498.25a15.56,15.56,0,0,0,4.18,14.26,15.48,15.48,0,0,0,4.18-24.87A15.48,15.48,0,0,0,28.08,498.25Z"/><path class="cls-8" d="M161.12,455.72a13.87,13.87,0,0,0-4.36,12.49,13.78,13.78,0,0,0,15.92-15.84A13.8,13.8,0,0,0,161.12,455.72Z"/><path class="cls-7" d="M100.17,447s9.17,24.67,30.69,26.33"/><path class="cls-7" d="M130.72,447.61s19.46-8.41,21.11-28.89"/><path class="cls-5" d="M79.66,606a36.9,36.9,0,0,0-69.37,0Z"/><path class="cls-9" d="M57.54,583.9A36.92,36.92,0,0,0,10.29,606H35.41A37,37,0,0,1,57.54,583.9Z"/><line class="cls-7" x1="203.36" y1="608.68" x2="4" y2="608.68"/><line class="cls-7" x1="684.2" y1="608.68" x2="218.86" y2="608.68"/><line class="cls-7" x1="718.61" y1="608.68" x2="704.86" y2="608.68"/><line class="cls-7" x1="867.72" y1="608.68" x2="735.61" y2="608.68"/><line class="cls-7" x1="90.86" y1="575" x2="90.86" y2="606"/><line class="cls-7" x1="110.53" y1="587.01" x2="90.86" y2="606"/><line class="cls-8" x1="822.86" y1="351" x2="822.86" y2="606"/><line class="cls-8" x1="777.61" y1="306.06" x2="822.86" y2="351.31"/><rect class="cls-5" x="758.19" y="330.46" width="49.53" height="19.58" transform="translate(469.92 -453.97) rotate(45)"/><rect class="cls-8" x="758.19" y="330.46" width="49.53" height="19.58" transform="translate(469.92 -453.97) rotate(45)"/><line class="cls-8" x1="835.55" y1="399" x2="835.55" y2="606"/><line class="cls-8" x1="880.81" y1="354.06" x2="835.55" y2="399.31"/><rect class="cls-5" x="850.7" y="378.46" width="49.53" height="19.58" transform="translate(1769.05 43.74) rotate(135)"/><rect class="cls-8" x="850.7" y="378.46" width="49.53" height="19.58" transform="translate(1769.05 43.74) rotate(135)"/><line class="cls-10" x1="435.86" y1="63.59" x2="435.86" y2="86.74"/><line class="cls-10" x1="415.02" y1="67.27" x2="422.94" y2="89.02"/><line class="cls-10" x1="396.7" y1="77.85" x2="411.58" y2="95.58"/><line class="cls-10" x1="383.1" y1="94.06" x2="403.14" y2="105.63"/><line class="cls-10" x1="375.86" y1="113.94" x2="398.65" y2="117.96"/><line class="cls-10" x1="375.86" y1="135.1" x2="398.65" y2="131.08"/><line class="cls-10" x1="383.1" y1="154.98" x2="403.14" y2="143.41"/><line class="cls-10" x1="396.7" y1="171.19" x2="411.58" y2="153.46"/><line class="cls-10" x1="415.02" y1="181.77" x2="422.94" y2="160.02"/><line class="cls-10" x1="435.86" y1="185.44" x2="435.86" y2="162.3"/><line class="cls-10" x1="456.7" y1="181.77" x2="448.78" y2="160.02"/><line class="cls-10" x1="475.02" y1="171.19" x2="460.15" y2="153.46"/><line class="cls-10" x1="488.63" y1="154.98" x2="468.58" y2="143.41"/><line class="cls-10" x1="495.86" y1="135.1" x2="473.07" y2="131.08"/><line class="cls-10" x1="495.86" y1="113.94" x2="473.07" y2="117.96"/><line class="cls-10" x1="488.63" y1="94.06" x2="468.58" y2="105.63"/><line class="cls-10" x1="475.02" y1="77.85" x2="460.15" y2="95.58"/><line class="cls-10" x1="456.7" y1="67.27" x2="448.78" y2="89.02"/><circle class="cls-5" cx="435.86" cy="124.52" r="20.84"/><path class="cls-10" d="M744.52,72.5c.06-.73.09-1.46.09-2.2a26.7,26.7,0,0,0-42-21.89,26.72,26.72,0,0,0-25.67-19.34,27.11,27.11,0,0,0-6.08.7,36.79,36.79,0,0,0-63.91,19.79c-.42,0-.84-.06-1.27-.06a20.8,20.8,0,0,0-20.8,20.8c0,.74,0,1.48.12,2.2Z"/><path class="cls-10" d="M127.08,83.11a24.94,24.94,0,0,0-20.47-10.66,24.67,24.67,0,0,0-5.68.66,34.42,34.42,0,0,0-59.8,18.51c-.4,0-.79-.06-1.19-.06A19.46,19.46,0,0,0,20.48,111a19.85,19.85,0,0,0,.11,2.06h101.9"/><line class="cls-10" x1="207.86" y1="121.33" x2="293.94" y2="121.33"/><line class="cls-10" x1="267.04" y1="143.41" x2="287.93" y2="143.41"/><line class="cls-10" x1="243.13" y1="131.08" x2="281.8" y2="131.08"/><line class="cls-10" x1="463.31" y1="2" x2="528.42" y2="2"/><line class="cls-10" x1="498.52" y1="17.5" x2="575.84" y2="17.5"/><path class="cls-10" d="M192.94,113.08a17,17,0,0,0,1.45-6.85,16.72,16.72,0,0,0-16.58-16.85,16.25,16.25,0,0,0-6.47,1.34,25.94,25.94,0,0,0-50.08,5.85,15.24,15.24,0,0,0-3.33-.37,14.92,14.92,0,0,0-15.13,14.71,14.12,14.12,0,0,0,.18,2.17Z"/><rect class="cls-11" x="488.84" y="566.65" width="57.7" height="22.47"/><rect class="cls-12" x="488.84" y="568.76" width="57.7" height="11.52"/><rect class="cls-13" x="488.84" y="566.65" width="57.7" height="22.47"/><path class="cls-11" d="M484.78,353.72H581a21.68,21.68,0,0,1,21.68,21.68v0a0,0,0,0,1,0,0H463.1a0,0,0,0,1,0,0v0A21.68,21.68,0,0,1,484.78,353.72Z"/><path class="cls-14" d="M478.14,364.55H587.61c5.1,0,6.64-7,1.95-9.07a21.73,21.73,0,0,0-8.59-1.76H484.78a21.73,21.73,0,0,0-8.59,1.76C471.5,357.51,473,364.55,478.14,364.55Z"/><path class="cls-13" d="M484.78,353.72H581a21.68,21.68,0,0,1,21.68,21.68v0a0,0,0,0,1,0,0H463.1a0,0,0,0,1,0,0v0A21.68,21.68,0,0,1,484.78,353.72Z"/><rect class="cls-11" x="424.15" y="533.12" width="25.29" height="22.69"/><rect class="cls-15" x="424.15" y="533.12" width="25.29" height="22.69"/><path class="cls-16" d="M582.21,571.17H462a20.24,20.24,0,0,1-20.17-22.73L463.1,375.39H602.65V551A20.33,20.33,0,0,1,582.21,571.17Z"/><path class="cls-17" d="M441.63,550.89h10.68a0,0,0,0,1,0,0v0a5.76,5.76,0,0,1-5.76,5.76h-4.92a0,0,0,0,1,0,0v-5.76A0,0,0,0,1,441.63,550.89Z"/><path class="cls-17" d="M594.45,394.77V548A16.49,16.49,0,0,1,578,564.39H460.05a5.88,5.88,0,0,0-5.88,6.13h0a47.42,47.42,0,0,0,7.79.65H582.21a20.5,20.5,0,0,0,20.44-20.44V386.57A8.2,8.2,0,0,0,594.45,394.77Z"/><path class="cls-17" d="M596.72,521h-4.26a4.49,4.49,0,0,0-4.49,4.49V554.2a5.84,5.84,0,0,0,5.84,5.84h2.91Z"/><path class="cls-18" d="M556,384.2H462L444.67,525.1H556a32.32,32.32,0,0,0,32.4-32.4V416.38A32.13,32.13,0,0,0,556,384.2Z"/><path class="cls-19" d="M569.16,474.62h20.53a0,0,0,0,1,0,0v0a51.47,51.47,0,0,1-51.47,51.47H517.69a0,0,0,0,1,0,0v0A51.47,51.47,0,0,1,569.16,474.62Z"/><path class="cls-19" d="M583.69,436.36h6a0,0,0,0,1,0,0v38.26a0,0,0,0,1,0,0H565.56a0,0,0,0,1,0,0V454.49A18.13,18.13,0,0,1,583.69,436.36Z"/><path class="cls-19" d="M589,412.4h.74a0,0,0,0,1,0,0v24a0,0,0,0,1,0,0h-7.36a0,0,0,0,1,0,0V419A6.62,6.62,0,0,1,589,412.4Z"/><polygon class="cls-20" points="449.93 482.34 444.67 525.1 489.81 525.1 449.93 482.34"/><line class="cls-21" x1="499" y1="476.96" x2="483.08" y2="494.15"/><line class="cls-21" x1="510.58" y1="489.03" x2="487.43" y2="464.89"/><polygon class="cls-20" points="474.1 510.26 466.41 501.81 479.6 488.63 487.67 496.69 474.1 510.26"/><path class="cls-22" d="M556,384.2H462L444.67,525.1H556a32.32,32.32,0,0,0,32.4-32.4V416.38A32.13,32.13,0,0,0,556,384.2Z"/><path class="cls-23" d="M534.45,384.2H487.36L588,497.72a33.13,33.13,0,0,0,.38-5V445.07Z"/><path class="cls-23" d="M472.88,384.2H462.23L578.87,515.72a32.55,32.55,0,0,0,5-6.38Z"/><path class="cls-24" d="M463.1,375.39,441.79,548.44c-.08.69-.12,1.38-.14,2.07h0a9,9,0,0,0,8.9-7.87L470.45,381H593.11a5.65,5.65,0,0,0,5.65-5.65Z"/><path class="cls-25" d="M456.45,553.77"/><path class="cls-26" d="M556,384.2H462l-4.63,37.57h99.77a32.19,32.19,0,0,1,31.26,23.64v-29A32.13,32.13,0,0,0,556,384.2Z"/><path class="cls-13" d="M556,384.2H462L444.67,525.1H556a32.32,32.32,0,0,0,32.4-32.4V416.38A32.13,32.13,0,0,0,556,384.2Z"/><path class="cls-13" d="M582.21,571.17H462a20.24,20.24,0,0,1-20.17-22.73L463.1,375.39H602.65V551A20.33,20.33,0,0,1,582.21,571.17Z"/><path class="cls-27" d="M416.67,404.13V555.19H265.6a11.52,11.52,0,0,0,11.52,11.52H428.18V404.13Z"/><rect class="cls-14" x="270.14" y="555.81" width="146.52" height="4.23" rx="2.11"/><rect class="cls-14" x="416.67" y="408.44" width="5.11" height="148.21" rx="2.55"/><path class="cls-15" d="M416.67,408.16v147H265.6a11.52,11.52,0,0,0,11.52,11.52H428.18V408.16a4,4,0,0,0-4-4H420.7A4,4,0,0,0,416.67,408.16Z"/><path class="cls-11" d="M473.61,385.58h-8.88a15.65,15.65,0,0,1,6.81-10.19h-8.48A15.59,15.59,0,0,0,456,388.46c0,.27,0,.53,0,.79s0,.26,0,.39v21a4.07,4.07,0,0,0,4.07,4.07h13.55a4.07,4.07,0,0,0,4.06-4.07v-21A4.06,4.06,0,0,0,473.61,385.58Z"/><path class="cls-28" d="M473.38,392.07V409a2.53,2.53,0,0,1-2.53,2.53H456.08a4.07,4.07,0,0,0,4,3.22h13.55a4.07,4.07,0,0,0,4.06-4.07v-21a4.14,4.14,0,0,0-.09-.87h-.9A3.3,3.3,0,0,0,473.38,392.07Z"/><path class="cls-14" d="M458.87,384.2h0a2.21,2.21,0,0,1,2.21,2.21v22.43a2.21,2.21,0,0,1-2.21,2.21h-2.21a0,0,0,0,1,0,0V386.41A2.21,2.21,0,0,1,458.87,384.2Z"/><path class="cls-13" d="M473.61,385.58h-8.88a15.65,15.65,0,0,1,6.81-10.19h-8.48A15.59,15.59,0,0,0,456,388.46c0,.27,0,.53,0,.79s0,.26,0,.39v21a4.07,4.07,0,0,0,4.07,4.07h13.55a4.07,4.07,0,0,0,4.06-4.07v-21A4.06,4.06,0,0,0,473.61,385.58Z"/><path class="cls-11" d="M513.38,582.57c0,1.65-2.12,3.09-2.4,4.65s1.22,3.69.68,5.2-3.05,2.15-3.86,3.54-.11,3.87-1.15,5.11-3.59,1-4.83,2-1.42,3.6-2.82,4.42-3.7-.32-5.23.24-2.55,2.89-4.16,3.17-3.36-1.56-5-1.56-3.43,1.84-5,1.56-2.66-2.62-4.16-3.17-3.84.56-5.23-.24-1.59-3.38-2.82-4.42-3.79-.77-4.83-2-.34-3.71-1.15-5.11-3.3-2-3.86-3.54,1-3.58.68-5.2-2.41-3-2.41-4.65,2.13-3.08,2.41-4.65-1.22-3.69-.68-5.19,3.05-2.16,3.86-3.55.11-3.87,1.15-5.1,3.59-1,4.83-2,1.42-3.6,2.82-4.41,3.7.31,5.23-.24,2.55-2.9,4.16-3.18,3.35,1.57,5,1.57,3.43-1.84,5-1.57,2.66,2.63,4.16,3.18,3.84-.57,5.23.24,1.58,3.37,2.82,4.41,3.79.78,4.83,2,.34,3.7,1.15,5.1,3.3,2,3.86,3.55-1,3.58-.68,5.19S513.38,580.93,513.38,582.57Z"/><rect class="cls-29" x="525.28" y="324.55" width="6.67" height="13.08" rx="3.33"/><path class="cls-30" d="M512.47,589.78c-.42,1.6-2.84,2.46-3.5,3.91s.26,3.87-.65,5.19-3.49,1.32-4.62,2.47-1.08,3.72-2.39,4.65-3.72,0-5.18.74-2.28,3.13-3.84,3.57-3.5-1.23-5.12-1.08-3.2,2.16-4.83,2-2.85-2.36-4.44-2.77-3.78.93-5.23.27-1.92-3.21-3.24-4.12-3.85-.42-5-1.55-.69-3.66-1.62-5-3.48-1.71-4.18-3.17.61-3.67.17-5.23-2.69-2.78-2.84-4.4,1.82-3.22,2-4.85-1.57-3.52-1.16-5.11,2.84-2.45,3.49-3.9-.25-3.88.65-5.2,3.5-1.32,4.62-2.46,1.08-3.72,2.4-4.66,3.72,0,5.18-.74,2.27-3.13,3.84-3.56,3.5,1.23,5.12,1.07,3.19-2.16,4.82-2,2.86,2.36,4.45,2.77,3.78-.92,5.23-.26,1.92,3.21,3.23,4.12,3.86.41,5,1.54.69,3.67,1.62,5,3.48,1.7,4.17,3.16-.6,3.67-.16,5.23,2.68,2.78,2.84,4.4-1.82,3.23-1.95,4.86S512.88,588.19,512.47,589.78Z"/><circle class="cls-31" cx="484.61" cy="582.57" r="16.94"/><path class="cls-32" d="M484.61,571.17a16.94,16.94,0,0,1,16.71,14.17,18.06,18.06,0,0,0,.22-2.77,16.94,16.94,0,1,0-33.64,2.77A16.94,16.94,0,0,1,484.61,571.17Z"/><circle class="cls-16" cx="484.61" cy="582.57" r="7.17"/><circle class="cls-13" cx="484.61" cy="582.57" r="7.17"/><circle class="cls-13" cx="484.61" cy="582.57" r="16.94"/><path class="cls-11" d="M586.29,582.57c0,1.65-2.12,3.09-2.4,4.65s1.22,3.69.68,5.2-3.05,2.15-3.86,3.54-.11,3.87-1.15,5.11-3.59,1-4.83,2-1.42,3.6-2.82,4.42-3.7-.32-5.23.24-2.55,2.89-4.16,3.17-3.35-1.56-5-1.56-3.43,1.84-5,1.56-2.66-2.62-4.16-3.17-3.84.56-5.23-.24-1.59-3.38-2.82-4.42-3.79-.77-4.83-2-.34-3.71-1.15-5.11-3.3-2-3.86-3.54,1-3.58.68-5.2-2.4-3-2.4-4.65,2.12-3.08,2.4-4.65-1.22-3.69-.68-5.19,3-2.16,3.86-3.55.11-3.87,1.15-5.1,3.59-1,4.83-2,1.42-3.6,2.82-4.41,3.7.31,5.23-.24,2.55-2.9,4.16-3.18,3.35,1.57,5,1.57,3.43-1.84,5-1.57,2.66,2.63,4.16,3.18,3.84-.57,5.23.24,1.59,3.37,2.82,4.41,3.79.78,4.83,2,.34,3.7,1.15,5.1,3.3,2,3.86,3.55-1,3.58-.68,5.19S586.29,580.93,586.29,582.57Z"/><path class="cls-30" d="M585.38,589.78c-.42,1.6-2.84,2.46-3.5,3.91s.26,3.87-.64,5.19-3.5,1.32-4.62,2.47-1.08,3.72-2.4,4.65-3.72,0-5.18.74-2.27,3.13-3.84,3.57-3.5-1.23-5.12-1.08-3.19,2.16-4.83,2-2.85-2.36-4.44-2.77-3.78.93-5.23.27-1.92-3.21-3.24-4.12-3.85-.42-5-1.55-.69-3.66-1.62-5-3.48-1.71-4.18-3.17.61-3.67.17-5.23-2.68-2.78-2.84-4.4,1.82-3.22,2-4.85-1.57-3.52-1.16-5.11,2.84-2.45,3.5-3.9-.26-3.88.65-5.2,3.49-1.32,4.61-2.46,1.08-3.72,2.4-4.66,3.72,0,5.18-.74,2.27-3.13,3.84-3.56,3.5,1.23,5.12,1.07,3.2-2.16,4.83-2,2.85,2.36,4.44,2.77,3.78-.92,5.23-.26,1.92,3.21,3.24,4.12,3.85.41,5,1.54.69,3.67,1.62,5,3.48,1.7,4.18,3.16-.61,3.67-.17,5.23,2.69,2.78,2.84,4.4-1.82,3.23-1.95,4.86S585.79,588.19,585.38,589.78Z"/><circle class="cls-31" cx="557.52" cy="582.57" r="16.94"/><path class="cls-32" d="M557.52,571.17a16.94,16.94,0,0,1,16.71,14.17,16.94,16.94,0,1,0-33.65-2.77,18.06,18.06,0,0,0,.23,2.77A16.94,16.94,0,0,1,557.52,571.17Z"/><circle class="cls-16" cx="557.52" cy="582.57" r="7.17"/><circle class="cls-13" cx="557.52" cy="582.57" r="7.17"/><circle class="cls-13" cx="557.52" cy="582.57" r="16.94"/><rect class="cls-27" x="526.18" y="342.31" width="20.58" height="11.4"/><rect class="cls-33" x="526.18" y="349.76" width="20.58" height="3.95"/><rect class="cls-13" x="526.18" y="342.31" width="20.58" height="11.4"/><path class="cls-16" d="M535.48,322.67h2a9.29,9.29,0,0,1,9.29,9.29v10.35a0,0,0,0,1,0,0H526.18a0,0,0,0,1,0,0V332A9.29,9.29,0,0,1,535.48,322.67Z"/><path class="cls-29" d="M530.22,325.19h0a3.36,3.36,0,0,1,3.36,3.36v6.36a3.36,3.36,0,0,1-3.36,3.36h-3.36a0,0,0,0,1,0,0v-9.72A3.36,3.36,0,0,1,530.22,325.19Z"/><path class="cls-17" d="M542.11,328.51v10.3H526.18v3.5h20.58V328.42a2,2,0,0,0-1.79-2.08h-1A2,2,0,0,0,542.11,328.51Z"/><path class="cls-13" d="M535.48,322.67h2a9.29,9.29,0,0,1,9.29,9.29v10.35a0,0,0,0,1,0,0H526.18a0,0,0,0,1,0,0V332A9.29,9.29,0,0,1,535.48,322.67Z"/><path class="cls-34" d="M594.07,527.08h6.48a6.62,6.62,0,0,1,6.62,6.62v13.62a6.62,6.62,0,0,1-6.62,6.62h-6.48a0,0,0,0,1,0,0V527.08A0,0,0,0,1,594.07,527.08Z"/><path class="cls-35" d="M596.6,529.08h0a1.74,1.74,0,0,1,1.74,1.74v16.85A2.33,2.33,0,0,1,596,550h-.89a0,0,0,0,1,0,0V530.57A1.48,1.48,0,0,1,596.6,529.08Z"/><path class="cls-36" d="M603.24,527.12c0,.12,0,.23,0,.35v21.61a2.15,2.15,0,0,1-2.15,2.15h-7v2.71h8.61a4.48,4.48,0,0,0,4.49-4.48v-17.9A4.48,4.48,0,0,0,603.24,527.12Z"/><path class="cls-13" d="M596.5,527.08h4a6.62,6.62,0,0,1,6.62,6.62v13.62a6.62,6.62,0,0,1-6.62,6.62h-4a2.43,2.43,0,0,1-2.43-2.43v-22A2.43,2.43,0,0,1,596.5,527.08Z"/><path class="cls-37" d="M270.28,550.51H416.67a0,0,0,0,1,0,0v4.68a0,0,0,0,1,0,0H265.6a0,0,0,0,1,0,0v0A4.68,4.68,0,0,1,270.28,550.51Z"/><path class="cls-15" d="M270.28,550.51H416.67a0,0,0,0,1,0,0v4.68a0,0,0,0,1,0,0H265.6a0,0,0,0,1,0,0v0A4.68,4.68,0,0,1,270.28,550.51Z"/><line class="cls-38" x1="500.34" y1="533.12" x2="543.94" y2="533.12"/><line class="cls-38" x1="500.77" y1="540.53" x2="510.34" y2="540.53"/><line class="cls-38" x1="500.77" y1="547.2" x2="518.81" y2="547.2"/><path class="cls-34" d="M444.7,535.27h8.49a0,0,0,0,1,0,0v15.24a0,0,0,0,1,0,0H444.7a6.75,6.75,0,0,1-6.75-6.75V542A6.75,6.75,0,0,1,444.7,535.27Z"/><path class="cls-35" d="M439.18,537.36h0a2.61,2.61,0,0,1,2.61,2.61v5.85a2.61,2.61,0,0,1-2.61,2.61h0a0,0,0,0,1,0,0V537.36a0,0,0,0,1,0,0Z"/><rect class="cls-39" x="445.57" y="535.27" width="7.62" height="15.24"/><rect class="cls-13" x="445.57" y="535.27" width="7.62" height="15.24" rx="3.81"/><path class="cls-13" d="M444.7,535.27h3.19a5.3,5.3,0,0,1,5.3,5.3v4.64a5.3,5.3,0,0,1-5.3,5.3H444.7a6.75,6.75,0,0,1-6.75-6.75V542A6.75,6.75,0,0,1,444.7,535.27Z"/><rect class="cls-40" x="282.79" y="435.81" width="116.69" height="116.69" rx="16.9"/><path class="cls-41" d="M287.17,533V456.83a11.45,11.45,0,0,1,11.45-11.45h85a11.44,11.44,0,0,1,11.45,11.45V533a4.39,4.39,0,0,0,4.39,4.39h0v-90.1A11.45,11.45,0,0,0,388,435.81H294.24a11.44,11.44,0,0,0-11.45,11.45v90.1h0A4.39,4.39,0,0,0,287.17,533Z"/><circle class="cls-42" cx="341.13" cy="494.15" r="29.94"/><path class="cls-43" d="M284.68,441H397.59a11.45,11.45,0,0,0-9.56-5.15H294.24A11.44,11.44,0,0,0,284.68,441Z"/><path class="cls-44" d="M322.27,482.19V438.64a4.19,4.19,0,0,1,4.19-4.19h24.13a4.19,4.19,0,0,1,4.19,4.19v26.7a4.18,4.18,0,0,1-1.79,3.44l-24.13,16.84A4.19,4.19,0,0,1,322.27,482.19Z"/><path class="cls-45" d="M388,544.36H294.24a11.44,11.44,0,0,1-11.45-11.45v8.14a11.44,11.44,0,0,0,11.45,11.44H388a11.45,11.45,0,0,0,11.45-11.44v-8.14A11.45,11.45,0,0,1,388,544.36Z"/><rect class="cls-13" x="282.79" y="435.81" width="116.69" height="116.69" rx="16.9"/><path class="cls-46" d="M320.91,483.65V434.79a2.37,2.37,0,0,1,2.37-2.37h27.78a2.37,2.37,0,0,1,2.37,2.37v29.47a2.38,2.38,0,0,1-1,1.94l-27.78,19.39A2.38,2.38,0,0,1,320.91,483.65Z"/><path class="cls-47" d="M351.06,432.42H323.28a2.37,2.37,0,0,0-2.37,2.37V452h32.52V434.79A2.37,2.37,0,0,0,351.06,432.42Z"/><path class="cls-48" d="M351.06,432.42H323.28a2.37,2.37,0,0,0-2.37,2.37v3.59h32.52v-3.59A2.37,2.37,0,0,0,351.06,432.42Z"/><path class="cls-13" d="M320.91,483.65V434.79a2.37,2.37,0,0,1,2.37-2.37h27.78a2.37,2.37,0,0,1,2.37,2.37v29.47a2.38,2.38,0,0,1-1,1.94l-27.78,19.39A2.38,2.38,0,0,1,320.91,483.65Z"/><rect class="cls-41" x="292.85" y="453.63" width="4.24" height="68.05" rx="2.12"/><rect class="cls-41" x="292.85" y="525.1" width="4.24" height="6.06" rx="2.12"/><rect class="cls-49" x="384.98" y="451.95" width="4.24" height="82.31" rx="2.12"/><rect class="cls-50" x="463.1" y="388.77" width="8.8" height="2.67" rx="1.34"/></g></g></svg>