<?xml version="1.0" encoding="utf-8"?>
<!-- Generator: Adobe Illustrator 23.0.3, SVG Export Plug-In . SVG Version: 6.00 Build 0)  -->
<svg version="1.1" id="Layer_1" xmlns="http://www.w3.org/2000/svg" xmlns:xlink="http://www.w3.org/1999/xlink" x="0px" y="0px"
	 viewBox="0 0 1000 1000" style="enable-background:new 0 0 1000 1000;" xml:space="preserve">
<style type="text/css">
	.st0{opacity:0.48;fill:#92D7E7;enable-background:new    ;}
	.st1{fill:#E9FEFF;}
	.st2{fill:none;stroke:#3B6B7D;stroke-width:3;stroke-linecap:round;stroke-linejoin:round;stroke-miterlimit:10;}
	.st3{fill:#FFFFFF;}
	.st4{fill:none;stroke:#BBEAF2;stroke-width:3;stroke-linecap:round;stroke-miterlimit:10;}
	.st5{fill:none;stroke:#91C2FF;stroke-width:3.2;stroke-linecap:round;stroke-linejoin:round;stroke-miterlimit:10;}
	.st6{fill:#EDF3F4;stroke:#3B6B7D;stroke-width:3;stroke-linecap:round;stroke-linejoin:round;stroke-miterlimit:10;}
	.st7{opacity:0.23;}
	.st8{fill:none;stroke:#474747;stroke-width:6;stroke-linecap:round;stroke-linejoin:round;stroke-miterlimit:10;}
	.st9{fill:none;stroke:#3B6B7D;stroke-width:2.9264;stroke-linecap:round;stroke-linejoin:round;stroke-miterlimit:10;}
	.st10{fill:#F2CFB1;}
	.st11{fill:#E5B48F;}
	.st12{fill:#EF9E9D;}
	.st13{fill:none;stroke:#BBEAF2;stroke-width:2;stroke-linecap:round;stroke-miterlimit:10;}
	.st14{fill:#92D7E7;stroke:#3B6B7D;stroke-width:3;stroke-linecap:round;stroke-linejoin:round;stroke-miterlimit:10;}
	.st15{fill:#FFFFFF;stroke:#3B6B7D;stroke-width:3;stroke-linecap:round;stroke-linejoin:round;stroke-miterlimit:10;}
</style>
<g id="Book">
	<path class="st0" d="M706.7,392.1v293.3c0,5.4-4.4,9.7-9.7,9.7H265.3c-5.4,0-9.7-4.4-9.7-9.7V392.1c0-5.4,4.4-9.7,9.7-9.7h431.6
		C702.3,382.3,706.7,386.7,706.7,392.1z"/>
	<g>
		<path class="st1" d="M480.1,440.6v254.5h-15c-10.1-9.7-24.3-15.8-40.1-15.8H280.2c-7.7,0-14-5.7-14-12.7V403c0-4.2,2.3-8,5.8-10.3
			c2.3-1.5,5.1-2.4,8.2-2.4H425C455.4,390.2,480.1,412.8,480.1,440.6z"/>
		<path class="st1" d="M696.7,403v263.6c0,7-6.2,12.7-14,12.7H537.9c-15.8,0-30.1,6.1-40.1,15.8h-15V440.6
			c0-27.8,24.7-50.3,55.1-50.3h144.8c3,0,5.7,0.9,8,2.3C694.3,394.8,696.7,398.7,696.7,403z"/>
	</g>
	<line class="st2" x1="397.6" y1="695.1" x2="295.2" y2="695.1"/>
	<path class="st2" d="M272.4,695.1h-7.2c-5.4,0-9.7-4.4-9.7-9.7V392.1c0-5.4,4.4-9.7,9.7-9.7h431.6c5.4,0,9.7,4.4,9.7,9.7v293.3
		c0,5.4-4.4,9.7-9.7,9.7H434.6"/>
	<path class="st3" d="M480.1,418.6v276.5h-1.7c-5.9-21.7-26.9-37.8-51.9-37.8H285.6c-7.5,0-13.6-5.7-13.6-12.7V381
		c0-7,6.1-12.7,13.6-12.7h140.9c14.4,0,27.6,5.4,37.2,14.1C473.8,391.5,480.1,404.3,480.1,418.6z"/>
	<path class="st3" d="M690.7,381v263.6c0,7-6.1,12.7-13.6,12.7H536.3c-25,0-46,16.1-51.9,37.8h-1.7V418.6c0-14.2,6.3-27.1,16.4-36.2
		c9.6-8.7,22.8-14.1,37.2-14.1h140.8C684.6,368.3,690.7,374,690.7,381z"/>
	<path class="st2" d="M347.7,368.3h78.1c14.4,0,27.5,5.4,37,14.1c10.1,9.2,16.4,22,16.4,36.2v276.5h-1.7
		c-5.9-21.7-26.8-37.8-51.7-37.8H285.6c-7.5,0-13.5-5.7-13.5-12.7V381c0-7,6.1-12.7,13.5-12.7h8.1"/>
	<line class="st2" x1="318.9" y1="368.3" x2="323.7" y2="368.3"/>
	<path class="st2" d="M563,368.3h114.1c7.5,0,13.6,5.7,13.6,12.7v263.6c0,7-6.1,12.7-13.6,12.7H536.3c-25,0-46,16.1-51.9,37.8h-1.7
		V418.6c0-14.2,6.3-27.1,16.4-36.2c9.6-8.7,22.8-14.1,37.2-14.1h5.9"/>
	<g>
		<line class="st4" x1="340.3" y1="606.4" x2="385.2" y2="606.4"/>
		<line class="st4" x1="310.6" y1="606.4" x2="318.4" y2="606.4"/>
		<line class="st4" x1="395.2" y1="570.9" x2="439.7" y2="570.9"/>
		<line class="st4" x1="311.4" y1="570.9" x2="376.4" y2="570.9"/>
		<line class="st4" x1="312.3" y1="535.3" x2="407.3" y2="535.3"/>
		<line class="st4" x1="312.3" y1="464.8" x2="407.3" y2="464.8"/>
		<line class="st4" x1="380.1" y1="499.8" x2="441.4" y2="499.8"/>
		<line class="st4" x1="313.2" y1="499.8" x2="360.4" y2="499.8"/>
		<line class="st4" x1="412.1" y1="427.1" x2="441.4" y2="427.1"/>
		<line class="st4" x1="313.2" y1="427.1" x2="388.8" y2="427.1"/>
	</g>
	<g>
		<line class="st4" x1="554.7" y1="561.6" x2="597.6" y2="561.6"/>
		<line class="st4" x1="526.3" y1="561.6" x2="533.8" y2="561.6"/>
		<line class="st4" x1="607.1" y1="526.6" x2="649.7" y2="526.6"/>
		<line class="st4" x1="527.1" y1="526.6" x2="589.2" y2="526.6"/>
		<line class="st4" x1="528" y1="491.5" x2="618.8" y2="491.5"/>
		<line class="st4" x1="592.8" y1="456.4" x2="651.4" y2="456.4"/>
		<line class="st4" x1="528.8" y1="456.4" x2="574" y2="456.4"/>
		<line class="st4" x1="623.4" y1="422.9" x2="651.4" y2="422.9"/>
		<line class="st4" x1="528.8" y1="422.9" x2="601.1" y2="422.9"/>
	</g>
	<path class="st5" d="M337.1,548.5"/>
	<path class="st6" d="M541.1,677.6l-7.6-8.4l-9,8.9c-1.1,1.1-3.1,0.4-3.1-1V372.1c0-2.2,1.8-4,4-4h18.9v308.5
		C544.3,678.1,542.2,678.8,541.1,677.6z"/>
</g>
<g id="XMLID_262_" class="st7">
	<polyline id="XMLID_269_" class="st8" points="769,145.9 769,176.9 707.1,176.9 	"/>
	<polyline id="XMLID_268_" class="st8" points="830.9,176.9 769,176.9 769,145.9 	"/>
	<rect id="XMLID_267_" x="738.1" y="176.9" class="st8" width="61.9" height="30.9"/>
	<polyline id="XMLID_266_" class="st8" points="786.6,238.7 769,238.7 769,207.8 830.9,207.8 	"/>
	<polyline id="XMLID_265_" class="st8" points="707.1,207.8 769,207.8 769,238.7 718.8,238.7 	"/>
	<polyline id="XMLID_264_" class="st8" points="686.1,176.9 738.1,176.9 738.1,207.8 707.1,207.8 	"/>
	<polyline id="XMLID_263_" class="st8" points="844.6,207.8 799.9,207.8 799.9,176.9 821.4,176.9 	"/>
</g>
<g id="XMLID_1_" class="st7">
	<polyline id="XMLID_8_" class="st8" points="194.9,303.6 194.9,334.6 133,334.6 	"/>
	<polyline id="XMLID_7_" class="st8" points="256.8,334.6 194.9,334.6 194.9,303.6 	"/>
	<rect id="XMLID_6_" x="164" y="334.6" class="st8" width="61.9" height="30.9"/>
	<polyline id="XMLID_5_" class="st8" points="212.5,396.4 194.9,396.4 194.9,365.5 256.8,365.5 	"/>
	<polyline id="XMLID_4_" class="st8" points="133,365.5 194.9,365.5 194.9,396.4 144.7,396.4 	"/>
	<polyline id="XMLID_3_" class="st8" points="112,334.6 164,334.6 164,365.5 133,365.5 	"/>
	<polyline id="XMLID_2_" class="st8" points="270.5,365.5 225.8,365.5 225.8,334.6 247.3,334.6 	"/>
</g>
<g id="XMLID_9_" class="st7">
	<polyline id="XMLID_16_" class="st8" points="824.5,415.7 824.5,446.7 762.6,446.7 	"/>
	<polyline id="XMLID_15_" class="st8" points="886.4,446.7 824.5,446.7 824.5,415.7 	"/>
	<rect id="XMLID_14_" x="793.6" y="446.7" class="st8" width="61.9" height="30.9"/>
	<polyline id="XMLID_13_" class="st8" points="842.1,508.5 824.5,508.5 824.5,477.6 886.4,477.6 	"/>
	<polyline id="XMLID_12_" class="st8" points="762.6,477.6 824.5,477.6 824.5,508.5 774.3,508.5 	"/>
	<polyline id="XMLID_11_" class="st8" points="741.6,446.7 793.6,446.7 793.6,477.6 762.6,477.6 	"/>
	<polyline id="XMLID_10_" class="st8" points="900.1,477.6 855.4,477.6 855.4,446.7 876.9,446.7 	"/>
</g>
<g id="Shield">
	<path class="st3" d="M787.5,379.7v0.2c-0.3,44.7-2.1,73.7-12.8,96.5c-10.7,22.7-30.2,39.1-65.9,58.4c-0.2,0.1-0.4,0.2-0.6,0.3
		c-72.1-38.9-78.7-65.9-79.3-155.5c0.7,0,1.3,0,2,0c20.2,0,53.6-10.7,77.3-26.8C732.7,369.6,767.6,380.5,787.5,379.7z"/>
	<path class="st1" d="M787.5,379.9c-0.3,44.7-2.1,73.7-12.8,96.5c-10.7,22.7-30.2,39.1-65.9,58.4c-0.1-0.2-0.1-0.3,0-0.3
		c-63.2-43.8-74-59.7-74.6-149.2c19.9,0.8,52.5-12.1,77.1-28.8l1.8,1.2C735.8,373.3,767.1,379.7,787.5,379.9z"/>
	<path class="st9" d="M787.3,391.1c0.1-3.7,0.1-7.5,0.1-11.4c-19.9,0.8-54.8-10.1-79.3-26.8l0,0l0,0l0,0l0,0
		c-4,2.7-8.4,5.3-12.8,7.7"/>
	<path class="st9" d="M787.1,402.9c0-1.5,0.1-3,0.1-4.5"/>
	<path class="st9" d="M684.2,366.1c-20,8.9-41.4,14.1-55.4,13.6c0.6,89.6,7.2,116.5,79.3,155.5l0,0l0,0l0,0l0,0
		c56.3-30.4,72.7-53.5,77.4-104.8"/>
	<path class="st3" d="M774.6,391.8c0,0.5,0,1,0,1.5c-0.6,36.8-3,59.8-11.5,77.7c-8.4,17.8-23.6,31.9-53.3,48.7
		c-0.6,0.3-1.1,0.6-1.7,0.9c-30.8-17.3-46.4-31.5-55-49.6c-8.5-18.2-10.9-41.6-11.5-79.2c20.6-2.5,46.1-11.6,66.5-23.8
		c1.6,1,3.3,1.9,4.9,2.8c5.9,3.3,12.2,6.3,18.6,9c0,0,0,0,0.1,0C746.3,385.9,761.4,390.2,774.6,391.8z"/>
	<path class="st1" d="M774.6,393.3c-0.6,36.8-3,59.8-11.5,77.7c-8.4,17.8-23.6,31.9-53.3,48.7c-16.1-9.3-27.7-17.7-36.2-26.5
		c-6.3-6.5-10.9-13.2-14.4-20.5c-8.5-18-10.8-41.3-11.4-78.6c20.3-2.5,45.2-11.3,65.3-23.2c0.2-0.1,0.5-0.3,0.7-0.4
		c5.7,3.4,11.7,6.5,18,9.4c0,0,0,0,0.1,0c10.4,4.7,21.2,8.5,31.6,11.1C767.2,391.9,770.9,392.7,774.6,393.3z"/>
	<path class="st0" d="M774.6,393.3c-0.6,36.8-3,59.8-11.5,77.7c-8.4,17.8-23.6,31.9-53.3,48.7c-16.1-9.3-27.7-17.7-36.2-26.5
		c31.8-3.9,79.8-14.9,100.1-101C777.5,393.1,770.9,392.7,774.6,393.3z"/>
	<path class="st9" d="M647.5,455c-0.2-0.7-0.4-1.4-0.5-2.1"/>
	<path class="st9" d="M644.3,437.4c-1.6-12.6-2.3-27.4-2.6-45.6c20.6-2.5,46.1-11.6,66.5-23.8c20.4,12.2,45.8,21.2,66.5,23.8
		c-0.6,37.6-2.9,61.1-11.5,79.2c-8.6,18.2-24.2,32.4-55,49.6c-30.8-17.3-46.4-31.5-55-49.6c-0.7-1.5-1.4-3-2-4.6"/>
	<g id="Partnership">
		<path class="st3" d="M717.1,427c-0.2,0-0.4,0-0.6,0"/>
		<path class="st9" d="M716.5,427c-0.4,0-0.8,0-1.4,0c-4.1,0-6,1.4-6.9,2.4l-1,1l0-0.3l-0.7-0.7c-1.9-1.9-5-1.9-6.9,0l-0.2,0.2
			c-0.8,0.8-2.1,0.8-2.9,0l-4.2-4.2l-16,16l28.9,28.9l2-0.3l3.7,3.7c1.4,1.4,3.6,1.4,5,0c1.4-1.4,1.4-3.6,0-5l0.4,0.4
			c1.4,1.4,3.6,1.4,5,0l0.2-0.2c1.4-1.4,1.4-3.6,0-5l0.1,0.1c1.4,1.4,3.6,1.4,5,0l0.2-0.2c1.4-1.4,1.4-3.6,0-5l-1.9-1.9
			c1.4,1.4,3.6,1.4,5,0l0.2-0.2c1.4-1.4,1.4-3.6,0-5l-1.3-1.3l10.5-10.5L726.6,427h-3.4"/>
		<path class="st10" d="M730.6,452.3c1.3,1.3,0.3,4-1,5.3l-0.2,0.2c-1.3,1.3-3.5,1.3-4.8,0l1.8,1.8c1.3,1.3,1.3,3.4,0,4.8l-0.2,0.2
			c-1.3,1.3-3.4,1.3-4.8,0c1.2,1.3,1.2,3.4-0.1,4.7l-0.2,0.2c-1.3,1.3-3.4,1.3-4.8,0l-0.4-0.4c1.3,1.3,1.3,3.4,0,4.8
			c-1.3,1.3-3.4,1.3-4.8,0l-3.6-3.6l-1.9,0.3l-27.4-27.4l15.2-15.2l4,4c0.8,0.8,2,0.8,2.7,0l0.2-0.2c1.8-1.8,4.8-1.8,6.6,0l0.7,0.7
			l0,0.3l1-1c0.9-1,2.7-2.3,6.6-2.3c3.1,0,3.1,0,3.1,0h7.8l12.1,12.1l-9,9.5L730.6,452.3z"/>
		<path class="st11" d="M728.5,450.2l-12.5-12.5l0,0c1-1,2.5-1,3.5,0l10.8,10.8L728.5,450.2z"/>
		<path class="st11" d="M710.9,436.9l-6,6l0,0c0.9,0.9,2.3,0.9,3.2,0l6-6l0,0C713.3,436,711.8,436,710.9,436.9z"/>
		<path class="st12" d="M696.8,420.5l-22.3,22.3l-6.8-6.8c-1.4-1.4-1.4-3.8,0-5.2l17.1-17.1c1.4-1.4,3.8-1.4,5.2,0L696.8,420.5z"/>
		<path class="st12" d="M721,421l22.4,22.4l7-7c1.4-1.4,1.4-3.6,0-4.9l-17.4-17.4c-1.4-1.4-3.6-1.4-4.9,0L721,421z"/>
		<line class="st9" x1="720.8" y1="427" x2="726.6" y2="427"/>
		<path class="st9" d="M717.5,427c0.2,0,0.3,0,0.4,0"/>
		<path class="st9" d="M720.3,452.2l4.6,4.6c1.4,1.4,3.6,1.4,5,0l0.2-0.2c1.4-1.4,1.4-3.6,0-5l-13.7-13.7c-1.7-1.7-4.4-1.7-6.1,0
			l-2.2,2.2l-0.9,0.9c-2.9,2.9-7.6,2.9-10.6,0l0,0l11.5-11.5c0.8-0.9,2.4-2,5.4-2.3"/>
		<g>
			<path class="st11" d="M694.4,453.4l-3.9,3.9c-1.4,1.4-3.7,1.4-5.2,0l0,0c-1.4-1.4-1.4-3.7,0-5.2l3.9-3.9c1.4-1.4,3.7-1.4,5.2,0v0
				C695.8,449.6,695.8,452,694.4,453.4z"/>
			<path class="st11" d="M701.6,456.6l-8.4,8.4c-1.4,1.4-3.7,1.4-5.2,0l0,0c-1.4-1.4-1.4-3.7,0-5.2l8.4-8.4c1.4-1.4,3.7-1.4,5.2,0
				l0,0C703,452.9,703,455.2,701.6,456.6z"/>
			<path class="st11" d="M706.3,460.1c0.2,1.1-0.1,2.3-1,3.1l-5.5,5.5c-1.4,1.4-3.6,1.4-4.9,0l-0.3-0.3c-1.4-1.4-1.4-3.6,0-4.9
				l5.5-5.5c1.4-1.4,3.6-1.4,4.9,0l0.3,0.3C705.8,458.8,706.1,459.5,706.3,460.1"/>
			<path class="st11" d="M709.2,469.7l-1.1,1.1l-0.5-0.5l-1.9,0.3l-3.8-3.8l2.1-2.1c1.4-1.4,3.6-1.4,5,0l0.2,0.2
				C710.6,466.1,710.6,468.4,709.2,469.7z"/>
		</g>
		<path class="st9" d="M720.6,452.6l6.1,6.1c1.4,1.4,1.4,3.6,0,5l-0.2,0.2c-1.4,1.4-3.6,1.4-5,0l-4.3-4.3"/>
		<path class="st9" d="M716.2,458.8l5.1,5.1c1.4,1.4,1.4,3.6,0,5l-0.2,0.2c-1.4,1.4-3.6,1.4-5,0l-4-4"/>
		<path class="st9" d="M713.5,466.5l2.2,2.2c1.4,1.4,1.4,3.6,0,5l0,0c-1.4,1.4-3.6,1.4-5,0l-3.7-3.7"/>
		<g>
			<path class="st3" d="M691.9,453.9l-3.9,3.9c-1.4,1.4-3.7,1.4-5.2,0l0,0c-1.4-1.4-1.4-3.7,0-5.2l3.9-3.9c1.4-1.4,3.7-1.4,5.2,0v0
				C693.3,450.1,693.3,452.5,691.9,453.9z"/>
			<path class="st3" d="M699.1,457.1l-8.4,8.4c-1.4,1.4-3.7,1.4-5.2,0l0,0c-1.4-1.4-1.4-3.7,0-5.2l8.4-8.4c1.4-1.4,3.7-1.4,5.2,0
				l0,0C700.5,453.4,700.5,455.7,699.1,457.1z"/>
			<path class="st3" d="M703.8,460.6c0.2,1.1-0.1,2.3-1,3.1l-5.5,5.5c-1.4,1.4-3.6,1.4-4.9,0l-0.3-0.3c-1.4-1.4-1.4-3.6,0-4.9
				l5.5-5.5c1.4-1.4,3.6-1.4,4.9,0l0.3,0.3C703.3,459.3,703.6,460,703.8,460.6"/>
			<path class="st3" d="M706.6,470.3l-2.3,2.3c-1.4,1.4-3.7,1.4-5.2,0l0,0c-1.4-1.4-1.4-3.7,0-5.2l2.3-2.3c1.4-1.4,3.7-1.4,5.2,0
				l0,0C708,466.6,708,468.9,706.6,470.3z"/>
		</g>
		<g>
			<path class="st10" d="M691.3,454.5l-3.9,3.9c-1.1,1.1-2.8,1.1-3.9,0l0,0c-1.1-1.1-1.1-2.8,0-3.9l3.9-3.9c1.1-1.1,2.8-1.1,3.9,0v0
				C692.3,451.7,692.3,453.4,691.3,454.5z"/>
			<path class="st10" d="M698.3,457.9l-8.2,8.2c-1,1-2.7,1-3.8,0l0,0c-1-1-1-2.7,0-3.8l8.2-8.2c1-1,2.7-1,3.8,0l0,0
				C699.3,455.2,699.3,456.9,698.3,457.9z"/>
			<path class="st10" d="M702.4,464.2l-5.5,5.5c-1.1,1.1-2.9,1.1-4,0v0c-1.1-1.1-1.1-2.9,0-4l5.5-5.5c1.1-1.1,2.9-1.1,4,0l0,0
				C703.4,461.3,703.4,463.1,702.4,464.2z"/>
			<path class="st10" d="M706.2,470.7l-2.7,2.7c-1,1-2.6,1-3.6,0l0,0c-1-1-1-2.6,0-3.6l2.7-2.7c1-1,2.6-1,3.6,0l0,0
				C707.2,468.1,707.2,469.7,706.2,470.7z"/>
		</g>
		<g>
			<path class="st9" d="M687.3,448.2c1.3-0.9,3.2-0.8,4.4,0.4l0.3,0.3c1.3,1.3,1.3,3.5,0,4.9l-4.2,4.2c-1.3,1.3-3.5,1.3-4.9,0
				l-0.3-0.3c-1.3-1.3-1.3-3.5,0-4.9l2.4-2.4"/>
			<path class="st9" d="M686.6,466.3c-0.3-0.2-0.7-0.4-0.9-0.7l-0.3-0.3c-1.3-1.3-1.3-3.5,0-4.9l8.7-8.7c1.3-1.3,3.5-1.3,4.9,0
				l0.3,0.3c1.3,1.3,1.3,3.5,0,4.9l-4.7,4.7"/>
			<path class="st9" d="M703.5,459.8c0.6,1.3,0.4,2.9-0.7,3.9l-5.5,5.5c-1.4,1.4-3.6,1.4-4.9,0l-0.3-0.3c-1.4-1.4-1.4-3.6,0-4.9
				l5.5-5.5c1-1,2.4-1.3,3.6-0.8"/>
			<path class="st9" d="M706.6,470.3l-2.3,2.3c-1.4,1.4-3.7,1.4-5.2,0l0,0c-1.4-1.4-1.4-3.7,0-5.2l2.3-2.3c1.4-1.4,3.7-1.4,5.2,0
				l0,0C708,466.6,708,468.9,706.6,470.3z"/>
		</g>
		<path class="st9" d="M707.1,430.1l-0.7-0.7c-1.9-1.9-5-1.9-6.9,0l-0.2,0.2c-0.8,0.8-2.1,0.8-2.9,0l-4.2-4.2"/>
		<line class="st9" x1="677.7" y1="443.1" x2="676" y2="441.4"/>
		<line class="st9" x1="680.2" y1="445.6" x2="680" y2="445.4"/>
		<line class="st9" x1="685.1" y1="450.4" x2="682.2" y2="447.6"/>
		<line class="st9" x1="728.9" y1="450.3" x2="739.4" y2="439.8"/>
		<line class="st9" x1="669.5" y1="441.8" x2="663.3" y2="435.6"/>
		<polyline class="st9" points="696.1,421.3 672.6,444.9 671.5,443.8 		"/>
		<circle class="st9" cx="671.8" cy="436.1" r="2"/>
		<polyline class="st9" points="720.9,421.3 744.5,444.9 753.8,435.6 		"/>
		<circle class="st9" cx="745.3" cy="436.1" r="2"/>
		<line class="st13" x1="709.8" y1="401.6" x2="709.8" y2="400.2"/>
		<line class="st13" x1="709.8" y1="414.8" x2="709.8" y2="405.7"/>
		<line class="st13" x1="722.2" y1="408.3" x2="727.3" y2="400.2"/>
		<line class="st13" x1="718.2" y1="414.8" x2="720" y2="412"/>
		<line class="st13" x1="701.5" y1="414.8" x2="696.3" y2="406.4"/>
	</g>
</g>
<g>
	<path class="st14" d="M331.7,664.3v35.3l-12.3-9.2l-12.3,9.2l-12.3-9.2l-12.3,9.2l-12.3-9.2l-12.3,9.2l-12.3-9.2l-12.3,9.2v-99.7
		c0.2-16.4,3.3-23.6,17.1-28.8h98.3c-13.6,3.6-17.6,12-17.1,28.8v41.5"/>
	<line class="st2" x1="276.7" y1="607.7" x2="309.1" y2="607.7"/>
	<line class="st2" x1="250.9" y1="607.7" x2="265.2" y2="607.7"/>
	<line class="st2" x1="250.9" y1="633.3" x2="309.1" y2="633.3"/>
	<line class="st2" x1="286.4" y1="659" x2="309.1" y2="659"/>
	<line class="st2" x1="250.9" y1="659" x2="259.6" y2="659"/>
	<path class="st3" d="M233.4,602.7v46.1l-15.6,17.4c-2.8,3.2-4.5,7.2-4.8,11.4l-0.8,14.1c-0.1,2.1,1.2,4,3.2,4.6l16.6,4.9
		c2.4,0.7,4.9-0.5,5.9-2.8l0.2-0.6l2.5-6l9.7-23.3c0.6-1.5,1.5-2.9,2.4-4.2c5-6.4,14-8.8,21.7-5.2c3.2,1.5,5.1,4.7,5.1,8.1
		c0,1-0.2,1.9-0.5,2.9l-10.2,29.5l-12.6,36.6c-2,5.9-5.5,11.1-10.1,15.3l-13.1,11.8l-6.6,6c-1.1,1-2.5,1.5-4,1.5
		c-8.2-0.1-36.4-0.4-48.7-0.2c-3.3,0-5.9-2.6-5.9-5.9V678c0-7.1,2.9-13.9,8-18.9L233.4,602.7z"/>
	<path class="st10" d="M232,701.2c2.4,0.7,4.9-0.5,5.9-2.8l0.2-0.6l2.5-6c0.7-0.5,1.2-1.2,1.5-2l0.2-0.6l10.4-24.9
		c5-6.4,14-8.8,21.7-5.2c3.2,1.5,5.1,4.7,5.1,8.1c0,1-0.2,1.9-0.5,2.9l-10.2,29.5l-12.6,36.6c-2,5.9-5.5,11.1-10.1,15.3l-13.1,11.8
		c-0.7,0.2-1.4,0.4-2.1,0.4c-8.2-0.1-36.4-0.4-48.7-0.2c-3.3,0-5.9-2.6-5.9-5.9v-86.7c0-7.1,2.9-13.9,8-18.9l49-48v44.9l-15.6,17.4
		c-2.8,3.2-4.5,7.2-4.8,11.4l-0.8,14.1c-0.1,2.1,1.2,4,3.2,4.6L232,701.2z"/>
	<path class="st9" d="M169.2,768.4c-0.8-1-1.3-2.3-1.3-3.6v-10.4"/>
	<path class="st9" d="M167.9,732.5V678c0-7.1,2.9-13.9,8-18.9l57.5-56.4v46.1l-15.6,17.4c-2.8,3.2-4.5,7.2-4.8,11.4l-0.8,14.1
		c-0.1,2.1,1.2,4,3.2,4.6l16.6,4.9c2.4,0.7,4.9-0.5,5.9-2.8l0.2-0.6l12.2-29.3c3.9-9.4,15-13.7,24.2-9.3c3.2,1.5,5.1,4.7,5.1,8.1
		c0,1-0.2,1.9-0.5,2.9l-10.2,29.5l-12.6,36.6c-2,5.9-5.5,11.1-10.1,15.3l-19.7,17.8"/>
	<line class="st9" x1="167.9" y1="741.6" x2="167.9" y2="741"/>
	<line class="st15" x1="331.7" y1="656.6" x2="331.7" y2="657"/>
</g>
</svg>
