<svg xmlns="http://www.w3.org/2000/svg" width="798.688" height="484.553" viewBox="0 0 798.688 484.553"><defs><style>.a,.b{fill:#3f3d56;}.b{opacity:0.3;}.c{fill:#f2f2f2;}.d{fill:#2f2e41;}.e{fill:#ffb9b9;}.f{opacity:0.1;}.g{fill:#d0cde1;}.h{fill:#a0616a;}.i{fill:#575a89;}.j{fill:#1f4ee5;}.k{fill:#57b894;}.l{fill:#ffc1c7;}.m{fill:#cbceda;}.n{fill:#a8a8a8;}.o{opacity:0.2;}</style></defs><g transform="translate(0 0)"><ellipse class="a" cx="290.749" cy="26.16" rx="290.749" ry="26.16" transform="translate(217.19 432.234)"/><rect class="b" width="315.587" height="213.749" transform="translate(681.412 213.749) rotate(180)"/><rect class="c" width="93.445" height="101.839" transform="translate(567.823 19.584)"/><rect class="c" width="90.087" height="6.155" transform="translate(510.189 25.739) rotate(180)"/><rect class="c" width="31.894" height="6.155" transform="translate(599.717 143.245) rotate(180)"/><rect class="c" width="91.207" height="6.155" transform="translate(660.149 154.436) rotate(180)"/><rect class="c" width="129.816" height="6.155" transform="translate(531.452 48.122) rotate(180)"/><rect class="c" width="129.816" height="6.155" transform="translate(531.452 65.467) rotate(180)"/><rect class="c" width="129.816" height="6.155" transform="translate(531.452 82.814) rotate(180)"/><rect class="c" width="129.816" height="6.155" transform="translate(531.452 100.16) rotate(180)"/><rect class="c" width="129.816" height="6.155" transform="translate(531.452 117.506) rotate(180)"/><rect class="c" width="129.816" height="6.155" transform="translate(531.452 134.852) rotate(180)"/><rect class="c" width="129.816" height="6.155" transform="translate(531.452 152.198) rotate(180)"/><path class="d" d="M843.4,226.678a16.53,16.53,0,0,1,4.525-2.269,115.379,115.379,0,0,1,31.881-6.94c9.48-.672,19.754.126,27.158,6.084a9.339,9.339,0,0,1,2.755,3.21c.931,2.01.649,4.347.348,6.542a7.393,7.393,0,0,1-.634,2.463c-1,1.9-3.449,2.562-5.58,2.334s-4.13-1.129-6.232-1.547a27.855,27.855,0,0,0-3.936-.4l-13.181-.714c-8.2-.444-16.5-.88-24.541.774a24.444,24.444,0,0,0-7.09,2.443c-1.836,1.031-3.073,2.51-4.777.606C841.1,235.918,839.445,229.768,843.4,226.678Z" transform="translate(-261.543 -148.942)"/><path class="c" d="M870.274,236.576S888,228.629,894.728,237.8s-3.668,5.5-3.668,5.5l-11.616,3.668-12.838-2.445Z" transform="translate(-267.993 -153.011)"/><path class="e" d="M872.741,228.026s2.445,11.616.611,14.672,10.393,7.336,10.393,7.336l11.615-4.891s-3.057-18.952,0-22.62Z" transform="translate(-269.543 -150.269)"/><path class="f" d="M872.741,228.026s2.445,11.616.611,14.672,10.393,7.336,10.393,7.336l11.615-4.891s-3.057-18.952,0-22.62Z" transform="translate(-269.543 -150.269)"/><path class="e" d="M897.971,208.147a18.355,18.355,0,0,1-18.34,18.34,17.9,17.9,0,0,1-3.258-.293,18.34,18.34,0,1,1,21.6-18.047Z" transform="translate(-266.65 -142.005)"/><path class="c" d="M905.417,275.97h-58.49l1.326-5.758,5.741-25.018,6.636-4.482.006-.006,3.117-2.11,1.55-1.046s.918.42,1.975.99c.308.173.621.353.934.543.006-.006.006,0,.006,0a10.952,10.952,0,0,1,1.444,1c.084.078.157.145.229.218,1.164,1.164,4.56,7.341,10.178,4.18a8.558,8.558,0,0,0,.823-.515,40.7,40.7,0,0,0,4.18-3.318c1.181-1.08,1.947-1.914,2.574-2.49a4.065,4.065,0,0,1,.951-.705,1.808,1.808,0,0,1,.856-.207c1.835,0,4.281,3.665,4.281,3.665l.073.213.006.017,7.716,23.165Z" transform="translate(-263.023 -153.988)"/><path class="d" d="M843.241,274.671h17.727a43.138,43.138,0,0,0-.319-6.133c-.543-4.09-1.875-8.03-2.714-12.07a50.773,50.773,0,0,1-1.069-10.766c.006-.5.017-1,.062-1.505a6.891,6.891,0,0,1,.968-3.268c.42-.644,1-1.192,1.444-1.807a4.145,4.145,0,0,0,.408-.643v-.006a3.721,3.721,0,0,0,.151-.341,2.763,2.763,0,0,0,.168-.834c.1-1.847-1.572-3.626-3.38-4.387a12.636,12.636,0,0,0-7.918-.319,37.689,37.689,0,0,0-7.442,3.044c-.8.392-1.595.795-2.361,1.242a11.723,11.723,0,0,0-2.5,1.9c-1.9,1.964-2.736,4.7-3.408,7.347a15.532,15.532,0,0,0-.643,6.267c.006.067.022.14.034.207.666,3.486,3.508,6.1,5.025,9.317,1.757,3.727,1.639,8.069.94,12.131-.034.207-.073.414-.112.621h4.941Z" transform="translate(-259.337 -152.689)"/><path class="d" d="M931.985,250.854a138.524,138.524,0,0,0-4.829,22.388H901.887q-.99-2.7-1.975-5.411a40.537,40.537,0,0,1-1.349-4.163,19.927,19.927,0,0,1-.565-5.014c0-.4.017-.811.05-1.214a.017.017,0,0,0,0-.022,20.025,20.025,0,0,1,1.46-6.194,23.1,23.1,0,0,1,1.287-2.613c1.175-2.126,2.6-4.13,3.861-6.211a28.509,28.509,0,0,0,2.054-3.984.021.021,0,0,1,.006-.017,14.3,14.3,0,0,0,1.158-5.568c-.039-2.468-4.213-6.771.325-6.357,6.194.56,11.516,4.124,16.367,8.186,1.293,1.086,2.557,2.21,3.794,3.318,1.914,1.723,3.934,3.6,4.51,6.116a6.516,6.516,0,0,1,.162,1.22A16.749,16.749,0,0,1,931.985,250.854Z" transform="translate(-275.921 -151.26)"/><path class="e" d="M885.776,247.448a13.663,13.663,0,0,0-2.869-4.626,10.644,10.644,0,0,0-4.383-2.22,23.969,23.969,0,0,0-6.429-.921c-2.589-.016-5.591.678-6.691,3.022-.873,1.861-.2,4.066.683,5.924a5.808,5.808,0,0,0,1.812,2.448c1.117.754,2.561.73,3.884.983a17.915,17.915,0,0,1,5.741,2.6l4.535,2.741,7.789,4.708c-.205-.124-.132-5.466-.372-6.341C888.706,252.948,886.972,250.119,885.776,247.448Z" transform="translate(-267.587 -154.602)"/><path class="d" d="M895.5,195.365a4.655,4.655,0,0,0-2.019-2.635,10.683,10.683,0,0,0-.426-3.478c-1.111-3.284-3.742-3.1-6.224-4.547-1.077-.63-1.01-1.187-1.571-2.221a8.243,8.243,0,0,0-3.176-3.241,11.429,11.429,0,0,0-5.158-2.188c-3.96-.27-7,3.454-10.78,4.65-1.668.527-3.461.549-5.138,1.047s-3.35,1.687-3.6,3.419c-.115.8.088,1.619-.029,2.418-.233,1.588-1.626,2.7-2.559,4.007-2.063,2.889-1.827,6.97-.177,10.113a14.2,14.2,0,0,0,1.189,1.861,11.449,11.449,0,0,0,1.256,4.252c1.65,3.143,4.488,5.492,7.453,7.443a17.6,17.6,0,0,1-.44-3.174,2.19,2.19,0,0,1,.135-1.052c.33-.69,1.2-.874,1.868-1.252a4.721,4.721,0,0,0,1.958-4.1c.04-1.584-.3-3.171-.13-4.748a2.594,2.594,0,0,1,.888-1.908,3.068,3.068,0,0,1,1.674-.4c2.823-.115,5.773-.167,8.264-1.5a12.248,12.248,0,0,1,2.572-1.3c2.116-.552,4.279.931,5.5,2.747s1.828,3.976,2.953,5.851,3.07,3.548,5.245,3.326a.871.871,0,0,0,.65-.289.974.974,0,0,0,.12-.554l.122-8.317a12.571,12.571,0,0,0-.419-4.227Z" transform="translate(-264.642 -138.781)"/><path class="d" d="M840.077,269.2q.6,4.91.722,9.854H825.411V266.122c.078-.313.162-.621.263-.929.962-2.966,2.982-5.45,4.734-8.03.084-.129.173-.257.257-.386a21.006,21.006,0,0,0,1.914-3.452c.252-.593.655-3.464,1.08-3.71,1.824-1.058,3.307,3.464,3.559,4.471.9,3.587,1.673,7.207,2.261,10.861Q839.822,267.071,840.077,269.2Z" transform="translate(-257.588 -157.071)"/><path class="d" d="M933.609,277.889H898.284c-.3-.711-.6-1.421-.912-2.126a62.163,62.163,0,0,0-8.472-13.894,3.676,3.676,0,0,1-1.046-2.076,1.757,1.757,0,0,1,.229-.934c.537-1,1.958-1.589,3.111-2.065a10.72,10.72,0,0,0,3.234-2.037A6.935,6.935,0,0,0,896.3,252a6.048,6.048,0,0,0,.235-.951l.492.643c.4.526.8,1.046,1.209,1.567,3.917,5.03,8.22,9.988,13.631,12.97a22.927,22.927,0,0,0,4.454,1.9,1.169,1.169,0,0,0,.94,0,1.138,1.138,0,0,0,.408-.75c.481-2.014.649-4.09,1-6.133a34.932,34.932,0,0,1,3.688-10.62c1-1.863,4.258-8.673,6.323-4.381q.89,1.855,1.791,3.721c.375.789.755,1.572,1.136,2.361a14.686,14.686,0,0,1,1.841,8.225Q933.53,269.227,933.609,277.889Z" transform="translate(-273.359 -155.907)"/><path class="f" d="M845.386,284.305h3.061l-1.735-5.758-2.5-8.3a27.069,27.069,0,0,1-.241,4.2,27.983,27.983,0,0,1-2.44,8.3c-.241.509-.5,1.024-.705,1.55h4.56Z" transform="translate(-261.482 -162.323)"/><path class="f" d="M929.391,265.38a5.977,5.977,0,0,0,.293,3.632,36.591,36.591,0,0,1,1.334,10.618.386.386,0,0,1-.452.463c-1.411.086-3.027.1-3.984-.945Z" transform="translate(-283.141 -161.093)"/><rect class="b" width="315.587" height="213.749" transform="translate(0 2.2)"/><rect class="c" width="93.445" height="101.839" transform="translate(20.144 21.784)"/><rect class="c" width="90.087" height="6.155" transform="translate(171.223 21.784)"/><rect class="c" width="31.894" height="6.155" transform="translate(21.263 139.29)"/><rect class="c" width="91.207" height="6.155" transform="translate(21.263 150.481)"/><rect class="c" width="129.816" height="6.155" transform="translate(149.96 44.166)"/><rect class="c" width="129.816" height="6.155" transform="translate(149.96 61.513)"/><rect class="c" width="129.816" height="6.155" transform="translate(149.96 78.859)"/><rect class="c" width="129.816" height="6.155" transform="translate(149.96 96.204)"/><rect class="c" width="129.816" height="6.155" transform="translate(149.96 113.551)"/><rect class="c" width="129.816" height="6.155" transform="translate(149.96 130.897)"/><rect class="c" width="129.816" height="6.155" transform="translate(149.96 148.243)"/><path class="g" d="M207.016,280.052H194.868q-1.4-3.769-2.49-7.632a15.247,15.247,0,0,0-3.962-8.074,14.977,14.977,0,0,1-1.707-2.316,10.88,10.88,0,0,1-1.074-6.6,17.138,17.138,0,0,1,.313-1.869c.532-2.389,1.421-4.683,2.165-7.011a2.659,2.659,0,0,1,2.171-1.8,4.306,4.306,0,0,1,2.372.274,2.945,2.945,0,0,1,.476.246c1.326.8,2.014,2.434,2.568,3.928q3.8,10.206,7.6,20.412.739,1.981,1.477,3.973c.727,1.947,1.449,3.894,2.065,5.881C206.9,279.665,206.96,279.855,207.016,280.052Z" transform="translate(-95.968 -155.869)"/><path class="d" d="M139.186,171.622c-3.02,1.02-5.757,3.406-6.375,6.533-.287,1.45-.111,2.957-.352,4.415-.56,3.381-3.214,5.964-5.662,8.362s-4.976,5.186-5.155,8.608c-.2,3.748,2.522,7.259,2.052,10.982-.546,4.326-5.115,7.129-6.245,11.34-.754,2.812.17,5.841,1.69,8.324,2.9,4.731,7.85,7.944,13.124,9.666s10.891,2.084,16.439,2.142c6.755.071,14.089-.509,19.165-4.967a15.353,15.353,0,0,0,5.1-10c.482-5.164-1.673-10.5-.187-15.469.936-3.127,3.282-5.983,2.932-9.229-.342-3.173-3.114-5.422-5.015-7.986a32.46,32.46,0,0,1-3.908-8.007l-3.612-9.535c-.71-1.874-1.49-3.846-3.072-5.076-2.963-2.3-7.726-1.851-11.19-1.376C145.7,170.8,142.277,170.578,139.186,171.622Z" transform="translate(-78.709 -136.995)"/><path class="h" d="M150.075,213.513s.354,10.607-.707,11.667,4.242,8.132,4.242,8.132l9.546-.354,4.95-3.889-4.243-5.657s-1.768-9.193-.354-11.314S150.075,213.513,150.075,213.513Z" transform="translate(-86.803 -147.465)"/><path class="f" d="M150.075,213.513s.354,10.607-.707,11.667,4.242,8.132,4.242,8.132l9.546-.354,4.95-3.889-4.243-5.657s-1.768-9.193-.354-11.314S150.075,213.513,150.075,213.513Z" transform="translate(-86.803 -147.465)"/><circle class="h" cx="12.728" cy="12.728" r="12.728" transform="translate(56.377 44.658)"/><path class="g" d="M152.69,275.113h10.318c.386-.7.75-1.427,1.169-2.087v-.006a5.712,5.712,0,0,1,1.88-1.97,7.407,7.407,0,0,0,1.393-.834,3.594,3.594,0,0,0,.85-1.589,24.626,24.626,0,0,0,1.164-6.86c.017-.783,0-1.578.045-2.361a9.926,9.926,0,0,1,.235-1.819,14.321,14.321,0,0,1,1.528-3.458q2.1-3.819,4.208-7.638a5.338,5.338,0,0,0,.285-2.238,5.517,5.517,0,0,0-.906-2.871c-.2-.352-.408-.705-.632-1.046a23.24,23.24,0,0,0-3-3.827,24.264,24.264,0,0,0-8.539-5.78,4.954,4.954,0,0,1-1.147-.56,4.761,4.761,0,0,1-1.052-1.259c-1.119-1.684-2.484-3.581-4.5-3.475a2.769,2.769,0,0,0-2.137-.145,2.921,2.921,0,0,0-.313.1,19.889,19.889,0,0,0-2.244,1.169,10.416,10.416,0,0,1-6.043,1.1,2.046,2.046,0,0,1-.705-.179,3.612,3.612,0,0,1-.649-.526,3.731,3.731,0,0,0-3.71-.593,3.368,3.368,0,0,0-1.477,1.041c-.369.464-.627,1.024-1.035,1.46-1.058,1.13-2.8,1.175-4.348,1.169a40.18,40.18,0,0,0-9.552.878,18.157,18.157,0,0,0-7.52,3.637l-.006.006c-.3.257-.582.52-.862.8a6.387,6.387,0,0,0-1.488,2.126c-.425,1.1-.369,2.333-.755,3.447-.425,1.248-1.371,2.266-1.751,3.52a14.153,14.153,0,0,1-.733,2.865c.022.017.039.034.062.05,2.037,1.791,3.777,4.141,5.819,5.914a11.744,11.744,0,0,1,2.954,3.3,5.452,5.452,0,0,1,.364.9,13.767,13.767,0,0,1,.3,3.257c.257,5.232,3.094,9.977,6.267,14.14.062.084.123.168.19.246Z" transform="translate(-77.061 -150.93)"/><path class="g" d="M116.412,263.314q-.722,5.011-1.455,10.016a43.64,43.64,0,0,1-1,5.3c-.291,1.08-.666,2.138-.929,3.217H98.461a13.96,13.96,0,0,1,.14-1.807,29.88,29.88,0,0,1,1.819-6.273q2.543-6.866,5.081-13.743c.722-1.953,1.343-4,2.137-5.931.14-.358.291-.716.453-1.063.845-1.858,3.189-1.1,4.924-.817a4.676,4.676,0,0,1,1.376.392,3.552,3.552,0,0,1,1.293,1.22c1.645,2.434,1.287,5.652.862,8.561Q116.479,262.852,116.412,263.314Z" transform="translate(-73.981 -157.669)"/><path class="d" d="M178.382,289.2c.022.078.263.912.66,2.087H166.894c6.021-1.035,11.488-2.093,11.488-2.093Z" transform="translate(-91.265 -167.109)"/><ellipse class="d" cx="13.789" cy="7.425" rx="13.789" ry="7.425" transform="translate(56.377 42.537)"/><rect class="a" width="315.587" height="213.749" transform="translate(202.171 80.888)"/><ellipse class="f" cx="36.93" cy="3.917" rx="36.93" ry="3.917" transform="translate(434.945 272.255)"/><rect class="c" width="93.445" height="101.839" transform="translate(222.315 100.472)"/><path class="d" d="M400.35,311.7a1.372,1.372,0,0,0,1.608-.664c1.292-2.036-1.087-4.662-.572-7.018.413-1.888,2.558-3.008,3-4.89.426-1.829-.887-3.89,0-5.544.7-1.3,2.432-1.637,3.885-1.41s2.833.866,4.3.955c1.956.119,3.821-.742,5.734-1.169s4.247-.26,5.372,1.345c1.445,2.061-.021,4.93.482,7.4.4,1.958,2.039,3.579,2.074,5.578.013.71-1.854.138-1.755.841s-.783.084-.078,0a1.4,1.4,0,0,0,1.062-1.263c.084-.586,1.185-.781,1.172-1.373-.03-1.387,2.477-.452,2.89-1.776a13.427,13.427,0,0,0-.549-9.367,18.762,18.762,0,0,1-1.6-3.809c-.368-1.839.211-3.812-.4-5.586-.819-2.391-3.527-3.609-6.042-3.857s-5.07.2-7.571-.169c-2.24-.327-4.408-1.3-6.668-1.157-2.711.169-5.07,1.915-6.949,3.877s-3.473,4.217-5.608,5.9a11,11,0,0,0-1.8,1.548,6.039,6.039,0,0,0-.895,4.9c.3,1.687.96,3.3,1.238,4.987.261,1.589.181,3.213.293,4.819a8.47,8.47,0,0,0,1.413,4.549,4.293,4.293,0,0,0,3.341,1.745c.452.01.834-.4,1.291-.29C399.595,310.926,399.843,311.468,400.35,311.7Z" transform="translate(-147.945 -164.47)"/><path class="i" d="M375.913,391.618c.408-5.6.716-9.787.716-9.787l2.641-6.961,8.477,16.747Z" transform="translate(-144.058 -188.747)"/><path class="f" d="M375.913,391.618c.408-5.6.716-9.787.716-9.787l2.641-6.961,8.477,16.747Z" transform="translate(-144.058 -188.747)"/><path class="h" d="M402.2,321.942s7.9,20.121,3.353,23.953,25.39-6.467,25.39-6.467l-.719-2.635s-9.821-3.833-5.03-14.851S402.2,321.942,402.2,321.942Z" transform="translate(-150.696 -174.142)"/><path class="f" d="M402.2,321.942s7.9,20.121,3.353,23.953,25.39-6.467,25.39-6.467l-.719-2.635s-9.821-3.833-5.03-14.851S402.2,321.942,402.2,321.942Z" transform="translate(-150.696 -174.142)"/><circle class="h" cx="16.767" cy="16.767" r="16.767" transform="translate(245.992 122.409)"/><path class="i" d="M447.772,355.594s-.067,1.332-.185,3.659c-.241,4.739-.671,13.62-1.1,23.865h-65a32.226,32.226,0,0,1-4.135-7.4,7.989,7.989,0,0,1-.487-2.384c-.358-6.351,5.333-15.214,9.35-16.059,4.549-.962,13.172-10.061,13.172-10.061a2.052,2.052,0,0,0,1.1,1.656v.006a4.458,4.458,0,0,0,2.255.492c2.809,0,15.164-5.7,19.131-7.565.778-.364,1.231-.582,1.231-.582a92.984,92.984,0,0,0,14.134,4.8A15.033,15.033,0,0,1,447.772,355.594Z" transform="translate(-144.294 -180.248)"/><path class="d" d="M396.5,309.456a1.372,1.372,0,0,0,1.608-.664c1.292-2.036-1.087-4.662-.572-7.018.413-1.888,2.558-3.008,3-4.89.426-1.829-.887-3.89,0-5.544.7-1.3,2.432-1.637,3.885-1.41s2.833.866,4.3.955c1.956.119,3.821-.742,5.734-1.169s4.246-.26,5.372,1.345c1.445,2.061-.021,4.93.482,7.4.4,1.958,4.952,3.332,5.365,2.008a13.427,13.427,0,0,0-.549-9.367,18.76,18.76,0,0,1-1.6-3.809c-.368-1.839.211-3.812-.4-5.586-.819-2.391-3.527-3.609-6.042-3.857s-5.07.2-7.571-.169c-2.24-.327-4.408-1.3-6.668-1.157-2.711.169-5.07,1.915-6.949,3.877s-3.473,4.217-5.608,5.9a11,11,0,0,0-1.8,1.548,6.04,6.04,0,0,0-.895,4.9c.3,1.687.96,3.3,1.238,4.987.261,1.589.181,3.213.293,4.819a8.47,8.47,0,0,0,1.413,4.549,4.293,4.293,0,0,0,3.341,1.745c.452.01.834-.4,1.291-.29C395.749,308.682,396,309.224,396.5,309.456Z" transform="translate(-146.973 -163.903)"/><path class="f" d="M475.555,387.976H456.586c-1.444-10.587-2.635-21.655-2.635-21.655l3.833-1.679,7.789-4.191s.571,1.354,1.488,3.659C469.019,369.041,472.572,378.318,475.555,387.976Z" transform="translate(-163.768 -185.105)"/><path class="i" d="M475.73,387.085H454.322c-3.173-11.583-6.3-24.173-6.3-24.173l8.147-5.987,9.58,2.635S471.355,372.907,475.73,387.085Z" transform="translate(-162.27 -184.215)"/><rect class="j" width="90.087" height="6.155" transform="translate(373.394 100.472)"/><rect class="j" width="31.894" height="6.155" transform="translate(223.434 217.978)"/><rect class="j" width="91.207" height="6.155" transform="translate(223.434 229.17)"/><rect class="c" width="129.816" height="6.155" transform="translate(352.131 122.855)"/><rect class="c" width="129.816" height="6.155" transform="translate(352.131 140.201)"/><rect class="c" width="129.816" height="6.155" transform="translate(352.131 157.547)"/><rect class="c" width="129.816" height="6.155" transform="translate(352.131 174.893)"/><rect class="c" width="129.816" height="6.155" transform="translate(352.131 192.239)"/><rect class="c" width="129.816" height="6.155" transform="translate(352.131 209.586)"/><rect class="c" width="129.816" height="6.155" transform="translate(352.131 226.931)"/><path class="k" d="M723.92,430l-35.487,35.487-14.916-14.915a5.1,5.1,0,0,0-7.211,0l-.536-.8c-1.991,1.991-1.455,6.021.536,8.012l19.352,19.352a3.89,3.89,0,0,0,5.5,0l39.967-39.925c1.992-1.99,2.715-5.64.724-7.631h0C729.86,427.589,725.911,428.009,723.92,430Z" transform="translate(-216.952 -202.237)"/><path class="f" d="M723.92,430l-35.487,35.487-14.916-14.915a5.1,5.1,0,0,0-7.211,0l-.536-.8c-1.991,1.991-1.455,6.021.536,8.012l19.352,19.352a3.89,3.89,0,0,0,5.5,0l39.967-39.925c1.992-1.99,2.715-5.64.724-7.631h0C729.86,427.589,725.911,428.009,723.92,430Z" transform="translate(-216.952 -202.237)"/><path class="k" d="M724.02,427.972l-35.487,35.487-14.916-14.915a5.1,5.1,0,0,0-7.21,0h0a5.1,5.1,0,0,0,0,7.21l19.352,19.352a3.89,3.89,0,0,0,5.5,0l39.966-39.925a5.1,5.1,0,0,0,0-7.211h0a5.1,5.1,0,0,0-7.208,0Z" transform="translate(-217.051 -201.782)"/><path class="f" d="M1009.725,687.009c0,40.012-55.773,27.636-124.06,27.636s-123.231,12.377-123.231-27.636,55.765-48.715,124.053-48.715S1009.725,647,1009.725,687.009Z" transform="translate(-241.682 -255.281)"/><path class="a" d="M1009.725,677.009c0,40.012-55.773,27.636-124.06,27.636s-123.231,12.377-123.231-27.636,55.765-48.715,124.053-48.715S1009.725,637,1009.725,677.009Z" transform="translate(-241.682 -252.755)"/><path class="l" d="M770.534,525.762l-2.527,2.934s-30.728,2.885-29.481,7.873,37-6.651,37-6.651Z" transform="translate(-235.634 -226.858)"/><path class="j" d="M838.751,522.425s-32.839,11.639-50.714,6.651L796.35,545.7s42.4-1.247,49.883-8.729S838.751,522.425,838.751,522.425Z" transform="translate(-248.149 -226.015)"/><path class="f" d="M838.751,522.425s-32.839,11.639-50.714,6.651L796.35,545.7s42.4-1.247,49.883-8.729S838.751,522.425,838.751,522.425Z" transform="translate(-248.149 -226.015)"/><circle class="l" cx="22.031" cy="22.031" r="22.031" transform="translate(546.331 163.181)"/><path class="l" d="M839.764,397.924a17.187,17.187,0,0,0,2.854,3.956,36.036,36.036,0,0,0,10.62,7.946,361.891,361.891,0,0,1-37.838,5.626c1.341-4.723-.424-9.775-2.8-14.073s-5.4-8.3-6.882-12.985l14.891.4c2.7.073,5.412.154,8.114.021,2.019-.1,5.383-1.308,7.267-.863C839.978,388.9,838.024,394.39,839.764,397.924Z" transform="translate(-252.615 -192.027)"/><path class="d" d="M863.674,537.559l12.471,14.965s20.784,48.635-24.526,53.624-78.981-3.741-78.981-3.741-18.29-8.729-18.706-2.078-2.078,25.357-12.055,43.647l-8.729,19.953s-4.573,4.573-3.326,10.808-27.851,8.314-27.435,0c0,0,4.157-7.067,4.157-11.224s6.651-14.133,6.651-14.133L725.25,589.52s-.831-30.761,27.435-24.941,68.589-1.247,68.589-1.247l9.145-32.008Z" transform="translate(-226.515 -228.263)"/><path class="f" d="M863.674,537.559l12.471,14.965s20.784,48.635-24.526,53.624-78.981-3.741-78.981-3.741-18.29-8.729-18.706-2.078-2.078,25.357-12.055,43.647l-8.729,19.953s-4.573,4.573-3.326,10.808-27.851,8.314-27.435,0c0,0,4.157-7.067,4.157-11.224s6.651-14.133,6.651-14.133L725.25,589.52s-.831-30.761,27.435-24.941,68.589-1.247,68.589-1.247l9.145-32.008Z" transform="translate(-226.515 -228.263)"/><path class="d" d="M803.937,537.066s38.035-14.286,59.236,16.06c0,0,5.4,46.973-16.212,49.051s-49.883,1.663-56.534-5.4-48.635-27.02-48.635-27.02-20.9-10.66-25,3.192-4.515,17.177-4.515,17.177-21.616,15.8-30.345,18.706c0,0-5.82,8.314-9.145,8.314s-23.694,4.573-21.616-10.808l33.671-30.761,33.671-32.839s9.561-14.133,34.086-6.651a507.07,507.07,0,0,0,49.467,12.055Z" transform="translate(-213.543 -228.865)"/><path class="m" d="M717.4,721.672s7.9,19.953,1.247,22.447-20.784.831-20.784.831-16.628-2.078-20.784-1.663-21.2-2.91-18.706-9.561,15.38-4.988,15.38-4.988l11.639-5.4s1.247-4.157,4.157-2.494S700.768,728.738,717.4,721.672Z" transform="translate(-215.335 -276.031)"/><path class="m" d="M663.281,640.021s8.729,19.537-5.4,17.875-24.941-4.573-29.1-4.988c-4-.4-15.3-4.261-13.571-11.954a6.84,6.84,0,0,0,.113-1.51c0-1.033,1.4-3.059,12.627-2.747,0,0,8.314,0,11.639-5.82C639.586,630.876,652.056,646.672,663.281,640.021Z" transform="translate(-204.451 -253.407)"/><path class="j" d="M805.834,417.839s29.93-18.706,54.871,0,41.569,103.922,41.569,103.922l-57.781-12.886s-2.494-9.977-5.82-11.639-3.741-8.729-3.741-8.729-17.875-5.4-16.627-26.188S805.834,417.839,805.834,417.839Z" transform="translate(-252.644 -197.5)"/><path class="j" d="M813.938,421.76h-15.38s-9.145,10.392-10.392,36.581l-4.988,20.785s-10.392,24.941-4.157,29.1,18.29,3.741,20.784-4.573,19.537-56.534,19.537-56.534Z" transform="translate(-245.368 -200.59)"/><path class="d" d="M806.724,334.728a22.271,22.271,0,0,1,23.037,3.777c7.983,7.124,9.594,18.747,11.612,29.255s6.078,22.21,15.982,26.261a41.638,41.638,0,0,1-13.417-.39L858.9,407.042l-25.211-8.218c-7.912-2.579-16.222-5.19-24.416-3.734-13.574,2.413-23.024,15.173-36.061,19.656l1.449-7.07-8.747-.067a17.133,17.133,0,0,0,5.012-5.871,4.85,4.85,0,0,0-3.346-1.751c-3.646-22.743,9.859-45.225,27.459-60.084,3.462-2.923,7.292-5.73,11.764-6.461s9.691,1.268,11.246,5.524" transform="translate(-242.562 -178.188)"/><path class="a" d="M310.2,614.159c0,47.847,30.017,86.565,67.112,86.565" transform="translate(-127.459 -249.185)"/><path class="j" d="M399.987,700.4c0-48.385,33.5-87.537,74.893-87.537" transform="translate(-150.138 -248.857)"/><path class="j" d="M342.729,619.963c0,45.45,19.141,82.227,42.8,82.227" transform="translate(-135.676 -250.651)"/><path class="a" d="M399.987,692.179c0-61.825,38.717-111.853,86.565-111.853" transform="translate(-150.138 -240.64)"/><path class="n" d="M381.1,729.055s9.518-.293,12.386-2.336,14.641-4.481,15.352-1.206,14.3,16.292,3.558,16.379-24.967-1.674-27.83-3.418S381.1,729.055,381.1,729.055Z" transform="translate(-145.367 -276.906)"/><path class="o" d="M412.585,742.486c-10.745.087-24.967-1.674-27.83-3.418-2.18-1.328-3.049-6.094-3.34-8.292l-.318.012s.6,7.676,3.466,9.42,17.085,3.5,27.83,3.418c3.1-.025,4.173-1.129,4.114-2.763C416.077,741.851,414.893,742.467,412.585,742.486Z" transform="translate(-145.367 -278.639)"/></g></svg>