<svg xmlns="http://www.w3.org/2000/svg" xmlns:xlink="http://www.w3.org/1999/xlink" width="639.562" height="500.431" viewBox="0 0 639.562 500.431"><defs><style>.a{fill:#6c63ff;}.a,.d,.g,.l{opacity:0.1;}.b{fill:url(#a);}.c{fill:#efb7b9;}.e{fill:#dce6f2;}.f{fill:#965d7b;}.h{fill:#444053;}.i{fill:#a36468;}.j{fill:#1f4ee5;}.k{opacity:0.05;}.l{fill:#fff;}.m{fill:#a8a8a8;}.n{opacity:0.2;}</style><linearGradient id="a" x1="1" y1="0.5" x2="0" y2="0.5" gradientUnits="objectBoundingBox"><stop offset="0" stop-color="gray" stop-opacity="0.251"/><stop offset="0.54" stop-color="gray" stop-opacity="0.122"/><stop offset="1" stop-color="gray" stop-opacity="0.102"/></linearGradient></defs><ellipse class="a" cx="111.562" cy="21.134" rx="111.562" ry="21.134" transform="translate(303.65 448.47)"/><path class="a" d="M363.2,125.6c41-1.419,80.051-14.66,117.34-29.142S554.759,65.94,594.778,58.269c25.74-4.935,55.179-5.638,75.914,8.147,19.962,13.3,26.411,36.205,29.877,57.473,2.61,16,4.143,32.848-3,47.83-4.967,10.4-13.773,19.145-19.867,29.11-21.2,34.666-6.215,77.416,16.756,111.264,10.77,15.876,23.282,31.042,31.6,47.925s12.164,36.294,4.884,53.564c-7.209,17.1-24.4,29.927-43.016,38.955-37.815,18.34-82.357,23.586-125.823,26.563-96.187,6.576-192.88,3.731-289.32.874-35.692-1.052-71.537-2.122-106.646-7.64-19.5-3.066-39.626-7.932-53.785-19.677-17.966-14.907-22.42-40.146-10.377-58.835,20.2-31.359,76.022-39.145,90.156-72.791,7.767-18.524-.209-39.151-11.5-56.326-24.226-36.852-64.828-69.18-66.963-111.3-1.47-28.926,18.049-57.9,48.229-71.587,31.631-14.349,75.5-12.544,98.828,11.207C284.761,117.458,326.991,126.866,363.2,125.6Z" transform="translate(-95.226 -55.033)"/><path class="b" d="M318.089,319.423l19.4-13.082h0l-9.788-14.571,51.251-4.086,18.416,14.241L420.427,289l19.227,2.312.228-5.068a143.036,143.036,0,0,1,1.59-15.775c-.082-1.584-.139-3.4-.133-5.379,0-8.331,1.128-19.373,6.082-26.734l-1.14-10.25,9.249-10.928a69.918,69.918,0,0,0-5.068-8.527c-.317-.456-.634-.9-.976-1.33a23,23,0,0,1-21.476-22.807,14.594,14.594,0,0,1,.063-1.666,6.035,6.035,0,0,1,.07-.672c-1.172.634-2.357,1.267-3.541,1.9-.222.317-.475.634-.754,1.007h0l-.057.07-.355.437-.114.133c-.127.152-.26.3-.393.45l-.089.1c-.336.374-.691.754-1.071,1.128a1.136,1.136,0,0,0-.127.12l-.475.443-.133.12c-.405.361-.836.71-1.267,1.039l-.139.1-.545.374-.177.114c-.209.127-.424.26-.634.38l-.076.044c-.247.133-.5.26-.754.38l-.127.051q-.323.139-.634.266l-.2.07c-.222.076-.437.146-.665.209l-.139.038c-.279.07-.558.127-.843.171h-.032a6.9,6.9,0,0,1-.811.082h-.184a6.957,6.957,0,0,1-.729,0h-.158a7.5,7.5,0,0,1-.906-.108,10,10,0,0,1-3.991-1.432,3.485,3.485,0,0,1-.811-.754,2.987,2.987,0,0,1,.127-3.478h0c.494-1.178,3.7-2.008,3.7-2.008s10.136-4.232,10.136-7.6,2.534-20.855,28.692-24.853c0,0,17.016-.957,21.8,8.153l.1,1.064c1.406.881,2.572,2.648,3.959,3.168a6.469,6.469,0,0,1,1.717.634v-.12h0a1.634,1.634,0,0,1,.386.5,5.068,5.068,0,0,1,.526,1.9,7.158,7.158,0,0,0,.83,2.3,5.119,5.119,0,0,0,.38.583h0l.108.171a4.625,4.625,0,0,1-2.154-.348,10.726,10.726,0,0,0,.634,2.534,2.1,2.1,0,0,1-1.951-1.166V170.5l-.082-.114a5.348,5.348,0,0,1-.393-.919l.07.076c-.127-.412-.241-.83-.38-1.235a1.938,1.938,0,0,0-.31-.634,1.533,1.533,0,0,0-1.311-.437l.26,5.493h-.114a7.494,7.494,0,0,0,.557,1.153c.9,1.457,2.534,2.452,3.136,4.048a5.955,5.955,0,0,1,.291,2.395c0,.475-.057.957-.1,1.432v-.038a5.343,5.343,0,0,0,.57,3.491c.469.7,1.223,1.223,1.482,2.015a1.964,1.964,0,0,1,.1.684,7.684,7.684,0,0,1-.431,2.034.088.088,0,0,1,0-.038,3.092,3.092,0,0,0-.108,1.5c.285,1.267,1.825,2.325,1.749,3.535a1.36,1.36,0,0,1-.07.469,2.566,2.566,0,0,1-1.432,1.267,5.575,5.575,0,0,1-3.218.71,4.232,4.232,0,0,1-1.2-.412c.443,1.02.9,2.027,1.362,2.984.07.152.146.3.222.456,0,0,3.915-2.616,6.139,2.718a11.834,11.834,0,0,1,1.375,3.573,8.5,8.5,0,0,0,.469,1.47,9.458,9.458,0,0,0,4.232,3.8c4.536,2.078,22.857,24.929,23.18,30.846a34.517,34.517,0,0,0,1.166,6.829,40.641,40.641,0,0,1,1.09,16.148,30.906,30.906,0,0,1-1.121,5.15c-1.945,5.911-3.244,16.94-3.244,16.94l-2.1,19.145a54.484,54.484,0,0,1-.342,7.913c2.148,2.452,10.77,12.67,7.475,15.451-2.534,2.192-6.969,1.831-9.458,1.381,2.1,5.189,5.4,14.21,5.835,20.406.634,9.167-1.083,21.311-3.8,25.974s-11.777,16.623-11.777,16.623.424,16.408-2.813,22.369-4.542,18.328-4.542,18.328-3.022,10.44-1.508,14.279-2.806,7.032,1.73,9.585,10.339,60.1,10.339,60.1,2.338,37.713,0,39.633a2.376,2.376,0,0,1-.4.234v12.67s1.622,2.661-4.973,3.2c-4.517.361-17.32,1.178-24.916,1.653l-5.885.367s-13.937,2.775-20.1,0-17.073-2.711-15.451-10.041a20.853,20.853,0,0,1,.862-2.933c1.78-4.549,4.8-5.068,10.371-6.335.323-.07.634-.133.919-.184,5.866-1.02,7.792,1.711,11.08-1.844,2.857-3.073,11.954-6.513,15.052-7.6-.076-.228-.171-.45-.247-.684a4.638,4.638,0,0,0,2.35-1.147l-8.394.532-5,.31s-11.847,2.363-17.1,0-14.507-2.3-13.126-8.527a17.871,17.871,0,0,1,.729-2.5c1.514-3.864,4.086-4.289,8.819-5.36.272-.057.526-.114.779-.158,4.986-.868,6.62,1.451,9.414-1.565,2.395-2.572,9.953-5.455,12.67-6.436,0-1.406,1.9-3.408,3.1-5.417,1.406-2.344-1.191-10.548-1.191-10.548l-1.482-34.039a6.577,6.577,0,0,0-1.774-.507s-6.7-6.4-5.188-13.215a43.8,43.8,0,0,0,.481-6.227c-2.2-2.046-5.239-5.068-6.1-6.931-1.406-3.035,0-17.738,0-17.738V371.871l-11.213,1.134-10.174,1.045-3.1.317-10.174,1.026-23.383,2.363-21.071-3.991-9.116-1.723-18.746-3.548V322.628ZM472.42,167.436l1.305-.139C473.294,167.315,472.838,167.4,472.42,167.436Z" transform="translate(-17.537 -90.257)"/><path class="c" d="M481.543,450.5c6.335,9.066,29.11,4.264,29.11,4.264L528.3,438.25l2.376-2.236-3.985-8.464s-1.267.348-3.44.969C511.844,431.833,476.2,442.881,481.543,450.5Z" transform="translate(-135.511 -191.555)"/><path class="d" d="M481,428.519a37.163,37.163,0,0,0,5.036,9.731l2.376-2.236-3.985-8.464S483.148,427.9,481,428.519Z" transform="translate(-93.244 -191.555)"/><path class="e" d="M432.229,278.266S448.5,285.482,447.7,303.2a292.141,292.141,0,0,1-3.725,34.058s3.326,26.665-10.523,33.538-26.665,12.525-26.665,12.525-21.666,2.331-24.359,3.294-11.106-13.76-9.553-16.053,21.438-7.1,23.972-10.928,8.394-6.189,8.394-6.189,6.05-3.662,6.462-6.969-1.185-5.771-1.59-7.222-1.432-15.458-1.432-15.458S401.852,273.939,432.229,278.266Z" transform="translate(16.059 -136.747)"/><path class="d" d="M382.048,370.39s22.319,3.738,20.158,11.549A47.316,47.316,0,0,0,382.048,370.39Z" transform="translate(55.502 -170.607)"/><path class="d" d="M398.3,375.38s12.271,10.016,9.87,10.529S398.3,375.38,398.3,375.38Z" transform="translate(39.08 -172.435)"/><path class="d" d="M420.781,380.89s3.288,6.734,1.267,6.278S420.781,380.89,420.781,380.89Z" transform="translate(10.7 -174.455)"/><path class="d" d="M416.243,374.838l1.356-.386c-.386-1.267-.494-2.293-.177-2.768,1.552-2.293,21.426-7.1,23.953-10.928s8.394-6.189,8.394-6.189,6.05-3.662,6.462-6.969-1.185-5.771-1.59-7.222-1.432-15.464-1.432-15.464-6.81-49.851,23.567-45.524c0,0,16.269,7.222,15.477,24.942a291.337,291.337,0,0,1-3.731,34.058S491.847,365.05,478,371.924s-26.665,12.525-26.665,12.525-21.66,2.325-24.359,3.294c-1.02.367-2.863-1.527-4.669-4.13l-1.026.957-17.65,16.509s-22.775,4.808-29.11-4.257C369.167,389.193,404.808,378.145,416.243,374.838Z" transform="translate(-29.311 -137.158)"/><path class="f" d="M384.051,171.332a5.385,5.385,0,0,1,1.755.678c.634.526.634,1.425.792,2.211a7.274,7.274,0,0,0,1.267,3.028,4.555,4.555,0,0,1-2.11-.348,10.856,10.856,0,0,0,.633,2.534,2.053,2.053,0,0,1-1.9-1.159,12.2,12.2,0,0,1-.792-2.224,1.831,1.831,0,0,0-.3-.634c-.583-.691-1.666-.38-2.566-.291a4.213,4.213,0,0,1-3.852-1.85c-.957-1.451-1.014-5.163,1.267-5.556C380.623,167.328,382.106,170.61,384.051,171.332Z" transform="translate(73.601 -96.32)"/><g class="g" transform="translate(450.062 75.526)"><path d="M378.085,175.194c-.057-.31-.1-.634-.165-.944h0a3.716,3.716,0,0,1,.792,2.211,6.967,6.967,0,0,0,.374,1.337A7.26,7.26,0,0,1,378.085,175.194Z" transform="translate(-368.677 -174.25)"/><path d="M378.147,182.534a10.535,10.535,0,0,1-.634-2.534,4.536,4.536,0,0,0,2.008.348,7.331,7.331,0,0,0,.729,1.267,4.511,4.511,0,0,1-2.1-.342,10.534,10.534,0,0,0,.634,2.534,2.059,2.059,0,0,1-1.9-1.159,4.727,4.727,0,0,1-.38-.906,1.9,1.9,0,0,0,1.647.792Z" transform="translate(-368.942 -176.357)"/><path d="M387.463,176.3c.9-.089,1.989-.4,2.572.291a1.957,1.957,0,0,1,.3.634c.057.165.108.336.152.507-.6-.475-1.577-.222-2.395-.139a4.232,4.232,0,0,1-3.852-1.85,3.51,3.51,0,0,1-.424-.995A4.219,4.219,0,0,0,387.463,176.3Z" transform="translate(-383.82 -174.433)"/></g><path class="e" d="M321.731,201l-9.661,11.619,1.261,11.726,11.676-18.277Z" transform="translate(116.851 -73.665)"/><path class="d" d="M312.07,212.619l1.185,11.03.076.7,10.535-16.5,1.134-1.78-.329-.513L321.731,201l-.653.786Z" transform="translate(116.858 -73.665)"/><path class="c" d="M374.129,221.323c3.269.938,6.392,4.156,9.11,8.065a68.824,68.824,0,0,1,4.916,8.451c.893,1.787,1.679,3.5,2.331,5l.456,1.064c1.1,2.6,1.717,4.346,1.717,4.346s25.024-18.815,21.064-20.082c-1.33-.424-3.079-3.275-4.808-6.867l-.215-.456c-1.1-2.306-2.173-4.878-3.13-7.3-1.958-4.973-3.408-9.294-3.408-9.294S364.151,218.472,374.129,221.323Z" transform="translate(49.781 -109.719)"/><path class="h" d="M478.017,202.58s-5.778,10.453-13.538,9.028-4.568-5.613-4.568-5.613Z" transform="translate(-69.076 -109.107)"/><path class="i" d="M381.1,759.459c5.119,2.338,16.693,0,16.693,0l4.878-.3c6.335-.405,16.94-1.09,20.691-1.394,5.474-.45,4.13-2.692,4.13-2.692V741.518l-26.557-6.728s-10.5,3.592-13.374,6.728c-2.73,2.99-4.327.691-9.2,1.552-.241.044-.494.1-.76.158-4.625,1.058-7.133,1.476-8.616,5.309a17.8,17.8,0,0,0-.716,2.471C366.9,757.178,375.985,757.134,381.1,759.459Z" transform="translate(39.037 -304.153)"/><path class="d" d="M368.13,753.327a19.846,19.846,0,0,0,2.99,1.533c3.484,1.59,6.8,3.529,10.32,5.03a24.138,24.138,0,0,0,11.131,2.287c2-.146,4.035-.633,5.942-.063a13.721,13.721,0,0,1,3.3,1.831c6.335-.405,16.94-1.09,20.691-1.394,5.474-.45,4.13-2.693,4.13-2.693v-1.584c-.2,0-.418-.057-.672-.076a11.96,11.96,0,0,0-3.864.576c-2.749.748-5.486,1.483-8.236,2.217a6.506,6.506,0,0,0-3.168-4.042,10.1,10.1,0,0,0-5.106-1.172c-4.264.057-8.3,2.078-12.556,2.281a6.917,6.917,0,0,1-3.478-.583c-.583-.292-1.1-.716-1.666-1.039a12.165,12.165,0,0,0-2.87-.969,63.2,63.2,0,0,1-8.2-2.648c-.76-.3-1.647-.836-1.546-1.647.133-1.077,1.825-1.2,2.268-2.192a1.267,1.267,0,0,0-.051-1.121c-.241.044-.494.1-.76.158C372.121,749.076,369.613,749.495,368.13,753.327Z" transform="translate(39.891 -308.943)"/><path class="i" d="M361.894,803.734c6.018,2.749,19.639,0,19.639,0l5.733-.336c7.425-.475,19.93-1.267,24.346-1.641,6.443-.532,4.859-3.167,4.859-3.167V782.619L385.22,774.7s-12.354,4.225-15.737,7.919c-3.212,3.516-5.068.811-10.827,1.824-.285.051-.583.114-.893.184-5.442,1.267-8.394,1.742-10.136,6.253a20.332,20.332,0,0,0-.843,2.908C345.213,801.048,355.875,800.991,361.894,803.734Z" transform="translate(63.651 -318.78)"/><path class="d" d="M346.628,796.535a23.587,23.587,0,0,0,3.516,1.805c4.1,1.869,8,4.149,12.145,5.917s8.609,3.022,13.1,2.692c2.344-.171,4.745-.76,6.969-.076a16.155,16.155,0,0,1,3.9,2.179c7.425-.475,19.93-1.267,24.346-1.641,6.443-.532,4.859-3.168,4.859-3.168v-1.863a7.946,7.946,0,0,0-.792-.089,13.9,13.9,0,0,0-4.549.678l-9.686,2.61a7.665,7.665,0,0,0-3.757-4.758,11.822,11.822,0,0,0-6.012-1.381c-5.017.07-9.762,2.445-14.774,2.686a8.178,8.178,0,0,1-4.08-.678c-.691-.348-1.267-.849-1.964-1.223a13.779,13.779,0,0,0-3.377-1.14,75.841,75.841,0,0,1-9.6-3.117c-.893-.355-1.939-.988-1.818-1.939.158-1.267,2.148-1.419,2.673-2.585a1.527,1.527,0,0,0-.063-1.318c-.285.051-.583.114-.893.184C351.323,791.53,348.371,792.024,346.628,796.535Z" transform="translate(64.662 -324.435)"/><path class="h" d="M378.96,647.54l1.692,39.8s2.534,8.128,1.159,10.453-3.693,4.644-2.851,6.018,10.979,16.237,14.254,10.535,6.506-30.409,6.506-30.409L396.7,653.425Z" transform="translate(60.206 -272.178)"/><path class="h" d="M413.442,491l-4.7,6.284v54.66s-1.375,14.571,0,17.58,8.343,9.028,8.343,9.028l5.86-30.092-1.267-31.834Z" transform="translate(18.388 -214.808)"/><path class="d" d="M378.96,647.54l1.692,39.8s2.534,8.128,1.159,10.453-3.693,4.644-2.851,6.018,10.979,16.237,14.254,10.535,6.506-30.409,6.506-30.409L396.7,653.425Z" transform="translate(60.206 -272.178)"/><path class="d" d="M413.442,491l-4.7,6.284v54.66s-1.375,14.571,0,17.58,8.343,9.028,8.343,9.028l5.86-30.092-1.267-31.834Z" transform="translate(18.388 -214.808)"/><path class="h" d="M327,445.4v29.566l5.277,23.016s1.692,55.54.215,62.294,5.068,13.095,5.068,13.095,3.8.424,3.8,3.377,6.335,11.4,6.335,11.4l-.209,16.471s-2.749,30.833,1.476,36.744-1.476,6.76-1.476,6.76c5.277,17.314,30.618,13.3,32.9,11.4s0-39.278,0-39.278-5.664-57.016-10.1-59.55-.215-5.7-1.692-9.5,1.476-14.146,1.476-14.146,1.267-12.252,4.435-18.163,2.749-22.173,2.749-22.173,8.869-11.828,11.5-16.471,4.333-16.68,3.7-25.765c-.431-6.139-3.655-15.078-5.7-20.222-.982-2.464-1.691-4.061-1.691-4.061l-.6.158-34.6,9.059Z" transform="translate(100.128 -192.526)"/><path class="d" d="M387.659,221.3c3.269.938,6.392,4.156,9.11,8.065h.71A22.629,22.629,0,0,0,417.117,218a22.287,22.287,0,0,0,1.989-4.53c-1.958-4.973-3.408-9.294-3.408-9.294S377.681,218.447,387.659,221.3Z" transform="translate(36.251 -109.693)"/><path class="c" d="M384.38,193.088a22.648,22.648,0,1,0,42.37-11.1,22.132,22.132,0,0,0-2.395-3.459,22.921,22.921,0,0,0-5.208-4.574,22.648,22.648,0,0,0-34.736,17.472C384.4,191.986,384.38,192.537,384.38,193.088Z" transform="translate(26.702 -97.322)"/><path class="d" d="M372.46,269.3l.076.7,10.535-16.471c1.1,2.6,1.717,4.346,1.717,4.346s25.024-18.841,21.064-20.108c-1.33-.424-3.079-3.275-4.808-6.867l-.215-.456c-1.837,5.474-12.512,16.414-16.953,20.8-.513.507-.938.925-1.267,1.229l-.678.634-.355.355C379.96,255.122,373.144,262.471,372.46,269.3Z" transform="translate(57.653 -119.317)"/><path class="e" d="M320.487,325.082l1.153,37.105.2,6.608s13.659-1.267,26.4-2.661c10.263-1.121,19.937-2.331,21.426-3.041,1.9-.893,5.974-1.584,9.186-2.021,2.483-.336,4.435-.513,4.435-.513s.729.215,1.85.418c2.445.443,6.741.8,9.243-1.368,3.2-2.781-5.207-12.886-7.3-15.312l-.462-.526.792-7.317,2.059-18.974s1.267-10.928,3.168-16.788a30.966,30.966,0,0,0,1.1-5.1,40.849,40.849,0,0,0-1.064-16,34.9,34.9,0,0,1-1.14-6.772c-.317-5.86-18.214-28.508-22.648-30.567a9.4,9.4,0,0,1-4.536-4.523,8.64,8.64,0,0,1-.691-1.97c-1.9-8.236-6.709-4.967-6.709-4.967-1.159,6.443-19.107,23.5-19.107,23.5l-.355.355c-1.78,1.825-9.712,10.39-9.148,17.7a21.457,21.457,0,0,1-1.2,8.008,135.415,135.415,0,0,0-6.24,35.477Z" transform="translate(101.751 -119.211)"/><path class="d" d="M385.135,310.45s4.435,10.77,7.761,12.512S383.552,326.636,385.135,310.45Z" transform="translate(62.532 -148.639)"/><path class="d" d="M387.38,342.2s10.136,1.267,10.136,3.168S387.38,342.2,387.38,342.2Z" transform="translate(56.961 -160.275)"/><path class="d" d="M389.6,361.7s14.729,31.359,18.847,32.309S389.6,361.7,389.6,361.7Z" transform="translate(44.13 -167.422)"/><path class="d" d="M368,256.592l12.182,5.3,14.7-22.211a8.643,8.643,0,0,1-.691-1.97c-1.9-8.236-6.709-4.967-6.709-4.967-1.159,6.443-19.107,23.5-19.107,23.5Z" transform="translate(71.869 -119.925)"/><path class="e" d="M369,254.592l12.183,5.3,14.7-22.211a8.64,8.64,0,0,1-.691-1.97c-1.9-8.236-6.709-4.967-6.709-4.967-1.159,6.443-19.107,23.5-19.107,23.5Z" transform="translate(70.235 -119.192)"/><path class="d" d="M331.08,391.4s13.659-1.267,26.4-2.661l-22.87,5.987V401.7c1,.906,1.869,1.375,2.433,1.134,2.635-1.109,24.143-4.593,24.143-4.593s12.493-6.335,25.974-13.937a10.418,10.418,0,0,0,.95-.6,14.977,14.977,0,0,0,3.991-4c2.49-3.6,3.706-8.236,4.232-12.778a55.257,55.257,0,0,0,.329-7.843,64.3,64.3,0,0,0-.811-8.863,291.453,291.453,0,0,0,1.9-34.21c-.158-17.738-16.788-24.074-16.788-24.074-30.567-2.692-21.09,46.722-21.09,46.722s1.767,13.937,2.249,15.363,2.211,3.8,1.977,7.127-6.075,7.3-6.075,7.3-5.7,2.673-8.052,6.633c-1.711,2.921-12.822,6.88-19.1,9.705Z" transform="translate(92.513 -141.816)"/><path class="d" d="M384.309,177.319a7.171,7.171,0,0,0,.634,3.028,18.719,18.719,0,0,0,1.128,2.255,10.39,10.39,0,0,0,2.775,3.446,14.194,14.194,0,0,0,5.068,1.761c1.755.424,3.579,1.1,4.58,2.6a9.085,9.085,0,0,1,1.071,3.1,6.678,6.678,0,0,0,1.267,3,2.49,2.49,0,0,0,2.965.71,3,3,0,0,0,1.147-1.476,21.169,21.169,0,0,0,1.2-5.188,11.039,11.039,0,0,1,1.78-4.973,4.453,4.453,0,0,1,4.675-1.793,4.5,4.5,0,0,1,2.534,2.458,14.089,14.089,0,0,1,.957,3.5q1.178,6.449,2.781,12.822a1.178,1.178,0,0,0,.209.481.912.912,0,0,0,.634.266c1.419.19,2.781-.8,4.213-.7a2.417,2.417,0,0,1,.437.07,22.635,22.635,0,0,0-2.287-25.847l-.114-.032a6.83,6.83,0,0,1-2.534-1.6,26.751,26.751,0,0,1-2.534-2.933l-.507-.634a28.9,28.9,0,0,0-4.941-4.694,5.069,5.069,0,0,0-1.685-.912,4.992,4.992,0,0,0-1.6-.051,40.274,40.274,0,0,1-6.595.247,42.307,42.307,0,0,0-4.631-.469c-4.01.114-7.431,2.946-9.965,6.05A9.371,9.371,0,0,0,384.309,177.319Z" transform="translate(29.046 -95.617)"/><path class="f" d="M416.475,180.53c.881,1.444,2.471,2.426,3.066,4.01.874,2.3-.6,5.163.754,7.216.45.691,1.191,1.2,1.444,2,.431,1.337-.748,2.762-.443,4.137s2.116,2.534,1.634,3.877a2.534,2.534,0,0,1-1.394,1.267,5.448,5.448,0,0,1-3.168.7c-1.729-.285-3.016-1.983-4.77-2.11-1.425-.1-2.787.887-4.207.7a.95.95,0,0,1-.634-.272,1.1,1.1,0,0,1-.209-.481q-1.6-6.367-2.788-12.822a13.812,13.812,0,0,0-.95-3.5,4.542,4.542,0,0,0-2.534-2.458,4.468,4.468,0,0,0-4.675,1.793,10.973,10.973,0,0,0-1.786,4.973,21.453,21.453,0,0,1-1.191,5.188,3.028,3.028,0,0,1-1.153,1.482,2.481,2.481,0,0,1-2.958-.71,6.608,6.608,0,0,1-1.267-3.009,9.047,9.047,0,0,0-1.071-3.1c-1-1.5-2.832-2.173-4.58-2.6a14.334,14.334,0,0,1-5.068-1.768,10.428,10.428,0,0,1-2.775-3.44,10.127,10.127,0,0,1-1.736-5.29c.082-2.053,1.3-3.883,2.6-5.48,2.534-3.1,5.961-5.936,9.972-6.044a39.407,39.407,0,0,1,4.631.469,39.639,39.639,0,0,0,6.595-.253,5.182,5.182,0,0,1,1.6.057,4.776,4.776,0,0,1,1.679.912,28.907,28.907,0,0,1,4.948,4.688,36.311,36.311,0,0,0,3.054,3.548,6.874,6.874,0,0,0,2.534,1.6c.634.177,1.267.051,1.869.247C415.36,176.659,415.607,179.1,416.475,180.53Z" transform="translate(39.934 -95.261)"/><path class="d" d="M464.475,211.6c5.068.931,9.268-3.168,11.593-6.158a24.848,24.848,0,0,0,1.945-2.863l-17.4,3.282-.7.133S456.714,210.182,464.475,211.6Z" transform="translate(-69.073 -109.107)"/><g class="g" transform="translate(413.985 80.435)"><path d="M375.887,212.763a5.277,5.277,0,0,1,.367-2.433c0,.063.057.127.076.19a4.715,4.715,0,0,1-.329,2.61A1.9,1.9,0,0,1,375.887,212.763Z" transform="translate(-328.641 -192.382)"/><path d="M379.128,197.8a14.077,14.077,0,0,1-.051,2.629,14.116,14.116,0,0,1,.051-2.629Z" transform="translate(-333.39 -187.79)"/><path d="M375.7,186.086a10.39,10.39,0,0,0,2.775,3.446,14.152,14.152,0,0,0,5.068,1.761c1.761.424,3.579,1.1,4.58,2.6A9.128,9.128,0,0,1,389.2,197,6.633,6.633,0,0,0,390.465,200a2.473,2.473,0,0,0,2.959.71,3.028,3.028,0,0,0,1.153-1.482,21.093,21.093,0,0,0,1.191-5.189,10.946,10.946,0,0,1,1.786-4.973,4.453,4.453,0,0,1,4.675-1.793,4.523,4.523,0,0,1,2.534,2.458,13.81,13.81,0,0,1,.95,3.5q1.185,6.456,2.787,12.822a1.1,1.1,0,0,0,.209.481.95.95,0,0,0,.634.272c1.419.184,2.781-.8,4.207-.7,1.755.127,3.041,1.825,4.77,2.1a5.353,5.353,0,0,0,3.168-.7,3.39,3.39,0,0,0,1.159-.824,1.71,1.71,0,0,1,.234,1.476,2.471,2.471,0,0,1-1.394,1.267,5.353,5.353,0,0,1-3.168.7c-1.729-.279-3.016-1.977-4.77-2.1-1.425-.1-2.787.887-4.207.7a.95.95,0,0,1-.634-.272,1.1,1.1,0,0,1-.209-.481q-1.6-6.335-2.787-12.822a13.809,13.809,0,0,0-.95-3.5,4.523,4.523,0,0,0-2.534-2.458,4.457,4.457,0,0,0-4.675,1.793,10.972,10.972,0,0,0-1.786,4.973,21.453,21.453,0,0,1-1.191,5.188,3.028,3.028,0,0,1-1.153,1.482,2.481,2.481,0,0,1-2.958-.71,6.632,6.632,0,0,1-1.267-3.009,9.128,9.128,0,0,0-1.071-3.1c-1-1.5-2.832-2.167-4.58-2.6a14.45,14.45,0,0,1-5.068-1.761,10.389,10.389,0,0,1-2.775-3.446,10.087,10.087,0,0,1-1.736-5.284,6.808,6.808,0,0,1,.076-.722A12.448,12.448,0,0,0,375.7,186.086Z" transform="translate(-373.964 -182)"/></g><path class="d" d="M391.789,182.036a22.382,22.382,0,0,0-2.819,9.408c5.645-3.168,10.954-6.646,13.633-7.856,4.669-2.11,22.129-1.793,28.692-1.6a22.13,22.13,0,0,0-2.395-3.459,22.921,22.921,0,0,0-5.227-4.574,22.661,22.661,0,0,0-31.917,8.065Z" transform="translate(22.175 -97.325)"/><path class="d" d="M462.3,208.915c3.047.938,8.02-.874,13.177-3.472a24.848,24.848,0,0,0,1.945-2.863l-17.4,3.282C458.876,206.647,458.585,207.769,462.3,208.915Z" transform="translate(-68.485 -109.107)"/><path class="h" d="M426.666,154.063s16.63-.95,21.305,8.077l.754,8,1.267-.139.253,5.442s-25.417-1.109-31.2,1.5-23.757,15.762-30.96,13.545.634-4.276.634-4.276,9.914-4.2,9.914-7.494S401.091,158.023,426.666,154.063Z" transform="translate(5.714 -91.316)"/><path class="d" d="M386.834,622.28s-10.611,10.295-15.2,9.5C371.63,631.783,384.617,630.674,386.834,622.28Z" transform="translate(77.621 -262.92)"/><path class="d" d="M372.237,629.81s-.95,5.3-3.484,4.777S372.237,629.81,372.237,629.81Z" transform="translate(94.435 -265.68)"/><path class="d" d="M374.154,769.53s15.065,11.72,12.525,12.037S374.154,769.53,374.154,769.53Z" transform="translate(75.888 -316.885)"/><path class="j" d="M379.741,342.738,330.96,334.8v46.183l46.348-2.426Z" transform="translate(50.15 -122.701)"/><path class="k" d="M379.741,342.738,330.96,334.8v46.183l46.348-2.426Z" transform="translate(50.15 -122.701)"/><path class="j" d="M466.459,334.8l-58.5,4.378,3.237,40.19,55.262,1.615Z" transform="translate(-85.349 -122.701)"/><path class="d" d="M466.459,334.8l-58.5,4.378,3.237,40.19,55.262,1.615Z" transform="translate(-85.349 -122.701)"/><path class="j" d="M458.033,312.55l17.986,14.1-58.5,4.378L407.96,316.6Z" transform="translate(-94.909 -114.547)"/><path class="j" d="M369.523,319.937l-43.915-5.347-22.528,12.8,48.781,7.938Z" transform="translate(78.03 -115.294)"/><path class="j" d="M330.96,351.385v63.142l22.851-2.344,9.94-1.014,3.028-.317,9.934-1.02,13.722-1.406v-61.1l-48.774,3.32Z" transform="translate(39.456 -127.293)"/><path class="j" d="M424.84,341.71v61.578l18.315,3.516,8.907,1.711,20.583,3.953V349.325Z" transform="translate(-102.229 -125.233)"/><path class="k" d="M424.84,341.71v61.578l18.315,3.516,8.907,1.711,20.583,3.953V349.325Z" transform="translate(-102.229 -125.233)"/><path class="j" d="M380.217,360.621,362.554,347.33l-59.474,4.055,8.755,14.748Z" transform="translate(67.336 -127.293)"/><path class="l" d="M380.217,360.621,362.554,347.33l-59.474,4.055,8.755,14.748Z" transform="translate(67.336 -127.293)"/><path class="j" d="M443.8,341.71l47.805,7.615-15.559,13.937-51.207-8.59Z" transform="translate(-121.19 -125.233)"/><path class="l" d="M443.8,341.71l47.805,7.615-15.559,13.937-51.207-8.59Z" transform="translate(-121.19 -125.233)"/><path class="l" d="M457.33,436.621l8.907,1.711V425.173l-8.343-2.1Z" transform="translate(-116.404 -155.051)"/><path class="l" d="M373.08,435.96v8.7l9.94-1.014V435.96Z" transform="translate(20.187 -159.775)"/><path class="l" d="M352.62,440.29v4.631l9.934-1.02V440.29Z" transform="translate(53.615 -161.361)"/><path class="d" d="M435.05,469.041c6.81,8.711,29.3,2.692,29.3,2.692L481.062,454.3l2.268-2.363L478.9,443.7s-1.267.418-3.383,1.153C464.312,448.768,429.317,461.711,435.05,469.041Z" transform="translate(-58.653 -197.473)"/><path class="c" d="M434.05,467.041c6.81,8.711,29.3,2.692,29.3,2.692L480.062,452.3l2.268-2.363L477.9,441.7s-1.267.418-3.383,1.153C463.312,446.768,428.317,459.711,434.05,467.041Z" transform="translate(-57.02 -196.741)"/><path class="d" d="M433.38,442.853a37.454,37.454,0,0,0,5.55,9.446l2.268-2.363-4.435-8.236S435.49,442.118,433.38,442.853Z" transform="translate(-15.862 -196.741)"/><path class="e" d="M386.37,287.937s16.63,6.335,16.788,24.074a291.468,291.468,0,0,1-1.9,34.21s4.751,26.449-8.711,34.051-25.974,13.937-25.974,13.937-21.508,3.484-24.15,4.593-11.821-13.145-10.4-15.521,21.007-8.236,23.332-12.2,8.052-6.627,8.052-6.627,5.841-3.985,6.075-7.311-1.489-5.7-1.977-7.127-2.255-15.363-2.255-15.363S355.8,285.213,386.37,287.937Z" transform="translate(86.479 -140.349)"/><path class="d" d="M337.478,380.7s22.49,2.534,20.748,10.453A47.314,47.314,0,0,0,337.478,380.7Z" transform="translate(127.769 -174.385)"/><path class="d" d="M353.476,385.7s12.765,9.344,10.421,9.978S353.476,385.7,353.476,385.7Z" transform="translate(111.771 -176.217)"/><path class="d" d="M375.932,391.7s3.643,6.551,1.584,6.208S375.932,391.7,375.932,391.7Z" transform="translate(83.613 -178.416)"/><path class="j" d="M715.562,167.4s24.074-1.451,21.261,15.439a4.12,4.12,0,0,1-2.141,4.34s-.044-1.267-2.471-.83a11.093,11.093,0,0,1-2.616.127,5.429,5.429,0,0,1-3.206-1.324h0s-6.772-2.794-9.408-13.868c0,0-1.951-2.42-1.9-3.041l4.067,1.742s-1.387,2.933-.291,5.372c0,0,.127-5.265.912-5.144.158,0,2.11,1.02,2.11,1.02s-2.388,5.106-.583,8.825c0,0-.684-6.3,1.33-8.457l2.864,1.672s-2.794,5.277-.9,9.585c0,0-.488-6.608,1.5-9.18l2.6,2.021s-2.629,5.208-1.026,8.781c0,0,.209-7.691,1.59-8.274a15.67,15.67,0,0,1,2.61,2.825s-1.793,3.8-.678,5.771c0,0,.684-5.125,1.267-5.15,0,0,2.262,3.4,2.5,5.7A12.328,12.328,0,0,0,733,179.312a6.785,6.785,0,0,1,3.459,1.793s-.348-2.4-4.016-2.61a17.33,17.33,0,0,0-2.369-2.737s3.649-.3,5.86.678c0,0-1.945-2.262-6.532-1.267l-2.534-2.091s4.8-.634,6.842.07c0,0-2.344-2-7.533-.545l-2.788-1.666a25.028,25.028,0,0,1,6.532-.564s-2.572-1.387-7.349.114l-2-.893s3-.589,3.877-.684.925-.336.925-.336a10.364,10.364,0,0,0-5.632.634S715.473,167.668,715.562,167.4Z" transform="translate(-490.176 -96.203)"/><path class="a" d="M830.966,300.742s24.074-1.451,21.261,15.439a4.12,4.12,0,0,1-2.141,4.34s-.044-1.267-2.477-.83a11.091,11.091,0,0,1-2.616.127,5.423,5.423,0,0,1-3.168-1.318h0s-6.779-2.8-9.414-13.874c0,0-1.945-2.414-1.869-3.035l4.067,1.736s-1.387,2.933-.3,5.372c0,0,.133-5.265.912-5.144.158,0,2.116,1.02,2.116,1.02s-2.395,5.112-.589,8.825c0,0-.684-6.3,1.337-8.457l2.832,1.653s-2.794,5.277-.9,9.585c0,0-.488-6.608,1.5-9.18l2.591,2.027s-2.623,5.2-1.026,8.774c0,0,.209-7.691,1.59-8.274a15.888,15.888,0,0,1,2.616,2.825s-1.8,3.8-.684,5.771c0,0,.684-5.125,1.267-5.151,0,0,2.262,3.4,2.5,5.7a12.366,12.366,0,0,0-1.951-6.044,6.816,6.816,0,0,1,3.465,1.793s-.355-2.4-4.023-2.61c0,0-1.869-2.578-2.369-2.737,0,0,3.649-.3,5.86.678,0,0-1.945-2.262-6.525-1.235l-2.534-2.091s4.808-.634,6.842.07c0,0-2.344-2-7.533-.545l-2.787-1.666a25.386,25.386,0,0,1,6.538-.564s-2.578-1.387-7.355.114l-2-.893s3-.589,3.883-.684.925-.336.925-.336a10.383,10.383,0,0,0-5.638.634S830.89,301.008,830.966,300.742Z" transform="translate(-678.726 -145.07)"/><path class="a" d="M608.53,263.315s-5.543-23.5,11.587-23.579a4.115,4.115,0,0,1,4.637,1.368s-1.223.26-.393,2.578a11.278,11.278,0,0,1,.57,2.534,5.442,5.442,0,0,1-.754,3.377h0s-1.6,7.159-12.037,11.644c0,0-2.053,2.331-2.673,2.357l1.014-4.3s3.13.868,5.347-.634c0,0-5.214.767-5.22,0,0-.158.634-2.255.634-2.255s5.442,1.482,8.8-.931c0,0-6.088,1.749-8.565.133l1.14-3.117s5.7,1.856,9.6-.748c0,0-6.43,1.609-9.306.089l1.552-2.9s5.575,1.7,8.825-.488c0,0-7.6,1.1-8.426-.152a15.74,15.74,0,0,1,2.338-3.06s4.029,1.128,5.8-.31c0,0-5.163.2-5.284-.348,0,0,2.959-2.806,5.214-3.44a12.416,12.416,0,0,0-5.632,2.952,6.836,6.836,0,0,1,1.178-3.719s-2.306.76-1.9,4.435c0,0-2.217,2.281-2.287,2.8,0,0-.919-3.541-.329-5.892,0,0-1.9,2.306-.108,6.646l-1.622,2.883s-1.47-4.625-1.1-6.753c0,0-1.577,2.648.748,7.513l-1.172,3.035a25.369,25.369,0,0,1-1.666-6.335s-.931,2.775,1.368,7.228l-.545,2.116s-1.09-2.857-1.33-3.706-.488-.855-.488-.855a10.377,10.377,0,0,0,1.577,5.448S608.8,263.347,608.53,263.315Z" transform="translate(-310.043 -122.639)"/><path class="a" d="M507.157,286.209s19.335-14.463,26.247,1.2a4.123,4.123,0,0,1,.6,4.8s-.722-1.02-2.534.672a11.092,11.092,0,0,1-2.116,1.546,5.436,5.436,0,0,1-3.4.634h0s-7.2,1.387-15.483-6.411c0,0-2.958-.95-3.237-1.508l4.365-.767s.456,3.212,2.705,4.65c0,0-2.781-4.473-2.059-4.8.146-.07,2.325-.317,2.325-.317s.811,5.588,4.359,7.7c0,0-4.036-4.884-3.535-7.8l3.313-.177s.564,5.949,4.517,8.508c0,0-4.035-5.252-3.8-8.5l3.282.266s.665,5.784,3.966,7.887c0,0-4.048-6.538-3.218-7.78a15.925,15.925,0,0,1,3.738.919s.577,4.143,2.6,5.195c0,0-2.249-4.656-1.793-4.979,0,0,3.757,1.59,5.233,3.4a12.373,12.373,0,0,0-4.954-3.978,6.823,6.823,0,0,1,3.877-.405s-1.609-1.812-4.789.032c0,0-2.978-1.121-3.484-.982,0,0,2.883-2.262,5.271-2.654,0,0-2.876-.824-6.139,2.534l-3.288-.336s3.655-3.168,5.752-3.7c0,0-3.06-.386-6.589,3.681l-3.244.146a25.288,25.288,0,0,1,5.144-4.067s-2.908.253-6.075,4.137l-2.16.348s2.186-2.141,2.87-2.7.589-.792.589-.792a10.409,10.409,0,0,0-4.365,3.624S507.239,286.469,507.157,286.209Z" transform="translate(-155.949 -137.525)"/><path class="a" d="M608.767,74.1s19.335-14.47,26.247,1.2a4.123,4.123,0,0,1,.6,4.8s-.722-1.02-2.534.672a11.272,11.272,0,0,1-2.122,1.539,5.429,5.429,0,0,1-3.4.634h0s-7.2,1.387-15.483-6.418c0,0-2.958-.944-3.231-1.508l4.365-.754s.45,3.212,2.705,4.65c0,0-2.787-4.473-2.065-4.8.146-.07,2.325-.317,2.325-.317s.836,5.6,4.384,7.7c0,0-4.029-4.884-3.535-7.8l3.313-.177s.57,5.949,4.517,8.5c0,0-4.035-5.252-3.8-8.5l3.275.266s.672,5.79,3.972,7.894c0,0-4.055-6.538-3.225-7.78a15.925,15.925,0,0,1,3.738.919s.576,4.143,2.6,5.195c0,0-2.249-4.656-1.793-4.986,0,0,3.757,1.6,5.233,3.408a12.316,12.316,0,0,0-4.954-3.978,6.779,6.779,0,0,1,3.883-.405s-1.615-1.812-4.8.032c0,0-2.978-1.128-3.484-.982,0,0,2.883-2.262,5.271-2.661,0,0-2.87-.817-6.132,2.534l-3.288-.336S625,69.486,627.1,68.947c0,0-3.06-.38-6.595,3.687l-3.244.139a25.029,25.029,0,0,1,5.15-4.061s-2.914.253-6.082,4.137l-2.154.348s2.192-2.116,2.876-2.661.589-.786.589-.786a10.389,10.389,0,0,0-4.365,3.624S608.874,74.339,608.767,74.1Z" transform="translate(-321.93 -59.789)"/><path class="a" d="M728.34,97.306s7.729-22.876,22.306-13.887a4.164,4.164,0,0,1,3.212,3.617s-1.172-.431-1.692,1.977a11.4,11.4,0,0,1-.868,2.477,5.486,5.486,0,0,1-2.433,2.464h0s-5.144,5.227-16.4,3.5c0,0-2.971.9-3.516.589l3.168-3.111s2.192,2.388,4.865,2.293c0,0-4.834-2.1-4.435-2.781.082-.133,1.736-1.571,1.736-1.571s3.839,4.137,7.957,3.864c0,0-6.088-1.736-7.33-4.435l2.623-2.021s3.839,4.574,8.546,4.435c0,0-6.335-2.034-7.938-4.846L741,88.228s3.8,4.39,7.741,4.251c0,0-7.045-3.085-7.064-4.58a15.839,15.839,0,0,1,3.6-1.362s2.825,3.085,5.068,2.806c0,0-4.485-2.566-4.3-3.092,0,0,3.991-.817,6.24-.158a12.347,12.347,0,0,0-6.335-.475,6.835,6.835,0,0,1,2.971-2.534s-2.357-.576-3.934,2.743c0,0-3.092.767-3.421,1.166,0,0,1.09-3.491,2.832-5.176,0,0-2.832.957-3.6,5.588l-2.9,1.584s1.2-4.694,2.642-6.335c0,0-2.743,1.419-3.339,6.772l-2.6,1.958a25.182,25.182,0,0,1,1.939-6.272s-2.255,1.863-2.661,6.861L732.3,93.479s.583-3,.824-3.852.044-.906.044-.906a10.447,10.447,0,0,0-1.539,5.461S728.562,97.471,728.34,97.306Z" transform="translate(-515.384 -64.669)"/><path class="a" d="M654.484,108.242s24.01-2.673,22.027,14.362a4.112,4.112,0,0,1-1.9,4.435s-.108-1.267-2.534-.7a11.657,11.657,0,0,1-2.61.26,5.448,5.448,0,0,1-3.263-1.159h0s-6.912-2.452-10.136-13.38c0,0-2.065-2.312-2.021-2.94l4.149,1.533s-1.267,3,0,5.379c0,0-.133-5.265.633-5.182.158,0,2.16.912,2.16.912s-2.129,5.227-.139,8.869c0,0-1-6.259.906-8.514l2.946,1.52s-2.534,5.417-.412,9.623c0,0-.824-6.576,1.033-9.243l2.692,1.9s-2.357,5.328-.576,8.819c0,0-.184-7.691,1.166-8.343a16.48,16.48,0,0,1,2.756,2.686s-1.6,3.864-.393,5.8c0,0,.424-5.15.982-5.2,0,0,2.433,3.275,2.787,5.588a12.334,12.334,0,0,0-2.255-5.942,6.817,6.817,0,0,1,3.548,1.615s-.469-2.376-4.143-2.4c0,0-2-2.477-2.534-2.61,0,0,3.63-.488,5.892.38,0,0-2.059-2.167-6.582-.906l-2.667-1.958s4.821-.976,6.861-.342c0,0-2.445-1.9-7.552-.158l-2.87-1.527a25.225,25.225,0,0,1,6.5-.893s-2.642-1.267-7.336.488l-2.04-.792s2.971-.741,3.845-.881.906-.38.906-.38a10.421,10.421,0,0,0-5.6.912S654.44,108.508,654.484,108.242Z" transform="translate(-391.088 -74.477)"/><path class="a" d="M986.085,402.412s24-2.673,22.015,14.343a4.112,4.112,0,0,1-1.9,4.435s-.108-1.267-2.534-.7a10.959,10.959,0,0,1-2.61.26,5.4,5.4,0,0,1-3.263-1.159h0s-6.912-2.452-10.1-13.374c0,0-2.065-2.319-2.021-2.94l4.15,1.527s-1.267,3,0,5.385c0,0-.133-5.271.634-5.182.158,0,2.16.906,2.16.906s-2.129,5.227-.139,8.869c0,0-1-6.253.906-8.514l2.946,1.527s-2.534,5.417-.418,9.623c0,0-.817-6.576,1.039-9.249l2.693,1.9s-2.357,5.328-.577,8.812c0,0-.184-7.691,1.166-8.337a16.73,16.73,0,0,1,2.756,2.686s-1.609,3.865-.393,5.8c0,0,.424-5.151.982-5.2,0,0,2.433,3.275,2.787,5.588a12.335,12.335,0,0,0-2.255-5.942,6.759,6.759,0,0,1,3.548,1.615s-.469-2.382-4.143-2.407c0,0-2-2.477-2.534-2.6,0,0,3.63-.494,5.892.374,0,0-2.059-2.16-6.589-.9l-2.661-1.958s4.764-.9,6.836-.279c0,0-2.445-1.9-7.551-.165l-2.87-1.52a25.224,25.224,0,0,1,6.5-.893s-2.642-1.267-7.336.488l-2.04-.8s2.971-.741,3.845-.874.906-.38.906-.38a10.384,10.384,0,0,0-5.6.906S986.022,402.684,986.085,402.412Z" transform="translate(-932.762 -182.286)"/><path class="a" d="M1043.97,437.792s24-2.667,22.015,14.343a4.124,4.124,0,0,1-1.9,4.435s-.108-1.267-2.534-.7a11.184,11.184,0,0,1-2.6.253,5.473,5.473,0,0,1-3.25-1.153h0s-6.905-2.452-10.1-13.38c0,0-2.072-2.312-2.021-2.94l4.15,1.527s-1.267,3,0,5.385c0,0-.133-5.264.634-5.182.158,0,2.16.906,2.16.906s-2.129,5.227-.139,8.869c0,0-1-6.253.906-8.508l2.946,1.52s-2.534,5.417-.418,9.623c0,0-.817-6.576,1.039-9.243l2.693,1.9s-2.357,5.328-.583,8.819c0,0-.177-7.7,1.172-8.343a16.725,16.725,0,0,1,2.756,2.686s-1.609,3.864-.393,5.8c0,0,.424-5.151.982-5.2,0,0,2.433,3.275,2.781,5.588a12.366,12.366,0,0,0-2.249-5.942,6.817,6.817,0,0,1,3.548,1.615s-.475-2.382-4.15-2.4c0,0-2-2.477-2.534-2.61,0,0,3.63-.488,5.892.38,0,0-2.059-2.167-6.589-.906l-2.661-1.958s4.764-.9,6.836-.279c0,0-2.445-1.9-7.552-.158l-2.87-1.527a25.224,25.224,0,0,1,6.5-.893s-2.642-1.267-7.336.488l-2.04-.792s2.971-.741,3.839-.881.912-.38.912-.38a10.422,10.422,0,0,0-5.6.912S1043.906,438.064,1043.97,437.792Z" transform="translate(-1027.334 -195.253)"/><path class="a" d="M906.707,136.349s19.335-14.463,26.247,1.2a4.123,4.123,0,0,1,.6,4.8s-.722-1.02-2.534.672a11.087,11.087,0,0,1-2.116,1.546,5.442,5.442,0,0,1-3.4.634h0s-7.2,1.387-15.489-6.411c0,0-2.952-.95-3.231-1.508l4.352-.786s.456,3.212,2.705,4.65c0,0-2.781-4.473-2.059-4.8.146-.07,2.319-.317,2.319-.317s.817,5.588,4.365,7.7c0,0-4.036-4.884-3.535-7.8l3.313-.177s.564,5.949,4.517,8.508c0,0-4.042-5.252-3.8-8.5l3.282.266s.634,5.784,3.966,7.887c0,0-4.055-6.538-3.218-7.78a15.927,15.927,0,0,1,3.738.919s.57,4.143,2.6,5.195c0,0-2.243-4.656-1.786-4.979,0,0,3.757,1.59,5.233,3.4a12.374,12.374,0,0,0-4.954-3.978,6.823,6.823,0,0,1,3.877-.405s-1.615-1.812-4.8.032c0,0-2.971-1.121-3.478-.982,0,0,2.882-2.262,5.271-2.654,0,0-2.876-.824-6.139,2.534l-3.288-.336s3.649-3.168,5.752-3.7c0,0-3.06-.386-6.589,3.681l-3.25.146a25.4,25.4,0,0,1,5.151-4.067s-2.914.253-6.075,4.137l-2.16.348s2.186-2.141,2.87-2.7.583-.741.583-.741a10.415,10.415,0,0,0-4.358,3.624S906.789,136.609,906.707,136.349Z" transform="translate(-808.62 -82.604)"/><path class="a" d="M934.01,295.041s6.665-23.206,21.654-14.875a4.116,4.116,0,0,1,3.377,3.465s-1.191-.374-1.6,2.053a11.227,11.227,0,0,1-.76,2.534,5.442,5.442,0,0,1-2.319,2.585h0s-4.9,5.448-16.218,4.232c0,0-2.927,1.026-3.484.748l3-3.256s2.3,2.293,4.96,2.078c0,0-4.916-1.9-4.536-2.578.076-.139,1.66-1.653,1.66-1.653s4.016,3.966,8.122,3.5c0,0-6.164-1.457-7.52-4.08l2.534-2.141s4.042,4.4,8.736,4.055c0,0-6.386-1.755-8.147-4.485l2.775-1.768s4.023,4.213,7.925,3.9c0,0-7.178-2.768-7.266-4.257a15.814,15.814,0,0,1,3.541-1.52s2.958,2.952,5.207,2.572c0,0-4.6-2.363-4.435-2.9,0,0,3.953-.995,6.227-.443a12.36,12.36,0,0,0-6.335-.184,6.8,6.8,0,0,1,2.851-2.661s-2.382-.475-3.8,2.914c0,0-3.047.9-3.364,1.318,0,0,.931-3.541,2.6-5.3,0,0-2.787,1.077-3.351,5.74l-2.826,1.717s.988-4.751,2.357-6.424c0,0-2.673,1.539-3.034,6.912L940,288.914a25.126,25.126,0,0,1,1.653-6.335s-2.173,1.964-2.35,6.969l-1.508,1.584s.443-3.028.634-3.89,0-.982,0-.982a10.383,10.383,0,0,0-1.3,5.524S934.238,295.193,934.01,295.041Z" transform="translate(-850.862 -136.879)"/><path class="a" d="M696.031,380.244s12.943-20.387,24.961-8.185a4.1,4.1,0,0,1,2.268,4.276s-1.045-.7-2.122,1.52a10.849,10.849,0,0,1-1.432,2.192,5.411,5.411,0,0,1-2.946,1.825h0s-6.24,3.852-16.757-.507c0,0-3.1.165-3.554-.26l3.8-2.281s1.565,2.851,4.181,3.389c0,0-4.194-3.168-3.63-3.75.108-.114,2.059-1.115,2.059-1.115s2.743,4.929,6.81,5.645c0,0-5.505-3.136-6.075-6.037l3.035-1.337s2.642,5.353,7.241,6.335c0,0-5.638-3.478-6.557-6.595l3.168-.912s2.673,5.176,6.506,5.968c0,0-6.107-4.675-5.771-6.132a15.737,15.737,0,0,1,3.8-.462s2.008,3.668,4.276,3.934c0,0-3.75-3.56-3.44-4.029,0,0,4.073.158,6.1,1.33a12.328,12.328,0,0,0-6.044-1.964,6.8,6.8,0,0,1,3.478-1.755s-2.148-1.121-4.435,1.73c0,0-3.168,0-3.6.317,0,0,1.9-3.168,3.985-4.352,0,0-2.978.253-4.827,4.568l-3.2.849s2.287-4.276,4.067-5.5c0,0-3,.722-4.853,5.784L703.531,376a25.25,25.25,0,0,1,3.377-5.626s-2.635,1.267-4.213,6.025l-1.9,1.1s1.267-2.781,1.717-3.548.272-.944.272-.944a10.389,10.389,0,0,0-2.794,4.935S696.2,380.459,696.031,380.244Z" transform="translate(-464.373 -169.792)"/><path class="j" d="M830.53,215.527s12.309-20.773,24.707-8.952a4.12,4.12,0,0,1,2.395,4.207s-1.058-.672-2.072,1.577A10.953,10.953,0,0,1,854.2,214.6a5.379,5.379,0,0,1-2.889,1.9h0s-6.114,4.042-16.763,0c0,0-3.092.26-3.56-.152l3.719-2.395s1.647,2.794,4.283,3.256c0,0-4.289-3.06-3.75-3.636.114-.12,2.027-1.185,2.027-1.185s2.9,4.846,6.969,5.436c0,0-5.6-2.965-6.253-5.841l2.99-1.406s2.806,5.277,7.437,6.12c0,0-5.746-3.3-6.76-6.386l3.13-1.014s2.838,5.068,6.69,5.765c0,0-6.246-4.485-5.955-5.949a15.647,15.647,0,0,1,3.8-.583s2.122,3.6,4.4,3.8c0,0-3.858-3.434-3.567-3.915,0,0,4.08.032,6.139,1.14a12.366,12.366,0,0,0-6.1-1.774,6.81,6.81,0,0,1,3.427-1.863s-2.186-1.058-4.435,1.863c0,0-3.168.108-3.592.431a15.153,15.153,0,0,1,3.845-4.473s-2.965.342-4.682,4.713l-3.167.95s2.148-4.346,3.9-5.626c0,0-2.978.817-4.675,5.93l-2.946,1.375a25.45,25.45,0,0,1,3.168-5.7s-2.591,1.349-4.029,6.151l-1.856,1.153s1.191-2.819,1.609-3.6.241-.95.241-.95a10.407,10.407,0,0,0-2.642,5.017S830.714,215.736,830.53,215.527Z" transform="translate(-683.935 -109.238)"/><path class="j" d="M718.233,279.575s-.633-24.137,16.136-20.735a4.128,4.128,0,0,1,4.27,2.287s-1.267,0-.912,2.439a11.122,11.122,0,0,1,.038,2.623,5.416,5.416,0,0,1-1.425,3.168h0s-3.022,6.677-14.178,8.945c0,0-2.477,1.869-3.1,1.768l1.9-4s2.882,1.482,5.359.475c0,0-5.258-.31-5.112-1.083,0-.158,1.09-2.084,1.09-2.084s5.03,2.566,8.8.881c0,0-6.335.475-8.407-1.609l1.767-2.806s5.182,2.965,9.553,1.216c0,0-6.62.266-9.129-1.806l2.11-2.534s5.112,2.8,8.736,1.318c0,0-7.678-.462-8.236-1.863a16.433,16.433,0,0,1,2.914-2.534s3.712,1.9,5.74.874c0,0-5.068-.849-5.1-1.413,0,0,3.465-2.148,5.8-2.306a12.334,12.334,0,0,0-6.113,1.749,6.81,6.81,0,0,1,1.9-3.4s-2.414.272-2.743,3.928c0,0-2.642,1.787-2.813,2.281,0,0-.184-3.655.874-5.835,0,0-2.331,1.869-1.457,6.481l-2.173,2.5s-.494-4.827.3-6.836c0,0-2.078,2.274-.8,7.507l-1.755,2.73a25.258,25.258,0,0,1-.348-6.551s-1.47,2.534-.127,7.355l-.963,1.964s-.488-3.022-.551-3.9-.3-.938-.3-.938a10.4,10.4,0,0,0,.437,5.657S718.512,279.657,718.233,279.575Z" transform="translate(-493.76 -129.605)"/><ellipse class="a" cx="17.061" cy="2.882" rx="17.061" ry="2.882" transform="translate(179.69 450.903)"/><ellipse class="a" cx="17.061" cy="2.882" rx="17.061" ry="2.882" transform="translate(241.882 494.666)"/><ellipse class="a" cx="17.061" cy="2.882" rx="17.061" ry="2.882" transform="translate(563.493 472.246)"/><ellipse class="a" cx="17.061" cy="2.882" rx="17.061" ry="2.882" transform="translate(112.48 491.784)"/><ellipse class="j" cx="25.474" cy="4.308" rx="25.474" ry="4.308" transform="translate(86.304 453.785)"/><path class="j" d="M910.312,760.213a7.355,7.355,0,0,1-2.426-3.662,3.254,3.254,0,0,1,1.691-3.731c1.558-.6,3.225.482,4.492,1.571s2.705,2.338,4.359,2.11a6.652,6.652,0,0,1-2.052-6.215,2.6,2.6,0,0,1,.57-1.267c.868-.925,2.433-.526,3.472.2,3.294,2.319,4.213,6.791,4.232,10.82a20.338,20.338,0,0,0,.057-4.435c.006-1.47.418-3.168,1.679-3.94a5.011,5.011,0,0,1,2.534-.634c1.482-.051,3.136.1,4.143,1.178,1.267,1.343.931,3.6-.158,5.068a16.385,16.385,0,0,1-4.289,3.434,9.584,9.584,0,0,0-3.066,2.921,2.975,2.975,0,0,0-.222.519h-9.287A25.62,25.62,0,0,1,910.312,760.213Z" transform="translate(-809.096 -309.17)"/><path class="m" d="M206.507,780.829s-9.724-.3-12.67-2.388-14.97-4.58-15.7-1.229-14.622,16.655-3.636,16.744,25.524-1.71,28.451-3.5S206.507,780.829,206.507,780.829Z" transform="translate(385.501 -319.099)"/><path class="n" d="M174.3,795.823c10.985.089,25.524-1.711,28.451-3.5,2.23-1.356,3.117-6.227,3.415-8.476h.323s-.634,7.849-3.541,9.629-17.466,3.586-28.451,3.5c-3.168,0-4.264-1.153-4.207-2.825C170.736,795.171,171.946,795.8,174.3,795.823Z" transform="translate(385.516 -322.133)"/></svg>